%TF.GenerationSoftware,KiCad,Pcbnew,10.0.1*%
%TF.CreationDate,2026-05-12T01:40:20+05:30*%
%TF.ProjectId,am32_100a_esc,616d3332-5f31-4303-9061-5f6573632e6b,rev?*%
%TF.SameCoordinates,Original*%
%TF.FileFunction,Copper,L4,Bot*%
%TF.FilePolarity,Positive*%
%FSLAX46Y46*%
G04 Gerber Fmt 4.6, Leading zero omitted, Abs format (unit mm)*
G04 Created by KiCad (PCBNEW 10.0.1) date 2026-05-12 01:40:20*
%MOMM*%
%LPD*%
G01*
G04 APERTURE LIST*
G04 Aperture macros list*
%AMRoundRect*
0 Rectangle with rounded corners*
0 $1 Rounding radius*
0 $2 $3 $4 $5 $6 $7 $8 $9 X,Y pos of 4 corners*
0 Add a 4 corners polygon primitive as box body*
4,1,4,$2,$3,$4,$5,$6,$7,$8,$9,$2,$3,0*
0 Add four circle primitives for the rounded corners*
1,1,$1+$1,$2,$3*
1,1,$1+$1,$4,$5*
1,1,$1+$1,$6,$7*
1,1,$1+$1,$8,$9*
0 Add four rect primitives between the rounded corners*
20,1,$1+$1,$2,$3,$4,$5,0*
20,1,$1+$1,$4,$5,$6,$7,0*
20,1,$1+$1,$6,$7,$8,$9,0*
20,1,$1+$1,$8,$9,$2,$3,0*%
G04 Aperture macros list end*
%TA.AperFunction,Conductor*%
%ADD10C,0.200000*%
%TD*%
%TA.AperFunction,Conductor*%
%ADD11C,0.167065*%
%TD*%
%TA.AperFunction,ComponentPad*%
%ADD12C,2.500000*%
%TD*%
%TA.AperFunction,ComponentPad*%
%ADD13R,1.700000X1.700000*%
%TD*%
%TA.AperFunction,ComponentPad*%
%ADD14C,1.700000*%
%TD*%
%TA.AperFunction,ComponentPad*%
%ADD15C,0.900000*%
%TD*%
%TA.AperFunction,ComponentPad*%
%ADD16C,8.600000*%
%TD*%
%TA.AperFunction,ComponentPad*%
%ADD17C,0.800000*%
%TD*%
%TA.AperFunction,ComponentPad*%
%ADD18C,7.400000*%
%TD*%
%TA.AperFunction,SMDPad,CuDef*%
%ADD19RoundRect,0.250000X-1.100000X0.325000X-1.100000X-0.325000X1.100000X-0.325000X1.100000X0.325000X0*%
%TD*%
%TA.AperFunction,SMDPad,CuDef*%
%ADD20RoundRect,0.250000X1.100000X-0.325000X1.100000X0.325000X-1.100000X0.325000X-1.100000X-0.325000X0*%
%TD*%
%TA.AperFunction,SMDPad,CuDef*%
%ADD21RoundRect,0.225000X0.250000X-0.225000X0.250000X0.225000X-0.250000X0.225000X-0.250000X-0.225000X0*%
%TD*%
%TA.AperFunction,SMDPad,CuDef*%
%ADD22RoundRect,0.062500X0.375000X0.062500X-0.375000X0.062500X-0.375000X-0.062500X0.375000X-0.062500X0*%
%TD*%
%TA.AperFunction,SMDPad,CuDef*%
%ADD23RoundRect,0.062500X0.062500X0.375000X-0.062500X0.375000X-0.062500X-0.375000X0.062500X-0.375000X0*%
%TD*%
%TA.AperFunction,HeatsinkPad*%
%ADD24R,5.600000X5.600000*%
%TD*%
%TA.AperFunction,SMDPad,CuDef*%
%ADD25RoundRect,0.135000X-0.135000X-0.185000X0.135000X-0.185000X0.135000X0.185000X-0.135000X0.185000X0*%
%TD*%
%TA.AperFunction,SMDPad,CuDef*%
%ADD26RoundRect,0.140000X0.140000X0.170000X-0.140000X0.170000X-0.140000X-0.170000X0.140000X-0.170000X0*%
%TD*%
%TA.AperFunction,SMDPad,CuDef*%
%ADD27RoundRect,0.225000X-0.225000X-0.250000X0.225000X-0.250000X0.225000X0.250000X-0.225000X0.250000X0*%
%TD*%
%TA.AperFunction,SMDPad,CuDef*%
%ADD28RoundRect,0.225000X-0.250000X0.225000X-0.250000X-0.225000X0.250000X-0.225000X0.250000X0.225000X0*%
%TD*%
%TA.AperFunction,SMDPad,CuDef*%
%ADD29RoundRect,0.250000X2.050000X0.300000X-2.050000X0.300000X-2.050000X-0.300000X2.050000X-0.300000X0*%
%TD*%
%TA.AperFunction,SMDPad,CuDef*%
%ADD30RoundRect,0.250002X4.449998X5.149998X-4.449998X5.149998X-4.449998X-5.149998X4.449998X-5.149998X0*%
%TD*%
%TA.AperFunction,SMDPad,CuDef*%
%ADD31RoundRect,0.200000X-0.275000X0.200000X-0.275000X-0.200000X0.275000X-0.200000X0.275000X0.200000X0*%
%TD*%
%TA.AperFunction,SMDPad,CuDef*%
%ADD32RoundRect,0.135000X-0.185000X0.135000X-0.185000X-0.135000X0.185000X-0.135000X0.185000X0.135000X0*%
%TD*%
%TA.AperFunction,SMDPad,CuDef*%
%ADD33RoundRect,0.250000X0.475000X-0.250000X0.475000X0.250000X-0.475000X0.250000X-0.475000X-0.250000X0*%
%TD*%
%TA.AperFunction,SMDPad,CuDef*%
%ADD34R,2.900000X5.500000*%
%TD*%
%TA.AperFunction,ViaPad*%
%ADD35C,0.600000*%
%TD*%
%TA.AperFunction,Conductor*%
%ADD36C,1.000000*%
%TD*%
%TA.AperFunction,Conductor*%
%ADD37C,1.500000*%
%TD*%
%TA.AperFunction,Conductor*%
%ADD38C,2.000000*%
%TD*%
%TA.AperFunction,Conductor*%
%ADD39C,0.500000*%
%TD*%
%TA.AperFunction,Conductor*%
%ADD40C,0.800000*%
%TD*%
%TA.AperFunction,Conductor*%
%ADD41C,0.300000*%
%TD*%
%TA.AperFunction,Conductor*%
%ADD42C,0.400000*%
%TD*%
%TA.AperFunction,Conductor*%
%ADD43C,3.000000*%
%TD*%
%TA.AperFunction,Conductor*%
%ADD44C,0.350000*%
%TD*%
%TA.AperFunction,Conductor*%
%ADD45C,5.000000*%
%TD*%
%TA.AperFunction,Conductor*%
%ADD46C,0.325000*%
%TD*%
G04 APERTURE END LIST*
D10*
%TO.N,LOW_SIDE_SOURCE*%
X144326878Y-81459110D02*
X143676878Y-82241610D01*
X143556878Y-103896610D01*
X137826878Y-103909110D01*
X137826878Y-103896610D01*
X138120000Y-79990000D01*
X144260000Y-78170000D01*
X144326878Y-81459110D01*
%TA.AperFunction,Conductor*%
G36*
X144326878Y-81459110D02*
G01*
X143676878Y-82241610D01*
X143556878Y-103896610D01*
X137826878Y-103909110D01*
X137826878Y-103896610D01*
X138120000Y-79990000D01*
X144260000Y-78170000D01*
X144326878Y-81459110D01*
G37*
%TD.AperFunction*%
X138380000Y-99512500D02*
X138380000Y-99512500D01*
G75*
G02*
X138630000Y-99262500I250000J0D01*
G01*
X147557500Y-99262500D01*
G75*
G02*
X147807500Y-99512500I0J-250000D01*
G01*
X147807500Y-103687500D01*
G75*
G02*
X147557500Y-103937500I-250000J0D01*
G01*
X138630000Y-103937500D01*
G75*
G02*
X138380000Y-103687500I0J250000D01*
G01*
X138380000Y-99512500D01*
%TA.AperFunction,Conductor*%
G36*
X138380000Y-99512500D02*
G01*
X138380000Y-99512500D01*
G75*
G02*
X138630000Y-99262500I250000J0D01*
G01*
X147557500Y-99262500D01*
G75*
G02*
X147807500Y-99512500I0J-250000D01*
G01*
X147807500Y-103687500D01*
G75*
G02*
X147557500Y-103937500I-250000J0D01*
G01*
X138630000Y-103937500D01*
G75*
G02*
X138380000Y-103687500I0J250000D01*
G01*
X138380000Y-99512500D01*
G37*
%TD.AperFunction*%
X144100000Y-78430000D02*
X144100000Y-78430000D01*
G75*
G02*
X144350000Y-78180000I250000J0D01*
G01*
X158032500Y-78180000D01*
G75*
G02*
X158282500Y-78430000I0J-250000D01*
G01*
X158282500Y-81237500D01*
G75*
G02*
X158032500Y-81487500I-250000J0D01*
G01*
X144350000Y-81487500D01*
G75*
G02*
X144100000Y-81237500I0J250000D01*
G01*
X144100000Y-78430000D01*
%TA.AperFunction,Conductor*%
G36*
X144100000Y-78430000D02*
G01*
X144100000Y-78430000D01*
G75*
G02*
X144350000Y-78180000I250000J0D01*
G01*
X158032500Y-78180000D01*
G75*
G02*
X158282500Y-78430000I0J-250000D01*
G01*
X158282500Y-81237500D01*
G75*
G02*
X158032500Y-81487500I-250000J0D01*
G01*
X144350000Y-81487500D01*
G75*
G02*
X144100000Y-81237500I0J250000D01*
G01*
X144100000Y-78430000D01*
G37*
%TD.AperFunction*%
%TO.N,MOTORB*%
X144120000Y-93530000D02*
X184670000Y-93530000D01*
X184670000Y-98580000D01*
X144120000Y-98580000D01*
X144120000Y-93530000D01*
%TA.AperFunction,Conductor*%
G36*
X144120000Y-93530000D02*
G01*
X184670000Y-93530000D01*
X184670000Y-98580000D01*
X144120000Y-98580000D01*
X144120000Y-93530000D01*
G37*
%TD.AperFunction*%
%TO.N,MOTORC*%
X144120000Y-104650000D02*
X184670000Y-104650000D01*
X184670000Y-109700000D01*
X144120000Y-109700000D01*
X144120000Y-104650000D01*
%TA.AperFunction,Conductor*%
G36*
X144120000Y-104650000D02*
G01*
X184670000Y-104650000D01*
X184670000Y-109700000D01*
X144120000Y-109700000D01*
X144120000Y-104650000D01*
G37*
%TD.AperFunction*%
%TO.N,MOTORA*%
X144150000Y-82320000D02*
X184700000Y-82320000D01*
X184700000Y-87370000D01*
X144150000Y-87370000D01*
X144150000Y-82320000D01*
%TA.AperFunction,Conductor*%
G36*
X144150000Y-82320000D02*
G01*
X184700000Y-82320000D01*
X184700000Y-87370000D01*
X144150000Y-87370000D01*
X144150000Y-82320000D01*
G37*
%TD.AperFunction*%
%TO.N,BATT+*%
X144232500Y-88262500D02*
X144232500Y-88262500D01*
G75*
G02*
X144482500Y-88012500I250000J0D01*
G01*
X147495000Y-88012500D01*
G75*
G02*
X147745000Y-88262500I0J-250000D01*
G01*
X147745000Y-92537500D01*
G75*
G02*
X147495000Y-92787500I-250000J0D01*
G01*
X144482500Y-92787500D01*
G75*
G02*
X144232500Y-92537500I0J250000D01*
G01*
X144232500Y-88262500D01*
%TA.AperFunction,Conductor*%
G36*
X144232500Y-88262500D02*
G01*
X144232500Y-88262500D01*
G75*
G02*
X144482500Y-88012500I250000J0D01*
G01*
X147495000Y-88012500D01*
G75*
G02*
X147745000Y-88262500I0J-250000D01*
G01*
X147745000Y-92537500D01*
G75*
G02*
X147495000Y-92787500I-250000J0D01*
G01*
X144482500Y-92787500D01*
G75*
G02*
X144232500Y-92537500I0J250000D01*
G01*
X144232500Y-88262500D01*
G37*
%TD.AperFunction*%
X144379999Y-113030000D02*
X156040000Y-113030000D01*
X156040000Y-115096250D01*
X144379999Y-115096250D01*
X144379999Y-113030000D01*
%TA.AperFunction,Conductor*%
G36*
X144379999Y-113030000D02*
G01*
X156040000Y-113030000D01*
X156040000Y-115096250D01*
X144379999Y-115096250D01*
X144379999Y-113030000D01*
G37*
%TD.AperFunction*%
X144382500Y-110712500D02*
X144382500Y-110712500D01*
G75*
G02*
X144632500Y-110462500I250000J0D01*
G01*
X147545000Y-110462500D01*
G75*
G02*
X147795000Y-110712500I0J-250000D01*
G01*
X147795000Y-114837500D01*
G75*
G02*
X147545000Y-115087500I-250000J0D01*
G01*
X144632500Y-115087500D01*
G75*
G02*
X144382500Y-114837500I0J250000D01*
G01*
X144382500Y-110712500D01*
%TA.AperFunction,Conductor*%
G36*
X144382500Y-110712500D02*
G01*
X144382500Y-110712500D01*
G75*
G02*
X144632500Y-110462500I250000J0D01*
G01*
X147545000Y-110462500D01*
G75*
G02*
X147795000Y-110712500I0J-250000D01*
G01*
X147795000Y-114837500D01*
G75*
G02*
X147545000Y-115087500I-250000J0D01*
G01*
X144632500Y-115087500D01*
G75*
G02*
X144382500Y-114837500I0J250000D01*
G01*
X144382500Y-110712500D01*
G37*
%TD.AperFunction*%
X146790000Y-89899999D02*
X153809999Y-89899999D01*
X153809999Y-92773125D01*
X146790000Y-92773125D01*
X146790000Y-89899999D01*
%TA.AperFunction,Conductor*%
G36*
X146790000Y-89899999D02*
G01*
X153809999Y-89899999D01*
X153809999Y-92773125D01*
X146790000Y-92773125D01*
X146790000Y-89899999D01*
G37*
%TD.AperFunction*%
%TO.N,LOW_SIDE_SOURCE*%
X147495000Y-102700000D02*
X152495000Y-102700000D01*
X152495000Y-103925000D01*
X147495000Y-103925000D01*
X147495000Y-102700000D01*
%TO.N,BATT+*%
X152120000Y-110712500D02*
X152120000Y-110712500D01*
G75*
G02*
X152370000Y-110462500I250000J0D01*
G01*
X155807500Y-110462500D01*
G75*
G02*
X156057500Y-110712500I0J-250000D01*
G01*
X156057500Y-114837500D01*
G75*
G02*
X155807500Y-115087500I-250000J0D01*
G01*
X152370000Y-115087500D01*
G75*
G02*
X152120000Y-114837500I0J250000D01*
G01*
X152120000Y-110712500D01*
%TA.AperFunction,Conductor*%
G36*
X152120000Y-110712500D02*
G01*
X152120000Y-110712500D01*
G75*
G02*
X152370000Y-110462500I250000J0D01*
G01*
X155807500Y-110462500D01*
G75*
G02*
X156057500Y-110712500I0J-250000D01*
G01*
X156057500Y-114837500D01*
G75*
G02*
X155807500Y-115087500I-250000J0D01*
G01*
X152370000Y-115087500D01*
G75*
G02*
X152120000Y-114837500I0J250000D01*
G01*
X152120000Y-110712500D01*
G37*
%TD.AperFunction*%
%TO.N,LOW_SIDE_SOURCE*%
X152420000Y-99475000D02*
X152420000Y-99475000D01*
G75*
G02*
X152670000Y-99225000I250000J0D01*
G01*
X155795000Y-99225000D01*
G75*
G02*
X156045000Y-99475000I0J-250000D01*
G01*
X156045000Y-103675000D01*
G75*
G02*
X155795000Y-103925000I-250000J0D01*
G01*
X152670000Y-103925000D01*
G75*
G02*
X152420000Y-103675000I0J250000D01*
G01*
X152420000Y-99475000D01*
%TA.AperFunction,Conductor*%
G36*
X152420000Y-99475000D02*
G01*
X152420000Y-99475000D01*
G75*
G02*
X152670000Y-99225000I250000J0D01*
G01*
X155795000Y-99225000D01*
G75*
G02*
X156045000Y-99475000I0J-250000D01*
G01*
X156045000Y-103675000D01*
G75*
G02*
X155795000Y-103925000I-250000J0D01*
G01*
X152670000Y-103925000D01*
G75*
G02*
X152420000Y-103675000I0J250000D01*
G01*
X152420000Y-99475000D01*
G37*
%TD.AperFunction*%
%TO.N,BATT+*%
X152457500Y-88250000D02*
X152457500Y-88250000D01*
G75*
G02*
X152707500Y-88000000I250000J0D01*
G01*
X155820000Y-88000000D01*
G75*
G02*
X156070000Y-88250000I0J-250000D01*
G01*
X156070000Y-92525000D01*
G75*
G02*
X155820000Y-92775000I-250000J0D01*
G01*
X152707500Y-92775000D01*
G75*
G02*
X152457500Y-92525000I0J250000D01*
G01*
X152457500Y-88250000D01*
%TA.AperFunction,Conductor*%
G36*
X152457500Y-88250000D02*
G01*
X152457500Y-88250000D01*
G75*
G02*
X152707500Y-88000000I250000J0D01*
G01*
X155820000Y-88000000D01*
G75*
G02*
X156070000Y-88250000I0J-250000D01*
G01*
X156070000Y-92525000D01*
G75*
G02*
X155820000Y-92775000I-250000J0D01*
G01*
X152707500Y-92775000D01*
G75*
G02*
X152457500Y-92525000I0J250000D01*
G01*
X152457500Y-88250000D01*
G37*
%TD.AperFunction*%
D11*
X156033658Y-89770412D02*
X162269998Y-89770412D01*
X162269998Y-91169588D01*
X156033658Y-91169588D01*
X156033658Y-89770412D01*
%TA.AperFunction,Conductor*%
G36*
X156033658Y-89770412D02*
G01*
X162269998Y-89770412D01*
X162269998Y-91169588D01*
X156033658Y-91169588D01*
X156033658Y-89770412D01*
G37*
%TD.AperFunction*%
%TO.N,LOW_SIDE_SOURCE*%
D10*
X158071005Y-78180000D02*
X170554508Y-78180000D01*
X170554508Y-79912500D01*
X158071005Y-79912500D01*
X158071005Y-78180000D01*
%TA.AperFunction,Conductor*%
G36*
X158071005Y-78180000D02*
G01*
X170554508Y-78180000D01*
X170554508Y-79912500D01*
X158071005Y-79912500D01*
X158071005Y-78180000D01*
G37*
%TD.AperFunction*%
%TO.N,BATT+*%
X162063750Y-88312500D02*
X162063750Y-88312500D01*
G75*
G02*
X162313750Y-88062500I249950J0D01*
G01*
X165426250Y-88062500D01*
G75*
G02*
X165676250Y-88312500I50J-250000D01*
G01*
X165676250Y-92587500D01*
G75*
G02*
X165426250Y-92837500I-249950J0D01*
G01*
X162313750Y-92837500D01*
G75*
G02*
X162063750Y-92587500I-50J250000D01*
G01*
X162063750Y-88312500D01*
%TA.AperFunction,Conductor*%
G36*
X162063750Y-88312500D02*
G01*
X162063750Y-88312500D01*
G75*
G02*
X162313750Y-88062500I249950J0D01*
G01*
X165426250Y-88062500D01*
G75*
G02*
X165676250Y-88312500I50J-250000D01*
G01*
X165676250Y-92587500D01*
G75*
G02*
X165426250Y-92837500I-249950J0D01*
G01*
X162313750Y-92837500D01*
G75*
G02*
X162063750Y-92587500I-50J250000D01*
G01*
X162063750Y-88312500D01*
G37*
%TD.AperFunction*%
%TO.N,LOW_SIDE_SOURCE*%
X162070000Y-78425000D02*
X162070000Y-78425000D01*
G75*
G02*
X162320000Y-78175000I250000J0D01*
G01*
X165495000Y-78175000D01*
G75*
G02*
X165745000Y-78425000I0J-250000D01*
G01*
X165745000Y-81400000D01*
G75*
G02*
X165495000Y-81650000I-250000J0D01*
G01*
X162320000Y-81650000D01*
G75*
G02*
X162070000Y-81400000I0J250000D01*
G01*
X162070000Y-78425000D01*
%TA.AperFunction,Conductor*%
G36*
X162070000Y-78425000D02*
G01*
X162070000Y-78425000D01*
G75*
G02*
X162320000Y-78175000I250000J0D01*
G01*
X165495000Y-78175000D01*
G75*
G02*
X165745000Y-78425000I0J-250000D01*
G01*
X165745000Y-81400000D01*
G75*
G02*
X165495000Y-81650000I-250000J0D01*
G01*
X162320000Y-81650000D01*
G75*
G02*
X162070000Y-81400000I0J250000D01*
G01*
X162070000Y-78425000D01*
G37*
%TD.AperFunction*%
X162095000Y-99600000D02*
X162095000Y-99600000D01*
G75*
G02*
X162345000Y-99350000I250000J0D01*
G01*
X165520000Y-99350000D01*
G75*
G02*
X165770000Y-99600000I0J-250000D01*
G01*
X165770000Y-103800000D01*
G75*
G02*
X165520000Y-104050000I-250000J0D01*
G01*
X162345000Y-104050000D01*
G75*
G02*
X162095000Y-103800000I0J250000D01*
G01*
X162095000Y-99600000D01*
%TA.AperFunction,Conductor*%
G36*
X162095000Y-99600000D02*
G01*
X162095000Y-99600000D01*
G75*
G02*
X162345000Y-99350000I250000J0D01*
G01*
X165520000Y-99350000D01*
G75*
G02*
X165770000Y-99600000I0J-250000D01*
G01*
X165770000Y-103800000D01*
G75*
G02*
X165520000Y-104050000I-250000J0D01*
G01*
X162345000Y-104050000D01*
G75*
G02*
X162095000Y-103800000I0J250000D01*
G01*
X162095000Y-99600000D01*
G37*
%TD.AperFunction*%
%TO.N,BATT+*%
X164860001Y-88063437D02*
X171880000Y-88063437D01*
X171880000Y-90936563D01*
X164860001Y-90936563D01*
X164860001Y-88063437D01*
%TA.AperFunction,Conductor*%
G36*
X164860001Y-88063437D02*
G01*
X171880000Y-88063437D01*
X171880000Y-90936563D01*
X164860001Y-90936563D01*
X164860001Y-88063437D01*
G37*
%TD.AperFunction*%
%TO.N,LOW_SIDE_SOURCE*%
X165570000Y-99350000D02*
X170570000Y-99350000D01*
X170570000Y-100575000D01*
X165570000Y-100575000D01*
X165570000Y-99350000D01*
X170282500Y-78430000D02*
X170282500Y-78430000D01*
G75*
G02*
X170532500Y-78180000I250000J0D01*
G01*
X173495000Y-78180000D01*
G75*
G02*
X173745000Y-78430000I0J-250000D01*
G01*
X173745000Y-81400000D01*
G75*
G02*
X173495000Y-81650000I-250000J0D01*
G01*
X170532500Y-81650000D01*
G75*
G02*
X170282500Y-81400000I0J250000D01*
G01*
X170282500Y-78430000D01*
%TA.AperFunction,Conductor*%
G36*
X170282500Y-78430000D02*
G01*
X170282500Y-78430000D01*
G75*
G02*
X170532500Y-78180000I250000J0D01*
G01*
X173495000Y-78180000D01*
G75*
G02*
X173745000Y-78430000I0J-250000D01*
G01*
X173745000Y-81400000D01*
G75*
G02*
X173495000Y-81650000I-250000J0D01*
G01*
X170532500Y-81650000D01*
G75*
G02*
X170282500Y-81400000I0J250000D01*
G01*
X170282500Y-78430000D01*
G37*
%TD.AperFunction*%
%TO.N,BATT+*%
X170313750Y-88310000D02*
X170313750Y-88310000D01*
G75*
G02*
X170563750Y-88060000I249950J0D01*
G01*
X173676250Y-88060000D01*
G75*
G02*
X173926250Y-88310000I50J-250000D01*
G01*
X173926250Y-92612500D01*
G75*
G02*
X173676250Y-92862500I-249950J0D01*
G01*
X170563750Y-92862500D01*
G75*
G02*
X170313750Y-92612500I-50J250000D01*
G01*
X170313750Y-88310000D01*
%TA.AperFunction,Conductor*%
G36*
X170313750Y-88310000D02*
G01*
X170313750Y-88310000D01*
G75*
G02*
X170563750Y-88060000I249950J0D01*
G01*
X173676250Y-88060000D01*
G75*
G02*
X173926250Y-88310000I50J-250000D01*
G01*
X173926250Y-92612500D01*
G75*
G02*
X173676250Y-92862500I-249950J0D01*
G01*
X170563750Y-92862500D01*
G75*
G02*
X170313750Y-92612500I-50J250000D01*
G01*
X170313750Y-88310000D01*
G37*
%TD.AperFunction*%
%TO.N,LOW_SIDE_SOURCE*%
X170345000Y-99600000D02*
X170345000Y-99600000D01*
G75*
G02*
X170595000Y-99350000I250000J0D01*
G01*
X173745000Y-99350000D01*
G75*
G02*
X173995000Y-99600000I0J-250000D01*
G01*
X173995000Y-103800000D01*
G75*
G02*
X173745000Y-104050000I-250000J0D01*
G01*
X170595000Y-104050000D01*
G75*
G02*
X170345000Y-103800000I0J250000D01*
G01*
X170345000Y-99600000D01*
%TA.AperFunction,Conductor*%
G36*
X170345000Y-99600000D02*
G01*
X170345000Y-99600000D01*
G75*
G02*
X170595000Y-99350000I250000J0D01*
G01*
X173745000Y-99350000D01*
G75*
G02*
X173995000Y-99600000I0J-250000D01*
G01*
X173995000Y-103800000D01*
G75*
G02*
X173745000Y-104050000I-250000J0D01*
G01*
X170595000Y-104050000D01*
G75*
G02*
X170345000Y-103800000I0J250000D01*
G01*
X170345000Y-99600000D01*
G37*
%TD.AperFunction*%
%TD*%
D12*
%TO.P,J7,1,Pin_1_1*%
%TO.N,GND*%
X129430000Y-115500000D03*
%TD*%
%TO.P,J6,1,Pin_1_1*%
%TO.N,BATT+*%
X136940000Y-115470000D03*
%TD*%
%TO.P,J5,1,Pin_1_1*%
%TO.N,GND*%
X130840000Y-92170000D03*
%TD*%
%TO.P,J3,1,Pin_1_1*%
%TO.N,BATT+*%
X136180000Y-78480000D03*
%TD*%
D13*
%TO.P,J1,1,Pin_1_1*%
%TO.N,SIGNAL_INPUT*%
X109600000Y-108225000D03*
D14*
%TO.P,J1,2,Pin_2_2*%
%TO.N,+5V*%
X109600000Y-110765000D03*
%TO.P,J1,3,Pin_3_3*%
%TO.N,GND*%
X109600000Y-113305000D03*
%TD*%
D15*
%TO.P,H4,1,1_1*%
%TO.N,BATT+*%
X128420000Y-83350000D03*
X129364581Y-81069581D03*
X129364581Y-85630419D03*
X131645000Y-80125000D03*
D16*
X131645000Y-83350000D03*
D15*
X131645000Y-86575000D03*
X133925419Y-81069581D03*
X133925419Y-85630419D03*
X134870000Y-83350000D03*
%TD*%
D13*
%TO.P,J4,1,Pin_1_1*%
%TO.N,SWDIO*%
X108400000Y-84650000D03*
D14*
%TO.P,J4,2,Pin_2_2*%
%TO.N,SWCLK*%
X108400000Y-87190000D03*
%TO.P,J4,3,Pin_3_3*%
%TO.N,GND*%
X108400000Y-89730000D03*
%TO.P,J4,4,Pin_4_4*%
%TO.N,+3.3V*%
X108400000Y-92270000D03*
%TD*%
D13*
%TO.P,J2,1,Pin_1_1*%
%TO.N,TELEMETRY*%
X109150000Y-78500000D03*
D14*
%TO.P,J2,2,Pin_2_2*%
%TO.N,TELEMRX*%
X111690000Y-78500000D03*
%TD*%
D17*
%TO.P,C,1,1_1*%
%TO.N,MOTORC*%
X179355000Y-107225000D03*
X180167779Y-105262779D03*
X180167779Y-109187221D03*
X182130000Y-104450000D03*
D18*
X182130000Y-107225000D03*
D17*
X182130000Y-110000000D03*
X184092221Y-105262779D03*
X184092221Y-109187221D03*
X184905000Y-107225000D03*
%TD*%
D15*
%TO.P,H5,1,1_1*%
%TO.N,GND*%
X129589581Y-109280419D03*
X130534162Y-107000000D03*
X130534162Y-111560838D03*
X132814581Y-106055419D03*
D16*
X132814581Y-109280419D03*
D15*
X132814581Y-112505419D03*
X135095000Y-107000000D03*
X135095000Y-111560838D03*
X136039581Y-109280419D03*
%TD*%
D17*
%TO.P,B,1,1_1*%
%TO.N,MOTORB*%
X179382779Y-96037221D03*
X180195558Y-94075000D03*
X180195558Y-97999442D03*
X182157779Y-93262221D03*
D18*
X182157779Y-96037221D03*
D17*
X182157779Y-98812221D03*
X184120000Y-94075000D03*
X184120000Y-97999442D03*
X184932779Y-96037221D03*
%TD*%
%TO.P,A,1,1_1*%
%TO.N,MOTORA*%
X179370000Y-84875000D03*
X180182779Y-82912779D03*
X180182779Y-86837221D03*
X182145000Y-82100000D03*
D18*
X182145000Y-84875000D03*
D17*
X182145000Y-87650000D03*
X184107221Y-82912779D03*
X184107221Y-86837221D03*
X184920000Y-84875000D03*
%TD*%
D19*
%TO.P,C56,1*%
%TO.N,BATT+*%
X116375000Y-111025000D03*
%TO.P,C56,2*%
%TO.N,GND*%
X116375000Y-113975000D03*
%TD*%
D20*
%TO.P,C63,1*%
%TO.N,BATT+*%
X116375000Y-109300000D03*
%TO.P,C63,2*%
%TO.N,GND*%
X116375000Y-106350000D03*
%TD*%
D21*
%TO.P,C59,1*%
%TO.N,Net-(U6-NRST)*%
X122620000Y-97800000D03*
%TO.P,C59,2*%
%TO.N,GND*%
X122620000Y-96250000D03*
%TD*%
D22*
%TO.P,U6,1,VBAT_1*%
%TO.N,unconnected-(U6-VBAT-Pad1)*%
X120707500Y-95262500D03*
%TO.P,U6,2,PC13_2*%
%TO.N,unconnected-(U6-PC13-Pad2)*%
X120707500Y-95762500D03*
%TO.P,U6,3,PC14_3*%
%TO.N,unconnected-(U6-PC14-Pad3)*%
X120707500Y-96262500D03*
%TO.P,U6,4,PC15_4*%
%TO.N,unconnected-(U6-PC15-Pad4)*%
X120707500Y-96762500D03*
%TO.P,U6,5,PF0_5*%
%TO.N,unconnected-(U6-PF0-Pad5)*%
X120707500Y-97262500D03*
%TO.P,U6,6,PF1_6*%
%TO.N,unconnected-(U6-PF1-Pad6)*%
X120707500Y-97762500D03*
%TO.P,U6,7,NRST_7*%
%TO.N,Net-(U6-NRST)*%
X120707500Y-98262500D03*
%TO.P,U6,8,VSSA_8*%
%TO.N,GND*%
X120707500Y-98762500D03*
%TO.P,U6,9,VDDA_9*%
%TO.N,+3.3V*%
X120707500Y-99262500D03*
%TO.P,U6,10,PA0_10*%
%TO.N,BEMFA*%
X120707500Y-99762500D03*
%TO.P,U6,11,PA1_11*%
%TO.N,BEMF_COMMON*%
X120707500Y-100262500D03*
%TO.P,U6,12,PA2_12*%
%TO.N,unconnected-(U6-PA2-Pad12)*%
X120707500Y-100762500D03*
D23*
%TO.P,U6,13,PA3_13*%
%TO.N,CURRENT*%
X120020000Y-101450000D03*
%TO.P,U6,14,PA4_14*%
%TO.N,BEMFB*%
X119520000Y-101450000D03*
%TO.P,U6,15,PA5_15*%
%TO.N,BEMFC*%
X119020000Y-101450000D03*
%TO.P,U6,16,PA6_16*%
%TO.N,VOLTSENSE*%
X118520000Y-101450000D03*
%TO.P,U6,17,PA7_17*%
%TO.N,INLC*%
X118020000Y-101450000D03*
%TO.P,U6,18,PB0_18*%
%TO.N,INLB*%
X117520000Y-101450000D03*
%TO.P,U6,19,PB1_19*%
%TO.N,INLA*%
X117020000Y-101450000D03*
%TO.P,U6,20,PB2_20*%
%TO.N,unconnected-(U6-PB2-Pad20)*%
X116520000Y-101450000D03*
%TO.P,U6,21,PB10_21*%
%TO.N,unconnected-(U6-PB10-Pad21)*%
X116020000Y-101450000D03*
%TO.P,U6,22,PB11_22*%
%TO.N,unconnected-(U6-PB11-Pad22)*%
X115520000Y-101450000D03*
%TO.P,U6,23,VSS_23*%
%TO.N,GND*%
X115020000Y-101450000D03*
%TO.P,U6,24,VDD_24*%
%TO.N,+3.3V*%
X114520000Y-101450000D03*
D22*
%TO.P,U6,25,PB12_25*%
%TO.N,unconnected-(U6-PB12-Pad25)*%
X113832500Y-100762500D03*
%TO.P,U6,26,PB13_26*%
%TO.N,unconnected-(U6-PB13-Pad26)*%
X113832500Y-100262500D03*
%TO.P,U6,27,PB14_27*%
%TO.N,unconnected-(U6-PB14-Pad27)*%
X113832500Y-99762500D03*
%TO.P,U6,28,PB15_28*%
%TO.N,unconnected-(U6-PB15-Pad28)*%
X113832500Y-99262500D03*
%TO.P,U6,29,PA8_29*%
%TO.N,INHC*%
X113832500Y-98762500D03*
%TO.P,U6,30,PA9_30*%
%TO.N,INHB*%
X113832500Y-98262500D03*
%TO.P,U6,31,PA10_31*%
%TO.N,INHA*%
X113832500Y-97762500D03*
%TO.P,U6,32,PA11_32*%
%TO.N,unconnected-(U6-PA11-Pad32)*%
X113832500Y-97262500D03*
%TO.P,U6,33,PA12_33*%
%TO.N,unconnected-(U6-PA12-Pad33)*%
X113832500Y-96762500D03*
%TO.P,U6,34,PA13_34*%
%TO.N,SWDIO*%
X113832500Y-96262500D03*
%TO.P,U6,35,PF6_35*%
%TO.N,unconnected-(U6-PF6-Pad35)*%
X113832500Y-95762500D03*
%TO.P,U6,36,PF7_36*%
%TO.N,unconnected-(U6-PF7-Pad36)*%
X113832500Y-95262500D03*
D23*
%TO.P,U6,37,PA14_37*%
%TO.N,SWCLK*%
X114520000Y-94575000D03*
%TO.P,U6,38,PA15_38*%
%TO.N,unconnected-(U6-PA15-Pad38)*%
X115020000Y-94575000D03*
%TO.P,U6,39,PB3_39*%
%TO.N,unconnected-(U6-PB3-Pad39)*%
X115520000Y-94575000D03*
%TO.P,U6,40,PB4_40*%
%TO.N,Net-(U6-PB4)*%
X116020000Y-94575000D03*
%TO.P,U6,41,PB5_41*%
%TO.N,unconnected-(U6-PB5-Pad41)*%
X116520000Y-94575000D03*
%TO.P,U6,42,PB6_42*%
%TO.N,TELEMETRY*%
X117020000Y-94575000D03*
%TO.P,U6,43,PB7_43*%
%TO.N,TELEMRX*%
X117520000Y-94575000D03*
%TO.P,U6,44,BOOT0_44*%
%TO.N,Net-(U6-BOOT0)*%
X118020000Y-94575000D03*
%TO.P,U6,45,PB8_45*%
%TO.N,unconnected-(U6-PB8-Pad45)*%
X118520000Y-94575000D03*
%TO.P,U6,46,PB9_46*%
%TO.N,unconnected-(U6-PB9-Pad46)*%
X119020000Y-94575000D03*
%TO.P,U6,47,VSS_47*%
%TO.N,GND*%
X119520000Y-94575000D03*
%TO.P,U6,48,VDD_48*%
%TO.N,+3.3V*%
X120020000Y-94575000D03*
D24*
%TO.P,U6,49,VSS_49*%
%TO.N,GND*%
X117270000Y-98012500D03*
%TD*%
D25*
%TO.P,R59,1*%
%TO.N,GND*%
X117750000Y-92625000D03*
%TO.P,R59,2*%
%TO.N,Net-(U6-BOOT0)*%
X118770000Y-92625000D03*
%TD*%
D26*
%TO.P,C42,1*%
%TO.N,+5V*%
X123545000Y-106925000D03*
%TO.P,C42,2*%
%TO.N,GND*%
X122585000Y-106925000D03*
%TD*%
D20*
%TO.P,C64,1*%
%TO.N,BATT+*%
X119650000Y-109300000D03*
%TO.P,C64,2*%
%TO.N,GND*%
X119650000Y-106350000D03*
%TD*%
D27*
%TO.P,C61,1*%
%TO.N,+3.3V*%
X129670000Y-96360000D03*
%TO.P,C61,2*%
%TO.N,GND*%
X131220000Y-96360000D03*
%TD*%
D28*
%TO.P,C33,1*%
%TO.N,+3.3V*%
X139970000Y-106075000D03*
%TO.P,C33,2*%
%TO.N,GND*%
X139970000Y-107625000D03*
%TD*%
D27*
%TO.P,C62,1*%
%TO.N,+3.3V*%
X129670000Y-94835000D03*
%TO.P,C62,2*%
%TO.N,GND*%
X131220000Y-94835000D03*
%TD*%
D19*
%TO.P,C65,1*%
%TO.N,BATT+*%
X119650000Y-111025000D03*
%TO.P,C65,2*%
%TO.N,GND*%
X119650000Y-113975000D03*
%TD*%
%TO.P,C55,1*%
%TO.N,BATT+*%
X113100000Y-111025000D03*
%TO.P,C55,2*%
%TO.N,GND*%
X113100000Y-113975000D03*
%TD*%
D29*
%TO.P,U2,1,IN_1*%
%TO.N,BATT+*%
X124345000Y-83420000D03*
D30*
%TO.P,U2,2,GND_2*%
%TO.N,GND*%
X115195000Y-85960000D03*
D29*
%TO.P,U2,3,OUT_3*%
%TO.N,+9V*%
X124345000Y-88500000D03*
%TD*%
D28*
%TO.P,C32,1*%
%TO.N,CURRENT*%
X138395000Y-106075000D03*
%TO.P,C32,2*%
%TO.N,GND*%
X138395000Y-107625000D03*
%TD*%
D21*
%TO.P,C2,1*%
%TO.N,BATT+*%
X127045000Y-111900000D03*
%TO.P,C2,2*%
%TO.N,GND*%
X127045000Y-110350000D03*
%TD*%
D31*
%TO.P,R55,1*%
%TO.N,VOLTSENSE*%
X136895000Y-95200000D03*
%TO.P,R55,2*%
%TO.N,GND*%
X136895000Y-96850000D03*
%TD*%
D32*
%TO.P,R44,1*%
%TO.N,Net-(R44-Pad1)*%
X137075000Y-105100000D03*
%TO.P,R44,2*%
%TO.N,CURRENT*%
X137075000Y-106120000D03*
%TD*%
D33*
%TO.P,C41,1*%
%TO.N,BATT+*%
X123895000Y-111325000D03*
%TO.P,C41,2*%
%TO.N,GND*%
X123895000Y-109425000D03*
%TD*%
D20*
%TO.P,C54,1*%
%TO.N,BATT+*%
X113100000Y-109300000D03*
%TO.P,C54,2*%
%TO.N,GND*%
X113100000Y-106350000D03*
%TD*%
D34*
%TO.P,R43,1,1_1*%
%TO.N,GND*%
X131295000Y-101000000D03*
%TO.P,R43,2,2_2*%
%TO.N,LOW_SIDE_SOURCE*%
X139395000Y-101000000D03*
%TD*%
D35*
%TO.N,GND*%
X117320000Y-98020000D03*
X115720000Y-95620000D03*
X116520000Y-99620000D03*
X117320000Y-100420000D03*
X118120000Y-100420000D03*
X118120000Y-97220000D03*
X116520000Y-97220000D03*
X115720000Y-97220000D03*
X117320000Y-97220000D03*
X116520000Y-98820000D03*
X118120000Y-96420000D03*
X118120000Y-99620000D03*
X115720000Y-98020000D03*
X118120000Y-98820000D03*
X118120000Y-95620000D03*
X115720000Y-96420000D03*
X115720000Y-100420000D03*
X118120000Y-98020000D03*
X115720000Y-99620000D03*
X117320000Y-95620000D03*
X116520000Y-98020000D03*
X116520000Y-95620000D03*
X116520000Y-96420000D03*
X117320000Y-99620000D03*
X115720000Y-98820000D03*
X117320000Y-96420000D03*
X117320000Y-98820000D03*
X116520000Y-100420000D03*
%TO.N,GHB*%
X134220000Y-91700000D03*
X159120000Y-92895000D03*
X167420000Y-91775000D03*
%TO.N,Net-(IC6-OUT)*%
X164050000Y-112325000D03*
X169947500Y-112572500D03*
%TO.N,GLA*%
X122545000Y-102175000D03*
X159095000Y-80580000D03*
X167345000Y-80605000D03*
%TO.N,+5V*%
X123545000Y-106925000D03*
X126845000Y-108175000D03*
%TO.N,GND*%
X113100000Y-106350000D03*
X119650000Y-113975000D03*
X113100000Y-113975000D03*
X186207500Y-100287500D03*
X116325000Y-113975000D03*
X120370000Y-85960000D03*
X118395000Y-88750000D03*
X117750000Y-92625000D03*
X116375000Y-106350000D03*
X111795000Y-83950000D03*
X174520000Y-112500000D03*
X131270000Y-97575000D03*
X118395000Y-90225000D03*
X125495000Y-97275000D03*
X123920000Y-109280419D03*
X162525000Y-115850000D03*
X116595000Y-86275000D03*
X110545000Y-91925000D03*
X119650000Y-106350000D03*
X122585000Y-106925000D03*
%TO.N,LOW_SIDE_SOURCE*%
X163905000Y-81425000D03*
X147310000Y-100375000D03*
X134220000Y-102175000D03*
X157170000Y-101856250D03*
X159170000Y-101875000D03*
X170905000Y-103750000D03*
X147300000Y-99475000D03*
X172105000Y-81425000D03*
X160670000Y-101300000D03*
X162645000Y-102850000D03*
X146030000Y-99475000D03*
X170825000Y-80525000D03*
X162625000Y-80525000D03*
X165195000Y-103750000D03*
X144770000Y-100375000D03*
X158170000Y-101856250D03*
X144760000Y-99475000D03*
X156670000Y-101281250D03*
X173375000Y-81425000D03*
X161170000Y-101875000D03*
X154290000Y-100375000D03*
X146040000Y-100375000D03*
X173435000Y-102850000D03*
X153010000Y-99475000D03*
X162655000Y-103750000D03*
X153020000Y-100375000D03*
X163925000Y-103750000D03*
X165175000Y-81425000D03*
X163895000Y-80525000D03*
X170895000Y-102850000D03*
X162635000Y-81425000D03*
X155550000Y-99475000D03*
X158670000Y-101300000D03*
X155560000Y-100375000D03*
X157670000Y-101281250D03*
X163915000Y-102850000D03*
X172095000Y-80525000D03*
X160170000Y-101875000D03*
X154280000Y-99475000D03*
X159670000Y-101300000D03*
X172165000Y-102850000D03*
X161670000Y-101275000D03*
X173365000Y-80525000D03*
X173445000Y-103750000D03*
X165165000Y-80525000D03*
X172175000Y-103750000D03*
X165185000Y-102850000D03*
X170835000Y-81425000D03*
%TO.N,Net-(R44-Pad1)*%
X136495000Y-104075000D03*
%TO.N,+3.3V*%
X136795000Y-101175000D03*
X143400000Y-105425000D03*
X120045000Y-93025000D03*
X124970000Y-98250000D03*
X113245000Y-102575000D03*
X134929620Y-97559620D03*
%TO.N,BEMFB*%
X125645000Y-104725000D03*
X175850000Y-102350000D03*
%TO.N,MOTORB*%
X166925000Y-96425000D03*
X150375000Y-97975000D03*
X158325000Y-97175000D03*
X159125000Y-97175000D03*
X168175000Y-94025000D03*
X151175000Y-94775000D03*
X150025000Y-95575000D03*
X159475000Y-94775000D03*
X175625000Y-96275000D03*
X150375000Y-96375000D03*
X176425000Y-97875000D03*
X166925000Y-94825000D03*
X168175000Y-97225000D03*
X149575000Y-94775000D03*
X159925000Y-95575000D03*
X175625000Y-94675000D03*
X168525000Y-96425000D03*
X151625000Y-95575000D03*
X150025000Y-97175000D03*
X175275000Y-97075000D03*
X158675000Y-97975000D03*
X175275000Y-95475000D03*
X167725000Y-98025000D03*
X176875000Y-95475000D03*
X177225000Y-96275000D03*
X166125000Y-96425000D03*
X159125000Y-93975000D03*
X158675000Y-96375000D03*
X150825000Y-95575000D03*
X159925000Y-97175000D03*
X127270000Y-96575000D03*
X166925000Y-98025000D03*
X150375000Y-94775000D03*
X174825000Y-96275000D03*
X160275000Y-97975000D03*
X159475000Y-96375000D03*
X157875000Y-94775000D03*
X157875000Y-97975000D03*
X151975000Y-96375000D03*
X157875000Y-96375000D03*
X176875000Y-97075000D03*
X150025000Y-93975000D03*
X166125000Y-98025000D03*
X151625000Y-93975000D03*
X166125000Y-94825000D03*
X168525000Y-94825000D03*
X167375000Y-95625000D03*
X176075000Y-97075000D03*
X158325000Y-95575000D03*
X175630000Y-97880000D03*
X151175000Y-97975000D03*
X177225000Y-94675000D03*
X160275000Y-94775000D03*
X176425000Y-94675000D03*
X151625000Y-97175000D03*
X176425000Y-96275000D03*
X150825000Y-97175000D03*
X176075000Y-95475000D03*
X160275000Y-96375000D03*
X159925000Y-93975000D03*
X166575000Y-94025000D03*
X159475000Y-97975000D03*
X168525000Y-98025000D03*
X167375000Y-97225000D03*
X150825000Y-93975000D03*
X168175000Y-95625000D03*
X174825000Y-94675000D03*
X167725000Y-96425000D03*
X149575000Y-97975000D03*
X176875000Y-93875000D03*
X151975000Y-94775000D03*
X177230000Y-97880000D03*
X175275000Y-93875000D03*
X167725000Y-94825000D03*
X159125000Y-95575000D03*
X166575000Y-97225000D03*
X158675000Y-94775000D03*
X158325000Y-93975000D03*
X151175000Y-96375000D03*
X149575000Y-96375000D03*
X166575000Y-95625000D03*
X176075000Y-93875000D03*
X167375000Y-94025000D03*
X151975000Y-97975000D03*
X174825000Y-97875000D03*
%TO.N,MOTORA*%
X168150000Y-85975000D03*
X168500000Y-85175000D03*
X167350000Y-84375000D03*
X159900000Y-85925000D03*
X177200000Y-83475000D03*
X125195000Y-92150000D03*
X166100000Y-85175000D03*
X166100000Y-86775000D03*
X158300000Y-82725000D03*
X167350000Y-82775000D03*
X176400000Y-83475000D03*
X168150000Y-84375000D03*
X159100000Y-85925000D03*
X149550000Y-86725000D03*
X150800000Y-84325000D03*
X157850000Y-86725000D03*
X175600000Y-83475000D03*
X166550000Y-84375000D03*
X159100000Y-84325000D03*
X150000000Y-82725000D03*
X158300000Y-84325000D03*
X151150000Y-86725000D03*
X177200000Y-86675000D03*
X174800000Y-85075000D03*
X168500000Y-83575000D03*
X158650000Y-85125000D03*
X176050000Y-82675000D03*
X167350000Y-85975000D03*
X174800000Y-83475000D03*
X151950000Y-85125000D03*
X150800000Y-85925000D03*
X157850000Y-85125000D03*
X149550000Y-85125000D03*
X176850000Y-82675000D03*
X167700000Y-83575000D03*
X176400000Y-85075000D03*
X176400000Y-86675000D03*
X167700000Y-86775000D03*
X166900000Y-83575000D03*
X166900000Y-86775000D03*
X159450000Y-86725000D03*
X159900000Y-84325000D03*
X176850000Y-85875000D03*
X151950000Y-83525000D03*
X168500000Y-86775000D03*
X150350000Y-86725000D03*
X166550000Y-82775000D03*
X175250000Y-84275000D03*
X151600000Y-84325000D03*
X159100000Y-82725000D03*
X149550000Y-83525000D03*
X166900000Y-85175000D03*
X168150000Y-82775000D03*
X160250000Y-86725000D03*
X158650000Y-86725000D03*
X151600000Y-82725000D03*
X175250000Y-82675000D03*
X150350000Y-83525000D03*
X150350000Y-85125000D03*
X150000000Y-84325000D03*
X151150000Y-83525000D03*
X176050000Y-85875000D03*
X166100000Y-83575000D03*
X176850000Y-84275000D03*
X151600000Y-85925000D03*
X158650000Y-83525000D03*
X175600000Y-85075000D03*
X159900000Y-82725000D03*
X160250000Y-83525000D03*
X159450000Y-85125000D03*
X174800000Y-86675000D03*
X151150000Y-85125000D03*
X175250000Y-85875000D03*
X176050000Y-84275000D03*
X177200000Y-85075000D03*
X158300000Y-85925000D03*
X150800000Y-82725000D03*
X167700000Y-85175000D03*
X157850000Y-83525000D03*
X175590000Y-86680000D03*
X166550000Y-85975000D03*
X150000000Y-85925000D03*
X151950000Y-86725000D03*
X159450000Y-83525000D03*
X160250000Y-85125000D03*
%TO.N,GHC*%
X129150024Y-101505026D03*
X159045000Y-110575000D03*
X150755000Y-111445000D03*
%TO.N,GHA*%
X133670000Y-91000000D03*
X150775000Y-88300000D03*
X159020000Y-88125000D03*
%TO.N,BATT+*%
X161570000Y-90200000D03*
X146005000Y-89175000D03*
X158570000Y-90225000D03*
X146050000Y-110675000D03*
X147265000Y-88275000D03*
X144790000Y-111575000D03*
X127045000Y-111900000D03*
X170935000Y-92625000D03*
X155600000Y-110675000D03*
X165175000Y-92625000D03*
X145995000Y-88275000D03*
X163895000Y-91725000D03*
X157570000Y-90206250D03*
X144780000Y-110675000D03*
X152975000Y-88300000D03*
X147320000Y-110675000D03*
X153060000Y-110675000D03*
X147330000Y-111575000D03*
X159570000Y-90225000D03*
X154330000Y-110675000D03*
X155515000Y-88300000D03*
X144735000Y-89175000D03*
X154255000Y-89200000D03*
X146060000Y-111575000D03*
X152985000Y-89200000D03*
X157070000Y-90781250D03*
X170925000Y-91725000D03*
X155525000Y-89200000D03*
X165165000Y-91725000D03*
X172195000Y-91725000D03*
X147275000Y-89175000D03*
X173475000Y-92625000D03*
X160570000Y-90225000D03*
X158070000Y-90781250D03*
X154245000Y-88300000D03*
X173465000Y-91725000D03*
X154340000Y-111575000D03*
X144725000Y-88275000D03*
X172205000Y-92625000D03*
X162625000Y-91725000D03*
X155610000Y-111575000D03*
X163905000Y-92625000D03*
X156570000Y-90206250D03*
X160070000Y-90800000D03*
X159070000Y-90800000D03*
X161070000Y-90800000D03*
X162635000Y-92625000D03*
X153070000Y-111575000D03*
%TO.N,BEMF_COMMON*%
X125105051Y-102175001D03*
X186945000Y-91575000D03*
%TO.N,BEMFC*%
X174520000Y-111480000D03*
X124745000Y-105375000D03*
%TO.N,GLC*%
X126745000Y-104950000D03*
X110000442Y-100576652D03*
X159155000Y-103850000D03*
X167355000Y-102755000D03*
X135425253Y-99546954D03*
%TO.N,SWDIO*%
X111772880Y-96322120D03*
%TO.N,SWCLK*%
X111895000Y-93525000D03*
%TO.N,BEMFA*%
X124538261Y-101081739D03*
X186295000Y-88800000D03*
%TO.N,TELEMETRY*%
X116349334Y-93462500D03*
%TO.N,TELEMRX*%
X117349334Y-93462499D03*
%TO.N,MOTORC*%
X150020000Y-108375000D03*
X159520000Y-107450000D03*
X149570000Y-105975000D03*
X174820000Y-107425000D03*
X150820000Y-106775000D03*
X176870000Y-105025000D03*
X167720000Y-109125000D03*
X175270000Y-108225000D03*
X166570000Y-106725000D03*
X150370000Y-105975000D03*
X151970000Y-105975000D03*
X174820000Y-105825000D03*
X150820000Y-105175000D03*
X150370000Y-107575000D03*
X168170000Y-105125000D03*
X167720000Y-107525000D03*
X168520000Y-107525000D03*
X151170000Y-105975000D03*
X157920000Y-107450000D03*
X176870000Y-106625000D03*
X159170000Y-108250000D03*
X159970000Y-105050000D03*
X151170000Y-107575000D03*
X176070000Y-106625000D03*
X176070000Y-105025000D03*
X150370000Y-109175000D03*
X167370000Y-105125000D03*
X151970000Y-107575000D03*
X150820000Y-108375000D03*
X175620000Y-105825000D03*
X167370000Y-108325000D03*
X149570000Y-109175000D03*
X175270000Y-105025000D03*
X166920000Y-107525000D03*
X166120000Y-107525000D03*
X127080555Y-102284167D03*
X151170000Y-109175000D03*
X168520000Y-109125000D03*
X166570000Y-105125000D03*
X176070000Y-108225000D03*
X159170000Y-106650000D03*
X151620000Y-108375000D03*
X158370000Y-108250000D03*
X166920000Y-109125000D03*
X150020000Y-106775000D03*
X176870000Y-108225000D03*
X175620000Y-107425000D03*
X159970000Y-106650000D03*
X168520000Y-105925000D03*
X150020000Y-105175000D03*
X177220000Y-109025000D03*
X160320000Y-107450000D03*
X176420000Y-105825000D03*
X177220000Y-107425000D03*
X177220000Y-105825000D03*
X151620000Y-106775000D03*
X175620000Y-109025000D03*
X158720000Y-105850000D03*
X167370000Y-106725000D03*
X158720000Y-109050000D03*
X159520000Y-105850000D03*
X159520000Y-109050000D03*
X158720000Y-107450000D03*
X151620000Y-105175000D03*
X158370000Y-105050000D03*
X167720000Y-105925000D03*
X157920000Y-109050000D03*
X149570000Y-107575000D03*
X160320000Y-109050000D03*
X159170000Y-105050000D03*
X166120000Y-105925000D03*
X160320000Y-105850000D03*
X168170000Y-108325000D03*
X166120000Y-109125000D03*
X159970000Y-108250000D03*
X176420000Y-109025000D03*
X175270000Y-106625000D03*
X166920000Y-105925000D03*
X157920000Y-105850000D03*
X176420000Y-107425000D03*
X158370000Y-106650000D03*
X166570000Y-108325000D03*
X174820000Y-109025000D03*
X151970000Y-109175000D03*
X168170000Y-106725000D03*
%TO.N,+9V*%
X111145000Y-93125000D03*
X107495000Y-95022500D03*
X124345000Y-88500000D03*
%TO.N,INHA*%
X112593007Y-93915884D03*
%TO.N,INHB*%
X113645000Y-93525000D03*
X111145000Y-97725000D03*
%TO.N,INHC*%
X111745000Y-94310812D03*
%TO.N,INLA*%
X115245000Y-102625000D03*
%TO.N,INLB*%
X110800000Y-100550000D03*
X111761115Y-98431584D03*
%TO.N,INLC*%
X112405022Y-98906334D03*
X110094407Y-102593647D03*
%TO.N,GLB*%
X135495000Y-98750000D03*
X150775000Y-100375000D03*
X109250000Y-100875000D03*
X127370000Y-104175000D03*
X159070000Y-100295000D03*
%TO.N,Net-(U6-PB4)*%
X115145000Y-93594437D03*
X109350000Y-104905000D03*
%TO.N,VOLTSENSE*%
X136895000Y-95225000D03*
X127120000Y-105750000D03*
%TO.N,CURRENT*%
X121820000Y-101474998D03*
X137075000Y-106120000D03*
%TD*%
%TO.N,GND*%
D36*
X130770000Y-92150000D02*
X130770000Y-90570000D01*
X126170000Y-85970000D02*
X120380000Y-85970000D01*
X130780000Y-92160000D02*
X130770000Y-92150000D01*
X130770000Y-90570000D02*
X126170000Y-85970000D01*
X120380000Y-85970000D02*
X120370000Y-85960000D01*
D37*
X130840000Y-92170000D02*
X131295000Y-92625000D01*
X130790000Y-92170000D02*
X130840000Y-92170000D01*
X131295000Y-92625000D02*
X131295000Y-101000000D01*
X130780000Y-92160000D02*
X130790000Y-92170000D01*
%TO.N,BATT+*%
D38*
X133962709Y-80657290D02*
X136139999Y-78480000D01*
X136139999Y-78480000D02*
X136180000Y-78480000D01*
%TO.N,Net-(IC6-OUT)*%
D39*
X164050000Y-112325000D02*
X169700000Y-112325000D01*
X169700000Y-112325000D02*
X169947500Y-112572500D01*
%TO.N,+5V*%
D40*
X121150000Y-107800000D02*
X111965990Y-107800000D01*
X126795000Y-108125000D02*
X121475000Y-108125000D01*
X110802081Y-110765000D02*
X109600000Y-110765000D01*
X109145000Y-111050000D02*
X109145000Y-110635000D01*
X126845000Y-108175000D02*
X126795000Y-108125000D01*
X111965990Y-107800000D02*
X111125000Y-108640990D01*
X111125000Y-110442081D02*
X110802081Y-110765000D01*
X121475000Y-108125000D02*
X121150000Y-107800000D01*
X111125000Y-108640990D02*
X111125000Y-110442081D01*
%TO.N,GND*%
D41*
X115020000Y-100262500D02*
X117270000Y-98012500D01*
X120707500Y-98762500D02*
X118020000Y-98762500D01*
D40*
X135270000Y-100975000D02*
X131320000Y-100975000D01*
D39*
X162525000Y-115850000D02*
X170159339Y-115850000D01*
D42*
X138395000Y-107625000D02*
X139970000Y-107625000D01*
D41*
X110535000Y-91925000D02*
X110545000Y-91925000D01*
D40*
X136895000Y-99350000D02*
X135270000Y-100975000D01*
D36*
X113100000Y-113975000D02*
X116325000Y-113975000D01*
D43*
X131295000Y-107760838D02*
X132814581Y-109280419D01*
D42*
X134470000Y-107625000D02*
X132814581Y-109280419D01*
D39*
X173509339Y-112500000D02*
X174520000Y-112500000D01*
X133930419Y-109280419D02*
X132814581Y-109280419D01*
D42*
X110545000Y-91925000D02*
X110445000Y-91825000D01*
D43*
X131295000Y-101000000D02*
X131295000Y-107760838D01*
D41*
X108345000Y-89735000D02*
X110535000Y-91925000D01*
D44*
X127045000Y-110350000D02*
X128520000Y-110350000D01*
D39*
X162525000Y-115850000D02*
X140500000Y-115850000D01*
D41*
X123538261Y-98762500D02*
X125025761Y-97275000D01*
D36*
X113100000Y-106350000D02*
X116375000Y-106350000D01*
X115195000Y-85960000D02*
X120370000Y-85960000D01*
D40*
X136895000Y-96850000D02*
X136895000Y-99350000D01*
D39*
X170159339Y-115850000D02*
X173509339Y-112500000D01*
D38*
X129520000Y-112575000D02*
X132814581Y-109280419D01*
D40*
X131320000Y-100975000D02*
X131295000Y-101000000D01*
D45*
X131295000Y-109125000D02*
X131275419Y-109144581D01*
D41*
X125025761Y-97275000D02*
X125495000Y-97275000D01*
D42*
X110445000Y-91825000D02*
X110445000Y-90710000D01*
D36*
X116325000Y-113975000D02*
X119650000Y-113975000D01*
D39*
X140500000Y-115850000D02*
X133930419Y-109280419D01*
D41*
X118020000Y-98762500D02*
X117270000Y-98012500D01*
D42*
X110445000Y-90710000D02*
X115195000Y-85960000D01*
D41*
X115020000Y-101450000D02*
X115020000Y-100262500D01*
X122620000Y-96250000D02*
X124470000Y-96250000D01*
D44*
X119520000Y-94575000D02*
X119520000Y-95762500D01*
X128520000Y-110350000D02*
X129589581Y-109280419D01*
D36*
X116375000Y-106350000D02*
X119650000Y-106350000D01*
D41*
X120707500Y-98762500D02*
X123538261Y-98762500D01*
D44*
X119520000Y-95762500D02*
X117270000Y-98012500D01*
D41*
X124470000Y-96250000D02*
X125495000Y-97275000D01*
D38*
X129520000Y-115600000D02*
X129520000Y-112575000D01*
D42*
X138395000Y-107625000D02*
X134470000Y-107625000D01*
D41*
X131270000Y-96410000D02*
X131220000Y-96360000D01*
%TO.N,LOW_SIDE_SOURCE*%
D37*
X147347500Y-102240000D02*
X148382500Y-103275000D01*
X165135000Y-100910000D02*
X166045000Y-100000000D01*
X166045000Y-100000000D02*
X169995000Y-100000000D01*
X148382500Y-103275000D02*
X151957500Y-103275000D01*
X165135000Y-102800000D02*
X165135000Y-100910000D01*
D42*
X134220000Y-102175000D02*
X138220000Y-102175000D01*
D37*
X169995000Y-100000000D02*
X171145000Y-101150000D01*
X151957500Y-103275000D02*
X153057500Y-102175000D01*
X171620000Y-101150000D02*
X173270000Y-102800000D01*
D42*
X138220000Y-102175000D02*
X139395000Y-101000000D01*
D37*
X154395000Y-101575000D02*
X163945000Y-101575000D01*
%TO.N,Net-(R44-Pad1)*%
D42*
X136495000Y-104075000D02*
X136495000Y-104650000D01*
X136495000Y-104650000D02*
X136945000Y-105100000D01*
X136945000Y-105100000D02*
X137075000Y-105100000D01*
%TO.N,+3.3V*%
X120045000Y-93025000D02*
X120795000Y-93775000D01*
D46*
X128510000Y-94835000D02*
X128195000Y-95150000D01*
X114070000Y-102575000D02*
X114507500Y-102137500D01*
X129670000Y-96360000D02*
X129670000Y-94835000D01*
D41*
X140620000Y-105425000D02*
X139970000Y-106075000D01*
D42*
X127420000Y-93775000D02*
X128195000Y-94550000D01*
D46*
X128330000Y-96360000D02*
X128195000Y-96225000D01*
X114507500Y-102137500D02*
X114507500Y-101450000D01*
D42*
X128195000Y-96225000D02*
X128195000Y-97450000D01*
D41*
X120707500Y-99262500D02*
X123957500Y-99262500D01*
D46*
X113245000Y-102575000D02*
X114070000Y-102575000D01*
X129670000Y-96360000D02*
X128330000Y-96360000D01*
D41*
X123957500Y-99262500D02*
X124970000Y-98250000D01*
D42*
X127395000Y-98250000D02*
X124970000Y-98250000D01*
D41*
X143400000Y-105425000D02*
X140620000Y-105425000D01*
D46*
X129670000Y-94835000D02*
X128510000Y-94835000D01*
D42*
X120095000Y-93075000D02*
X120095000Y-94575000D01*
X128195000Y-94550000D02*
X128195000Y-95150000D01*
X120045000Y-93025000D02*
X120095000Y-93075000D01*
X128195000Y-95150000D02*
X128195000Y-96225000D01*
X128195000Y-97450000D02*
X127395000Y-98250000D01*
X120795000Y-93775000D02*
X127420000Y-93775000D01*
%TO.N,BEMFB*%
D41*
X123925000Y-104725000D02*
X122250000Y-103050000D01*
X125645000Y-104725000D02*
X123925000Y-104725000D01*
X122250000Y-103050000D02*
X120597404Y-103050000D01*
X119520000Y-101972596D02*
X119520000Y-101450000D01*
X120597404Y-103050000D02*
X119520000Y-101972596D01*
%TO.N,BATT+*%
D36*
X119650000Y-109300000D02*
X119650000Y-111025000D01*
X113100000Y-109300000D02*
X119650000Y-109300000D01*
D38*
X131575000Y-83420000D02*
X131645000Y-83350000D01*
D36*
X113100000Y-109300000D02*
X113100000Y-111025000D01*
D38*
X124345000Y-83420000D02*
X124470000Y-83420000D01*
X124470000Y-83420000D02*
X131575000Y-83420000D01*
D36*
X116375000Y-109300000D02*
X116375000Y-111025000D01*
X119650000Y-111025000D02*
X119975000Y-111350000D01*
X119975000Y-111350000D02*
X123870000Y-111350000D01*
X113100000Y-111025000D02*
X119650000Y-111025000D01*
X123870000Y-111350000D02*
X123895000Y-111325000D01*
D40*
X127045000Y-111900000D02*
X124395000Y-111900000D01*
X124395000Y-111900000D02*
X123895000Y-111400000D01*
%TO.N,BEMF_COMMON*%
D41*
X122863872Y-101581739D02*
X121544633Y-100262500D01*
X124119022Y-101581739D02*
X122863872Y-101581739D01*
X124269022Y-101731739D02*
X124119022Y-101581739D01*
X124661789Y-101731739D02*
X124269022Y-101731739D01*
X121544633Y-100262500D02*
X120707500Y-100262500D01*
X125105051Y-102175001D02*
X124661789Y-101731739D01*
%TO.N,BEMFC*%
X119020000Y-102595000D02*
X119020000Y-101450000D01*
X124745000Y-105375000D02*
X124595000Y-105225000D01*
X124595000Y-105225000D02*
X123717894Y-105225000D01*
X123717894Y-105225000D02*
X122142894Y-103650000D01*
X120075000Y-103650000D02*
X119020000Y-102595000D01*
X122142894Y-103650000D02*
X120075000Y-103650000D01*
%TO.N,SWDIO*%
X111832500Y-96262500D02*
X113832500Y-96262500D01*
X111772880Y-96322120D02*
X111832500Y-96262500D01*
%TO.N,SWCLK*%
X113920000Y-92675000D02*
X114495000Y-93250000D01*
X112745000Y-92675000D02*
X113920000Y-92675000D01*
X114495000Y-93250000D02*
X114495000Y-94550000D01*
X114495000Y-94550000D02*
X114520000Y-94575000D01*
X111895000Y-93525000D02*
X112745000Y-92675000D01*
%TO.N,BEMFA*%
X123070978Y-101081739D02*
X122595000Y-100605761D01*
X122595000Y-100275000D02*
X122220000Y-99900000D01*
X124538261Y-101081739D02*
X123070978Y-101081739D01*
X121751739Y-99762500D02*
X120707500Y-99762500D01*
X121889240Y-99900000D02*
X121751739Y-99762500D01*
X122595000Y-100605761D02*
X122595000Y-100275000D01*
X122220000Y-99900000D02*
X121889240Y-99900000D01*
%TO.N,TELEMETRY*%
X116349334Y-93462500D02*
X116430096Y-93462500D01*
X116430096Y-93462500D02*
X117020000Y-94052404D01*
X117020000Y-94052404D02*
X117020000Y-94575000D01*
%TO.N,TELEMRX*%
X117520000Y-93633166D02*
X117520000Y-94575000D01*
X117349334Y-93462499D02*
X117520000Y-93633166D01*
%TO.N,+9V*%
D42*
X111145000Y-93125000D02*
X111245000Y-93125000D01*
X111245000Y-93125000D02*
X112495000Y-91875000D01*
X123970000Y-88500000D02*
X124345000Y-88500000D01*
X109247500Y-95022500D02*
X107495000Y-95022500D01*
X111145000Y-93125000D02*
X109247500Y-95022500D01*
X112495000Y-91875000D02*
X120595000Y-91875000D01*
X120595000Y-91875000D02*
X123970000Y-88500000D01*
%TO.N,INHA*%
D41*
X113832500Y-97762500D02*
X112887533Y-97762500D01*
X110670000Y-96500000D02*
X110670000Y-95550000D01*
X112200033Y-97075000D02*
X111245000Y-97075000D01*
X111145000Y-95075000D02*
X112164239Y-95075000D01*
X112887533Y-97762500D02*
X112200033Y-97075000D01*
X111245000Y-97075000D02*
X110670000Y-96500000D01*
X112593007Y-94646232D02*
X112593007Y-93915884D01*
X112164239Y-95075000D02*
X112593007Y-94646232D01*
X110670000Y-95550000D02*
X111145000Y-95075000D01*
%TO.N,INHB*%
X113832500Y-98262500D02*
X112680427Y-98262500D01*
X112680427Y-98262500D02*
X112142927Y-97725000D01*
X112142927Y-97725000D02*
X111145000Y-97725000D01*
%TO.N,INHC*%
X113045000Y-99027404D02*
X113284904Y-98787500D01*
X113284904Y-98787500D02*
X113782500Y-98787500D01*
X111745000Y-94310812D02*
X111480812Y-94575000D01*
X112495000Y-100075000D02*
X113058702Y-99511298D01*
X110595000Y-94575000D02*
X109420000Y-95750000D01*
X113782500Y-98787500D02*
X113807500Y-98762500D01*
X109420000Y-95750000D02*
X109420000Y-97650000D01*
X113045000Y-99497596D02*
X113045000Y-99027404D01*
X109420000Y-97650000D02*
X111845000Y-100075000D01*
X113807500Y-98762500D02*
X113832500Y-98762500D01*
X113058702Y-99511298D02*
X113045000Y-99497596D01*
X111480812Y-94575000D02*
X110595000Y-94575000D01*
X111845000Y-100075000D02*
X112495000Y-100075000D01*
%TO.N,INLA*%
X117020000Y-101972596D02*
X117020000Y-101450000D01*
X115270000Y-102600000D02*
X116392596Y-102600000D01*
X115245000Y-102625000D02*
X115270000Y-102600000D01*
X116392596Y-102600000D02*
X117020000Y-101972596D01*
%TO.N,INLB*%
X112882866Y-103325000D02*
X116374703Y-103325000D01*
X110395000Y-101975000D02*
X111120000Y-102700000D01*
X116374703Y-103325000D02*
X117520000Y-102179703D01*
X110800000Y-100813219D02*
X110395000Y-101218219D01*
X110395000Y-101218219D02*
X110395000Y-101975000D01*
X110800000Y-100550000D02*
X110800000Y-100813219D01*
X112257866Y-102700000D02*
X112882866Y-103325000D01*
X111120000Y-102700000D02*
X112257866Y-102700000D01*
X117520000Y-102179703D02*
X117520000Y-101450000D01*
%TO.N,INLC*%
X110700760Y-103200000D02*
X112050760Y-103200000D01*
X116495000Y-103925000D02*
X118020000Y-102400000D01*
X110094407Y-102593647D02*
X110700760Y-103200000D01*
X112775760Y-103925000D02*
X116495000Y-103925000D01*
X118020000Y-102400000D02*
X118020000Y-101450000D01*
X112050760Y-103200000D02*
X112775760Y-103925000D01*
%TO.N,Net-(U6-PB4)*%
X115145000Y-93594437D02*
X115562033Y-93594437D01*
X115562033Y-93594437D02*
X116020000Y-94052404D01*
X116020000Y-94052404D02*
X116020000Y-94575000D01*
%TO.N,VOLTSENSE*%
X126795000Y-106075000D02*
X123850000Y-106075000D01*
X123850000Y-106075000D02*
X121925000Y-104150000D01*
X121925000Y-104150000D02*
X119500000Y-104150000D01*
X118520000Y-103170000D02*
X118520000Y-101450000D01*
X127120000Y-105750000D02*
X126795000Y-106075000D01*
X119500000Y-104150000D02*
X118520000Y-103170000D01*
%TO.N,Net-(U6-NRST)*%
X122157500Y-98262500D02*
X122620000Y-97800000D01*
X120707500Y-98262500D02*
X122157500Y-98262500D01*
%TO.N,CURRENT*%
D42*
X136945000Y-106120000D02*
X137075000Y-106120000D01*
D41*
X121795002Y-101450000D02*
X121820000Y-101474998D01*
X120020000Y-101450000D02*
X121795002Y-101450000D01*
D42*
X138350000Y-106120000D02*
X138395000Y-106075000D01*
X137075000Y-106120000D02*
X138350000Y-106120000D01*
%TO.N,Net-(U6-BOOT0)*%
D41*
X118020000Y-93375000D02*
X118020000Y-94575000D01*
X118770000Y-92625000D02*
X118020000Y-93375000D01*
%TD*%
%TA.AperFunction,Conductor*%
%TO.N,GND*%
G36*
X119578127Y-95370706D02*
G01*
X119595478Y-95381856D01*
X119673571Y-95441779D01*
X119706380Y-95455369D01*
X119708458Y-95456321D01*
X119733166Y-95477783D01*
X119758666Y-95498331D01*
X119759415Y-95500582D01*
X119761207Y-95502139D01*
X119770392Y-95533561D01*
X119780732Y-95564625D01*
X119780555Y-95568328D01*
X119780811Y-95569202D01*
X119780456Y-95570403D01*
X119779750Y-95585238D01*
X119769500Y-95663097D01*
X119769500Y-95861903D01*
X119783989Y-95971968D01*
X119786094Y-95979822D01*
X119782814Y-95980700D01*
X119788581Y-96034573D01*
X119785517Y-96045022D01*
X119786095Y-96045177D01*
X119783990Y-96053029D01*
X119769500Y-96163098D01*
X119769500Y-96361903D01*
X119783989Y-96471968D01*
X119786094Y-96479822D01*
X119782814Y-96480700D01*
X119788581Y-96534573D01*
X119785517Y-96545022D01*
X119786095Y-96545177D01*
X119783990Y-96553029D01*
X119769500Y-96663098D01*
X119769500Y-96861903D01*
X119783989Y-96971968D01*
X119786094Y-96979822D01*
X119782814Y-96980700D01*
X119788581Y-97034573D01*
X119785517Y-97045022D01*
X119786095Y-97045177D01*
X119783990Y-97053029D01*
X119769500Y-97163098D01*
X119769500Y-97361903D01*
X119783989Y-97471968D01*
X119786094Y-97479822D01*
X119782814Y-97480700D01*
X119788581Y-97534573D01*
X119785517Y-97545022D01*
X119786095Y-97545177D01*
X119783990Y-97553029D01*
X119769500Y-97663098D01*
X119769500Y-97861903D01*
X119783989Y-97971968D01*
X119786094Y-97979822D01*
X119782814Y-97980700D01*
X119788581Y-98034573D01*
X119785517Y-98045022D01*
X119786095Y-98045177D01*
X119783990Y-98053029D01*
X119769500Y-98163098D01*
X119769500Y-98361903D01*
X119783988Y-98471963D01*
X119783991Y-98471972D01*
X119840719Y-98608926D01*
X119840721Y-98608929D01*
X119900637Y-98687014D01*
X119925831Y-98752183D01*
X119911792Y-98820628D01*
X119900637Y-98837986D01*
X119840721Y-98916070D01*
X119840719Y-98916073D01*
X119783991Y-99053027D01*
X119783990Y-99053029D01*
X119769500Y-99163098D01*
X119769500Y-99361903D01*
X119783989Y-99471968D01*
X119786094Y-99479822D01*
X119782814Y-99480700D01*
X119788581Y-99534573D01*
X119785517Y-99545022D01*
X119786095Y-99545177D01*
X119783990Y-99553029D01*
X119769500Y-99663098D01*
X119769500Y-99861903D01*
X119783989Y-99971968D01*
X119786094Y-99979822D01*
X119782814Y-99980700D01*
X119788581Y-100034573D01*
X119785517Y-100045022D01*
X119786095Y-100045177D01*
X119783990Y-100053029D01*
X119769500Y-100163098D01*
X119769500Y-100361900D01*
X119771165Y-100374545D01*
X119760396Y-100443580D01*
X119714013Y-100495833D01*
X119646743Y-100514715D01*
X119632046Y-100513664D01*
X119619401Y-100512000D01*
X119420596Y-100512000D01*
X119310531Y-100526489D01*
X119302678Y-100528594D01*
X119301802Y-100525324D01*
X119247853Y-100531067D01*
X119237477Y-100528018D01*
X119237323Y-100528595D01*
X119229470Y-100526490D01*
X119119401Y-100512000D01*
X118920596Y-100512000D01*
X118810531Y-100526489D01*
X118802678Y-100528594D01*
X118801802Y-100525324D01*
X118747853Y-100531067D01*
X118737477Y-100528018D01*
X118737323Y-100528595D01*
X118729470Y-100526490D01*
X118619401Y-100512000D01*
X118420596Y-100512000D01*
X118310531Y-100526489D01*
X118302678Y-100528594D01*
X118301802Y-100525324D01*
X118247853Y-100531067D01*
X118237477Y-100528018D01*
X118237323Y-100528595D01*
X118229470Y-100526490D01*
X118119401Y-100512000D01*
X117920596Y-100512000D01*
X117810531Y-100526489D01*
X117802678Y-100528594D01*
X117801802Y-100525324D01*
X117747853Y-100531067D01*
X117737477Y-100528018D01*
X117737323Y-100528595D01*
X117729470Y-100526490D01*
X117619401Y-100512000D01*
X117420596Y-100512000D01*
X117310531Y-100526489D01*
X117302678Y-100528594D01*
X117301802Y-100525324D01*
X117247853Y-100531067D01*
X117237477Y-100528018D01*
X117237323Y-100528595D01*
X117229470Y-100526490D01*
X117119401Y-100512000D01*
X116920596Y-100512000D01*
X116810531Y-100526489D01*
X116802678Y-100528594D01*
X116801802Y-100525324D01*
X116747853Y-100531067D01*
X116737477Y-100528018D01*
X116737323Y-100528595D01*
X116729470Y-100526490D01*
X116619401Y-100512000D01*
X116420596Y-100512000D01*
X116310531Y-100526489D01*
X116302678Y-100528594D01*
X116301802Y-100525324D01*
X116247853Y-100531067D01*
X116237477Y-100528018D01*
X116237323Y-100528595D01*
X116229470Y-100526490D01*
X116119401Y-100512000D01*
X115920596Y-100512000D01*
X115810531Y-100526489D01*
X115802678Y-100528594D01*
X115801802Y-100525324D01*
X115747853Y-100531067D01*
X115737477Y-100528018D01*
X115737323Y-100528595D01*
X115729470Y-100526490D01*
X115619401Y-100512000D01*
X115420596Y-100512000D01*
X115310536Y-100526488D01*
X115310527Y-100526491D01*
X115173573Y-100583219D01*
X115173570Y-100583221D01*
X115095486Y-100643137D01*
X115073908Y-100651478D01*
X115054387Y-100663898D01*
X115041932Y-100663840D01*
X115030317Y-100668331D01*
X115007654Y-100663682D01*
X114984518Y-100663576D01*
X114969348Y-100655825D01*
X114961872Y-100654292D01*
X114952481Y-100648767D01*
X114948384Y-100646107D01*
X114866429Y-100583221D01*
X114825220Y-100566151D01*
X114815669Y-100559951D01*
X114800026Y-100541729D01*
X114781331Y-100526663D01*
X114777683Y-100515702D01*
X114770158Y-100506937D01*
X114766850Y-100483153D01*
X114759267Y-100460369D01*
X114760248Y-100439769D01*
X114770500Y-100361901D01*
X114770499Y-100163100D01*
X114756009Y-100053028D01*
X114756008Y-100053025D01*
X114753905Y-100045174D01*
X114757207Y-100044289D01*
X114751392Y-99990575D01*
X114754501Y-99979985D01*
X114753905Y-99979826D01*
X114756008Y-99971975D01*
X114756008Y-99971974D01*
X114756009Y-99971972D01*
X114770500Y-99861901D01*
X114770499Y-99663100D01*
X114769977Y-99659138D01*
X114765589Y-99625800D01*
X114756009Y-99553028D01*
X114756008Y-99553025D01*
X114753905Y-99545174D01*
X114757207Y-99544289D01*
X114751392Y-99490575D01*
X114754501Y-99479985D01*
X114753905Y-99479826D01*
X114756008Y-99471975D01*
X114756008Y-99471974D01*
X114756009Y-99471972D01*
X114770500Y-99361901D01*
X114770499Y-99163100D01*
X114769205Y-99153273D01*
X114766033Y-99129174D01*
X114756009Y-99053028D01*
X114756008Y-99053025D01*
X114753905Y-99045174D01*
X114757207Y-99044289D01*
X114751392Y-98990575D01*
X114754501Y-98979985D01*
X114753905Y-98979826D01*
X114756008Y-98971975D01*
X114756008Y-98971974D01*
X114756009Y-98971972D01*
X114770500Y-98861901D01*
X114770499Y-98663100D01*
X114756009Y-98553028D01*
X114756008Y-98553025D01*
X114753905Y-98545174D01*
X114757207Y-98544289D01*
X114751392Y-98490575D01*
X114754501Y-98479985D01*
X114753905Y-98479826D01*
X114756008Y-98471975D01*
X114756008Y-98471974D01*
X114756009Y-98471972D01*
X114770500Y-98361901D01*
X114770499Y-98163100D01*
X114756009Y-98053028D01*
X114756008Y-98053025D01*
X114753905Y-98045174D01*
X114757207Y-98044289D01*
X114751392Y-97990575D01*
X114754501Y-97979985D01*
X114753905Y-97979826D01*
X114756008Y-97971975D01*
X114756008Y-97971974D01*
X114756009Y-97971972D01*
X114770500Y-97861901D01*
X114770499Y-97663100D01*
X114769343Y-97654322D01*
X114756009Y-97553029D01*
X114756009Y-97553028D01*
X114756008Y-97553025D01*
X114753905Y-97545174D01*
X114757207Y-97544289D01*
X114751392Y-97490575D01*
X114754501Y-97479985D01*
X114753905Y-97479826D01*
X114756008Y-97471975D01*
X114756008Y-97471974D01*
X114756009Y-97471972D01*
X114770500Y-97361901D01*
X114770499Y-97163100D01*
X114756009Y-97053028D01*
X114756008Y-97053025D01*
X114753905Y-97045174D01*
X114757207Y-97044289D01*
X114751392Y-96990575D01*
X114754501Y-96979985D01*
X114753905Y-96979826D01*
X114756008Y-96971975D01*
X114756008Y-96971974D01*
X114756009Y-96971972D01*
X114770500Y-96861901D01*
X114770499Y-96663100D01*
X114756009Y-96553028D01*
X114756008Y-96553025D01*
X114753905Y-96545174D01*
X114757207Y-96544289D01*
X114751392Y-96490575D01*
X114754501Y-96479985D01*
X114753905Y-96479826D01*
X114756008Y-96471975D01*
X114756008Y-96471974D01*
X114756009Y-96471972D01*
X114770500Y-96361901D01*
X114770499Y-96163100D01*
X114756009Y-96053028D01*
X114756008Y-96053025D01*
X114753905Y-96045174D01*
X114757207Y-96044289D01*
X114751392Y-95990575D01*
X114754501Y-95979985D01*
X114753905Y-95979826D01*
X114756008Y-95971975D01*
X114756008Y-95971974D01*
X114756009Y-95971972D01*
X114770500Y-95861901D01*
X114770499Y-95663100D01*
X114768835Y-95650459D01*
X114779601Y-95581425D01*
X114825981Y-95529169D01*
X114893249Y-95510284D01*
X114907959Y-95511336D01*
X114908945Y-95511465D01*
X114920599Y-95513000D01*
X115119400Y-95512999D01*
X115119401Y-95512999D01*
X115140024Y-95510284D01*
X115229472Y-95498509D01*
X115229475Y-95498507D01*
X115237326Y-95496405D01*
X115238210Y-95499707D01*
X115291925Y-95493892D01*
X115302514Y-95497001D01*
X115302674Y-95496405D01*
X115310524Y-95498508D01*
X115310526Y-95498508D01*
X115310528Y-95498509D01*
X115420599Y-95513000D01*
X115619400Y-95512999D01*
X115619401Y-95512999D01*
X115640024Y-95510284D01*
X115729472Y-95498509D01*
X115729475Y-95498507D01*
X115737326Y-95496405D01*
X115738210Y-95499707D01*
X115791925Y-95493892D01*
X115802514Y-95497001D01*
X115802674Y-95496405D01*
X115810524Y-95498508D01*
X115810526Y-95498508D01*
X115810528Y-95498509D01*
X115920599Y-95513000D01*
X116119400Y-95512999D01*
X116119401Y-95512999D01*
X116140024Y-95510284D01*
X116229472Y-95498509D01*
X116229475Y-95498507D01*
X116237326Y-95496405D01*
X116238210Y-95499707D01*
X116291925Y-95493892D01*
X116302514Y-95497001D01*
X116302674Y-95496405D01*
X116310524Y-95498508D01*
X116310526Y-95498508D01*
X116310528Y-95498509D01*
X116420599Y-95513000D01*
X116619400Y-95512999D01*
X116619401Y-95512999D01*
X116640024Y-95510284D01*
X116729472Y-95498509D01*
X116729475Y-95498507D01*
X116737326Y-95496405D01*
X116738210Y-95499707D01*
X116791925Y-95493892D01*
X116802514Y-95497001D01*
X116802674Y-95496405D01*
X116810524Y-95498508D01*
X116810526Y-95498508D01*
X116810528Y-95498509D01*
X116920599Y-95513000D01*
X117119400Y-95512999D01*
X117119401Y-95512999D01*
X117140024Y-95510284D01*
X117229472Y-95498509D01*
X117229475Y-95498507D01*
X117237326Y-95496405D01*
X117238210Y-95499707D01*
X117291925Y-95493892D01*
X117302514Y-95497001D01*
X117302674Y-95496405D01*
X117310524Y-95498508D01*
X117310526Y-95498508D01*
X117310528Y-95498509D01*
X117420599Y-95513000D01*
X117619400Y-95512999D01*
X117619401Y-95512999D01*
X117640024Y-95510284D01*
X117729472Y-95498509D01*
X117729475Y-95498507D01*
X117737326Y-95496405D01*
X117738210Y-95499707D01*
X117791925Y-95493892D01*
X117802514Y-95497001D01*
X117802674Y-95496405D01*
X117810524Y-95498508D01*
X117810526Y-95498508D01*
X117810528Y-95498509D01*
X117920599Y-95513000D01*
X118119400Y-95512999D01*
X118119401Y-95512999D01*
X118140024Y-95510284D01*
X118229472Y-95498509D01*
X118229475Y-95498507D01*
X118237326Y-95496405D01*
X118238210Y-95499707D01*
X118291925Y-95493892D01*
X118302514Y-95497001D01*
X118302674Y-95496405D01*
X118310524Y-95498508D01*
X118310526Y-95498508D01*
X118310528Y-95498509D01*
X118420599Y-95513000D01*
X118619400Y-95512999D01*
X118619401Y-95512999D01*
X118640024Y-95510284D01*
X118729472Y-95498509D01*
X118729475Y-95498507D01*
X118737326Y-95496405D01*
X118738210Y-95499707D01*
X118791925Y-95493892D01*
X118802514Y-95497001D01*
X118802674Y-95496405D01*
X118810524Y-95498508D01*
X118810526Y-95498508D01*
X118810528Y-95498509D01*
X118920599Y-95513000D01*
X119119400Y-95512999D01*
X119119403Y-95512999D01*
X119229463Y-95498511D01*
X119229467Y-95498509D01*
X119229472Y-95498509D01*
X119366429Y-95441779D01*
X119444515Y-95381860D01*
X119509682Y-95356668D01*
X119578127Y-95370706D01*
G37*
%TD.AperFunction*%
%TA.AperFunction,Conductor*%
G36*
X127145520Y-94495185D02*
G01*
X127166162Y-94511819D01*
X127458181Y-94803838D01*
X127491666Y-94865161D01*
X127494500Y-94891519D01*
X127494500Y-95652378D01*
X127474815Y-95719417D01*
X127422011Y-95765172D01*
X127354932Y-95774816D01*
X127354905Y-95775097D01*
X127353765Y-95774984D01*
X127352853Y-95775116D01*
X127349809Y-95774595D01*
X127348843Y-95774500D01*
X127348842Y-95774500D01*
X127191158Y-95774500D01*
X127191155Y-95774500D01*
X127036510Y-95805261D01*
X127036498Y-95805264D01*
X126890827Y-95865602D01*
X126890814Y-95865609D01*
X126759711Y-95953210D01*
X126759707Y-95953213D01*
X126648213Y-96064707D01*
X126648210Y-96064711D01*
X126560609Y-96195814D01*
X126560602Y-96195827D01*
X126500264Y-96341498D01*
X126500261Y-96341510D01*
X126469500Y-96496153D01*
X126469500Y-96653846D01*
X126500261Y-96808489D01*
X126500264Y-96808501D01*
X126560602Y-96954172D01*
X126560609Y-96954185D01*
X126648210Y-97085288D01*
X126648213Y-97085292D01*
X126759707Y-97196786D01*
X126759711Y-97196789D01*
X126890814Y-97284390D01*
X126890827Y-97284397D01*
X126954906Y-97310939D01*
X127009310Y-97354779D01*
X127031375Y-97421073D01*
X127014096Y-97488773D01*
X126962959Y-97536384D01*
X126907454Y-97549500D01*
X125395316Y-97549500D01*
X125347864Y-97540061D01*
X125203501Y-97480264D01*
X125203489Y-97480261D01*
X125048845Y-97449500D01*
X125048842Y-97449500D01*
X124891158Y-97449500D01*
X124891155Y-97449500D01*
X124736510Y-97480261D01*
X124736498Y-97480264D01*
X124590827Y-97540602D01*
X124590814Y-97540609D01*
X124459711Y-97628210D01*
X124459707Y-97628213D01*
X124348213Y-97739707D01*
X124348210Y-97739711D01*
X124260609Y-97870814D01*
X124260602Y-97870827D01*
X124200264Y-98016498D01*
X124200261Y-98016508D01*
X124186920Y-98083579D01*
X124154535Y-98145490D01*
X124152984Y-98147068D01*
X123724373Y-98575681D01*
X123697445Y-98590384D01*
X123671627Y-98606977D01*
X123665426Y-98607868D01*
X123663050Y-98609166D01*
X123636692Y-98612000D01*
X123582518Y-98612000D01*
X123515479Y-98592315D01*
X123469724Y-98539511D01*
X123459780Y-98470353D01*
X123476980Y-98422903D01*
X123531998Y-98333705D01*
X123531997Y-98333705D01*
X123532003Y-98333697D01*
X123585349Y-98172708D01*
X123595500Y-98073345D01*
X123595499Y-97526656D01*
X123595009Y-97521863D01*
X123585349Y-97427292D01*
X123585348Y-97427289D01*
X123583288Y-97421073D01*
X123532003Y-97266303D01*
X123531999Y-97266297D01*
X123531998Y-97266294D01*
X123442970Y-97121959D01*
X123442967Y-97121955D01*
X123323044Y-97002032D01*
X123323040Y-97002029D01*
X123178705Y-96913001D01*
X123178699Y-96912998D01*
X123178697Y-96912997D01*
X123178694Y-96912996D01*
X123017709Y-96859651D01*
X122918346Y-96849500D01*
X122321662Y-96849500D01*
X122321644Y-96849501D01*
X122222292Y-96859650D01*
X122222289Y-96859651D01*
X122061305Y-96912996D01*
X122061294Y-96913001D01*
X121916959Y-97002029D01*
X121841398Y-97077590D01*
X121780074Y-97111074D01*
X121710383Y-97106089D01*
X121654449Y-97064218D01*
X121630033Y-96998753D01*
X121630778Y-96973722D01*
X121631008Y-96971974D01*
X121631009Y-96971972D01*
X121645500Y-96861901D01*
X121645499Y-96663100D01*
X121631009Y-96553028D01*
X121631008Y-96553025D01*
X121628905Y-96545174D01*
X121632207Y-96544289D01*
X121626392Y-96490575D01*
X121629501Y-96479985D01*
X121628905Y-96479826D01*
X121631008Y-96471975D01*
X121631008Y-96471974D01*
X121631009Y-96471972D01*
X121645500Y-96361901D01*
X121645499Y-96163100D01*
X121631009Y-96053028D01*
X121631008Y-96053025D01*
X121628905Y-96045174D01*
X121632207Y-96044289D01*
X121626392Y-95990575D01*
X121629501Y-95979985D01*
X121628905Y-95979826D01*
X121631008Y-95971975D01*
X121631008Y-95971974D01*
X121631009Y-95971972D01*
X121645500Y-95861901D01*
X121645499Y-95663100D01*
X121631009Y-95553028D01*
X121631008Y-95553025D01*
X121628905Y-95545174D01*
X121632207Y-95544289D01*
X121626392Y-95490575D01*
X121629501Y-95479985D01*
X121628905Y-95479826D01*
X121631008Y-95471975D01*
X121631008Y-95471974D01*
X121631009Y-95471972D01*
X121645500Y-95361901D01*
X121645499Y-95163100D01*
X121645499Y-95163096D01*
X121631011Y-95053036D01*
X121631009Y-95053031D01*
X121631009Y-95053028D01*
X121574279Y-94916071D01*
X121484036Y-94798464D01*
X121366429Y-94708221D01*
X121366427Y-94708220D01*
X121366422Y-94708216D01*
X121364116Y-94706885D01*
X121362559Y-94705252D01*
X121359981Y-94703274D01*
X121360289Y-94702871D01*
X121315902Y-94656317D01*
X121302681Y-94587710D01*
X121328651Y-94522846D01*
X121385566Y-94482319D01*
X121426119Y-94475500D01*
X127078481Y-94475500D01*
X127145520Y-94495185D01*
G37*
%TD.AperFunction*%
%TA.AperFunction,Conductor*%
G36*
X108156505Y-76957685D02*
G01*
X108202260Y-77010489D01*
X108212204Y-77079647D01*
X108183179Y-77143203D01*
X108132799Y-77178182D01*
X108057671Y-77206202D01*
X108057664Y-77206206D01*
X107942455Y-77292452D01*
X107942452Y-77292455D01*
X107856206Y-77407664D01*
X107856202Y-77407671D01*
X107805908Y-77542517D01*
X107799501Y-77602116D01*
X107799500Y-77602135D01*
X107799500Y-79397870D01*
X107799501Y-79397876D01*
X107805908Y-79457483D01*
X107856202Y-79592328D01*
X107856206Y-79592335D01*
X107942452Y-79707544D01*
X107942455Y-79707547D01*
X108057664Y-79793793D01*
X108057671Y-79793797D01*
X108192517Y-79844091D01*
X108192516Y-79844091D01*
X108199444Y-79844835D01*
X108252127Y-79850500D01*
X110047872Y-79850499D01*
X110107483Y-79844091D01*
X110242331Y-79793796D01*
X110357546Y-79707546D01*
X110443796Y-79592331D01*
X110492810Y-79460916D01*
X110534681Y-79404984D01*
X110600145Y-79380566D01*
X110668418Y-79395417D01*
X110696673Y-79416569D01*
X110810213Y-79530109D01*
X110982179Y-79655048D01*
X110982181Y-79655049D01*
X110982184Y-79655051D01*
X111171588Y-79751557D01*
X111373757Y-79817246D01*
X111583713Y-79850500D01*
X111583714Y-79850500D01*
X111796286Y-79850500D01*
X111796287Y-79850500D01*
X112006243Y-79817246D01*
X112208412Y-79751557D01*
X112397816Y-79655051D01*
X112484138Y-79592335D01*
X112569786Y-79530109D01*
X112569788Y-79530106D01*
X112569792Y-79530104D01*
X112720104Y-79379792D01*
X112720106Y-79379788D01*
X112720109Y-79379786D01*
X112845048Y-79207820D01*
X112845047Y-79207820D01*
X112845051Y-79207816D01*
X112941557Y-79018412D01*
X113007246Y-78816243D01*
X113040500Y-78606287D01*
X113040500Y-78393713D01*
X113007246Y-78183757D01*
X112941557Y-77981588D01*
X112845051Y-77792184D01*
X112845049Y-77792181D01*
X112845048Y-77792179D01*
X112720109Y-77620213D01*
X112569786Y-77469890D01*
X112397820Y-77344951D01*
X112208414Y-77248444D01*
X112208413Y-77248443D01*
X112208412Y-77248443D01*
X112006243Y-77182754D01*
X112006233Y-77182752D01*
X112005487Y-77182573D01*
X112005229Y-77182424D01*
X112001610Y-77181249D01*
X112001857Y-77180488D01*
X111944897Y-77147780D01*
X111912735Y-77085753D01*
X111919214Y-77016184D01*
X111962275Y-76961161D01*
X112028249Y-76938155D01*
X112034439Y-76938000D01*
X134948772Y-76938000D01*
X135015811Y-76957685D01*
X135061566Y-77010489D01*
X135071510Y-77079647D01*
X135042485Y-77143203D01*
X135026363Y-77158392D01*
X135026382Y-77158413D01*
X135025808Y-77158915D01*
X135024262Y-77160373D01*
X135023337Y-77161082D01*
X134861081Y-77323338D01*
X134721392Y-77505382D01*
X134606657Y-77704109D01*
X134606653Y-77704118D01*
X134518840Y-77916116D01*
X134504374Y-77970104D01*
X134472281Y-78025689D01*
X133615532Y-78882438D01*
X133554209Y-78915923D01*
X133485441Y-78911279D01*
X133089906Y-78767317D01*
X132685015Y-78658828D01*
X132685018Y-78658828D01*
X132685008Y-78658826D01*
X132685002Y-78658824D01*
X132684998Y-78658824D01*
X132272192Y-78586035D01*
X131854597Y-78549500D01*
X131854594Y-78549500D01*
X131435406Y-78549500D01*
X131435402Y-78549500D01*
X131017809Y-78586035D01*
X131017805Y-78586035D01*
X130605001Y-78658824D01*
X130604984Y-78658828D01*
X130200097Y-78767316D01*
X130065683Y-78816239D01*
X129806178Y-78910691D01*
X129806174Y-78910692D01*
X129806168Y-78910695D01*
X129806160Y-78910698D01*
X129426273Y-79087843D01*
X129426257Y-79087851D01*
X129063244Y-79297438D01*
X129063218Y-79297454D01*
X128719855Y-79537879D01*
X128398737Y-79807331D01*
X128102331Y-80103737D01*
X127832879Y-80424855D01*
X127592454Y-80768218D01*
X127592438Y-80768244D01*
X127382851Y-81131257D01*
X127382843Y-81131273D01*
X127205698Y-81511160D01*
X127205692Y-81511175D01*
X127205691Y-81511178D01*
X127086769Y-81837911D01*
X127045345Y-81894174D01*
X126980076Y-81919110D01*
X126970249Y-81919500D01*
X124226903Y-81919500D01*
X123993631Y-81956446D01*
X123769003Y-82029433D01*
X123558566Y-82136657D01*
X123367487Y-82275485D01*
X123309790Y-82333182D01*
X123248466Y-82366666D01*
X123222109Y-82369500D01*
X122244998Y-82369500D01*
X122244980Y-82369501D01*
X122142203Y-82380000D01*
X122142200Y-82380001D01*
X121975668Y-82435185D01*
X121975663Y-82435187D01*
X121826342Y-82527289D01*
X121702289Y-82651342D01*
X121610187Y-82800663D01*
X121610186Y-82800666D01*
X121555001Y-82967203D01*
X121555001Y-82967204D01*
X121555000Y-82967204D01*
X121544500Y-83069983D01*
X121544500Y-83770001D01*
X121544501Y-83770019D01*
X121555000Y-83872796D01*
X121555001Y-83872799D01*
X121589593Y-83977188D01*
X121610186Y-84039334D01*
X121702288Y-84188656D01*
X121826344Y-84312712D01*
X121975666Y-84404814D01*
X122142203Y-84459999D01*
X122244991Y-84470500D01*
X123222110Y-84470499D01*
X123289149Y-84490183D01*
X123309791Y-84506818D01*
X123367490Y-84564517D01*
X123558567Y-84703343D01*
X123657991Y-84754002D01*
X123769003Y-84810566D01*
X123769005Y-84810566D01*
X123769008Y-84810568D01*
X123889412Y-84849689D01*
X123993631Y-84883553D01*
X124226903Y-84920500D01*
X124226908Y-84920500D01*
X124351908Y-84920500D01*
X127021204Y-84920500D01*
X127088243Y-84940185D01*
X127133998Y-84992989D01*
X127137726Y-85002090D01*
X127205688Y-85188817D01*
X127382843Y-85568726D01*
X127382851Y-85568742D01*
X127483072Y-85742328D01*
X127592443Y-85931764D01*
X127592447Y-85931770D01*
X127592454Y-85931781D01*
X127832879Y-86275144D01*
X128027640Y-86507249D01*
X128102329Y-86596260D01*
X128398740Y-86892671D01*
X128532255Y-87004704D01*
X128719855Y-87162120D01*
X129063218Y-87402545D01*
X129063225Y-87402549D01*
X129063236Y-87402557D01*
X129426264Y-87612152D01*
X129426273Y-87612156D01*
X129806160Y-87789301D01*
X129806164Y-87789302D01*
X129806178Y-87789309D01*
X130200087Y-87932680D01*
X130200093Y-87932681D01*
X130200097Y-87932683D01*
X130310359Y-87962227D01*
X130604992Y-88041174D01*
X131017812Y-88113965D01*
X131435404Y-88150499D01*
X131435405Y-88150500D01*
X131435406Y-88150500D01*
X131854595Y-88150500D01*
X131854595Y-88150499D01*
X132272188Y-88113965D01*
X132685008Y-88041174D01*
X133089913Y-87932680D01*
X133483822Y-87789309D01*
X133863736Y-87612152D01*
X134226764Y-87402557D01*
X134570143Y-87162121D01*
X134891260Y-86892671D01*
X135187671Y-86596260D01*
X135457121Y-86275143D01*
X135697557Y-85931764D01*
X135907152Y-85568736D01*
X136084309Y-85188822D01*
X136227680Y-84794913D01*
X136336174Y-84390008D01*
X136408965Y-83977188D01*
X136445500Y-83559594D01*
X136445500Y-83140406D01*
X136408965Y-82722812D01*
X136336174Y-82309992D01*
X136231542Y-81919500D01*
X136227683Y-81905097D01*
X136227681Y-81905093D01*
X136227680Y-81905087D01*
X136084309Y-81511178D01*
X136054289Y-81446801D01*
X135907156Y-81131273D01*
X135907148Y-81131257D01*
X135846239Y-81025760D01*
X135829766Y-80957860D01*
X135852618Y-80891833D01*
X135865939Y-80876085D01*
X136525027Y-80216997D01*
X136580611Y-80184906D01*
X136743887Y-80141158D01*
X136955888Y-80053344D01*
X137154612Y-79938611D01*
X137324755Y-79808054D01*
X137389921Y-79782861D01*
X137458366Y-79796899D01*
X137508356Y-79845712D01*
X137524020Y-79913804D01*
X137522971Y-79924120D01*
X137514546Y-79982572D01*
X137340505Y-94177020D01*
X137320000Y-94243813D01*
X137266639Y-94288917D01*
X137216514Y-94299500D01*
X136563384Y-94299500D01*
X136544145Y-94301248D01*
X136492807Y-94305913D01*
X136330393Y-94356522D01*
X136184811Y-94444530D01*
X136064530Y-94564811D01*
X135976522Y-94710393D01*
X135925913Y-94872807D01*
X135924213Y-94891519D01*
X135919500Y-94943384D01*
X135919500Y-95456616D01*
X135920896Y-95471975D01*
X135925913Y-95527192D01*
X135925913Y-95527194D01*
X135925914Y-95527196D01*
X135976522Y-95689606D01*
X136046439Y-95805263D01*
X136064530Y-95835188D01*
X136184811Y-95955469D01*
X136184813Y-95955470D01*
X136184815Y-95955472D01*
X136330394Y-96043478D01*
X136492804Y-96094086D01*
X136563384Y-96100500D01*
X136563387Y-96100500D01*
X137191391Y-96100500D01*
X137258430Y-96120185D01*
X137304185Y-96172989D01*
X137315382Y-96226020D01*
X137265194Y-100319250D01*
X137244689Y-100386043D01*
X137191328Y-100431147D01*
X137122052Y-100440242D01*
X137093751Y-100432292D01*
X137091209Y-100431239D01*
X137028497Y-100405263D01*
X137028492Y-100405262D01*
X137028489Y-100405261D01*
X136873845Y-100374500D01*
X136873842Y-100374500D01*
X136716158Y-100374500D01*
X136716155Y-100374500D01*
X136561510Y-100405261D01*
X136561498Y-100405264D01*
X136415827Y-100465602D01*
X136415814Y-100465609D01*
X136284711Y-100553210D01*
X136284707Y-100553213D01*
X136173213Y-100664707D01*
X136173210Y-100664711D01*
X136085609Y-100795814D01*
X136085602Y-100795827D01*
X136025264Y-100941498D01*
X136025261Y-100941510D01*
X135994500Y-101096153D01*
X135994500Y-101253846D01*
X136008914Y-101326309D01*
X136002687Y-101395900D01*
X135959824Y-101451078D01*
X135893934Y-101474322D01*
X135887297Y-101474500D01*
X134645316Y-101474500D01*
X134597864Y-101465061D01*
X134453501Y-101405264D01*
X134453489Y-101405261D01*
X134298845Y-101374500D01*
X134298842Y-101374500D01*
X134141158Y-101374500D01*
X134141155Y-101374500D01*
X133986510Y-101405261D01*
X133986498Y-101405264D01*
X133840827Y-101465602D01*
X133840814Y-101465609D01*
X133709711Y-101553210D01*
X133709707Y-101553213D01*
X133598213Y-101664707D01*
X133598210Y-101664711D01*
X133510609Y-101795814D01*
X133510602Y-101795827D01*
X133450264Y-101941498D01*
X133450261Y-101941510D01*
X133419500Y-102096153D01*
X133419500Y-102253846D01*
X133450261Y-102408489D01*
X133450264Y-102408501D01*
X133510602Y-102554172D01*
X133510609Y-102554185D01*
X133598210Y-102685288D01*
X133598213Y-102685292D01*
X133709707Y-102796786D01*
X133709711Y-102796789D01*
X133840814Y-102884390D01*
X133840827Y-102884397D01*
X133986498Y-102944735D01*
X133986503Y-102944737D01*
X134127680Y-102972819D01*
X134141153Y-102975499D01*
X134141156Y-102975500D01*
X134141158Y-102975500D01*
X134298844Y-102975500D01*
X134298845Y-102975499D01*
X134453497Y-102944737D01*
X134528963Y-102913478D01*
X134597864Y-102884939D01*
X134645316Y-102875500D01*
X137108323Y-102875500D01*
X137175362Y-102895185D01*
X137221117Y-102947989D01*
X137232314Y-103001020D01*
X137227694Y-103377782D01*
X137207189Y-103444575D01*
X137153828Y-103489679D01*
X137084552Y-103498774D01*
X137021357Y-103468972D01*
X137016022Y-103463943D01*
X137005292Y-103453213D01*
X137005288Y-103453210D01*
X136874185Y-103365609D01*
X136874172Y-103365602D01*
X136728501Y-103305264D01*
X136728489Y-103305261D01*
X136573845Y-103274500D01*
X136573842Y-103274500D01*
X136416158Y-103274500D01*
X136416155Y-103274500D01*
X136261510Y-103305261D01*
X136261498Y-103305264D01*
X136115827Y-103365602D01*
X136115814Y-103365609D01*
X135984711Y-103453210D01*
X135984707Y-103453213D01*
X135873213Y-103564707D01*
X135873210Y-103564711D01*
X135785609Y-103695814D01*
X135785602Y-103695827D01*
X135725264Y-103841498D01*
X135725261Y-103841510D01*
X135694500Y-103996153D01*
X135694500Y-104153846D01*
X135725261Y-104308489D01*
X135725264Y-104308501D01*
X135785061Y-104452864D01*
X135794500Y-104500316D01*
X135794500Y-104581006D01*
X135794500Y-104718994D01*
X135794500Y-104718996D01*
X135794499Y-104718996D01*
X135821418Y-104854322D01*
X135821421Y-104854332D01*
X135874222Y-104981807D01*
X135950887Y-105096545D01*
X135950888Y-105096546D01*
X136262580Y-105408237D01*
X136286788Y-105442469D01*
X136291152Y-105451604D01*
X136302131Y-105489393D01*
X136338915Y-105551593D01*
X136341284Y-105556551D01*
X136346013Y-105585846D01*
X136353309Y-105614605D01*
X136351596Y-105620435D01*
X136352419Y-105625528D01*
X136345323Y-105641802D01*
X136336128Y-105673119D01*
X136302132Y-105730604D01*
X136302129Y-105730611D01*
X136257335Y-105884791D01*
X136257334Y-105884797D01*
X136254500Y-105920811D01*
X136254500Y-105988517D01*
X136252118Y-106012706D01*
X136244500Y-106051007D01*
X136244500Y-106188993D01*
X136252118Y-106227296D01*
X136254500Y-106251482D01*
X136254500Y-106319168D01*
X136254501Y-106319192D01*
X136257335Y-106355205D01*
X136302129Y-106509388D01*
X136302131Y-106509393D01*
X136383863Y-106647595D01*
X136383869Y-106647603D01*
X136497396Y-106761130D01*
X136497400Y-106761133D01*
X136497402Y-106761135D01*
X136635607Y-106842869D01*
X136646914Y-106846154D01*
X136789791Y-106887664D01*
X136789794Y-106887664D01*
X136789796Y-106887665D01*
X136825819Y-106890500D01*
X136833121Y-106890499D01*
X136857314Y-106892881D01*
X136963596Y-106914022D01*
X136996157Y-106920500D01*
X136996158Y-106920500D01*
X137153844Y-106920500D01*
X137292685Y-106892882D01*
X137306795Y-106890910D01*
X137311833Y-106890499D01*
X137324180Y-106890499D01*
X137360204Y-106887665D01*
X137365525Y-106886118D01*
X137377342Y-106885155D01*
X137405759Y-106891039D01*
X137434626Y-106894079D01*
X137439563Y-106898039D01*
X137445760Y-106899323D01*
X137466487Y-106919639D01*
X137489125Y-106937801D01*
X137491136Y-106943801D01*
X137495657Y-106948232D01*
X137502109Y-106976530D01*
X137511335Y-107004047D01*
X137511424Y-107008999D01*
X137497793Y-113645864D01*
X137477971Y-113712863D01*
X137425073Y-113758509D01*
X137355894Y-113768310D01*
X137341700Y-113765384D01*
X137282248Y-113749454D01*
X137282241Y-113749452D01*
X137282238Y-113749452D01*
X137231681Y-113742796D01*
X137054741Y-113719500D01*
X137054734Y-113719500D01*
X136825266Y-113719500D01*
X136825258Y-113719500D01*
X136608715Y-113748009D01*
X136597762Y-113749452D01*
X136527382Y-113768310D01*
X136376112Y-113808842D01*
X136164123Y-113896650D01*
X136164109Y-113896657D01*
X135965382Y-114011392D01*
X135783338Y-114151081D01*
X135621081Y-114313338D01*
X135481392Y-114495382D01*
X135366657Y-114694109D01*
X135366650Y-114694123D01*
X135278842Y-114906112D01*
X135219453Y-115127759D01*
X135219451Y-115127770D01*
X135189500Y-115355258D01*
X135189500Y-115584741D01*
X135198211Y-115650901D01*
X135219452Y-115812238D01*
X135240034Y-115889051D01*
X135278842Y-116033887D01*
X135366650Y-116245876D01*
X135366657Y-116245890D01*
X135481392Y-116444617D01*
X135621081Y-116626661D01*
X135621089Y-116626670D01*
X135719738Y-116725319D01*
X135753223Y-116786642D01*
X135748239Y-116856334D01*
X135706367Y-116912267D01*
X135640903Y-116936684D01*
X135632057Y-116937000D01*
X107899428Y-116937000D01*
X107890582Y-116936684D01*
X107868622Y-116935113D01*
X107690442Y-116922369D01*
X107672931Y-116919851D01*
X107481209Y-116878145D01*
X107464234Y-116873161D01*
X107280394Y-116804593D01*
X107264300Y-116797243D01*
X107092091Y-116703209D01*
X107077208Y-116693644D01*
X106920135Y-116576061D01*
X106906764Y-116564475D01*
X106768024Y-116425735D01*
X106756438Y-116412364D01*
X106638855Y-116255291D01*
X106629290Y-116240408D01*
X106535256Y-116068199D01*
X106527909Y-116052111D01*
X106459336Y-115868260D01*
X106454354Y-115851290D01*
X106445859Y-115812240D01*
X106412647Y-115659563D01*
X106410130Y-115642056D01*
X106406030Y-115584734D01*
X106395816Y-115441918D01*
X106395500Y-115433072D01*
X106395500Y-104826153D01*
X108549500Y-104826153D01*
X108549500Y-104983846D01*
X108580261Y-105138489D01*
X108580264Y-105138501D01*
X108640602Y-105284172D01*
X108640609Y-105284185D01*
X108728210Y-105415288D01*
X108728213Y-105415292D01*
X108839707Y-105526786D01*
X108839711Y-105526789D01*
X108970814Y-105614390D01*
X108970827Y-105614397D01*
X109036990Y-105641802D01*
X109116503Y-105674737D01*
X109271153Y-105705499D01*
X109271156Y-105705500D01*
X109271158Y-105705500D01*
X109428844Y-105705500D01*
X109428845Y-105705499D01*
X109583497Y-105674737D01*
X109729179Y-105614394D01*
X109860289Y-105526789D01*
X109971789Y-105415289D01*
X110059394Y-105284179D01*
X110119737Y-105138497D01*
X110150500Y-104983842D01*
X110150500Y-104826158D01*
X110150500Y-104826155D01*
X110150499Y-104826153D01*
X110144658Y-104796789D01*
X110119737Y-104671503D01*
X110113015Y-104655274D01*
X110059397Y-104525827D01*
X110059390Y-104525814D01*
X109971789Y-104394711D01*
X109971786Y-104394707D01*
X109860292Y-104283213D01*
X109860288Y-104283210D01*
X109729185Y-104195609D01*
X109729172Y-104195602D01*
X109583501Y-104135264D01*
X109583489Y-104135261D01*
X109428845Y-104104500D01*
X109428842Y-104104500D01*
X109271158Y-104104500D01*
X109271155Y-104104500D01*
X109116510Y-104135261D01*
X109116498Y-104135264D01*
X108970827Y-104195602D01*
X108970814Y-104195609D01*
X108839711Y-104283210D01*
X108839707Y-104283213D01*
X108728213Y-104394707D01*
X108728210Y-104394711D01*
X108640609Y-104525814D01*
X108640602Y-104525827D01*
X108580264Y-104671498D01*
X108580261Y-104671510D01*
X108549500Y-104826153D01*
X106395500Y-104826153D01*
X106395500Y-94943653D01*
X106694500Y-94943653D01*
X106694500Y-95101346D01*
X106725261Y-95255989D01*
X106725264Y-95256001D01*
X106785602Y-95401672D01*
X106785609Y-95401685D01*
X106873210Y-95532788D01*
X106873213Y-95532792D01*
X106984707Y-95644286D01*
X106984711Y-95644289D01*
X107115814Y-95731890D01*
X107115827Y-95731897D01*
X107261498Y-95792235D01*
X107261503Y-95792237D01*
X107416153Y-95822999D01*
X107416156Y-95823000D01*
X107416158Y-95823000D01*
X107573844Y-95823000D01*
X107573845Y-95822999D01*
X107728497Y-95792237D01*
X107803963Y-95760978D01*
X107872864Y-95732439D01*
X107920316Y-95723000D01*
X108645500Y-95723000D01*
X108712539Y-95742685D01*
X108758294Y-95795489D01*
X108769500Y-95847000D01*
X108769500Y-97714071D01*
X108788541Y-97809792D01*
X108788541Y-97809793D01*
X108794497Y-97839737D01*
X108794500Y-97839746D01*
X108835531Y-97938805D01*
X108843535Y-97958127D01*
X108901697Y-98045174D01*
X108914726Y-98064673D01*
X110480401Y-99630348D01*
X110496121Y-99659138D01*
X110512868Y-99687363D01*
X110512786Y-99689656D01*
X110513886Y-99691671D01*
X110511544Y-99724407D01*
X110510374Y-99757188D01*
X110509065Y-99759072D01*
X110508902Y-99761363D01*
X110489235Y-99787633D01*
X110470526Y-99814581D01*
X110467893Y-99816143D01*
X110467030Y-99817296D01*
X110440172Y-99832590D01*
X110415501Y-99842809D01*
X110346032Y-99850278D01*
X110320597Y-99842809D01*
X110233943Y-99806916D01*
X110233931Y-99806913D01*
X110079287Y-99776152D01*
X110079284Y-99776152D01*
X109921600Y-99776152D01*
X109921597Y-99776152D01*
X109766952Y-99806913D01*
X109766940Y-99806916D01*
X109621269Y-99867254D01*
X109621256Y-99867261D01*
X109490153Y-99954862D01*
X109490149Y-99954865D01*
X109406834Y-100038181D01*
X109345511Y-100071666D01*
X109319153Y-100074500D01*
X109171155Y-100074500D01*
X109016510Y-100105261D01*
X109016498Y-100105264D01*
X108870827Y-100165602D01*
X108870814Y-100165609D01*
X108739711Y-100253210D01*
X108739707Y-100253213D01*
X108628213Y-100364707D01*
X108628210Y-100364711D01*
X108540609Y-100495814D01*
X108540602Y-100495827D01*
X108480264Y-100641498D01*
X108480261Y-100641510D01*
X108449500Y-100796153D01*
X108449500Y-100953846D01*
X108480261Y-101108489D01*
X108480264Y-101108501D01*
X108540602Y-101254172D01*
X108540609Y-101254185D01*
X108628210Y-101385288D01*
X108628213Y-101385292D01*
X108739707Y-101496786D01*
X108739711Y-101496789D01*
X108870814Y-101584390D01*
X108870827Y-101584397D01*
X108981943Y-101630422D01*
X109016503Y-101644737D01*
X109171153Y-101675499D01*
X109171156Y-101675500D01*
X109171158Y-101675500D01*
X109328844Y-101675500D01*
X109328845Y-101675499D01*
X109483497Y-101644737D01*
X109573048Y-101607643D01*
X109605675Y-101604136D01*
X109638147Y-101599467D01*
X109640234Y-101600420D01*
X109642517Y-101600175D01*
X109671860Y-101614863D01*
X109701703Y-101628492D01*
X109702943Y-101630422D01*
X109704996Y-101631450D01*
X109721736Y-101659665D01*
X109739477Y-101687270D01*
X109739912Y-101690299D01*
X109740648Y-101691539D01*
X109744500Y-101722205D01*
X109744500Y-101798414D01*
X109724815Y-101865453D01*
X109689391Y-101901516D01*
X109584118Y-101971857D01*
X109584114Y-101971860D01*
X109472620Y-102083354D01*
X109472617Y-102083358D01*
X109385016Y-102214461D01*
X109385009Y-102214474D01*
X109324671Y-102360145D01*
X109324668Y-102360157D01*
X109293907Y-102514800D01*
X109293907Y-102672493D01*
X109324668Y-102827136D01*
X109324671Y-102827148D01*
X109385009Y-102972819D01*
X109385016Y-102972832D01*
X109472617Y-103103935D01*
X109472620Y-103103939D01*
X109584114Y-103215433D01*
X109584118Y-103215436D01*
X109715221Y-103303037D01*
X109715234Y-103303044D01*
X109802637Y-103339246D01*
X109860910Y-103363384D01*
X109927987Y-103376726D01*
X109989895Y-103409108D01*
X109991475Y-103410661D01*
X110286085Y-103705272D01*
X110286092Y-103705278D01*
X110392623Y-103776459D01*
X110392627Y-103776461D01*
X110392634Y-103776466D01*
X110439362Y-103795821D01*
X110439363Y-103795821D01*
X110439364Y-103795822D01*
X110511011Y-103825499D01*
X110511016Y-103825501D01*
X110511020Y-103825501D01*
X110511021Y-103825502D01*
X110636688Y-103850500D01*
X110636691Y-103850500D01*
X110764829Y-103850500D01*
X111729952Y-103850500D01*
X111796991Y-103870185D01*
X111817633Y-103886819D01*
X112361085Y-104430272D01*
X112361088Y-104430275D01*
X112434349Y-104479226D01*
X112434348Y-104479226D01*
X112459339Y-104495923D01*
X112467633Y-104501465D01*
X112586016Y-104550501D01*
X112586020Y-104550501D01*
X112586021Y-104550502D01*
X112711688Y-104575500D01*
X112711691Y-104575500D01*
X116559071Y-104575500D01*
X116643615Y-104558682D01*
X116684744Y-104550501D01*
X116803127Y-104501465D01*
X116836412Y-104479225D01*
X116853977Y-104467489D01*
X116860831Y-104462909D01*
X116909669Y-104430277D01*
X117803965Y-103535979D01*
X117865286Y-103502496D01*
X117934977Y-103507480D01*
X117990911Y-103549351D01*
X117994746Y-103554771D01*
X118014724Y-103584671D01*
X119085327Y-104655274D01*
X119176962Y-104716502D01*
X119176963Y-104716502D01*
X119176964Y-104716503D01*
X119191873Y-104726465D01*
X119310256Y-104775501D01*
X119310260Y-104775501D01*
X119310261Y-104775502D01*
X119435928Y-104800500D01*
X119435931Y-104800500D01*
X121604192Y-104800500D01*
X121671231Y-104820185D01*
X121691873Y-104836819D01*
X122966943Y-106111889D01*
X123000428Y-106173212D01*
X122995444Y-106242904D01*
X122966944Y-106287251D01*
X122894884Y-106359311D01*
X122894881Y-106359315D01*
X122812505Y-106498606D01*
X122812504Y-106498609D01*
X122767357Y-106654002D01*
X122767356Y-106654008D01*
X122764500Y-106690302D01*
X122764500Y-106733399D01*
X122762117Y-106757590D01*
X122744500Y-106846154D01*
X122744500Y-106846158D01*
X122744500Y-107003842D01*
X122758914Y-107076309D01*
X122752688Y-107145899D01*
X122709826Y-107201077D01*
X122643937Y-107224322D01*
X122637298Y-107224500D01*
X121899362Y-107224500D01*
X121832323Y-107204815D01*
X121811685Y-107188185D01*
X121724036Y-107100536D01*
X121611736Y-107025500D01*
X121576547Y-107001987D01*
X121480016Y-106962003D01*
X121476450Y-106960526D01*
X121476436Y-106960519D01*
X121412666Y-106934105D01*
X121412658Y-106934103D01*
X121238696Y-106899500D01*
X121238692Y-106899500D01*
X121238691Y-106899500D01*
X111877299Y-106899500D01*
X111877296Y-106899500D01*
X111703331Y-106934103D01*
X111703322Y-106934106D01*
X111539449Y-107001983D01*
X111539436Y-107001990D01*
X111391957Y-107100533D01*
X111391955Y-107100535D01*
X111391955Y-107100536D01*
X111391954Y-107100537D01*
X111304310Y-107188181D01*
X111154623Y-107337867D01*
X111093300Y-107371351D01*
X111023608Y-107366367D01*
X110967675Y-107324495D01*
X110948032Y-107274558D01*
X110945876Y-107275068D01*
X110944092Y-107267520D01*
X110940953Y-107259105D01*
X110901010Y-107152011D01*
X110893797Y-107132671D01*
X110893793Y-107132664D01*
X110807547Y-107017455D01*
X110807544Y-107017452D01*
X110692335Y-106931206D01*
X110692328Y-106931202D01*
X110557482Y-106880908D01*
X110557483Y-106880908D01*
X110497883Y-106874501D01*
X110497881Y-106874500D01*
X110497873Y-106874500D01*
X110497864Y-106874500D01*
X108702129Y-106874500D01*
X108702123Y-106874501D01*
X108642516Y-106880908D01*
X108507671Y-106931202D01*
X108507664Y-106931206D01*
X108392455Y-107017452D01*
X108392452Y-107017455D01*
X108306206Y-107132664D01*
X108306202Y-107132671D01*
X108255908Y-107267517D01*
X108249501Y-107327116D01*
X108249500Y-107327135D01*
X108249500Y-109122870D01*
X108249501Y-109122876D01*
X108255908Y-109182483D01*
X108306202Y-109317328D01*
X108306206Y-109317335D01*
X108392452Y-109432544D01*
X108392455Y-109432547D01*
X108507664Y-109518793D01*
X108507671Y-109518797D01*
X108639082Y-109567810D01*
X108695016Y-109609681D01*
X108719433Y-109675145D01*
X108704582Y-109743418D01*
X108683431Y-109771673D01*
X108569889Y-109885215D01*
X108444952Y-110057177D01*
X108444948Y-110057184D01*
X108438270Y-110070291D01*
X108430889Y-110082882D01*
X108346991Y-110208444D01*
X108346987Y-110208452D01*
X108279106Y-110372332D01*
X108279103Y-110372341D01*
X108244500Y-110546304D01*
X108244500Y-111138695D01*
X108279103Y-111312658D01*
X108279106Y-111312667D01*
X108346983Y-111476540D01*
X108346990Y-111476553D01*
X108445535Y-111624034D01*
X108445538Y-111624038D01*
X108570961Y-111749461D01*
X108570965Y-111749464D01*
X108718446Y-111848009D01*
X108718459Y-111848016D01*
X108886869Y-111917773D01*
X108895712Y-111921849D01*
X108980702Y-111965153D01*
X109081588Y-112016557D01*
X109283757Y-112082246D01*
X109493713Y-112115500D01*
X109493714Y-112115500D01*
X109706286Y-112115500D01*
X109706287Y-112115500D01*
X109916243Y-112082246D01*
X110118412Y-112016557D01*
X110307816Y-111920051D01*
X110329789Y-111904086D01*
X110479786Y-111795109D01*
X110479788Y-111795106D01*
X110479792Y-111795104D01*
X110573077Y-111701819D01*
X110634400Y-111668334D01*
X110660758Y-111665500D01*
X110890774Y-111665500D01*
X110890775Y-111665499D01*
X111064747Y-111630895D01*
X111150549Y-111595353D01*
X111220017Y-111587884D01*
X111282497Y-111619158D01*
X111310877Y-111663377D01*
X111312136Y-111662791D01*
X111315185Y-111669333D01*
X111315186Y-111669334D01*
X111407288Y-111818656D01*
X111531344Y-111942712D01*
X111680666Y-112034814D01*
X111847203Y-112089999D01*
X111949991Y-112100500D01*
X114250008Y-112100499D01*
X114352797Y-112089999D01*
X114519334Y-112034814D01*
X114519334Y-112034813D01*
X114526190Y-112032542D01*
X114526795Y-112034368D01*
X114566798Y-112025500D01*
X114908202Y-112025500D01*
X114948204Y-112034368D01*
X114948810Y-112032542D01*
X114955665Y-112034813D01*
X114955666Y-112034814D01*
X115122203Y-112089999D01*
X115224991Y-112100500D01*
X117525008Y-112100499D01*
X117627797Y-112089999D01*
X117794334Y-112034814D01*
X117794334Y-112034813D01*
X117801190Y-112032542D01*
X117801795Y-112034368D01*
X117841798Y-112025500D01*
X118183202Y-112025500D01*
X118223204Y-112034368D01*
X118223810Y-112032542D01*
X118230665Y-112034813D01*
X118230666Y-112034814D01*
X118397203Y-112089999D01*
X118499991Y-112100500D01*
X119260388Y-112100499D01*
X119327427Y-112120183D01*
X119334373Y-112125238D01*
X119337217Y-112127138D01*
X119337218Y-112127139D01*
X119501086Y-112236632D01*
X119557053Y-112259814D01*
X119683164Y-112312051D01*
X119876454Y-112350499D01*
X119876457Y-112350500D01*
X119876459Y-112350500D01*
X123520639Y-112350500D01*
X123550079Y-112359144D01*
X123580066Y-112365668D01*
X123585081Y-112369422D01*
X123587678Y-112370185D01*
X123608320Y-112386819D01*
X123695536Y-112474035D01*
X123820965Y-112599464D01*
X123968453Y-112698013D01*
X124016452Y-112717895D01*
X124132334Y-112765895D01*
X124306303Y-112800499D01*
X124306307Y-112800500D01*
X124306308Y-112800500D01*
X124306309Y-112800500D01*
X126507025Y-112800500D01*
X126546029Y-112806794D01*
X126647292Y-112840349D01*
X126746655Y-112850500D01*
X127343344Y-112850499D01*
X127343352Y-112850498D01*
X127343355Y-112850498D01*
X127397760Y-112844940D01*
X127442708Y-112840349D01*
X127603697Y-112787003D01*
X127748044Y-112697968D01*
X127867968Y-112578044D01*
X127957003Y-112433697D01*
X128010349Y-112272708D01*
X128020500Y-112173345D01*
X128020499Y-111626656D01*
X128016538Y-111587884D01*
X128010349Y-111527292D01*
X128010348Y-111527289D01*
X127993534Y-111476547D01*
X127957003Y-111366303D01*
X127956999Y-111366297D01*
X127956998Y-111366294D01*
X127867970Y-111221959D01*
X127867967Y-111221955D01*
X127748044Y-111102032D01*
X127748040Y-111102029D01*
X127603705Y-111013001D01*
X127603699Y-111012998D01*
X127603697Y-111012997D01*
X127603694Y-111012996D01*
X127442709Y-110959651D01*
X127343346Y-110949500D01*
X126746662Y-110949500D01*
X126746644Y-110949501D01*
X126647292Y-110959650D01*
X126647289Y-110959651D01*
X126546029Y-110993206D01*
X126507025Y-110999500D01*
X125225154Y-110999500D01*
X125158115Y-110979815D01*
X125112360Y-110927011D01*
X125107448Y-110914504D01*
X125095212Y-110877580D01*
X125054814Y-110755666D01*
X124962712Y-110606344D01*
X124838656Y-110482288D01*
X124689334Y-110390186D01*
X124522797Y-110335001D01*
X124522795Y-110335000D01*
X124420016Y-110324500D01*
X124420009Y-110324500D01*
X123993542Y-110324500D01*
X123993540Y-110324500D01*
X123796459Y-110324500D01*
X123796456Y-110324500D01*
X123369998Y-110324500D01*
X123369980Y-110324501D01*
X123267203Y-110335000D01*
X123248617Y-110341159D01*
X123242441Y-110343206D01*
X123203438Y-110349500D01*
X121484798Y-110349500D01*
X121475007Y-110346625D01*
X121464881Y-110347890D01*
X121442048Y-110336947D01*
X121417759Y-110329815D01*
X121409400Y-110321299D01*
X121401874Y-110317693D01*
X121379259Y-110290596D01*
X121340400Y-110227595D01*
X121321960Y-110160203D01*
X121340400Y-110097402D01*
X121342708Y-110093659D01*
X121342712Y-110093656D01*
X121434814Y-109944334D01*
X121489999Y-109777797D01*
X121500500Y-109675009D01*
X121500499Y-109149499D01*
X121520183Y-109082461D01*
X121572987Y-109036706D01*
X121624499Y-109025500D01*
X126520502Y-109025500D01*
X126567954Y-109034939D01*
X126582329Y-109040893D01*
X126582334Y-109040895D01*
X126756304Y-109075499D01*
X126756308Y-109075500D01*
X126756309Y-109075500D01*
X126933693Y-109075500D01*
X126933694Y-109075499D01*
X127107666Y-109040895D01*
X127271547Y-108973013D01*
X127419036Y-108874464D01*
X127544464Y-108749036D01*
X127643013Y-108601547D01*
X127710895Y-108437666D01*
X127745500Y-108263692D01*
X127745500Y-108086309D01*
X127710895Y-107912334D01*
X127643013Y-107748454D01*
X127643011Y-107748451D01*
X127643009Y-107748447D01*
X127544464Y-107600965D01*
X127544461Y-107600961D01*
X127369041Y-107425540D01*
X127369040Y-107425539D01*
X127369036Y-107425536D01*
X127309959Y-107386063D01*
X127221547Y-107326987D01*
X127139606Y-107293046D01*
X127094972Y-107274558D01*
X127057666Y-107259105D01*
X127057658Y-107259103D01*
X126883696Y-107224500D01*
X126883692Y-107224500D01*
X126883691Y-107224500D01*
X124452702Y-107224500D01*
X124385663Y-107204815D01*
X124339908Y-107152011D01*
X124329964Y-107082853D01*
X124331080Y-107076332D01*
X124345500Y-107003842D01*
X124345500Y-106849500D01*
X124365185Y-106782461D01*
X124417989Y-106736706D01*
X124469500Y-106725500D01*
X126859071Y-106725500D01*
X126943615Y-106708682D01*
X126984744Y-106700501D01*
X127103127Y-106651465D01*
X127108914Y-106647598D01*
X127209669Y-106580277D01*
X127222930Y-106567014D01*
X127284249Y-106533531D01*
X127286340Y-106533094D01*
X127353497Y-106519737D01*
X127499179Y-106459394D01*
X127630289Y-106371789D01*
X127741789Y-106260289D01*
X127829394Y-106129179D01*
X127889737Y-105983497D01*
X127920500Y-105828842D01*
X127920500Y-105671158D01*
X127920500Y-105671155D01*
X127920499Y-105671153D01*
X127914661Y-105641802D01*
X127889737Y-105516503D01*
X127878508Y-105489393D01*
X127829397Y-105370827D01*
X127829390Y-105370814D01*
X127741789Y-105239711D01*
X127741786Y-105239707D01*
X127625982Y-105123903D01*
X127627416Y-105122468D01*
X127593313Y-105072395D01*
X127591446Y-105002550D01*
X127627637Y-104942784D01*
X127663856Y-104919735D01*
X127749179Y-104884394D01*
X127880289Y-104796789D01*
X127991789Y-104685289D01*
X128079394Y-104554179D01*
X128080918Y-104550501D01*
X128130716Y-104430275D01*
X128139737Y-104408497D01*
X128170500Y-104253842D01*
X128170500Y-104096158D01*
X128170500Y-104096155D01*
X128170499Y-104096153D01*
X128162035Y-104053602D01*
X128139737Y-103941503D01*
X128132694Y-103924500D01*
X128079397Y-103795827D01*
X128079390Y-103795814D01*
X127991789Y-103664711D01*
X127991786Y-103664707D01*
X127880292Y-103553213D01*
X127880288Y-103553210D01*
X127749185Y-103465609D01*
X127749172Y-103465602D01*
X127603501Y-103405264D01*
X127603489Y-103405261D01*
X127448845Y-103374500D01*
X127448842Y-103374500D01*
X127291158Y-103374500D01*
X127291155Y-103374500D01*
X127136510Y-103405261D01*
X127136498Y-103405264D01*
X126990827Y-103465602D01*
X126990814Y-103465609D01*
X126859711Y-103553210D01*
X126859707Y-103553213D01*
X126748213Y-103664707D01*
X126748210Y-103664711D01*
X126660609Y-103795814D01*
X126660602Y-103795827D01*
X126600264Y-103941498D01*
X126600261Y-103941508D01*
X126569405Y-104096629D01*
X126565725Y-104103663D01*
X126565442Y-104111596D01*
X126549764Y-104134175D01*
X126537020Y-104158540D01*
X126529104Y-104163931D01*
X126525594Y-104168988D01*
X126495241Y-104186998D01*
X126390653Y-104230320D01*
X126321184Y-104237789D01*
X126258704Y-104206514D01*
X126255519Y-104203440D01*
X126155292Y-104103213D01*
X126155288Y-104103210D01*
X126024185Y-104015609D01*
X126024172Y-104015602D01*
X125878501Y-103955264D01*
X125878489Y-103955261D01*
X125723845Y-103924500D01*
X125723842Y-103924500D01*
X125566158Y-103924500D01*
X125566155Y-103924500D01*
X125411510Y-103955261D01*
X125411498Y-103955264D01*
X125265827Y-104015602D01*
X125265820Y-104015606D01*
X125236928Y-104034911D01*
X125208955Y-104053602D01*
X125142279Y-104074480D01*
X125140065Y-104074500D01*
X124245808Y-104074500D01*
X124178769Y-104054815D01*
X124158127Y-104038181D01*
X123073693Y-102953747D01*
X123040208Y-102892424D01*
X123045192Y-102822732D01*
X123073691Y-102778386D01*
X123166789Y-102685289D01*
X123254394Y-102554179D01*
X123314737Y-102408497D01*
X123329944Y-102332048D01*
X123362329Y-102270137D01*
X123423044Y-102235563D01*
X123451561Y-102232239D01*
X123809590Y-102232239D01*
X123827733Y-102237566D01*
X123846643Y-102237904D01*
X123874860Y-102251404D01*
X123876629Y-102251924D01*
X123878444Y-102253113D01*
X123903923Y-102270137D01*
X123936455Y-102291874D01*
X123960895Y-102308204D01*
X124079278Y-102357240D01*
X124079282Y-102357240D01*
X124079283Y-102357241D01*
X124204950Y-102382239D01*
X124204953Y-102382239D01*
X124241583Y-102382239D01*
X124308622Y-102401924D01*
X124354377Y-102454728D01*
X124356144Y-102458787D01*
X124395653Y-102554173D01*
X124395660Y-102554186D01*
X124483261Y-102685289D01*
X124483264Y-102685293D01*
X124594758Y-102796787D01*
X124594762Y-102796790D01*
X124725865Y-102884391D01*
X124725878Y-102884398D01*
X124871547Y-102944735D01*
X124871554Y-102944738D01*
X125012726Y-102972819D01*
X125026204Y-102975500D01*
X125026207Y-102975501D01*
X125026209Y-102975501D01*
X125183895Y-102975501D01*
X125183896Y-102975500D01*
X125338548Y-102944738D01*
X125484230Y-102884395D01*
X125615340Y-102796790D01*
X125726840Y-102685290D01*
X125814445Y-102554180D01*
X125874788Y-102408498D01*
X125905551Y-102253843D01*
X125905551Y-102205320D01*
X126280055Y-102205320D01*
X126280055Y-102363013D01*
X126310816Y-102517656D01*
X126310819Y-102517668D01*
X126371157Y-102663339D01*
X126371164Y-102663352D01*
X126458765Y-102794455D01*
X126458768Y-102794459D01*
X126570262Y-102905953D01*
X126570266Y-102905956D01*
X126701369Y-102993557D01*
X126701382Y-102993564D01*
X126847053Y-103053902D01*
X126847058Y-103053904D01*
X127001708Y-103084666D01*
X127001711Y-103084667D01*
X127001713Y-103084667D01*
X127159399Y-103084667D01*
X127159400Y-103084666D01*
X127314052Y-103053904D01*
X127459734Y-102993561D01*
X127590844Y-102905956D01*
X127702344Y-102794456D01*
X127789949Y-102663346D01*
X127850292Y-102517664D01*
X127881055Y-102363009D01*
X127881055Y-102205325D01*
X127881055Y-102205322D01*
X127881054Y-102205320D01*
X127874505Y-102172398D01*
X127850292Y-102050670D01*
X127817648Y-101971860D01*
X127789952Y-101904994D01*
X127789945Y-101904981D01*
X127702344Y-101773878D01*
X127702341Y-101773874D01*
X127590847Y-101662380D01*
X127590843Y-101662377D01*
X127459740Y-101574776D01*
X127459727Y-101574769D01*
X127362876Y-101534653D01*
X127314056Y-101514431D01*
X127314044Y-101514428D01*
X127159400Y-101483667D01*
X127159397Y-101483667D01*
X127001713Y-101483667D01*
X127001710Y-101483667D01*
X126847065Y-101514428D01*
X126847053Y-101514431D01*
X126701382Y-101574769D01*
X126701369Y-101574776D01*
X126570266Y-101662377D01*
X126570262Y-101662380D01*
X126458768Y-101773874D01*
X126458765Y-101773878D01*
X126371164Y-101904981D01*
X126371157Y-101904994D01*
X126310819Y-102050665D01*
X126310816Y-102050677D01*
X126280055Y-102205320D01*
X125905551Y-102205320D01*
X125905551Y-102096159D01*
X125905551Y-102096158D01*
X125905551Y-102096156D01*
X125905550Y-102096154D01*
X125903004Y-102083354D01*
X125874788Y-101941504D01*
X125859660Y-101904981D01*
X125814448Y-101795828D01*
X125814441Y-101795815D01*
X125726840Y-101664712D01*
X125726837Y-101664708D01*
X125615343Y-101553214D01*
X125615339Y-101553211D01*
X125484236Y-101465610D01*
X125484223Y-101465603D01*
X125389043Y-101426179D01*
X128349524Y-101426179D01*
X128349524Y-101583872D01*
X128380285Y-101738515D01*
X128380288Y-101738527D01*
X128440626Y-101884198D01*
X128440633Y-101884211D01*
X128528234Y-102015314D01*
X128528237Y-102015318D01*
X128639731Y-102126812D01*
X128639735Y-102126815D01*
X128770838Y-102214416D01*
X128770851Y-102214423D01*
X128905359Y-102270137D01*
X128916527Y-102274763D01*
X129019954Y-102295336D01*
X129071177Y-102305525D01*
X129071180Y-102305526D01*
X129071182Y-102305526D01*
X129228868Y-102305526D01*
X129228869Y-102305525D01*
X129383521Y-102274763D01*
X129529203Y-102214420D01*
X129660313Y-102126815D01*
X129771813Y-102015315D01*
X129859418Y-101884205D01*
X129919761Y-101738523D01*
X129950524Y-101583868D01*
X129950524Y-101426184D01*
X129950524Y-101426181D01*
X129950523Y-101426179D01*
X129946363Y-101405264D01*
X129919761Y-101271529D01*
X129912577Y-101254185D01*
X129859421Y-101125853D01*
X129859414Y-101125840D01*
X129771813Y-100994737D01*
X129771810Y-100994733D01*
X129660316Y-100883239D01*
X129660312Y-100883236D01*
X129529209Y-100795635D01*
X129529196Y-100795628D01*
X129383525Y-100735290D01*
X129383513Y-100735287D01*
X129228869Y-100704526D01*
X129228866Y-100704526D01*
X129071182Y-100704526D01*
X129071179Y-100704526D01*
X128916534Y-100735287D01*
X128916522Y-100735290D01*
X128770851Y-100795628D01*
X128770838Y-100795635D01*
X128639735Y-100883236D01*
X128639731Y-100883239D01*
X128528237Y-100994733D01*
X128528234Y-100994737D01*
X128440633Y-101125840D01*
X128440626Y-101125853D01*
X128380288Y-101271524D01*
X128380285Y-101271536D01*
X128349524Y-101426179D01*
X125389043Y-101426179D01*
X125387797Y-101425663D01*
X125333393Y-101381822D01*
X125311328Y-101315528D01*
X125313632Y-101286910D01*
X125316691Y-101271536D01*
X125338761Y-101160581D01*
X125338761Y-101002897D01*
X125338761Y-101002894D01*
X125338760Y-101002892D01*
X125326548Y-100941498D01*
X125307998Y-100848242D01*
X125307996Y-100848237D01*
X125247658Y-100702566D01*
X125247651Y-100702553D01*
X125160050Y-100571450D01*
X125160047Y-100571446D01*
X125048553Y-100459952D01*
X125048549Y-100459949D01*
X124917446Y-100372348D01*
X124917433Y-100372341D01*
X124771762Y-100312003D01*
X124771750Y-100312000D01*
X124617106Y-100281239D01*
X124617103Y-100281239D01*
X124459419Y-100281239D01*
X124459416Y-100281239D01*
X124304771Y-100312000D01*
X124304759Y-100312003D01*
X124159088Y-100372341D01*
X124159081Y-100372345D01*
X124130189Y-100391650D01*
X124102216Y-100410341D01*
X124035540Y-100431219D01*
X124033326Y-100431239D01*
X123391786Y-100431239D01*
X123362345Y-100422594D01*
X123332359Y-100416071D01*
X123327343Y-100412316D01*
X123324747Y-100411554D01*
X123304105Y-100394920D01*
X123281819Y-100372634D01*
X123248334Y-100311311D01*
X123245500Y-100284953D01*
X123245500Y-100210928D01*
X123220502Y-100085261D01*
X123220501Y-100085260D01*
X123220501Y-100085256D01*
X123220168Y-100084453D01*
X123220120Y-100084001D01*
X123218733Y-100079429D01*
X123219600Y-100079165D01*
X123212699Y-100014987D01*
X123243972Y-99952506D01*
X123304060Y-99916853D01*
X123334729Y-99913000D01*
X124021571Y-99913000D01*
X124106115Y-99896182D01*
X124147244Y-99888001D01*
X124265627Y-99838965D01*
X124298831Y-99816779D01*
X124372169Y-99767777D01*
X125072931Y-99067013D01*
X125083529Y-99060408D01*
X125089082Y-99053405D01*
X125107361Y-99045555D01*
X125120517Y-99037357D01*
X125128324Y-99034689D01*
X125203497Y-99019737D01*
X125349179Y-98959394D01*
X125349693Y-98959050D01*
X125355223Y-98957161D01*
X125363688Y-98956791D01*
X125395316Y-98950500D01*
X127463996Y-98950500D01*
X127555040Y-98932389D01*
X127599328Y-98923580D01*
X127663069Y-98897177D01*
X127726807Y-98870777D01*
X127726808Y-98870776D01*
X127726811Y-98870775D01*
X127841543Y-98794114D01*
X128739114Y-97896543D01*
X128815775Y-97781811D01*
X128868580Y-97654328D01*
X128890292Y-97545177D01*
X128895500Y-97518996D01*
X128895500Y-97480773D01*
X134129120Y-97480773D01*
X134129120Y-97638466D01*
X134159881Y-97793109D01*
X134159884Y-97793121D01*
X134220222Y-97938792D01*
X134220229Y-97938805D01*
X134307830Y-98069908D01*
X134307833Y-98069912D01*
X134419327Y-98181406D01*
X134419331Y-98181409D01*
X134550434Y-98269010D01*
X134550447Y-98269017D01*
X134672599Y-98319613D01*
X134727003Y-98363453D01*
X134749068Y-98429747D01*
X134739709Y-98481624D01*
X134725264Y-98516498D01*
X134725261Y-98516510D01*
X134694500Y-98671153D01*
X134694500Y-98828846D01*
X134725260Y-98983488D01*
X134725262Y-98983493D01*
X134725263Y-98983497D01*
X134740274Y-99019737D01*
X134743421Y-99027334D01*
X134750889Y-99096803D01*
X134731962Y-99143675D01*
X134715857Y-99167778D01*
X134655517Y-99313452D01*
X134655514Y-99313464D01*
X134624753Y-99468107D01*
X134624753Y-99625800D01*
X134655514Y-99780443D01*
X134655517Y-99780455D01*
X134715855Y-99926126D01*
X134715862Y-99926139D01*
X134803463Y-100057242D01*
X134803466Y-100057246D01*
X134914960Y-100168740D01*
X134914964Y-100168743D01*
X135046067Y-100256344D01*
X135046080Y-100256351D01*
X135180438Y-100312003D01*
X135191756Y-100316691D01*
X135346406Y-100347453D01*
X135346409Y-100347454D01*
X135346411Y-100347454D01*
X135504097Y-100347454D01*
X135504098Y-100347453D01*
X135658750Y-100316691D01*
X135804432Y-100256348D01*
X135935542Y-100168743D01*
X136047042Y-100057243D01*
X136134647Y-99926133D01*
X136194990Y-99780451D01*
X136225753Y-99625796D01*
X136225753Y-99468112D01*
X136225753Y-99468109D01*
X136225752Y-99468107D01*
X136211609Y-99397005D01*
X136194990Y-99313457D01*
X136176831Y-99269619D01*
X136169363Y-99200152D01*
X136188290Y-99153278D01*
X136204394Y-99129179D01*
X136264737Y-98983497D01*
X136295500Y-98828842D01*
X136295500Y-98671158D01*
X136295500Y-98671155D01*
X136295499Y-98671153D01*
X136282911Y-98607868D01*
X136264737Y-98516503D01*
X136263079Y-98512500D01*
X136204397Y-98370827D01*
X136204390Y-98370814D01*
X136116789Y-98239711D01*
X136116786Y-98239707D01*
X136005292Y-98128213D01*
X136005288Y-98128210D01*
X135874185Y-98040609D01*
X135874172Y-98040602D01*
X135752020Y-97990006D01*
X135697616Y-97946165D01*
X135675551Y-97879871D01*
X135684911Y-97827992D01*
X135699357Y-97793117D01*
X135730120Y-97638462D01*
X135730120Y-97480778D01*
X135730120Y-97480775D01*
X135730119Y-97480773D01*
X135710184Y-97380554D01*
X135699357Y-97326123D01*
X135682074Y-97284397D01*
X135639017Y-97180447D01*
X135639010Y-97180434D01*
X135551409Y-97049331D01*
X135551406Y-97049327D01*
X135439912Y-96937833D01*
X135439908Y-96937830D01*
X135308805Y-96850229D01*
X135308792Y-96850222D01*
X135163121Y-96789884D01*
X135163109Y-96789881D01*
X135008465Y-96759120D01*
X135008462Y-96759120D01*
X134850778Y-96759120D01*
X134850775Y-96759120D01*
X134696130Y-96789881D01*
X134696118Y-96789884D01*
X134550447Y-96850222D01*
X134550434Y-96850229D01*
X134419331Y-96937830D01*
X134419327Y-96937833D01*
X134307833Y-97049327D01*
X134307830Y-97049331D01*
X134220229Y-97180434D01*
X134220222Y-97180447D01*
X134159884Y-97326118D01*
X134159881Y-97326130D01*
X134129120Y-97480773D01*
X128895500Y-97480773D01*
X128895500Y-97345648D01*
X128915185Y-97278609D01*
X128967989Y-97232854D01*
X129037147Y-97222910D01*
X129084595Y-97240108D01*
X129136303Y-97272003D01*
X129297292Y-97325349D01*
X129396655Y-97335500D01*
X129943344Y-97335499D01*
X129943352Y-97335498D01*
X129943355Y-97335498D01*
X130035062Y-97326130D01*
X130042708Y-97325349D01*
X130203697Y-97272003D01*
X130348044Y-97182968D01*
X130467968Y-97063044D01*
X130557003Y-96918697D01*
X130610349Y-96757708D01*
X130620500Y-96658345D01*
X130620499Y-96061656D01*
X130619617Y-96053025D01*
X130610349Y-95962292D01*
X130610348Y-95962289D01*
X130607340Y-95953210D01*
X130557003Y-95801303D01*
X130471446Y-95662594D01*
X130453006Y-95595206D01*
X130471446Y-95532405D01*
X130557003Y-95393697D01*
X130610349Y-95232708D01*
X130620500Y-95133345D01*
X130620499Y-94536656D01*
X130619088Y-94522846D01*
X130610349Y-94437292D01*
X130610348Y-94437289D01*
X130592426Y-94383204D01*
X130557003Y-94276303D01*
X130556999Y-94276297D01*
X130556998Y-94276294D01*
X130467970Y-94131959D01*
X130467967Y-94131955D01*
X130348044Y-94012032D01*
X130348040Y-94012029D01*
X130203705Y-93923001D01*
X130203699Y-93922998D01*
X130203697Y-93922997D01*
X130203694Y-93922996D01*
X130042709Y-93869651D01*
X129943346Y-93859500D01*
X129396662Y-93859500D01*
X129396644Y-93859501D01*
X129297292Y-93869650D01*
X129297289Y-93869651D01*
X129136305Y-93922996D01*
X129136294Y-93923001D01*
X128991959Y-94012029D01*
X128991955Y-94012032D01*
X128907502Y-94096484D01*
X128846179Y-94129969D01*
X128776487Y-94124983D01*
X128732141Y-94096483D01*
X127866545Y-93230887D01*
X127751807Y-93154222D01*
X127624332Y-93101421D01*
X127624322Y-93101418D01*
X127488996Y-93074500D01*
X127488994Y-93074500D01*
X127488993Y-93074500D01*
X125661024Y-93074500D01*
X125593985Y-93054815D01*
X125548230Y-93002011D01*
X125538286Y-92932853D01*
X125567311Y-92869297D01*
X125592133Y-92847398D01*
X125672142Y-92793937D01*
X125705289Y-92771789D01*
X125816789Y-92660289D01*
X125904394Y-92529179D01*
X125964737Y-92383497D01*
X125995500Y-92228842D01*
X125995500Y-92071158D01*
X125995500Y-92071155D01*
X125995499Y-92071153D01*
X125968116Y-91933491D01*
X125964737Y-91916503D01*
X125927353Y-91826249D01*
X125904397Y-91770827D01*
X125904390Y-91770814D01*
X125816789Y-91639711D01*
X125816786Y-91639707D01*
X125705292Y-91528213D01*
X125705288Y-91528210D01*
X125574185Y-91440609D01*
X125574172Y-91440602D01*
X125428501Y-91380264D01*
X125428489Y-91380261D01*
X125273845Y-91349500D01*
X125273842Y-91349500D01*
X125116158Y-91349500D01*
X125116155Y-91349500D01*
X124961510Y-91380261D01*
X124961498Y-91380264D01*
X124815827Y-91440602D01*
X124815814Y-91440609D01*
X124684711Y-91528210D01*
X124684707Y-91528213D01*
X124573213Y-91639707D01*
X124573210Y-91639711D01*
X124485609Y-91770814D01*
X124485602Y-91770827D01*
X124425264Y-91916498D01*
X124425261Y-91916510D01*
X124394500Y-92071153D01*
X124394500Y-92228846D01*
X124425261Y-92383489D01*
X124425264Y-92383501D01*
X124485602Y-92529172D01*
X124485609Y-92529185D01*
X124573210Y-92660288D01*
X124573213Y-92660292D01*
X124684707Y-92771786D01*
X124684711Y-92771789D01*
X124797867Y-92847398D01*
X124842672Y-92901010D01*
X124851379Y-92970335D01*
X124821225Y-93033363D01*
X124761781Y-93070082D01*
X124728976Y-93074500D01*
X121136519Y-93074500D01*
X121069480Y-93054815D01*
X121048838Y-93038181D01*
X120841071Y-92830414D01*
X120836439Y-92823482D01*
X120832200Y-92820539D01*
X120814191Y-92790185D01*
X120813457Y-92788414D01*
X120774047Y-92693267D01*
X120766578Y-92623798D01*
X120797854Y-92561319D01*
X120841151Y-92531256D01*
X120926811Y-92495775D01*
X121041543Y-92419114D01*
X122470051Y-90990606D01*
X122539504Y-90921153D01*
X132869500Y-90921153D01*
X132869500Y-91078846D01*
X132900261Y-91233489D01*
X132900264Y-91233501D01*
X132960602Y-91379172D01*
X132960609Y-91379185D01*
X133048210Y-91510288D01*
X133048213Y-91510292D01*
X133159707Y-91621786D01*
X133159711Y-91621789D01*
X133290817Y-91709392D01*
X133290819Y-91709392D01*
X133290821Y-91709394D01*
X133336519Y-91728322D01*
X133354764Y-91735880D01*
X133409168Y-91779721D01*
X133428929Y-91826249D01*
X133450261Y-91933491D01*
X133450264Y-91933501D01*
X133510602Y-92079172D01*
X133510609Y-92079185D01*
X133598210Y-92210288D01*
X133598213Y-92210292D01*
X133709707Y-92321786D01*
X133709711Y-92321789D01*
X133840814Y-92409390D01*
X133840827Y-92409397D01*
X133986498Y-92469735D01*
X133986503Y-92469737D01*
X134117399Y-92495774D01*
X134141153Y-92500499D01*
X134141156Y-92500500D01*
X134141158Y-92500500D01*
X134298844Y-92500500D01*
X134298845Y-92500499D01*
X134453497Y-92469737D01*
X134575713Y-92419114D01*
X134599172Y-92409397D01*
X134599172Y-92409396D01*
X134599179Y-92409394D01*
X134730289Y-92321789D01*
X134841789Y-92210289D01*
X134929394Y-92079179D01*
X134932719Y-92071153D01*
X134989735Y-91933501D01*
X134989737Y-91933497D01*
X135020500Y-91778842D01*
X135020500Y-91621158D01*
X135020500Y-91621155D01*
X135020499Y-91621153D01*
X135002012Y-91528213D01*
X134989737Y-91466503D01*
X134989735Y-91466498D01*
X134929397Y-91320827D01*
X134929390Y-91320814D01*
X134841789Y-91189711D01*
X134841786Y-91189707D01*
X134730292Y-91078213D01*
X134730288Y-91078210D01*
X134599185Y-90990609D01*
X134599180Y-90990607D01*
X134599179Y-90990606D01*
X134570023Y-90978529D01*
X134535233Y-90964118D01*
X134480830Y-90920276D01*
X134461070Y-90873748D01*
X134439738Y-90766510D01*
X134439737Y-90766503D01*
X134439735Y-90766498D01*
X134379397Y-90620827D01*
X134379390Y-90620814D01*
X134291789Y-90489711D01*
X134291786Y-90489707D01*
X134180292Y-90378213D01*
X134180288Y-90378210D01*
X134049185Y-90290609D01*
X134049172Y-90290602D01*
X133903501Y-90230264D01*
X133903489Y-90230261D01*
X133748845Y-90199500D01*
X133748842Y-90199500D01*
X133591158Y-90199500D01*
X133591155Y-90199500D01*
X133436510Y-90230261D01*
X133436498Y-90230264D01*
X133290827Y-90290602D01*
X133290814Y-90290609D01*
X133159711Y-90378210D01*
X133159707Y-90378213D01*
X133048213Y-90489707D01*
X133048210Y-90489711D01*
X132960609Y-90620814D01*
X132960602Y-90620827D01*
X132900264Y-90766498D01*
X132900261Y-90766510D01*
X132869500Y-90921153D01*
X122539504Y-90921153D01*
X122633272Y-90827385D01*
X123873838Y-89586818D01*
X123935161Y-89553333D01*
X123961519Y-89550499D01*
X126445002Y-89550499D01*
X126445008Y-89550499D01*
X126547797Y-89539999D01*
X126714334Y-89484814D01*
X126863656Y-89392712D01*
X126987712Y-89268656D01*
X127079814Y-89119334D01*
X127134999Y-88952797D01*
X127145500Y-88850009D01*
X127145499Y-88149992D01*
X127137306Y-88069792D01*
X127134999Y-88047203D01*
X127134998Y-88047200D01*
X127079814Y-87880666D01*
X126987712Y-87731344D01*
X126863656Y-87607288D01*
X126714334Y-87515186D01*
X126547797Y-87460001D01*
X126547795Y-87460000D01*
X126445010Y-87449500D01*
X122244998Y-87449500D01*
X122244981Y-87449501D01*
X122142203Y-87460000D01*
X122142200Y-87460001D01*
X121975668Y-87515185D01*
X121975663Y-87515187D01*
X121826342Y-87607289D01*
X121702289Y-87731342D01*
X121610187Y-87880663D01*
X121610185Y-87880668D01*
X121592950Y-87932680D01*
X121555001Y-88047203D01*
X121555001Y-88047204D01*
X121555000Y-88047204D01*
X121544500Y-88149983D01*
X121544500Y-88850001D01*
X121544501Y-88850019D01*
X121555000Y-88952796D01*
X121555001Y-88952799D01*
X121610185Y-89119331D01*
X121610186Y-89119334D01*
X121702288Y-89268656D01*
X121826344Y-89392712D01*
X121853856Y-89409681D01*
X121900580Y-89461629D01*
X121911803Y-89530592D01*
X121883959Y-89594674D01*
X121876440Y-89602901D01*
X120341162Y-91138181D01*
X120279839Y-91171666D01*
X120253481Y-91174500D01*
X112426004Y-91174500D01*
X112290677Y-91201418D01*
X112290667Y-91201421D01*
X112163192Y-91254222D01*
X112048454Y-91330887D01*
X111078630Y-92300711D01*
X111017307Y-92334196D01*
X111015141Y-92334647D01*
X110911508Y-92355261D01*
X110911498Y-92355264D01*
X110765827Y-92415602D01*
X110765814Y-92415609D01*
X110634711Y-92503210D01*
X110634707Y-92503213D01*
X110523213Y-92614707D01*
X110523210Y-92614711D01*
X110435609Y-92745814D01*
X110435604Y-92745823D01*
X110375809Y-92890184D01*
X110348929Y-92930412D01*
X108993662Y-94285681D01*
X108932339Y-94319166D01*
X108905981Y-94322000D01*
X107920316Y-94322000D01*
X107872864Y-94312561D01*
X107728501Y-94252764D01*
X107728489Y-94252761D01*
X107573845Y-94222000D01*
X107573842Y-94222000D01*
X107416158Y-94222000D01*
X107416155Y-94222000D01*
X107261510Y-94252761D01*
X107261498Y-94252764D01*
X107115827Y-94313102D01*
X107115814Y-94313109D01*
X106984711Y-94400710D01*
X106984707Y-94400713D01*
X106873213Y-94512207D01*
X106873210Y-94512211D01*
X106785609Y-94643314D01*
X106785602Y-94643327D01*
X106725264Y-94788998D01*
X106725261Y-94789010D01*
X106694500Y-94943653D01*
X106395500Y-94943653D01*
X106395500Y-92163713D01*
X107049500Y-92163713D01*
X107049500Y-92376286D01*
X107081130Y-92575993D01*
X107082754Y-92586243D01*
X107145938Y-92780703D01*
X107148444Y-92788414D01*
X107244951Y-92977820D01*
X107369890Y-93149786D01*
X107520213Y-93300109D01*
X107692179Y-93425048D01*
X107692181Y-93425049D01*
X107692184Y-93425051D01*
X107881588Y-93521557D01*
X108083757Y-93587246D01*
X108293713Y-93620500D01*
X108293714Y-93620500D01*
X108506286Y-93620500D01*
X108506287Y-93620500D01*
X108716243Y-93587246D01*
X108918412Y-93521557D01*
X109107816Y-93425051D01*
X109145229Y-93397869D01*
X109279786Y-93300109D01*
X109279788Y-93300106D01*
X109279792Y-93300104D01*
X109430104Y-93149792D01*
X109430106Y-93149788D01*
X109430109Y-93149786D01*
X109555048Y-92977820D01*
X109555047Y-92977820D01*
X109555051Y-92977816D01*
X109651557Y-92788412D01*
X109717246Y-92586243D01*
X109750500Y-92376287D01*
X109750500Y-92163713D01*
X109717246Y-91953757D01*
X109651557Y-91751588D01*
X109555051Y-91562184D01*
X109555049Y-91562181D01*
X109555048Y-91562179D01*
X109430109Y-91390213D01*
X109279786Y-91239890D01*
X109107820Y-91114951D01*
X108918414Y-91018444D01*
X108918413Y-91018443D01*
X108918412Y-91018443D01*
X108716243Y-90952754D01*
X108716241Y-90952753D01*
X108716240Y-90952753D01*
X108554957Y-90927208D01*
X108506287Y-90919500D01*
X108293713Y-90919500D01*
X108245042Y-90927208D01*
X108083760Y-90952753D01*
X107881585Y-91018444D01*
X107692179Y-91114951D01*
X107520213Y-91239890D01*
X107369890Y-91390213D01*
X107244951Y-91562179D01*
X107148444Y-91751585D01*
X107082753Y-91953760D01*
X107049500Y-92163713D01*
X106395500Y-92163713D01*
X106395500Y-83752135D01*
X107049500Y-83752135D01*
X107049500Y-85547870D01*
X107049501Y-85547876D01*
X107055908Y-85607483D01*
X107106202Y-85742328D01*
X107106206Y-85742335D01*
X107192452Y-85857544D01*
X107192455Y-85857547D01*
X107307664Y-85943793D01*
X107307671Y-85943797D01*
X107439082Y-85992810D01*
X107495016Y-86034681D01*
X107519433Y-86100145D01*
X107504582Y-86168418D01*
X107483431Y-86196673D01*
X107369889Y-86310215D01*
X107244951Y-86482179D01*
X107148444Y-86671585D01*
X107082753Y-86873760D01*
X107079758Y-86892671D01*
X107049500Y-87083713D01*
X107049500Y-87296287D01*
X107082754Y-87506243D01*
X107117167Y-87612156D01*
X107148444Y-87708414D01*
X107244951Y-87897820D01*
X107369890Y-88069786D01*
X107520213Y-88220109D01*
X107692179Y-88345048D01*
X107692181Y-88345049D01*
X107692184Y-88345051D01*
X107881588Y-88441557D01*
X108083757Y-88507246D01*
X108293713Y-88540500D01*
X108293714Y-88540500D01*
X108506286Y-88540500D01*
X108506287Y-88540500D01*
X108716243Y-88507246D01*
X108918412Y-88441557D01*
X109107816Y-88345051D01*
X109129789Y-88329086D01*
X109279786Y-88220109D01*
X109279788Y-88220106D01*
X109279792Y-88220104D01*
X109430104Y-88069792D01*
X109430106Y-88069788D01*
X109430109Y-88069786D01*
X109555048Y-87897820D01*
X109555047Y-87897820D01*
X109555051Y-87897816D01*
X109651557Y-87708412D01*
X109717246Y-87506243D01*
X109750500Y-87296287D01*
X109750500Y-87083713D01*
X109717246Y-86873757D01*
X109651557Y-86671588D01*
X109555051Y-86482184D01*
X109555049Y-86482181D01*
X109555048Y-86482179D01*
X109430109Y-86310213D01*
X109316569Y-86196673D01*
X109283084Y-86135350D01*
X109288068Y-86065658D01*
X109329940Y-86009725D01*
X109360915Y-85992810D01*
X109492331Y-85943796D01*
X109607546Y-85857546D01*
X109693796Y-85742331D01*
X109744091Y-85607483D01*
X109750500Y-85547873D01*
X109750499Y-83752128D01*
X109744091Y-83692517D01*
X109694514Y-83559595D01*
X109693797Y-83557671D01*
X109693793Y-83557664D01*
X109607547Y-83442455D01*
X109607544Y-83442452D01*
X109492335Y-83356206D01*
X109492328Y-83356202D01*
X109357482Y-83305908D01*
X109357483Y-83305908D01*
X109297883Y-83299501D01*
X109297881Y-83299500D01*
X109297873Y-83299500D01*
X109297864Y-83299500D01*
X107502129Y-83299500D01*
X107502123Y-83299501D01*
X107442516Y-83305908D01*
X107307671Y-83356202D01*
X107307664Y-83356206D01*
X107192455Y-83442452D01*
X107192452Y-83442455D01*
X107106206Y-83557664D01*
X107106202Y-83557671D01*
X107055908Y-83692517D01*
X107049501Y-83752116D01*
X107049501Y-83752123D01*
X107049500Y-83752135D01*
X106395500Y-83752135D01*
X106395500Y-78441927D01*
X106395816Y-78433081D01*
X106410130Y-78232943D01*
X106412646Y-78215438D01*
X106454356Y-78023700D01*
X106459335Y-78006742D01*
X106527911Y-77822882D01*
X106535251Y-77806810D01*
X106629294Y-77634583D01*
X106638850Y-77619714D01*
X106756443Y-77462628D01*
X106768017Y-77449271D01*
X106906771Y-77310517D01*
X106920128Y-77298943D01*
X107077214Y-77181350D01*
X107092083Y-77171794D01*
X107264310Y-77077751D01*
X107280382Y-77070411D01*
X107464242Y-77001835D01*
X107481200Y-76996856D01*
X107672938Y-76955146D01*
X107690436Y-76952630D01*
X107890582Y-76938316D01*
X107899428Y-76938000D01*
X107960892Y-76938000D01*
X108089466Y-76938000D01*
X108156505Y-76957685D01*
G37*
%TD.AperFunction*%
%TD*%
%TA.AperFunction,Conductor*%
%TO.N,LOW_SIDE_SOURCE*%
G36*
X187892782Y-76938079D02*
G01*
X187896100Y-76938197D01*
X187897207Y-76938237D01*
X187901624Y-76938473D01*
X188095146Y-76952314D01*
X188103916Y-76953256D01*
X188112713Y-76954521D01*
X188121370Y-76956084D01*
X188299100Y-76994746D01*
X188304465Y-76995913D01*
X188313038Y-76998100D01*
X188321506Y-77000587D01*
X188329896Y-77003378D01*
X188505475Y-77068866D01*
X188513640Y-77072249D01*
X188521666Y-77075914D01*
X188529570Y-77079869D01*
X188642495Y-77141532D01*
X188694013Y-77169663D01*
X188701630Y-77174182D01*
X188709078Y-77178969D01*
X188716344Y-77184015D01*
X188866312Y-77296279D01*
X188873204Y-77301833D01*
X188879893Y-77307629D01*
X188886372Y-77313661D01*
X189018837Y-77446126D01*
X189024869Y-77452605D01*
X189030665Y-77459294D01*
X189036219Y-77466186D01*
X189148483Y-77616154D01*
X189153529Y-77623420D01*
X189158316Y-77630868D01*
X189162835Y-77638485D01*
X189252620Y-77802913D01*
X189256577Y-77810817D01*
X189260256Y-77818872D01*
X189263640Y-77827042D01*
X189329111Y-78002580D01*
X189331906Y-78010978D01*
X189334398Y-78019465D01*
X189336587Y-78028042D01*
X189376407Y-78211095D01*
X189377978Y-78219797D01*
X189379238Y-78228556D01*
X189380185Y-78237365D01*
X189394026Y-78430871D01*
X189394263Y-78435291D01*
X189394421Y-78439714D01*
X189394500Y-78444141D01*
X189394500Y-115430857D01*
X189394421Y-115435284D01*
X189394263Y-115439707D01*
X189394026Y-115444127D01*
X189380185Y-115637633D01*
X189379238Y-115646442D01*
X189377978Y-115655201D01*
X189376407Y-115663903D01*
X189336587Y-115846956D01*
X189334398Y-115855533D01*
X189331906Y-115864020D01*
X189329111Y-115872418D01*
X189263640Y-116047956D01*
X189260250Y-116056141D01*
X189256580Y-116064176D01*
X189252620Y-116072085D01*
X189162835Y-116236513D01*
X189158316Y-116244130D01*
X189153529Y-116251578D01*
X189148483Y-116258844D01*
X189036219Y-116408812D01*
X189030665Y-116415704D01*
X189024869Y-116422393D01*
X189018837Y-116428872D01*
X188886372Y-116561337D01*
X188879893Y-116567369D01*
X188873204Y-116573165D01*
X188866312Y-116578719D01*
X188716344Y-116690983D01*
X188709078Y-116696029D01*
X188701630Y-116700816D01*
X188694013Y-116705335D01*
X188529585Y-116795120D01*
X188521676Y-116799080D01*
X188513641Y-116802750D01*
X188505456Y-116806140D01*
X188329918Y-116871611D01*
X188321520Y-116874406D01*
X188313033Y-116876898D01*
X188304456Y-116879087D01*
X188121403Y-116918907D01*
X188112699Y-116920478D01*
X188103939Y-116921738D01*
X188095132Y-116922685D01*
X187918779Y-116935299D01*
X187910674Y-116935878D01*
X187901618Y-116936526D01*
X187897234Y-116936761D01*
X187892929Y-116936915D01*
X187892810Y-116936920D01*
X187888356Y-116937000D01*
X138265773Y-116937000D01*
X138230838Y-116931977D01*
X138219984Y-116928790D01*
X138204987Y-116919152D01*
X138187884Y-116914131D01*
X138176207Y-116900656D01*
X138161206Y-116891016D01*
X138153800Y-116874799D01*
X138142127Y-116861329D01*
X138139588Y-116843680D01*
X138132181Y-116827460D01*
X138134717Y-116809814D01*
X138132180Y-116792171D01*
X138142119Y-116758315D01*
X138145311Y-116751324D01*
X138170418Y-116715162D01*
X138254078Y-116631502D01*
X138254856Y-116630806D01*
X138258425Y-116627165D01*
X138258893Y-116626692D01*
X138258907Y-116626673D01*
X138258911Y-116626670D01*
X138258914Y-116626665D01*
X138258919Y-116626661D01*
X138259015Y-116626534D01*
X138259322Y-116626143D01*
X138259322Y-116626142D01*
X138262716Y-116621795D01*
X138263216Y-116621061D01*
X138264232Y-116619737D01*
X138398611Y-116444612D01*
X138513344Y-116245888D01*
X138601158Y-116033887D01*
X138660548Y-115812238D01*
X138690500Y-115584734D01*
X138690500Y-115419058D01*
X138695521Y-115384131D01*
X138698707Y-115373278D01*
X138736477Y-115314497D01*
X138800031Y-115285468D01*
X138869186Y-115295406D01*
X138876177Y-115298598D01*
X138912341Y-115323709D01*
X139917049Y-116328416D01*
X140021584Y-116432951D01*
X140021587Y-116432953D01*
X140021588Y-116432954D01*
X140144503Y-116515083D01*
X140144506Y-116515085D01*
X140144508Y-116515086D01*
X140144510Y-116515087D01*
X140180860Y-116530143D01*
X140194665Y-116535861D01*
X140201062Y-116538510D01*
X140201077Y-116538523D01*
X140201080Y-116538518D01*
X140281088Y-116571659D01*
X140327168Y-116580824D01*
X140397238Y-116594763D01*
X140397239Y-116594763D01*
X140412236Y-116597745D01*
X140420380Y-116599365D01*
X140426081Y-116600500D01*
X140426082Y-116600500D01*
X140426083Y-116600500D01*
X140573918Y-116600500D01*
X162208183Y-116600500D01*
X162232370Y-116602882D01*
X162255862Y-116607554D01*
X162279130Y-116614612D01*
X162291502Y-116619737D01*
X162291509Y-116619738D01*
X162291511Y-116619739D01*
X162438528Y-116648982D01*
X162441252Y-116649704D01*
X162446155Y-116650500D01*
X162603844Y-116650500D01*
X162607964Y-116650500D01*
X162615813Y-116648118D01*
X162723643Y-116626670D01*
X162754138Y-116620604D01*
X162757925Y-116619992D01*
X162759348Y-116619662D01*
X162764092Y-116617418D01*
X162770885Y-116614605D01*
X162794134Y-116607554D01*
X162817627Y-116602881D01*
X162841815Y-116600500D01*
X170233260Y-116600500D01*
X170294688Y-116588280D01*
X170356117Y-116576061D01*
X170378252Y-116571658D01*
X170514834Y-116515084D01*
X170588873Y-116465613D01*
X170637755Y-116432952D01*
X173771285Y-113299419D01*
X173799536Y-113278273D01*
X173822626Y-113265666D01*
X173882049Y-113250500D01*
X174203183Y-113250500D01*
X174227370Y-113252882D01*
X174250862Y-113257554D01*
X174274130Y-113264612D01*
X174286502Y-113269737D01*
X174286509Y-113269738D01*
X174286511Y-113269739D01*
X174433528Y-113298982D01*
X174436252Y-113299704D01*
X174441155Y-113300500D01*
X174598844Y-113300500D01*
X174602964Y-113300500D01*
X174610814Y-113298118D01*
X174753497Y-113269737D01*
X174899179Y-113209394D01*
X175030289Y-113121789D01*
X175030291Y-113121786D01*
X175030295Y-113121784D01*
X175141786Y-113010292D01*
X175141789Y-113010289D01*
X175229394Y-112879179D01*
X175229397Y-112879172D01*
X175229398Y-112879171D01*
X175289735Y-112733501D01*
X175289737Y-112733497D01*
X175320500Y-112578842D01*
X175320500Y-112421158D01*
X175320500Y-112421155D01*
X175320500Y-112420973D01*
X175320065Y-112418972D01*
X175317055Y-112403842D01*
X175307740Y-112357011D01*
X175289737Y-112266503D01*
X175259427Y-112193327D01*
X175229397Y-112120827D01*
X175229389Y-112120813D01*
X175194070Y-112067956D01*
X175190884Y-112061796D01*
X175189973Y-112057108D01*
X175182687Y-112041879D01*
X175178016Y-112026963D01*
X175176766Y-111957106D01*
X175180370Y-111943968D01*
X175196849Y-111907885D01*
X175226771Y-111863104D01*
X175226772Y-111863102D01*
X175229394Y-111859179D01*
X175289737Y-111713497D01*
X175320500Y-111558842D01*
X175320500Y-111401158D01*
X175320500Y-111401155D01*
X175320500Y-111400973D01*
X175320065Y-111398972D01*
X175301279Y-111304530D01*
X175289737Y-111246503D01*
X175275238Y-111211498D01*
X175264148Y-111184725D01*
X175229400Y-111100833D01*
X175229395Y-111100824D01*
X175229390Y-111100814D01*
X175141789Y-110969711D01*
X175141786Y-110969707D01*
X175141781Y-110969701D01*
X175030297Y-110858217D01*
X175030291Y-110858212D01*
X175030290Y-110858211D01*
X174899191Y-110770613D01*
X174899190Y-110770612D01*
X174899185Y-110770609D01*
X174899172Y-110770602D01*
X174899165Y-110770598D01*
X174753502Y-110710264D01*
X174753471Y-110710257D01*
X174598847Y-110679500D01*
X174598845Y-110679500D01*
X174598842Y-110679500D01*
X174441158Y-110679500D01*
X174441155Y-110679500D01*
X174441153Y-110679500D01*
X174286527Y-110710257D01*
X174286496Y-110710264D01*
X174140833Y-110770598D01*
X174140824Y-110770603D01*
X174140807Y-110770613D01*
X174009708Y-110858211D01*
X174009707Y-110858212D01*
X174009701Y-110858217D01*
X173898217Y-110969701D01*
X173898212Y-110969707D01*
X173898211Y-110969708D01*
X173810613Y-111100807D01*
X173810603Y-111100824D01*
X173810598Y-111100833D01*
X173750264Y-111246496D01*
X173750257Y-111246527D01*
X173719500Y-111401150D01*
X173719500Y-111558845D01*
X173724468Y-111583819D01*
X173726358Y-111619063D01*
X173725121Y-111632888D01*
X173699540Y-111697906D01*
X173642868Y-111738773D01*
X173632485Y-111742436D01*
X173591231Y-111749500D01*
X173435417Y-111749500D01*
X173290435Y-111778338D01*
X173290418Y-111778344D01*
X173153856Y-111834908D01*
X173153847Y-111834913D01*
X173153830Y-111834923D01*
X173030920Y-111917049D01*
X173030919Y-111917050D01*
X173030913Y-111917055D01*
X169897397Y-115050573D01*
X169871192Y-115070190D01*
X169869146Y-115071722D01*
X169846058Y-115084330D01*
X169786628Y-115099500D01*
X162841815Y-115099500D01*
X162817627Y-115097117D01*
X162797637Y-115093141D01*
X162794131Y-115092444D01*
X162770880Y-115085391D01*
X162758499Y-115080263D01*
X162758485Y-115080258D01*
X162603849Y-115049500D01*
X162603845Y-115049500D01*
X162603842Y-115049500D01*
X162446158Y-115049500D01*
X162446155Y-115049500D01*
X162446150Y-115049500D01*
X162307456Y-115077087D01*
X162307435Y-115077092D01*
X162291511Y-115080260D01*
X162291506Y-115080262D01*
X162291504Y-115080262D01*
X162291503Y-115080263D01*
X162284003Y-115083369D01*
X162283993Y-115083372D01*
X162279118Y-115085392D01*
X162255864Y-115092444D01*
X162232375Y-115097117D01*
X162208185Y-115099500D01*
X156794999Y-115099500D01*
X156794996Y-115099499D01*
X156794995Y-115099500D01*
X156760060Y-115094476D01*
X156746742Y-115090565D01*
X156687965Y-115052789D01*
X156658943Y-114989232D01*
X156658942Y-114989231D01*
X156657076Y-114976248D01*
X156657309Y-114939416D01*
X156659185Y-114927437D01*
X156659153Y-114927365D01*
X156658000Y-114910492D01*
X156658000Y-112246150D01*
X163249500Y-112246150D01*
X163249500Y-112403848D01*
X163280257Y-112558471D01*
X163280264Y-112558502D01*
X163340598Y-112704165D01*
X163340603Y-112704174D01*
X163340613Y-112704191D01*
X163428211Y-112835290D01*
X163428212Y-112835291D01*
X163428217Y-112835297D01*
X163539701Y-112946781D01*
X163539707Y-112946786D01*
X163539711Y-112946789D01*
X163670814Y-113034390D01*
X163670827Y-113034397D01*
X163787665Y-113082792D01*
X163816503Y-113094737D01*
X163952487Y-113121786D01*
X163963516Y-113123979D01*
X163966246Y-113124703D01*
X163971155Y-113125500D01*
X164128844Y-113125500D01*
X164132965Y-113125500D01*
X164140818Y-113123117D01*
X164205152Y-113110320D01*
X164205153Y-113110320D01*
X164242855Y-113102820D01*
X164279123Y-113095607D01*
X164282922Y-113094992D01*
X164284349Y-113094662D01*
X164289100Y-113092416D01*
X164295872Y-113089611D01*
X164319134Y-113082554D01*
X164342627Y-113077881D01*
X164366815Y-113075500D01*
X169249230Y-113075500D01*
X169284162Y-113080521D01*
X169309406Y-113087934D01*
X169362152Y-113119230D01*
X169437208Y-113194286D01*
X169437212Y-113194290D01*
X169568314Y-113281890D01*
X169568327Y-113281897D01*
X169713998Y-113342235D01*
X169714003Y-113342237D01*
X169868653Y-113372999D01*
X169868656Y-113373000D01*
X169868658Y-113373000D01*
X170026344Y-113373000D01*
X170026345Y-113372999D01*
X170180997Y-113342237D01*
X170326679Y-113281894D01*
X170457789Y-113194289D01*
X170569289Y-113082789D01*
X170656894Y-112951679D01*
X170658920Y-112946789D01*
X170686927Y-112879172D01*
X170717237Y-112805997D01*
X170748000Y-112651342D01*
X170748000Y-112493658D01*
X170748000Y-112493655D01*
X170748000Y-112493473D01*
X170747565Y-112491472D01*
X170734673Y-112426663D01*
X170730134Y-112403842D01*
X170717237Y-112339003D01*
X170703360Y-112305500D01*
X170697838Y-112292168D01*
X170656899Y-112193331D01*
X170656897Y-112193327D01*
X170656895Y-112193324D01*
X170656890Y-112193314D01*
X170569289Y-112062211D01*
X170569286Y-112062207D01*
X170569281Y-112062201D01*
X170457797Y-111950717D01*
X170457791Y-111950712D01*
X170457790Y-111950711D01*
X170326682Y-111863107D01*
X170326670Y-111863102D01*
X170314299Y-111857977D01*
X170292867Y-111846521D01*
X170275494Y-111834913D01*
X170272951Y-111833214D01*
X170254166Y-111817798D01*
X170178416Y-111742048D01*
X170083303Y-111678497D01*
X170055495Y-111659916D01*
X170055493Y-111659915D01*
X170055490Y-111659913D01*
X169918917Y-111603343D01*
X169918907Y-111603340D01*
X169918905Y-111603339D01*
X169918900Y-111603338D01*
X169773922Y-111574500D01*
X169773920Y-111574500D01*
X169773918Y-111574500D01*
X164366815Y-111574500D01*
X164342627Y-111572117D01*
X164322637Y-111568141D01*
X164319131Y-111567444D01*
X164295880Y-111560391D01*
X164283491Y-111555260D01*
X164283490Y-111555259D01*
X164128849Y-111524500D01*
X164128845Y-111524500D01*
X164128842Y-111524500D01*
X163971158Y-111524500D01*
X163971155Y-111524500D01*
X163971153Y-111524500D01*
X163816527Y-111555257D01*
X163816496Y-111555264D01*
X163670833Y-111615598D01*
X163670824Y-111615603D01*
X163670807Y-111615613D01*
X163539708Y-111703211D01*
X163539707Y-111703212D01*
X163539701Y-111703217D01*
X163428217Y-111814701D01*
X163428212Y-111814707D01*
X163428211Y-111814708D01*
X163340613Y-111945807D01*
X163340603Y-111945824D01*
X163340598Y-111945833D01*
X163280264Y-112091496D01*
X163280257Y-112091527D01*
X163249500Y-112246150D01*
X156658000Y-112246150D01*
X156658000Y-110638548D01*
X156658000Y-110638545D01*
X156655183Y-110597005D01*
X156653216Y-110589097D01*
X156638797Y-110531117D01*
X156624026Y-110471723D01*
X156620470Y-110436622D01*
X156621051Y-110422747D01*
X156643520Y-110356595D01*
X156698191Y-110313087D01*
X156698201Y-110313083D01*
X156706644Y-110309647D01*
X156753385Y-110300500D01*
X158114494Y-110300500D01*
X158149426Y-110305521D01*
X158162745Y-110309432D01*
X158221523Y-110347206D01*
X158250549Y-110410761D01*
X158250548Y-110410763D01*
X158252115Y-110421657D01*
X158250995Y-110463499D01*
X158244500Y-110496150D01*
X158244500Y-110496153D01*
X158244500Y-110653846D01*
X158244500Y-110653848D01*
X158244499Y-110653848D01*
X158275257Y-110808471D01*
X158275264Y-110808502D01*
X158335598Y-110954165D01*
X158335603Y-110954174D01*
X158335613Y-110954191D01*
X158423211Y-111085290D01*
X158423212Y-111085291D01*
X158423217Y-111085297D01*
X158534701Y-111196781D01*
X158534707Y-111196786D01*
X158534711Y-111196789D01*
X158665814Y-111284390D01*
X158665827Y-111284397D01*
X158811498Y-111344735D01*
X158811503Y-111344737D01*
X158966153Y-111375499D01*
X158966156Y-111375500D01*
X158966158Y-111375500D01*
X159123844Y-111375500D01*
X159123845Y-111375499D01*
X159278497Y-111344737D01*
X159424179Y-111284394D01*
X159555289Y-111196789D01*
X159666789Y-111085289D01*
X159754394Y-110954179D01*
X159814737Y-110808497D01*
X159845500Y-110653842D01*
X159845500Y-110496158D01*
X159845500Y-110496155D01*
X159845500Y-110495970D01*
X159845068Y-110493983D01*
X159839537Y-110466177D01*
X159837647Y-110430940D01*
X159838885Y-110417107D01*
X159845412Y-110400518D01*
X159845764Y-110396586D01*
X159848186Y-110393467D01*
X159864466Y-110352092D01*
X159921135Y-110311227D01*
X159931531Y-110307559D01*
X159972774Y-110300500D01*
X179195902Y-110300500D01*
X179230834Y-110305521D01*
X179256197Y-110312969D01*
X179302995Y-110339010D01*
X179303028Y-110338970D01*
X179303174Y-110339087D01*
X179303200Y-110339056D01*
X179303458Y-110339267D01*
X179303950Y-110339541D01*
X179305462Y-110340894D01*
X179305759Y-110341162D01*
X179306311Y-110341609D01*
X179398752Y-110417473D01*
X179624747Y-110602942D01*
X179732974Y-110675257D01*
X179967908Y-110832235D01*
X179968571Y-110832603D01*
X179969353Y-110833007D01*
X180326581Y-111023950D01*
X180326580Y-111023950D01*
X180330676Y-111026139D01*
X180331881Y-111026783D01*
X180331882Y-111026783D01*
X180331886Y-111026785D01*
X180331889Y-111026787D01*
X180331891Y-111026788D01*
X180335357Y-111028640D01*
X180340329Y-111030283D01*
X180713187Y-111184726D01*
X181108131Y-111304530D01*
X181108137Y-111304531D01*
X181108140Y-111304532D01*
X181108147Y-111304534D01*
X181108154Y-111304536D01*
X181108703Y-111304665D01*
X181109979Y-111304899D01*
X181464914Y-111375499D01*
X181512915Y-111385047D01*
X181923643Y-111425500D01*
X181923646Y-111425500D01*
X182336354Y-111425500D01*
X182336357Y-111425500D01*
X182747085Y-111385047D01*
X182842071Y-111366153D01*
X183145998Y-111305699D01*
X183146001Y-111305698D01*
X183150471Y-111304809D01*
X183150481Y-111304807D01*
X183150663Y-111304770D01*
X183151848Y-111304535D01*
X183151855Y-111304532D01*
X183152141Y-111304476D01*
X183153595Y-111304058D01*
X183182132Y-111296275D01*
X183183854Y-111295011D01*
X183190093Y-111292934D01*
X183546813Y-111184726D01*
X183928111Y-111026787D01*
X184292093Y-110832234D01*
X184635253Y-110602942D01*
X184954286Y-110341119D01*
X185246119Y-110049286D01*
X185507942Y-109730253D01*
X185737234Y-109387093D01*
X185931787Y-109023111D01*
X186089726Y-108641813D01*
X186209530Y-108246869D01*
X186209532Y-108246859D01*
X186209535Y-108246848D01*
X186290047Y-107842084D01*
X186330500Y-107431353D01*
X186330500Y-107018646D01*
X186304340Y-106753040D01*
X186290047Y-106607915D01*
X186238645Y-106349500D01*
X186209900Y-106204986D01*
X186209667Y-106203714D01*
X186209538Y-106203170D01*
X186209535Y-106203151D01*
X186209532Y-106203140D01*
X186209531Y-106203137D01*
X186209530Y-106203131D01*
X186089726Y-105808187D01*
X185931787Y-105426889D01*
X185896829Y-105361488D01*
X185738022Y-105064381D01*
X185737608Y-105063581D01*
X185737235Y-105062908D01*
X185593993Y-104848532D01*
X185507942Y-104719747D01*
X185293127Y-104457994D01*
X185246609Y-104401311D01*
X185246609Y-104401310D01*
X185246109Y-104400702D01*
X185200364Y-104354958D01*
X185189675Y-104342771D01*
X185179852Y-104329969D01*
X185170853Y-104316502D01*
X185150522Y-104281287D01*
X185150518Y-104281282D01*
X185038718Y-104169482D01*
X185038716Y-104169480D01*
X185000389Y-104147351D01*
X184997387Y-104145378D01*
X184996769Y-104144650D01*
X184990022Y-104140142D01*
X184977230Y-104130326D01*
X184965041Y-104119636D01*
X184954286Y-104108881D01*
X184931798Y-104090426D01*
X184931794Y-104090423D01*
X184793601Y-103977011D01*
X184636563Y-103848133D01*
X184635576Y-103847300D01*
X184635259Y-103847062D01*
X184635254Y-103847059D01*
X184635248Y-103847055D01*
X184292108Y-103617776D01*
X184292107Y-103617775D01*
X184292099Y-103617770D01*
X184292093Y-103617766D01*
X184292088Y-103617763D01*
X184292081Y-103617759D01*
X184292072Y-103617754D01*
X184292065Y-103617750D01*
X184017203Y-103470833D01*
X183928118Y-103423216D01*
X183928113Y-103423214D01*
X183928108Y-103423212D01*
X183928013Y-103423167D01*
X183927434Y-103422932D01*
X183546819Y-103265275D01*
X183168451Y-103150500D01*
X183168439Y-103150496D01*
X183164211Y-103149213D01*
X183159168Y-103147091D01*
X183152698Y-103145653D01*
X183151994Y-103145492D01*
X182747089Y-103064953D01*
X182747073Y-103064950D01*
X182437741Y-103034485D01*
X182437741Y-103034484D01*
X182359477Y-103026777D01*
X182336357Y-103024500D01*
X182336354Y-103024500D01*
X181923646Y-103024500D01*
X181923643Y-103024500D01*
X181903789Y-103026455D01*
X181829965Y-103033725D01*
X181829966Y-103033726D01*
X181512925Y-103064950D01*
X181512909Y-103064953D01*
X181108154Y-103145462D01*
X181108152Y-103145462D01*
X180713183Y-103265274D01*
X180332564Y-103422932D01*
X180331989Y-103423166D01*
X180331875Y-103423219D01*
X179967927Y-103617754D01*
X179967908Y-103617765D01*
X179967902Y-103617768D01*
X179624750Y-103847055D01*
X179624731Y-103847069D01*
X179624728Y-103847071D01*
X179426151Y-104010038D01*
X179426151Y-104010040D01*
X179426148Y-104010041D01*
X179426148Y-104010042D01*
X179414643Y-104017008D01*
X179395960Y-104028320D01*
X179369330Y-104039631D01*
X179320853Y-104049500D01*
X160097330Y-104049500D01*
X160062389Y-104044475D01*
X160047390Y-104040070D01*
X159988644Y-104002327D01*
X159987457Y-104000958D01*
X159959977Y-103946083D01*
X159958332Y-103938521D01*
X159955500Y-103912168D01*
X159955500Y-103770973D01*
X159955065Y-103768972D01*
X159924992Y-103617788D01*
X159924993Y-103617775D01*
X159924990Y-103617776D01*
X159924985Y-103617750D01*
X159924737Y-103616503D01*
X159886726Y-103524735D01*
X159864397Y-103470827D01*
X159864390Y-103470814D01*
X159776789Y-103339711D01*
X159776786Y-103339707D01*
X159776781Y-103339701D01*
X159665297Y-103228217D01*
X159665291Y-103228212D01*
X159665290Y-103228211D01*
X159534191Y-103140613D01*
X159534190Y-103140612D01*
X159534185Y-103140609D01*
X159534172Y-103140602D01*
X159534165Y-103140598D01*
X159388502Y-103080264D01*
X159388471Y-103080257D01*
X159233847Y-103049500D01*
X159233845Y-103049500D01*
X159233842Y-103049500D01*
X159076158Y-103049500D01*
X159076155Y-103049500D01*
X159076153Y-103049500D01*
X158921527Y-103080257D01*
X158921496Y-103080264D01*
X158775833Y-103140598D01*
X158775824Y-103140603D01*
X158775807Y-103140613D01*
X158644708Y-103228211D01*
X158644707Y-103228212D01*
X158644701Y-103228217D01*
X158533217Y-103339701D01*
X158533212Y-103339707D01*
X158533211Y-103339708D01*
X158445613Y-103470807D01*
X158445603Y-103470824D01*
X158445598Y-103470833D01*
X158385264Y-103616496D01*
X158385257Y-103616527D01*
X158354500Y-103771150D01*
X158354500Y-103907670D01*
X158354499Y-103907676D01*
X158354500Y-103907679D01*
X158349475Y-103942614D01*
X158345070Y-103957612D01*
X158307327Y-104016355D01*
X158307292Y-104016385D01*
X158307291Y-104016387D01*
X158307289Y-104016387D01*
X158305958Y-104017542D01*
X158251097Y-104045018D01*
X158243539Y-104046663D01*
X158217168Y-104049500D01*
X144040943Y-104049500D01*
X143888218Y-104090422D01*
X143888211Y-104090424D01*
X143888210Y-104090425D01*
X143888200Y-104090430D01*
X143751298Y-104169470D01*
X143751293Y-104169472D01*
X143751290Y-104169475D01*
X143751286Y-104169478D01*
X143751277Y-104169484D01*
X143639485Y-104281276D01*
X143639484Y-104281278D01*
X143639481Y-104281281D01*
X143639481Y-104281282D01*
X143639475Y-104281290D01*
X143639472Y-104281294D01*
X143639470Y-104281298D01*
X143567091Y-104406662D01*
X143567088Y-104406668D01*
X143560426Y-104418209D01*
X143560423Y-104418214D01*
X143550787Y-104454179D01*
X143549767Y-104457982D01*
X143549764Y-104457994D01*
X143534390Y-104515373D01*
X143520496Y-104547818D01*
X143512361Y-104561164D01*
X143460672Y-104608156D01*
X143452697Y-104612031D01*
X143398505Y-104624500D01*
X143321153Y-104624500D01*
X143166527Y-104655257D01*
X143166496Y-104655264D01*
X143020836Y-104715597D01*
X143020823Y-104715603D01*
X142991928Y-104734911D01*
X142991925Y-104734913D01*
X142978775Y-104743699D01*
X142946942Y-104758929D01*
X142933486Y-104763142D01*
X142915309Y-104768834D01*
X142878256Y-104774500D01*
X140555926Y-104774500D01*
X140430273Y-104799493D01*
X140430265Y-104799495D01*
X140430245Y-104799502D01*
X140322042Y-104844321D01*
X140322043Y-104844322D01*
X140321041Y-104844737D01*
X140311876Y-104848533D01*
X140233651Y-104900800D01*
X140205326Y-104919726D01*
X140049478Y-105075574D01*
X140025760Y-105093329D01*
X140021229Y-105096721D01*
X139998142Y-105109329D01*
X139938710Y-105124500D01*
X139671660Y-105124500D01*
X139671654Y-105124500D01*
X139671644Y-105124501D01*
X139572292Y-105134650D01*
X139572290Y-105134650D01*
X139572286Y-105134651D01*
X139572282Y-105134651D01*
X139572121Y-105134706D01*
X139411304Y-105187996D01*
X139411299Y-105187998D01*
X139290424Y-105262555D01*
X139284755Y-105265848D01*
X139240814Y-105289842D01*
X139172542Y-105304694D01*
X139172541Y-105304693D01*
X139172541Y-105304694D01*
X139172540Y-105304693D01*
X139170738Y-105304565D01*
X139112541Y-105285196D01*
X139080120Y-105264360D01*
X139080027Y-105264349D01*
X139063878Y-105255957D01*
X138953709Y-105188003D01*
X138953699Y-105187998D01*
X138953700Y-105187998D01*
X138792709Y-105134651D01*
X138792702Y-105134650D01*
X138693353Y-105124500D01*
X138693346Y-105124500D01*
X138096662Y-105124500D01*
X138096644Y-105124501D01*
X138096637Y-105124501D01*
X138096616Y-105124503D01*
X138049834Y-105129283D01*
X138049830Y-105129282D01*
X138049830Y-105129283D01*
X138014570Y-105127836D01*
X138000095Y-105125145D01*
X137937786Y-105093538D01*
X137903095Y-105035718D01*
X137899827Y-105023681D01*
X137895499Y-104991205D01*
X137895499Y-104900845D01*
X137895499Y-104900831D01*
X137895498Y-104900806D01*
X137895217Y-104897236D01*
X137892665Y-104864796D01*
X137847869Y-104710607D01*
X137787280Y-104608156D01*
X137766134Y-104572400D01*
X137710188Y-104516454D01*
X137652603Y-104458869D01*
X137652594Y-104458862D01*
X137652591Y-104458860D01*
X137593200Y-104423736D01*
X137593199Y-104423736D01*
X137565686Y-104401629D01*
X137552654Y-104387672D01*
X137522603Y-104331530D01*
X137520319Y-104321853D01*
X137517003Y-104293121D01*
X137517820Y-103895162D01*
X137537642Y-103828167D01*
X137549105Y-103813079D01*
X137629060Y-103723062D01*
X137690430Y-103592927D01*
X137710935Y-103526134D01*
X137733156Y-103383980D01*
X137737776Y-103007218D01*
X137726910Y-102896591D01*
X137715713Y-102843560D01*
X137712513Y-102833848D01*
X166554499Y-102833848D01*
X166585257Y-102988471D01*
X166585264Y-102988502D01*
X166645598Y-103134165D01*
X166645603Y-103134174D01*
X166645613Y-103134191D01*
X166733211Y-103265290D01*
X166733212Y-103265291D01*
X166733217Y-103265297D01*
X166844701Y-103376781D01*
X166844707Y-103376786D01*
X166844711Y-103376789D01*
X166975814Y-103464390D01*
X166975827Y-103464397D01*
X167121498Y-103524735D01*
X167121503Y-103524737D01*
X167276153Y-103555499D01*
X167276156Y-103555500D01*
X167276158Y-103555500D01*
X167433844Y-103555500D01*
X167433845Y-103555499D01*
X167588497Y-103524737D01*
X167718648Y-103470827D01*
X167734172Y-103464397D01*
X167734172Y-103464396D01*
X167734179Y-103464394D01*
X167865289Y-103376789D01*
X167976789Y-103265289D01*
X168064394Y-103134179D01*
X168124737Y-102988497D01*
X168155500Y-102833842D01*
X168155500Y-102676158D01*
X168155500Y-102676155D01*
X168155500Y-102675973D01*
X168155065Y-102673972D01*
X168137068Y-102583497D01*
X168125395Y-102524815D01*
X168124983Y-102522403D01*
X168124737Y-102521504D01*
X168086356Y-102428842D01*
X168064397Y-102375827D01*
X168064390Y-102375814D01*
X168036422Y-102333957D01*
X167994455Y-102271150D01*
X175049500Y-102271150D01*
X175049500Y-102428848D01*
X175080257Y-102583471D01*
X175080264Y-102583502D01*
X175140598Y-102729165D01*
X175140603Y-102729174D01*
X175140613Y-102729191D01*
X175228211Y-102860290D01*
X175228212Y-102860291D01*
X175228217Y-102860297D01*
X175339701Y-102971781D01*
X175339707Y-102971786D01*
X175339711Y-102971789D01*
X175470814Y-103059390D01*
X175470827Y-103059397D01*
X175616498Y-103119735D01*
X175616503Y-103119737D01*
X175745856Y-103145467D01*
X175763530Y-103148982D01*
X175766248Y-103149703D01*
X175771155Y-103150500D01*
X175928844Y-103150500D01*
X175932964Y-103150500D01*
X175940814Y-103148118D01*
X176083497Y-103119737D01*
X176229179Y-103059394D01*
X176360289Y-102971789D01*
X176471789Y-102860289D01*
X176559394Y-102729179D01*
X176619737Y-102583497D01*
X176650500Y-102428842D01*
X176650500Y-102271158D01*
X176650500Y-102271155D01*
X176650500Y-102270972D01*
X176650066Y-102268976D01*
X176645239Y-102244709D01*
X176632400Y-102180167D01*
X176619737Y-102116503D01*
X176590369Y-102045602D01*
X176590367Y-102045598D01*
X176580045Y-102020677D01*
X176559397Y-101970827D01*
X176559390Y-101970814D01*
X176471789Y-101839711D01*
X176471786Y-101839707D01*
X176471781Y-101839701D01*
X176360297Y-101728217D01*
X176360291Y-101728212D01*
X176360290Y-101728211D01*
X176229191Y-101640613D01*
X176229190Y-101640612D01*
X176229185Y-101640609D01*
X176229172Y-101640602D01*
X176229165Y-101640598D01*
X176083502Y-101580264D01*
X176083471Y-101580257D01*
X175928847Y-101549500D01*
X175928845Y-101549500D01*
X175928842Y-101549500D01*
X175771158Y-101549500D01*
X175771155Y-101549500D01*
X175771153Y-101549500D01*
X175616527Y-101580257D01*
X175616496Y-101580264D01*
X175470833Y-101640598D01*
X175470824Y-101640603D01*
X175470807Y-101640613D01*
X175339708Y-101728211D01*
X175339707Y-101728212D01*
X175339701Y-101728217D01*
X175228217Y-101839701D01*
X175228212Y-101839707D01*
X175228211Y-101839708D01*
X175140613Y-101970807D01*
X175140603Y-101970824D01*
X175140598Y-101970833D01*
X175080264Y-102116496D01*
X175080257Y-102116527D01*
X175049500Y-102271150D01*
X167994455Y-102271150D01*
X167976789Y-102244711D01*
X167976787Y-102244708D01*
X167976786Y-102244707D01*
X167976781Y-102244701D01*
X167865297Y-102133217D01*
X167865291Y-102133212D01*
X167865290Y-102133211D01*
X167734191Y-102045613D01*
X167734190Y-102045612D01*
X167734185Y-102045609D01*
X167734172Y-102045602D01*
X167734165Y-102045598D01*
X167588502Y-101985264D01*
X167588471Y-101985257D01*
X167433847Y-101954500D01*
X167433845Y-101954500D01*
X167433842Y-101954500D01*
X167276158Y-101954500D01*
X167276155Y-101954500D01*
X167276153Y-101954500D01*
X167121527Y-101985257D01*
X167121496Y-101985264D01*
X166975833Y-102045598D01*
X166975824Y-102045603D01*
X166975807Y-102045613D01*
X166844708Y-102133211D01*
X166844707Y-102133212D01*
X166844701Y-102133217D01*
X166733217Y-102244701D01*
X166733212Y-102244707D01*
X166733211Y-102244708D01*
X166645613Y-102375807D01*
X166645603Y-102375824D01*
X166645598Y-102375833D01*
X166585264Y-102521496D01*
X166585257Y-102521527D01*
X166554500Y-102676150D01*
X166554500Y-102676153D01*
X166554500Y-102833846D01*
X166554500Y-102833848D01*
X166554499Y-102833848D01*
X137712513Y-102833848D01*
X137680936Y-102737996D01*
X137603148Y-102616957D01*
X137557393Y-102564153D01*
X137551906Y-102559398D01*
X137544181Y-102548693D01*
X137535729Y-102524761D01*
X137523569Y-102502491D01*
X137521714Y-102485074D01*
X137520915Y-102482811D01*
X137521299Y-102481180D01*
X137520735Y-102475886D01*
X137522645Y-101546602D01*
X137525051Y-101522552D01*
X137529725Y-101499179D01*
X137536751Y-101476058D01*
X137564737Y-101408497D01*
X137595500Y-101253842D01*
X137595500Y-101096158D01*
X137595500Y-101096155D01*
X137595500Y-101095971D01*
X137595064Y-101093966D01*
X137589250Y-101064737D01*
X137577248Y-101004400D01*
X137564737Y-100941503D01*
X137549054Y-100903642D01*
X137541586Y-100834177D01*
X137566520Y-100779066D01*
X137578724Y-100763702D01*
X137580515Y-100762439D01*
X137583108Y-100758485D01*
X137666560Y-100664530D01*
X137727930Y-100534395D01*
X137748435Y-100467602D01*
X137750585Y-100453848D01*
X149974499Y-100453848D01*
X150005257Y-100608471D01*
X150005264Y-100608502D01*
X150065598Y-100754165D01*
X150065603Y-100754174D01*
X150065613Y-100754191D01*
X150153211Y-100885290D01*
X150153212Y-100885291D01*
X150153217Y-100885297D01*
X150264701Y-100996781D01*
X150264707Y-100996786D01*
X150264711Y-100996789D01*
X150395814Y-101084390D01*
X150395827Y-101084397D01*
X150541498Y-101144735D01*
X150541503Y-101144737D01*
X150696153Y-101175499D01*
X150696156Y-101175500D01*
X150696158Y-101175500D01*
X150853844Y-101175500D01*
X150853845Y-101175499D01*
X151008497Y-101144737D01*
X151145476Y-101087999D01*
X151154172Y-101084397D01*
X151154172Y-101084396D01*
X151154179Y-101084394D01*
X151285289Y-100996789D01*
X151396789Y-100885289D01*
X151484394Y-100754179D01*
X151544737Y-100608497D01*
X151575500Y-100453842D01*
X151575500Y-100373848D01*
X158269499Y-100373848D01*
X158300257Y-100528471D01*
X158300264Y-100528502D01*
X158360598Y-100674165D01*
X158360602Y-100674172D01*
X158360606Y-100674180D01*
X158360613Y-100674191D01*
X158448211Y-100805290D01*
X158448212Y-100805291D01*
X158448217Y-100805297D01*
X158559701Y-100916781D01*
X158559707Y-100916786D01*
X158559711Y-100916789D01*
X158690814Y-101004390D01*
X158690827Y-101004397D01*
X158690829Y-101004397D01*
X158690833Y-101004400D01*
X158833979Y-101063692D01*
X158836498Y-101064735D01*
X158836506Y-101064738D01*
X158906795Y-101078719D01*
X158991153Y-101095499D01*
X158991156Y-101095500D01*
X158991158Y-101095500D01*
X159148844Y-101095500D01*
X159148845Y-101095499D01*
X159303497Y-101064737D01*
X159449179Y-101004394D01*
X159580289Y-100916789D01*
X159691789Y-100805289D01*
X159779394Y-100674179D01*
X159782504Y-100666672D01*
X159793064Y-100641172D01*
X159793068Y-100641167D01*
X159793067Y-100641167D01*
X159806736Y-100608166D01*
X159839737Y-100528497D01*
X159870500Y-100373842D01*
X159870500Y-100366348D01*
X185406999Y-100366348D01*
X185437757Y-100520971D01*
X185437764Y-100521002D01*
X185498098Y-100666665D01*
X185498101Y-100666670D01*
X185498102Y-100666672D01*
X185498109Y-100666685D01*
X185556509Y-100754087D01*
X185585711Y-100797790D01*
X185585712Y-100797791D01*
X185585717Y-100797797D01*
X185697201Y-100909281D01*
X185697207Y-100909286D01*
X185697211Y-100909289D01*
X185828314Y-100996890D01*
X185828327Y-100996897D01*
X185973998Y-101057235D01*
X185974003Y-101057237D01*
X186110530Y-101084394D01*
X186121026Y-101086482D01*
X186123746Y-101087203D01*
X186128655Y-101088000D01*
X186286344Y-101088000D01*
X186290464Y-101088000D01*
X186298314Y-101085618D01*
X186440997Y-101057237D01*
X186586679Y-100996894D01*
X186717789Y-100909289D01*
X186829289Y-100797789D01*
X186911886Y-100674174D01*
X186916893Y-100666681D01*
X186916897Y-100666672D01*
X186930567Y-100633666D01*
X186977237Y-100520997D01*
X187008000Y-100366342D01*
X187008000Y-100208658D01*
X187008000Y-100208655D01*
X187008000Y-100208473D01*
X187007565Y-100206471D01*
X186978730Y-100061509D01*
X186978729Y-100061505D01*
X186977237Y-100054003D01*
X186953604Y-99996947D01*
X186916897Y-99908327D01*
X186916890Y-99908314D01*
X186829289Y-99777211D01*
X186829286Y-99777207D01*
X186829281Y-99777201D01*
X186717797Y-99665717D01*
X186717791Y-99665712D01*
X186717790Y-99665711D01*
X186586691Y-99578113D01*
X186586690Y-99578112D01*
X186586685Y-99578109D01*
X186586672Y-99578102D01*
X186586665Y-99578098D01*
X186441002Y-99517764D01*
X186440971Y-99517757D01*
X186286347Y-99487000D01*
X186286345Y-99487000D01*
X186286342Y-99487000D01*
X186128658Y-99487000D01*
X186128655Y-99487000D01*
X186128653Y-99487000D01*
X185974027Y-99517757D01*
X185973996Y-99517764D01*
X185828333Y-99578098D01*
X185828324Y-99578103D01*
X185828307Y-99578113D01*
X185697208Y-99665711D01*
X185697207Y-99665712D01*
X185697201Y-99665717D01*
X185585717Y-99777201D01*
X185585712Y-99777207D01*
X185585711Y-99777208D01*
X185498113Y-99908307D01*
X185498103Y-99908324D01*
X185498098Y-99908333D01*
X185437764Y-100053996D01*
X185437761Y-100054011D01*
X185407000Y-100208649D01*
X185407000Y-100208653D01*
X185407000Y-100366346D01*
X185407000Y-100366348D01*
X185406999Y-100366348D01*
X159870500Y-100366348D01*
X159870500Y-100216158D01*
X159870500Y-100216155D01*
X159870500Y-100215975D01*
X159870074Y-100214020D01*
X159869007Y-100208653D01*
X159839737Y-100061503D01*
X159836633Y-100054010D01*
X159779397Y-99915827D01*
X159779390Y-99915814D01*
X159691789Y-99784711D01*
X159691786Y-99784707D01*
X159691781Y-99784701D01*
X159580297Y-99673217D01*
X159580291Y-99673212D01*
X159580290Y-99673211D01*
X159449191Y-99585613D01*
X159449190Y-99585612D01*
X159449185Y-99585609D01*
X159449172Y-99585602D01*
X159449165Y-99585598D01*
X159303502Y-99525264D01*
X159303471Y-99525257D01*
X159148847Y-99494500D01*
X159148845Y-99494500D01*
X159148842Y-99494500D01*
X158991158Y-99494500D01*
X158991155Y-99494500D01*
X158991153Y-99494500D01*
X158836527Y-99525257D01*
X158836496Y-99525264D01*
X158690833Y-99585598D01*
X158690824Y-99585603D01*
X158690807Y-99585613D01*
X158559708Y-99673211D01*
X158559707Y-99673212D01*
X158559701Y-99673217D01*
X158448217Y-99784701D01*
X158448212Y-99784707D01*
X158448211Y-99784708D01*
X158360613Y-99915807D01*
X158360603Y-99915824D01*
X158360598Y-99915833D01*
X158300264Y-100061496D01*
X158300257Y-100061527D01*
X158269500Y-100216150D01*
X158269500Y-100216153D01*
X158269500Y-100373846D01*
X158269500Y-100373848D01*
X158269499Y-100373848D01*
X151575500Y-100373848D01*
X151575500Y-100296158D01*
X151575500Y-100296155D01*
X151575500Y-100295969D01*
X151575069Y-100293987D01*
X151563213Y-100234384D01*
X151563212Y-100234379D01*
X151563212Y-100234378D01*
X151563187Y-100234252D01*
X151552711Y-100181591D01*
X151544738Y-100141508D01*
X151544737Y-100141507D01*
X151544497Y-100140298D01*
X151542414Y-100135893D01*
X151534510Y-100116813D01*
X151534505Y-100116802D01*
X151534485Y-100116753D01*
X151484397Y-99995827D01*
X151484390Y-99995814D01*
X151484388Y-99995812D01*
X151484386Y-99995807D01*
X151396789Y-99864710D01*
X151396786Y-99864706D01*
X151285297Y-99753217D01*
X151285291Y-99753212D01*
X151285290Y-99753211D01*
X151154191Y-99665613D01*
X151154190Y-99665612D01*
X151154185Y-99665609D01*
X151154172Y-99665602D01*
X151154165Y-99665598D01*
X151008502Y-99605264D01*
X151008471Y-99605257D01*
X150853847Y-99574500D01*
X150853845Y-99574500D01*
X150853842Y-99574500D01*
X150696158Y-99574500D01*
X150696155Y-99574500D01*
X150696153Y-99574500D01*
X150541527Y-99605257D01*
X150541496Y-99605264D01*
X150395833Y-99665598D01*
X150395824Y-99665603D01*
X150395807Y-99665613D01*
X150264708Y-99753211D01*
X150264707Y-99753212D01*
X150264701Y-99753217D01*
X150153217Y-99864701D01*
X150153213Y-99864706D01*
X150153211Y-99864710D01*
X150065613Y-99995807D01*
X150065603Y-99995824D01*
X150065598Y-99995833D01*
X150005264Y-100141496D01*
X150005257Y-100141527D01*
X149974500Y-100296150D01*
X149974500Y-100296153D01*
X149974500Y-100453846D01*
X149974500Y-100453848D01*
X149974499Y-100453848D01*
X137750585Y-100453848D01*
X137770656Y-100325448D01*
X137780469Y-99524980D01*
X137782841Y-99502325D01*
X137795500Y-99438692D01*
X137795500Y-99261308D01*
X137795500Y-98300007D01*
X137795509Y-98298487D01*
X137801187Y-97835339D01*
X137806783Y-97378908D01*
X137811331Y-97347125D01*
X137811396Y-97346893D01*
X137811395Y-97346892D01*
X137812507Y-97342907D01*
X137813539Y-97339408D01*
X137864086Y-97177196D01*
X137870500Y-97106616D01*
X137870500Y-96593384D01*
X137864086Y-96522804D01*
X137824897Y-96397039D01*
X137819293Y-96358640D01*
X137820844Y-96232218D01*
X137809978Y-96121591D01*
X137798781Y-96068560D01*
X137764004Y-95962996D01*
X137746128Y-95935181D01*
X137726444Y-95868144D01*
X137744327Y-95803994D01*
X137813478Y-95689606D01*
X137864086Y-95527196D01*
X137870500Y-95456616D01*
X137870500Y-94943384D01*
X137864086Y-94872804D01*
X137813478Y-94710394D01*
X137757818Y-94618321D01*
X137739982Y-94550770D01*
X137751779Y-94501288D01*
X137803241Y-94392165D01*
X137823746Y-94325372D01*
X137845967Y-94183218D01*
X137854946Y-93450943D01*
X143519500Y-93450943D01*
X143519500Y-98659055D01*
X143560422Y-98811780D01*
X143560424Y-98811787D01*
X143560425Y-98811788D01*
X143560428Y-98811793D01*
X143636623Y-98943771D01*
X143636638Y-98943795D01*
X143639475Y-98948709D01*
X143639479Y-98948714D01*
X143639480Y-98948716D01*
X143640049Y-98949285D01*
X143751287Y-99060523D01*
X143751969Y-99061014D01*
X143754475Y-99062363D01*
X143888209Y-99139573D01*
X143888216Y-99139577D01*
X144040943Y-99180500D01*
X144199057Y-99180500D01*
X179304390Y-99180500D01*
X179339325Y-99185523D01*
X179367088Y-99193675D01*
X179410818Y-99216799D01*
X179652526Y-99415163D01*
X179687740Y-99438692D01*
X179995687Y-99644456D01*
X179996350Y-99644824D01*
X179997132Y-99645228D01*
X180354360Y-99836171D01*
X180354359Y-99836171D01*
X180358455Y-99838360D01*
X180359660Y-99839004D01*
X180359661Y-99839004D01*
X180359665Y-99839006D01*
X180359668Y-99839008D01*
X180359670Y-99839009D01*
X180363136Y-99840861D01*
X180368108Y-99842504D01*
X180740966Y-99996947D01*
X181135910Y-100116751D01*
X181135916Y-100116752D01*
X181135919Y-100116753D01*
X181135926Y-100116755D01*
X181135933Y-100116757D01*
X181136482Y-100116886D01*
X181137758Y-100117120D01*
X181461890Y-100181593D01*
X181540694Y-100197268D01*
X181951422Y-100237721D01*
X181951425Y-100237721D01*
X182364133Y-100237721D01*
X182364136Y-100237721D01*
X182774864Y-100197268D01*
X182853663Y-100181593D01*
X183179627Y-100116756D01*
X183179630Y-100116755D01*
X183179917Y-100116698D01*
X183181374Y-100116279D01*
X183209911Y-100108496D01*
X183211633Y-100107232D01*
X183217872Y-100105155D01*
X183574592Y-99996947D01*
X183955890Y-99839008D01*
X184319872Y-99644455D01*
X184663032Y-99415163D01*
X184982065Y-99153340D01*
X185273898Y-98861507D01*
X185535721Y-98542474D01*
X185765013Y-98199314D01*
X185959566Y-97835332D01*
X186117505Y-97454034D01*
X186237309Y-97059090D01*
X186237311Y-97059080D01*
X186237314Y-97059069D01*
X186317826Y-96654305D01*
X186330778Y-96522804D01*
X186358279Y-96243578D01*
X186358279Y-95830864D01*
X186317826Y-95420136D01*
X186237678Y-95017200D01*
X186237678Y-95017199D01*
X186237313Y-95015369D01*
X186237310Y-95015358D01*
X186237309Y-95015352D01*
X186117505Y-94620408D01*
X185959566Y-94239110D01*
X185765013Y-93875128D01*
X185535721Y-93531968D01*
X185274388Y-93213532D01*
X185274388Y-93213531D01*
X185273888Y-93212923D01*
X184982075Y-92921110D01*
X184863473Y-92823776D01*
X184664342Y-92660354D01*
X184663355Y-92659521D01*
X184663038Y-92659283D01*
X184663033Y-92659280D01*
X184663027Y-92659276D01*
X184448311Y-92515807D01*
X184319886Y-92429996D01*
X184319878Y-92429991D01*
X184319872Y-92429987D01*
X184319867Y-92429984D01*
X184319860Y-92429980D01*
X184319851Y-92429975D01*
X184319844Y-92429971D01*
X184047494Y-92284397D01*
X183955897Y-92235437D01*
X183955892Y-92235435D01*
X183955887Y-92235433D01*
X183955792Y-92235388D01*
X183955213Y-92235153D01*
X183574594Y-92077495D01*
X183179625Y-91957683D01*
X183179623Y-91957683D01*
X182774868Y-91877174D01*
X182774852Y-91877171D01*
X182465520Y-91846706D01*
X182465520Y-91846705D01*
X182387256Y-91838998D01*
X182364136Y-91836721D01*
X182364133Y-91836721D01*
X181951425Y-91836721D01*
X181951422Y-91836721D01*
X181931568Y-91838676D01*
X181857744Y-91845946D01*
X181857745Y-91845947D01*
X181540704Y-91877171D01*
X181540688Y-91877174D01*
X181135933Y-91957683D01*
X181135931Y-91957683D01*
X180740962Y-92077495D01*
X180360343Y-92235153D01*
X180359768Y-92235387D01*
X180359654Y-92235440D01*
X179995706Y-92429975D01*
X179995687Y-92429986D01*
X179995681Y-92429989D01*
X179652529Y-92659276D01*
X179652510Y-92659290D01*
X179652507Y-92659292D01*
X179371341Y-92890038D01*
X179371341Y-92890040D01*
X179341150Y-92908320D01*
X179314520Y-92919631D01*
X179266043Y-92929500D01*
X174650266Y-92929500D01*
X174615327Y-92924476D01*
X174602009Y-92920565D01*
X174543232Y-92882789D01*
X174514210Y-92819236D01*
X174514087Y-92818381D01*
X174512913Y-92810213D01*
X174515316Y-92762644D01*
X174523932Y-92727999D01*
X174523931Y-92727999D01*
X174523933Y-92727995D01*
X174523933Y-92727987D01*
X174526572Y-92717377D01*
X174526573Y-92717374D01*
X174526574Y-92717372D01*
X174529450Y-92705804D01*
X174527267Y-92700304D01*
X174526928Y-92688553D01*
X174526750Y-92688553D01*
X174526750Y-91653848D01*
X186144499Y-91653848D01*
X186175257Y-91808471D01*
X186175264Y-91808502D01*
X186235598Y-91954165D01*
X186235603Y-91954174D01*
X186235613Y-91954191D01*
X186323211Y-92085290D01*
X186323212Y-92085291D01*
X186323217Y-92085297D01*
X186434701Y-92196781D01*
X186434707Y-92196786D01*
X186434711Y-92196789D01*
X186565814Y-92284390D01*
X186565827Y-92284397D01*
X186711498Y-92344735D01*
X186711503Y-92344737D01*
X186866153Y-92375499D01*
X186866156Y-92375500D01*
X186866158Y-92375500D01*
X187023844Y-92375500D01*
X187023845Y-92375499D01*
X187178497Y-92344737D01*
X187322011Y-92285292D01*
X187324172Y-92284397D01*
X187324172Y-92284396D01*
X187324179Y-92284394D01*
X187455289Y-92196789D01*
X187566789Y-92085289D01*
X187654394Y-91954179D01*
X187714737Y-91808497D01*
X187745500Y-91653842D01*
X187745500Y-91496158D01*
X187745500Y-91496155D01*
X187745500Y-91495973D01*
X187745065Y-91493972D01*
X187715397Y-91344824D01*
X187714994Y-91342467D01*
X187714738Y-91341508D01*
X187714737Y-91341506D01*
X187714737Y-91341503D01*
X187714735Y-91341498D01*
X187654397Y-91195827D01*
X187654390Y-91195814D01*
X187566789Y-91064711D01*
X187566786Y-91064707D01*
X187566781Y-91064701D01*
X187455297Y-90953217D01*
X187455291Y-90953212D01*
X187455290Y-90953211D01*
X187324191Y-90865613D01*
X187324190Y-90865612D01*
X187324185Y-90865609D01*
X187324172Y-90865602D01*
X187324165Y-90865598D01*
X187178502Y-90805264D01*
X187178471Y-90805257D01*
X187023847Y-90774500D01*
X187023845Y-90774500D01*
X187023842Y-90774500D01*
X186866158Y-90774500D01*
X186866155Y-90774500D01*
X186866153Y-90774500D01*
X186711527Y-90805257D01*
X186711496Y-90805264D01*
X186565833Y-90865598D01*
X186565824Y-90865603D01*
X186565807Y-90865613D01*
X186434708Y-90953211D01*
X186434707Y-90953212D01*
X186434701Y-90953217D01*
X186323217Y-91064701D01*
X186323212Y-91064707D01*
X186323211Y-91064708D01*
X186235613Y-91195807D01*
X186235603Y-91195824D01*
X186235598Y-91195833D01*
X186175264Y-91341496D01*
X186175257Y-91341527D01*
X186144500Y-91496150D01*
X186144500Y-91496153D01*
X186144500Y-91653846D01*
X186144500Y-91653848D01*
X186144499Y-91653848D01*
X174526750Y-91653848D01*
X174526750Y-88236048D01*
X174525740Y-88221152D01*
X174523933Y-88194505D01*
X174519881Y-88178213D01*
X174510807Y-88141725D01*
X174507250Y-88106623D01*
X174507831Y-88092747D01*
X174513565Y-88075865D01*
X174513731Y-88071916D01*
X174516004Y-88068683D01*
X174530300Y-88026595D01*
X174584970Y-87983087D01*
X174584981Y-87983083D01*
X174593424Y-87979647D01*
X174640165Y-87970500D01*
X179233392Y-87970500D01*
X179268327Y-87975523D01*
X179296090Y-87983675D01*
X179339820Y-88006799D01*
X179561280Y-88188546D01*
X179639747Y-88252942D01*
X179694776Y-88289711D01*
X179982908Y-88482235D01*
X179983571Y-88482603D01*
X179984353Y-88483007D01*
X180341581Y-88673950D01*
X180341580Y-88673950D01*
X180345676Y-88676139D01*
X180346881Y-88676783D01*
X180346882Y-88676783D01*
X180346886Y-88676785D01*
X180346889Y-88676787D01*
X180346891Y-88676788D01*
X180350357Y-88678640D01*
X180355329Y-88680283D01*
X180728187Y-88834726D01*
X181123131Y-88954530D01*
X181123137Y-88954531D01*
X181123140Y-88954532D01*
X181123147Y-88954534D01*
X181123154Y-88954536D01*
X181123703Y-88954665D01*
X181124979Y-88954899D01*
X181520070Y-89033487D01*
X181520071Y-89033487D01*
X181521318Y-89033734D01*
X181527915Y-89035047D01*
X181938643Y-89075500D01*
X181938646Y-89075500D01*
X182351354Y-89075500D01*
X182351357Y-89075500D01*
X182762085Y-89035047D01*
X182891071Y-89009390D01*
X183166848Y-88954535D01*
X183166859Y-88954532D01*
X183166859Y-88954531D01*
X183167145Y-88954475D01*
X183168595Y-88954058D01*
X183197132Y-88946275D01*
X183198854Y-88945011D01*
X183205093Y-88942934D01*
X183416360Y-88878848D01*
X185494499Y-88878848D01*
X185525257Y-89033471D01*
X185525264Y-89033502D01*
X185585598Y-89179165D01*
X185585603Y-89179174D01*
X185585613Y-89179191D01*
X185673211Y-89310290D01*
X185673212Y-89310291D01*
X185673217Y-89310297D01*
X185784701Y-89421781D01*
X185784707Y-89421786D01*
X185784711Y-89421789D01*
X185915814Y-89509390D01*
X185915827Y-89509397D01*
X186061498Y-89569735D01*
X186061503Y-89569737D01*
X186216153Y-89600499D01*
X186216156Y-89600500D01*
X186216158Y-89600500D01*
X186373844Y-89600500D01*
X186373845Y-89600499D01*
X186528497Y-89569737D01*
X186674179Y-89509394D01*
X186805289Y-89421789D01*
X186916789Y-89310289D01*
X187004394Y-89179179D01*
X187064737Y-89033497D01*
X187064739Y-89033489D01*
X187064740Y-89033487D01*
X187095500Y-88878845D01*
X187095500Y-88720971D01*
X187095064Y-88718966D01*
X187086674Y-88676787D01*
X187064739Y-88566510D01*
X187064736Y-88566501D01*
X187051061Y-88533487D01*
X187038919Y-88504172D01*
X187004397Y-88420827D01*
X187004390Y-88420814D01*
X186916789Y-88289711D01*
X186916786Y-88289707D01*
X186916781Y-88289701D01*
X186805294Y-88178214D01*
X186805288Y-88178210D01*
X186674191Y-88090613D01*
X186674190Y-88090612D01*
X186674185Y-88090609D01*
X186674172Y-88090602D01*
X186674165Y-88090598D01*
X186528502Y-88030264D01*
X186528471Y-88030257D01*
X186373847Y-87999500D01*
X186373845Y-87999500D01*
X186373842Y-87999500D01*
X186216158Y-87999500D01*
X186216155Y-87999500D01*
X186216153Y-87999500D01*
X186061527Y-88030257D01*
X186061496Y-88030264D01*
X185915833Y-88090598D01*
X185915824Y-88090603D01*
X185915807Y-88090613D01*
X185784711Y-88178210D01*
X185784707Y-88178212D01*
X185784705Y-88178214D01*
X185673217Y-88289701D01*
X185673212Y-88289707D01*
X185673211Y-88289708D01*
X185585613Y-88420807D01*
X185585603Y-88420824D01*
X185585598Y-88420833D01*
X185525264Y-88566496D01*
X185525257Y-88566527D01*
X185494500Y-88721150D01*
X185494500Y-88878845D01*
X185494499Y-88878848D01*
X183416360Y-88878848D01*
X183561813Y-88834726D01*
X183943111Y-88676787D01*
X183988528Y-88652510D01*
X184076091Y-88605708D01*
X184211202Y-88533489D01*
X184307093Y-88482234D01*
X184650253Y-88252942D01*
X184969286Y-87991119D01*
X185261119Y-87699286D01*
X185522942Y-87380253D01*
X185752234Y-87037093D01*
X185946787Y-86673111D01*
X186104726Y-86291813D01*
X186224530Y-85896869D01*
X186224532Y-85896859D01*
X186224535Y-85896848D01*
X186305047Y-85492084D01*
X186345500Y-85081353D01*
X186345500Y-84668646D01*
X186305047Y-84257915D01*
X186224899Y-83854979D01*
X186224899Y-83854978D01*
X186224534Y-83853148D01*
X186224531Y-83853137D01*
X186224530Y-83853131D01*
X186104726Y-83458187D01*
X185946787Y-83076889D01*
X185752234Y-82712907D01*
X185522942Y-82369747D01*
X185261609Y-82051311D01*
X185261609Y-82051310D01*
X185261109Y-82050702D01*
X185223534Y-82013128D01*
X185212845Y-82000941D01*
X185203022Y-81988139D01*
X185194016Y-81974660D01*
X185180523Y-81951289D01*
X185180521Y-81951285D01*
X185180518Y-81951282D01*
X185180512Y-81951276D01*
X185068718Y-81839482D01*
X185068716Y-81839480D01*
X185041507Y-81823771D01*
X185037836Y-81821286D01*
X185037252Y-81820579D01*
X185031852Y-81816971D01*
X185019060Y-81807155D01*
X185006866Y-81796460D01*
X184969295Y-81758889D01*
X184969294Y-81758888D01*
X184969291Y-81758885D01*
X184651563Y-81498133D01*
X184650576Y-81497300D01*
X184650259Y-81497062D01*
X184650254Y-81497059D01*
X184650248Y-81497055D01*
X184484348Y-81386204D01*
X184307107Y-81267775D01*
X184307099Y-81267770D01*
X184307093Y-81267766D01*
X184307088Y-81267763D01*
X184307081Y-81267759D01*
X184307072Y-81267754D01*
X184307065Y-81267750D01*
X184096842Y-81155383D01*
X183943118Y-81073216D01*
X183943113Y-81073214D01*
X183943108Y-81073212D01*
X183943013Y-81073167D01*
X183942434Y-81072932D01*
X183561815Y-80915274D01*
X183166846Y-80795462D01*
X183166844Y-80795462D01*
X182762089Y-80714953D01*
X182762073Y-80714950D01*
X182446249Y-80683846D01*
X182445020Y-80683725D01*
X182351357Y-80674500D01*
X182351354Y-80674500D01*
X181938646Y-80674500D01*
X181938643Y-80674500D01*
X181918789Y-80676455D01*
X181844965Y-80683725D01*
X181844966Y-80683726D01*
X181527925Y-80714950D01*
X181527909Y-80714953D01*
X181123154Y-80795462D01*
X181123152Y-80795462D01*
X180728183Y-80915274D01*
X180347564Y-81072932D01*
X180346989Y-81073166D01*
X180346875Y-81073219D01*
X179982927Y-81267754D01*
X179982908Y-81267765D01*
X179982902Y-81267768D01*
X179639750Y-81497055D01*
X179639731Y-81497069D01*
X179639728Y-81497071D01*
X179416781Y-81680038D01*
X179416781Y-81680040D01*
X179386590Y-81698320D01*
X179359960Y-81709631D01*
X179311483Y-81719500D01*
X144070943Y-81719500D01*
X143918218Y-81760422D01*
X143918211Y-81760424D01*
X143918210Y-81760425D01*
X143918200Y-81760430D01*
X143781298Y-81839470D01*
X143781293Y-81839472D01*
X143781290Y-81839475D01*
X143781286Y-81839478D01*
X143781277Y-81839484D01*
X143669485Y-81951276D01*
X143669484Y-81951278D01*
X143669481Y-81951281D01*
X143669481Y-81951282D01*
X143669475Y-81951290D01*
X143669472Y-81951294D01*
X143669470Y-81951298D01*
X143590430Y-82088200D01*
X143590425Y-82088210D01*
X143590424Y-82088211D01*
X143590422Y-82088218D01*
X143549500Y-82240943D01*
X143549500Y-87449055D01*
X143590422Y-87601780D01*
X143590424Y-87601787D01*
X143590425Y-87601788D01*
X143590430Y-87601798D01*
X143646714Y-87699286D01*
X143669475Y-87738709D01*
X143669481Y-87738717D01*
X143669484Y-87738720D01*
X143669485Y-87738722D01*
X143676403Y-87745640D01*
X143676406Y-87745642D01*
X143697557Y-87773897D01*
X143705048Y-87787616D01*
X143719899Y-87855887D01*
X143719130Y-87866640D01*
X143706536Y-87912886D01*
X143679464Y-87967475D01*
X143679464Y-87967476D01*
X143679463Y-87967479D01*
X143678555Y-87971131D01*
X143634816Y-88146997D01*
X143632000Y-88188546D01*
X143632000Y-92611452D01*
X143634816Y-92653001D01*
X143673627Y-92809056D01*
X143676294Y-92819779D01*
X143679463Y-92832521D01*
X143727146Y-92928666D01*
X143728226Y-92930844D01*
X143729209Y-92933036D01*
X143729517Y-92935290D01*
X143738728Y-92963324D01*
X143741446Y-92978714D01*
X143733721Y-93048156D01*
X143733719Y-93048161D01*
X143729556Y-93058106D01*
X143702856Y-93097904D01*
X143639485Y-93161276D01*
X143639482Y-93161281D01*
X143639480Y-93161283D01*
X143639470Y-93161298D01*
X143560430Y-93298200D01*
X143560425Y-93298210D01*
X143560424Y-93298211D01*
X143560422Y-93298218D01*
X143519500Y-93450943D01*
X137854946Y-93450943D01*
X138011791Y-80658848D01*
X158294499Y-80658848D01*
X158325257Y-80813471D01*
X158325264Y-80813502D01*
X158385598Y-80959165D01*
X158385603Y-80959174D01*
X158385613Y-80959191D01*
X158473211Y-81090290D01*
X158473212Y-81090291D01*
X158473217Y-81090297D01*
X158584701Y-81201781D01*
X158584707Y-81201786D01*
X158584711Y-81201789D01*
X158715814Y-81289390D01*
X158715827Y-81289397D01*
X158861498Y-81349735D01*
X158861503Y-81349737D01*
X158987176Y-81374735D01*
X159008533Y-81378983D01*
X159011250Y-81379704D01*
X159016155Y-81380500D01*
X159173844Y-81380500D01*
X159177964Y-81380500D01*
X159185814Y-81378118D01*
X159328497Y-81349737D01*
X159474179Y-81289394D01*
X159605289Y-81201789D01*
X159716789Y-81090289D01*
X159804394Y-80959179D01*
X159864737Y-80813497D01*
X159895500Y-80658842D01*
X159895500Y-80526150D01*
X166544500Y-80526150D01*
X166544500Y-80683846D01*
X166575257Y-80838471D01*
X166575264Y-80838502D01*
X166635598Y-80984165D01*
X166635603Y-80984174D01*
X166635613Y-80984191D01*
X166723211Y-81115290D01*
X166723212Y-81115291D01*
X166723217Y-81115297D01*
X166834701Y-81226781D01*
X166834707Y-81226786D01*
X166834711Y-81226789D01*
X166965814Y-81314390D01*
X166965827Y-81314397D01*
X167111498Y-81374735D01*
X167111503Y-81374737D01*
X167266153Y-81405499D01*
X167266156Y-81405500D01*
X167266158Y-81405500D01*
X167423844Y-81405500D01*
X167423845Y-81405499D01*
X167578497Y-81374737D01*
X167724179Y-81314394D01*
X167855289Y-81226789D01*
X167966789Y-81115289D01*
X168054394Y-80984179D01*
X168114737Y-80838497D01*
X168145500Y-80683842D01*
X168145500Y-80526158D01*
X168145500Y-80526155D01*
X168145500Y-80525973D01*
X168145065Y-80523971D01*
X168140527Y-80501157D01*
X168114739Y-80371510D01*
X168114736Y-80371501D01*
X168104383Y-80346507D01*
X168087573Y-80305922D01*
X168054397Y-80225827D01*
X168054390Y-80225814D01*
X167966789Y-80094711D01*
X167966786Y-80094707D01*
X167966781Y-80094701D01*
X167855297Y-79983217D01*
X167855291Y-79983212D01*
X167855290Y-79983211D01*
X167724191Y-79895613D01*
X167724190Y-79895612D01*
X167724185Y-79895609D01*
X167724172Y-79895602D01*
X167724165Y-79895598D01*
X167578502Y-79835264D01*
X167578471Y-79835257D01*
X167423847Y-79804500D01*
X167423845Y-79804500D01*
X167423842Y-79804500D01*
X167266158Y-79804500D01*
X167266155Y-79804500D01*
X167266153Y-79804500D01*
X167111527Y-79835257D01*
X167111496Y-79835264D01*
X166965833Y-79895598D01*
X166965824Y-79895603D01*
X166965807Y-79895613D01*
X166834708Y-79983211D01*
X166834707Y-79983212D01*
X166834701Y-79983217D01*
X166723217Y-80094701D01*
X166723212Y-80094707D01*
X166723211Y-80094708D01*
X166635613Y-80225807D01*
X166635603Y-80225824D01*
X166635601Y-80225829D01*
X166575264Y-80371496D01*
X166575257Y-80371527D01*
X166544500Y-80526150D01*
X159895500Y-80526150D01*
X159895500Y-80501158D01*
X159895500Y-80501155D01*
X159895499Y-80501153D01*
X159865395Y-80349815D01*
X159864983Y-80347403D01*
X159864738Y-80346507D01*
X159864737Y-80346505D01*
X159864737Y-80346503D01*
X159814752Y-80225827D01*
X159804397Y-80200827D01*
X159804390Y-80200814D01*
X159716789Y-80069711D01*
X159716786Y-80069707D01*
X159716781Y-80069701D01*
X159605297Y-79958217D01*
X159605291Y-79958212D01*
X159605290Y-79958211D01*
X159474191Y-79870613D01*
X159474190Y-79870612D01*
X159474185Y-79870609D01*
X159474172Y-79870602D01*
X159474165Y-79870598D01*
X159328502Y-79810264D01*
X159328471Y-79810257D01*
X159173847Y-79779500D01*
X159173845Y-79779500D01*
X159173842Y-79779500D01*
X159016158Y-79779500D01*
X159016155Y-79779500D01*
X159016153Y-79779500D01*
X158861527Y-79810257D01*
X158861496Y-79810264D01*
X158715833Y-79870598D01*
X158715824Y-79870603D01*
X158715807Y-79870613D01*
X158584708Y-79958211D01*
X158584707Y-79958212D01*
X158584701Y-79958217D01*
X158473217Y-80069701D01*
X158473212Y-80069707D01*
X158473211Y-80069708D01*
X158385613Y-80200807D01*
X158385603Y-80200824D01*
X158385598Y-80200833D01*
X158325264Y-80346496D01*
X158325257Y-80346527D01*
X158294500Y-80501150D01*
X158294500Y-80501153D01*
X158294500Y-80658846D01*
X158294500Y-80658848D01*
X158294499Y-80658848D01*
X138011791Y-80658848D01*
X138019501Y-80030017D01*
X138020759Y-80013860D01*
X138023301Y-79996235D01*
X138025878Y-79975259D01*
X138026927Y-79964943D01*
X138028626Y-79943859D01*
X138016653Y-79800478D01*
X138001561Y-79734873D01*
X138001106Y-79732686D01*
X137986310Y-79694417D01*
X137949106Y-79598184D01*
X137861515Y-79484037D01*
X137811525Y-79435224D01*
X137787717Y-79417840D01*
X137745184Y-79362410D01*
X137739369Y-79292783D01*
X137751928Y-79259717D01*
X137751547Y-79259530D01*
X137753330Y-79255911D01*
X137753344Y-79255888D01*
X137841158Y-79043887D01*
X137900548Y-78822238D01*
X137930500Y-78594734D01*
X137930500Y-78365266D01*
X137900548Y-78137762D01*
X137841158Y-77916113D01*
X137753344Y-77704112D01*
X137753342Y-77704108D01*
X137638611Y-77505387D01*
X137628811Y-77492616D01*
X137628810Y-77492615D01*
X137608766Y-77466493D01*
X137591484Y-77435720D01*
X137580660Y-77407722D01*
X137572318Y-77362756D01*
X137572900Y-77079570D01*
X137577993Y-77044655D01*
X137582430Y-77029659D01*
X137592096Y-77014684D01*
X137597151Y-76997595D01*
X137620313Y-76970970D01*
X137621742Y-76969736D01*
X137676530Y-76942417D01*
X137683979Y-76940804D01*
X137710203Y-76938000D01*
X187888357Y-76938000D01*
X187892782Y-76938079D01*
G37*
%TD.AperFunction*%
%TD*%
M02*
