%TF.GenerationSoftware,KiCad,Pcbnew,10.0.1*%
%TF.CreationDate,2026-05-12T11:50:07+05:30*%
%TF.ProjectId,am32_100a_esc,616d3332-5f31-4303-9061-5f6573632e6b,rev?*%
%TF.SameCoordinates,Original*%
%TF.FileFunction,Paste,Top*%
%TF.FilePolarity,Positive*%
%FSLAX46Y46*%
G04 Gerber Fmt 4.6, Leading zero omitted, Abs format (unit mm)*
G04 Created by KiCad (PCBNEW 10.0.1) date 2026-05-12 11:50:07*
%MOMM*%
%LPD*%
G01*
G04 APERTURE LIST*
G04 Aperture macros list*
%AMRoundRect*
0 Rectangle with rounded corners*
0 $1 Rounding radius*
0 $2 $3 $4 $5 $6 $7 $8 $9 X,Y pos of 4 corners*
0 Add a 4 corners polygon primitive as box body*
4,1,4,$2,$3,$4,$5,$6,$7,$8,$9,$2,$3,0*
0 Add four circle primitives for the rounded corners*
1,1,$1+$1,$2,$3*
1,1,$1+$1,$4,$5*
1,1,$1+$1,$6,$7*
1,1,$1+$1,$8,$9*
0 Add four rect primitives between the rounded corners*
20,1,$1+$1,$2,$3,$4,$5,0*
20,1,$1+$1,$4,$5,$6,$7,0*
20,1,$1+$1,$6,$7,$8,$9,0*
20,1,$1+$1,$8,$9,$2,$3,0*%
G04 Aperture macros list end*
%ADD10RoundRect,0.135000X0.185000X-0.135000X0.185000X0.135000X-0.185000X0.135000X-0.185000X-0.135000X0*%
%ADD11R,0.950000X0.850000*%
%ADD12RoundRect,0.135000X-0.185000X0.135000X-0.185000X-0.135000X0.185000X-0.135000X0.185000X0.135000X0*%
%ADD13RoundRect,0.150000X-0.512500X-0.150000X0.512500X-0.150000X0.512500X0.150000X-0.512500X0.150000X0*%
%ADD14RoundRect,0.225000X0.225000X0.250000X-0.225000X0.250000X-0.225000X-0.250000X0.225000X-0.250000X0*%
%ADD15RoundRect,0.140000X0.170000X-0.140000X0.170000X0.140000X-0.170000X0.140000X-0.170000X-0.140000X0*%
%ADD16RoundRect,0.250000X-0.325000X-0.650000X0.325000X-0.650000X0.325000X0.650000X-0.325000X0.650000X0*%
%ADD17R,0.850000X1.450000*%
%ADD18R,0.850000X1.050000*%
%ADD19R,4.700000X3.750000*%
%ADD20RoundRect,0.250000X2.025000X2.375000X-2.025000X2.375000X-2.025000X-2.375000X2.025000X-2.375000X0*%
%ADD21RoundRect,0.250000X2.050000X0.300000X-2.050000X0.300000X-2.050000X-0.300000X2.050000X-0.300000X0*%
%ADD22RoundRect,0.250000X0.650000X-1.000000X0.650000X1.000000X-0.650000X1.000000X-0.650000X-1.000000X0*%
%ADD23RoundRect,0.135000X0.135000X0.185000X-0.135000X0.185000X-0.135000X-0.185000X0.135000X-0.185000X0*%
%ADD24RoundRect,0.225000X-0.225000X-0.250000X0.225000X-0.250000X0.225000X0.250000X-0.225000X0.250000X0*%
%ADD25RoundRect,0.135000X-0.135000X-0.185000X0.135000X-0.185000X0.135000X0.185000X-0.135000X0.185000X0*%
%ADD26R,1.475000X0.450000*%
%ADD27RoundRect,0.250000X-0.475000X0.250000X-0.475000X-0.250000X0.475000X-0.250000X0.475000X0.250000X0*%
%ADD28RoundRect,0.250000X-0.650000X0.325000X-0.650000X-0.325000X0.650000X-0.325000X0.650000X0.325000X0*%
%ADD29R,1.525000X0.650000*%
%ADD30R,0.580000X1.730000*%
%ADD31R,0.760000X1.500000*%
%ADD32R,1.933000X3.030000*%
%ADD33RoundRect,0.200000X-0.275000X0.200000X-0.275000X-0.200000X0.275000X-0.200000X0.275000X0.200000X0*%
G04 APERTURE END LIST*
D10*
%TO.C,R35*%
X159120000Y-92895000D03*
X159120000Y-91875000D03*
%TD*%
D11*
%TO.C,LED1*%
X164050000Y-113925000D03*
X164050000Y-112325000D03*
%TD*%
D12*
%TO.C,R40*%
X167345000Y-80605000D03*
X167345000Y-81625000D03*
%TD*%
D13*
%TO.C,U4*%
X134220000Y-102175000D03*
X134220000Y-103125000D03*
X134220000Y-104075000D03*
X136495000Y-104075000D03*
X136495000Y-102175000D03*
%TD*%
D14*
%TO.C,C43*%
X113345000Y-83950000D03*
X111795000Y-83950000D03*
%TD*%
D10*
%TO.C,R50*%
X175850000Y-100295000D03*
X175850000Y-99275000D03*
%TD*%
D15*
%TO.C,C40*%
X172200000Y-112960000D03*
X172200000Y-112000000D03*
%TD*%
D16*
%TO.C,C36*%
X122245000Y-92150000D03*
X125195000Y-92150000D03*
%TD*%
D10*
%TO.C,R33*%
X150755000Y-111445000D03*
X150755000Y-110425000D03*
%TD*%
D12*
%TO.C,R34*%
X150775000Y-88300000D03*
X150775000Y-89320000D03*
%TD*%
D17*
%TO.C,Q17*%
X165125000Y-92225000D03*
X163855000Y-92225000D03*
X162585000Y-92225000D03*
X161315000Y-92225000D03*
D18*
X161315000Y-97925000D03*
X162585000Y-97925000D03*
X163855000Y-97925000D03*
X165125000Y-97925000D03*
D19*
X163220000Y-95525000D03*
%TD*%
D10*
%TO.C,R51*%
X176745000Y-112500000D03*
X176745000Y-111480000D03*
%TD*%
D17*
%TO.C,Q13*%
X153000000Y-88675000D03*
X154270000Y-88675000D03*
X155540000Y-88675000D03*
X156810000Y-88675000D03*
D18*
X156810000Y-82975000D03*
X155540000Y-82975000D03*
X154270000Y-82975000D03*
X153000000Y-82975000D03*
D19*
X154905000Y-85375000D03*
%TD*%
D20*
%TO.C,IC7*%
X118820000Y-112190000D03*
X118820000Y-106640000D03*
X113970000Y-112190000D03*
X113970000Y-106640000D03*
D21*
X125545000Y-111955000D03*
X125545000Y-106875000D03*
%TD*%
D17*
%TO.C,Q16*%
X144750000Y-88675000D03*
X146020000Y-88675000D03*
X147290000Y-88675000D03*
X148560000Y-88675000D03*
D18*
X148560000Y-82975000D03*
X147290000Y-82975000D03*
X146020000Y-82975000D03*
X144750000Y-82975000D03*
D19*
X146655000Y-85375000D03*
%TD*%
D14*
%TO.C,C60*%
X119945000Y-88700000D03*
X118395000Y-88700000D03*
%TD*%
D12*
%TO.C,R42*%
X167355000Y-102755000D03*
X167355000Y-103775000D03*
%TD*%
D17*
%TO.C,Q22*%
X173360000Y-81025000D03*
X172090000Y-81025000D03*
X170820000Y-81025000D03*
X169550000Y-81025000D03*
D18*
X169550000Y-86725000D03*
X170820000Y-86725000D03*
X172090000Y-86725000D03*
X173360000Y-86725000D03*
D19*
X171455000Y-84325000D03*
%TD*%
D14*
%TO.C,C57*%
X119945000Y-91745000D03*
X118395000Y-91745000D03*
%TD*%
%TO.C,C44*%
X118145000Y-86275000D03*
X116595000Y-86275000D03*
%TD*%
D17*
%TO.C,Q20*%
X144765000Y-99875000D03*
X146035000Y-99875000D03*
X147305000Y-99875000D03*
X148575000Y-99875000D03*
D18*
X148575000Y-94175000D03*
X147305000Y-94175000D03*
X146035000Y-94175000D03*
X144765000Y-94175000D03*
D19*
X146670000Y-96575000D03*
%TD*%
D22*
%TO.C,D2*%
X117295000Y-83750000D03*
X117295000Y-79750000D03*
%TD*%
D10*
%TO.C,R47*%
X175980000Y-89070000D03*
X175980000Y-88050000D03*
%TD*%
D12*
%TO.C,R36*%
X159045000Y-110575000D03*
X159045000Y-111595000D03*
%TD*%
D10*
%TO.C,R39*%
X159155000Y-103850000D03*
X159155000Y-102830000D03*
%TD*%
D23*
%TO.C,R45*%
X176930000Y-90150000D03*
X175910000Y-90150000D03*
%TD*%
D24*
%TO.C,C35*%
X107505000Y-96537500D03*
X109055000Y-96537500D03*
%TD*%
D14*
%TO.C,C1*%
X121870000Y-85950000D03*
X120320000Y-85950000D03*
%TD*%
D25*
%TO.C,R49*%
X175875000Y-101275000D03*
X176895000Y-101275000D03*
%TD*%
D12*
%TO.C,R32*%
X167420000Y-91775000D03*
X167420000Y-92795000D03*
%TD*%
D26*
%TO.C,IC5*%
X113669000Y-95699998D03*
X113669000Y-96349998D03*
X113669000Y-96999998D03*
X113669000Y-97649998D03*
X113669000Y-98299998D03*
X113669000Y-98949998D03*
X113669000Y-99599998D03*
X113669000Y-100249998D03*
X113669000Y-100899998D03*
X113669000Y-101549998D03*
X119545000Y-101549998D03*
X119545000Y-100899998D03*
X119545000Y-100249998D03*
X119545000Y-99599998D03*
X119545000Y-98949998D03*
X119545000Y-98299998D03*
X119545000Y-97649998D03*
X119545000Y-96999998D03*
X119545000Y-96349998D03*
X119545000Y-95699998D03*
%TD*%
D17*
%TO.C,Q15*%
X144770000Y-111075000D03*
X146040000Y-111075000D03*
X147310000Y-111075000D03*
X148580000Y-111075000D03*
D18*
X148580000Y-105375000D03*
X147310000Y-105375000D03*
X146040000Y-105375000D03*
X144770000Y-105375000D03*
D19*
X146675000Y-107775000D03*
%TD*%
D17*
%TO.C,Q24*%
X173400000Y-103425000D03*
X172130000Y-103425000D03*
X170860000Y-103425000D03*
X169590000Y-103425000D03*
D18*
X169590000Y-109125000D03*
X170860000Y-109125000D03*
X172130000Y-109125000D03*
X173400000Y-109125000D03*
D19*
X171495000Y-106725000D03*
%TD*%
D12*
%TO.C,R31*%
X159020000Y-88125000D03*
X159020000Y-89145000D03*
%TD*%
D27*
%TO.C,C39*%
X160925000Y-111950000D03*
X160925000Y-113850000D03*
%TD*%
D23*
%TO.C,R56*%
X164420000Y-115425000D03*
X163400000Y-115425000D03*
%TD*%
D28*
%TO.C,C38*%
X127070000Y-99350000D03*
X127070000Y-102300000D03*
%TD*%
D29*
%TO.C,IC8*%
X120546000Y-78675000D03*
X120546000Y-79945000D03*
X120546000Y-81215000D03*
X120546000Y-82485000D03*
X125970000Y-82485000D03*
X125970000Y-81215000D03*
X125970000Y-79945000D03*
X125970000Y-78675000D03*
%TD*%
D23*
%TO.C,R48*%
X176780000Y-103400000D03*
X175760000Y-103400000D03*
%TD*%
D30*
%TO.C,IC6*%
X169870000Y-112650000D03*
D31*
X168370000Y-112535000D03*
D30*
X166870000Y-112650000D03*
D32*
X168370000Y-114800000D03*
%TD*%
D12*
%TO.C,R52*%
X174520000Y-111480000D03*
X174520000Y-112500000D03*
%TD*%
D10*
%TO.C,R41*%
X159070000Y-100295000D03*
X159070000Y-99275000D03*
%TD*%
%TO.C,R60*%
X109350000Y-105925000D03*
X109350000Y-104905000D03*
%TD*%
D12*
%TO.C,R37*%
X159095000Y-80580000D03*
X159095000Y-81600000D03*
%TD*%
D17*
%TO.C,Q19*%
X165110000Y-81025000D03*
X163840000Y-81025000D03*
X162570000Y-81025000D03*
X161300000Y-81025000D03*
D18*
X161300000Y-86725000D03*
X162570000Y-86725000D03*
X163840000Y-86725000D03*
X165110000Y-86725000D03*
D19*
X163205000Y-84325000D03*
%TD*%
D17*
%TO.C,Q14*%
X173385000Y-92225000D03*
X172115000Y-92225000D03*
X170845000Y-92225000D03*
X169575000Y-92225000D03*
D18*
X169575000Y-97925000D03*
X170845000Y-97925000D03*
X172115000Y-97925000D03*
X173385000Y-97925000D03*
D19*
X171480000Y-95525000D03*
%TD*%
D17*
%TO.C,Q21*%
X165150000Y-103425000D03*
X163880000Y-103425000D03*
X162610000Y-103425000D03*
X161340000Y-103425000D03*
D18*
X161340000Y-109125000D03*
X162610000Y-109125000D03*
X163880000Y-109125000D03*
X165150000Y-109125000D03*
D19*
X163245000Y-106725000D03*
%TD*%
D17*
%TO.C,Q18*%
X153030000Y-111075000D03*
X154300000Y-111075000D03*
X155570000Y-111075000D03*
X156840000Y-111075000D03*
D18*
X156840000Y-105375000D03*
X155570000Y-105375000D03*
X154300000Y-105375000D03*
X153030000Y-105375000D03*
D19*
X154935000Y-107775000D03*
%TD*%
D10*
%TO.C,R53*%
X175620000Y-111445000D03*
X175620000Y-110425000D03*
%TD*%
D24*
%TO.C,C34*%
X107495000Y-95022500D03*
X109045000Y-95022500D03*
%TD*%
D10*
%TO.C,R38*%
X150775000Y-100375000D03*
X150775000Y-99355000D03*
%TD*%
D28*
%TO.C,C37*%
X127270000Y-93625000D03*
X127270000Y-96575000D03*
%TD*%
D25*
%TO.C,R46*%
X175910000Y-91925000D03*
X176930000Y-91925000D03*
%TD*%
D17*
%TO.C,Q23*%
X153015000Y-99875000D03*
X154285000Y-99875000D03*
X155555000Y-99875000D03*
X156825000Y-99875000D03*
D18*
X156825000Y-94175000D03*
X155555000Y-94175000D03*
X154285000Y-94175000D03*
X153015000Y-94175000D03*
D19*
X154920000Y-96575000D03*
%TD*%
D14*
%TO.C,C58*%
X119945000Y-90225000D03*
X118395000Y-90225000D03*
%TD*%
D33*
%TO.C,R54*%
X136895000Y-93575000D03*
X136895000Y-95225000D03*
%TD*%
M02*
