%TF.GenerationSoftware,KiCad,Pcbnew,10.0.1*%
%TF.CreationDate,2026-05-12T11:50:07+05:30*%
%TF.ProjectId,am32_100a_esc,616d3332-5f31-4303-9061-5f6573632e6b,rev?*%
%TF.SameCoordinates,Original*%
%TF.FileFunction,Copper,L3,Inr*%
%TF.FilePolarity,Positive*%
%FSLAX46Y46*%
G04 Gerber Fmt 4.6, Leading zero omitted, Abs format (unit mm)*
G04 Created by KiCad (PCBNEW 10.0.1) date 2026-05-12 11:50:07*
%MOMM*%
%LPD*%
G01*
G04 APERTURE LIST*
%TA.AperFunction,Conductor*%
%ADD10C,0.200000*%
%TD*%
%TA.AperFunction,Conductor*%
%ADD11C,0.167065*%
%TD*%
%TA.AperFunction,ComponentPad*%
%ADD12C,2.500000*%
%TD*%
%TA.AperFunction,ComponentPad*%
%ADD13R,1.700000X1.700000*%
%TD*%
%TA.AperFunction,ComponentPad*%
%ADD14C,1.700000*%
%TD*%
%TA.AperFunction,ComponentPad*%
%ADD15C,0.900000*%
%TD*%
%TA.AperFunction,ComponentPad*%
%ADD16C,8.600000*%
%TD*%
%TA.AperFunction,ComponentPad*%
%ADD17C,0.800000*%
%TD*%
%TA.AperFunction,ComponentPad*%
%ADD18C,7.400000*%
%TD*%
%TA.AperFunction,ViaPad*%
%ADD19C,0.600000*%
%TD*%
%TA.AperFunction,Conductor*%
%ADD20C,2.000000*%
%TD*%
%TA.AperFunction,Conductor*%
%ADD21C,0.400000*%
%TD*%
%TA.AperFunction,Conductor*%
%ADD22C,1.500000*%
%TD*%
%TA.AperFunction,Conductor*%
%ADD23C,0.300000*%
%TD*%
%TA.AperFunction,Conductor*%
%ADD24C,0.500000*%
%TD*%
%TA.AperFunction,Conductor*%
%ADD25C,0.800000*%
%TD*%
G04 APERTURE END LIST*
%TO.N,MOTORB*%
D10*
X144120000Y-93525000D02*
X184670000Y-93525000D01*
X184670000Y-98125000D01*
X144120000Y-98125000D01*
X144120000Y-93525000D01*
%TA.AperFunction,Conductor*%
G36*
X144120000Y-93525000D02*
G01*
X184670000Y-93525000D01*
X184670000Y-98125000D01*
X144120000Y-98125000D01*
X144120000Y-93525000D01*
G37*
%TD.AperFunction*%
%TO.N,MOTORC*%
X144120000Y-105050000D02*
X184670000Y-105050000D01*
X184670000Y-109700000D01*
X144120000Y-109700000D01*
X144120000Y-105050000D01*
%TA.AperFunction,Conductor*%
G36*
X144120000Y-105050000D02*
G01*
X184670000Y-105050000D01*
X184670000Y-109700000D01*
X144120000Y-109700000D01*
X144120000Y-105050000D01*
G37*
%TD.AperFunction*%
%TO.N,MOTORA*%
X144150000Y-82675000D02*
X184700000Y-82675000D01*
X184700000Y-87375000D01*
X144150000Y-87375000D01*
X144150000Y-82675000D01*
%TA.AperFunction,Conductor*%
G36*
X144150000Y-82675000D02*
G01*
X184700000Y-82675000D01*
X184700000Y-87375000D01*
X144150000Y-87375000D01*
X144150000Y-82675000D01*
G37*
%TD.AperFunction*%
%TO.N,BATT+*%
X144182500Y-88250000D02*
X144182500Y-88250000D01*
G75*
G02*
X144432500Y-88000000I250000J0D01*
G01*
X147545000Y-88000000D01*
G75*
G02*
X147795000Y-88250000I0J-250000D01*
G01*
X147795000Y-92525000D01*
G75*
G02*
X147545000Y-92775000I-250000J0D01*
G01*
X144432500Y-92775000D01*
G75*
G02*
X144182500Y-92525000I0J250000D01*
G01*
X144182500Y-88250000D01*
%TA.AperFunction,Conductor*%
G36*
X144182500Y-88250000D02*
G01*
X144182500Y-88250000D01*
G75*
G02*
X144432500Y-88000000I250000J0D01*
G01*
X147545000Y-88000000D01*
G75*
G02*
X147795000Y-88250000I0J-250000D01*
G01*
X147795000Y-92525000D01*
G75*
G02*
X147545000Y-92775000I-250000J0D01*
G01*
X144432500Y-92775000D01*
G75*
G02*
X144182500Y-92525000I0J250000D01*
G01*
X144182500Y-88250000D01*
G37*
%TD.AperFunction*%
%TO.N,LOW_SIDE_SOURCE*%
X144232500Y-99500000D02*
X144232500Y-99500000D01*
G75*
G02*
X144482500Y-99250000I250000J0D01*
G01*
X147595000Y-99250000D01*
G75*
G02*
X147845000Y-99500000I0J-250000D01*
G01*
X147845000Y-103675000D01*
G75*
G02*
X147595000Y-103925000I-250000J0D01*
G01*
X144482500Y-103925000D01*
G75*
G02*
X144232500Y-103675000I0J250000D01*
G01*
X144232500Y-99500000D01*
%TA.AperFunction,Conductor*%
G36*
X144232500Y-99500000D02*
G01*
X144232500Y-99500000D01*
G75*
G02*
X144482500Y-99250000I250000J0D01*
G01*
X147595000Y-99250000D01*
G75*
G02*
X147845000Y-99500000I0J-250000D01*
G01*
X147845000Y-103675000D01*
G75*
G02*
X147595000Y-103925000I-250000J0D01*
G01*
X144482500Y-103925000D01*
G75*
G02*
X144232500Y-103675000I0J250000D01*
G01*
X144232500Y-99500000D01*
G37*
%TD.AperFunction*%
%TO.N,BATT+*%
X144382500Y-110712500D02*
X144382500Y-110712500D01*
G75*
G02*
X144632500Y-110462500I250000J0D01*
G01*
X147545000Y-110462500D01*
G75*
G02*
X147795000Y-110712500I0J-250000D01*
G01*
X147795000Y-114837500D01*
G75*
G02*
X147545000Y-115087500I-250000J0D01*
G01*
X144632500Y-115087500D01*
G75*
G02*
X144382500Y-114837500I0J250000D01*
G01*
X144382500Y-110712500D01*
%TA.AperFunction,Conductor*%
G36*
X144382500Y-110712500D02*
G01*
X144382500Y-110712500D01*
G75*
G02*
X144632500Y-110462500I250000J0D01*
G01*
X147545000Y-110462500D01*
G75*
G02*
X147795000Y-110712500I0J-250000D01*
G01*
X147795000Y-114837500D01*
G75*
G02*
X147545000Y-115087500I-250000J0D01*
G01*
X144632500Y-115087500D01*
G75*
G02*
X144382500Y-114837500I0J250000D01*
G01*
X144382500Y-110712500D01*
G37*
%TD.AperFunction*%
X144389999Y-113040000D02*
X156050000Y-113040000D01*
X156050000Y-115096250D01*
X144389999Y-115096250D01*
X144389999Y-113040000D01*
%TA.AperFunction,Conductor*%
G36*
X144389999Y-113040000D02*
G01*
X156050000Y-113040000D01*
X156050000Y-115096250D01*
X144389999Y-115096250D01*
X144389999Y-113040000D01*
G37*
%TD.AperFunction*%
X146990001Y-89893437D02*
X154010000Y-89893437D01*
X154010000Y-92766563D01*
X146990001Y-92766563D01*
X146990001Y-89893437D01*
%TA.AperFunction,Conductor*%
G36*
X146990001Y-89893437D02*
G01*
X154010000Y-89893437D01*
X154010000Y-92766563D01*
X146990001Y-92766563D01*
X146990001Y-89893437D01*
G37*
%TD.AperFunction*%
%TO.N,LOW_SIDE_SOURCE*%
X147570000Y-102700000D02*
X152570000Y-102700000D01*
X152570000Y-103925000D01*
X147570000Y-103925000D01*
X147570000Y-102700000D01*
%TO.N,BATT+*%
X152120000Y-110712500D02*
X152120000Y-110712500D01*
G75*
G02*
X152370000Y-110462500I250000J0D01*
G01*
X155807500Y-110462500D01*
G75*
G02*
X156057500Y-110712500I0J-250000D01*
G01*
X156057500Y-114837500D01*
G75*
G02*
X155807500Y-115087500I-250000J0D01*
G01*
X152370000Y-115087500D01*
G75*
G02*
X152120000Y-114837500I0J250000D01*
G01*
X152120000Y-110712500D01*
%TA.AperFunction,Conductor*%
G36*
X152120000Y-110712500D02*
G01*
X152120000Y-110712500D01*
G75*
G02*
X152370000Y-110462500I250000J0D01*
G01*
X155807500Y-110462500D01*
G75*
G02*
X156057500Y-110712500I0J-250000D01*
G01*
X156057500Y-114837500D01*
G75*
G02*
X155807500Y-115087500I-250000J0D01*
G01*
X152370000Y-115087500D01*
G75*
G02*
X152120000Y-114837500I0J250000D01*
G01*
X152120000Y-110712500D01*
G37*
%TD.AperFunction*%
%TO.N,LOW_SIDE_SOURCE*%
X152420000Y-99475000D02*
X152420000Y-99475000D01*
G75*
G02*
X152670000Y-99225000I250000J0D01*
G01*
X155795000Y-99225000D01*
G75*
G02*
X156045000Y-99475000I0J-250000D01*
G01*
X156045000Y-103675000D01*
G75*
G02*
X155795000Y-103925000I-250000J0D01*
G01*
X152670000Y-103925000D01*
G75*
G02*
X152420000Y-103675000I0J250000D01*
G01*
X152420000Y-99475000D01*
%TA.AperFunction,Conductor*%
G36*
X152420000Y-99475000D02*
G01*
X152420000Y-99475000D01*
G75*
G02*
X152670000Y-99225000I250000J0D01*
G01*
X155795000Y-99225000D01*
G75*
G02*
X156045000Y-99475000I0J-250000D01*
G01*
X156045000Y-103675000D01*
G75*
G02*
X155795000Y-103925000I-250000J0D01*
G01*
X152670000Y-103925000D01*
G75*
G02*
X152420000Y-103675000I0J250000D01*
G01*
X152420000Y-99475000D01*
G37*
%TD.AperFunction*%
%TO.N,BATT+*%
X152457500Y-88262500D02*
X152457500Y-88262500D01*
G75*
G02*
X152707500Y-88012500I250000J0D01*
G01*
X155820000Y-88012500D01*
G75*
G02*
X156070000Y-88262500I0J-250000D01*
G01*
X156070000Y-92537500D01*
G75*
G02*
X155820000Y-92787500I-250000J0D01*
G01*
X152707500Y-92787500D01*
G75*
G02*
X152457500Y-92537500I0J250000D01*
G01*
X152457500Y-88262500D01*
%TA.AperFunction,Conductor*%
G36*
X152457500Y-88262500D02*
G01*
X152457500Y-88262500D01*
G75*
G02*
X152707500Y-88012500I250000J0D01*
G01*
X155820000Y-88012500D01*
G75*
G02*
X156070000Y-88262500I0J-250000D01*
G01*
X156070000Y-92537500D01*
G75*
G02*
X155820000Y-92787500I-250000J0D01*
G01*
X152707500Y-92787500D01*
G75*
G02*
X152457500Y-92537500I0J250000D01*
G01*
X152457500Y-88262500D01*
G37*
%TD.AperFunction*%
D11*
X156033658Y-89770412D02*
X162269999Y-89770412D01*
X162269999Y-91169588D01*
X156033658Y-91169588D01*
X156033658Y-89770412D01*
%TA.AperFunction,Conductor*%
G36*
X156033658Y-89770412D02*
G01*
X162269999Y-89770412D01*
X162269999Y-91169588D01*
X156033658Y-91169588D01*
X156033658Y-89770412D01*
G37*
%TD.AperFunction*%
%TO.N,LOW_SIDE_SOURCE*%
D10*
X158071005Y-78180000D02*
X170554508Y-78180000D01*
X170554508Y-79912500D01*
X158071005Y-79912500D01*
X158071005Y-78180000D01*
%TA.AperFunction,Conductor*%
G36*
X158071005Y-78180000D02*
G01*
X170554508Y-78180000D01*
X170554508Y-79912500D01*
X158071005Y-79912500D01*
X158071005Y-78180000D01*
G37*
%TD.AperFunction*%
%TO.N,BATT+*%
X162063750Y-88312500D02*
X162063750Y-88312500D01*
G75*
G02*
X162313750Y-88062500I249950J0D01*
G01*
X165426250Y-88062500D01*
G75*
G02*
X165676250Y-88312500I50J-250000D01*
G01*
X165676250Y-92587500D01*
G75*
G02*
X165426250Y-92837500I-249950J0D01*
G01*
X162313750Y-92837500D01*
G75*
G02*
X162063750Y-92587500I-50J250000D01*
G01*
X162063750Y-88312500D01*
%TA.AperFunction,Conductor*%
G36*
X162063750Y-88312500D02*
G01*
X162063750Y-88312500D01*
G75*
G02*
X162313750Y-88062500I249950J0D01*
G01*
X165426250Y-88062500D01*
G75*
G02*
X165676250Y-88312500I50J-250000D01*
G01*
X165676250Y-92587500D01*
G75*
G02*
X165426250Y-92837500I-249950J0D01*
G01*
X162313750Y-92837500D01*
G75*
G02*
X162063750Y-92587500I-50J250000D01*
G01*
X162063750Y-88312500D01*
G37*
%TD.AperFunction*%
%TO.N,LOW_SIDE_SOURCE*%
X162070000Y-78450000D02*
X162070000Y-78450000D01*
G75*
G02*
X162320000Y-78200000I250000J0D01*
G01*
X165495000Y-78200000D01*
G75*
G02*
X165745000Y-78450000I0J-250000D01*
G01*
X165745000Y-81400000D01*
G75*
G02*
X165495000Y-81650000I-250000J0D01*
G01*
X162320000Y-81650000D01*
G75*
G02*
X162070000Y-81400000I0J250000D01*
G01*
X162070000Y-78450000D01*
%TA.AperFunction,Conductor*%
G36*
X162070000Y-78450000D02*
G01*
X162070000Y-78450000D01*
G75*
G02*
X162320000Y-78200000I250000J0D01*
G01*
X165495000Y-78200000D01*
G75*
G02*
X165745000Y-78450000I0J-250000D01*
G01*
X165745000Y-81400000D01*
G75*
G02*
X165495000Y-81650000I-250000J0D01*
G01*
X162320000Y-81650000D01*
G75*
G02*
X162070000Y-81400000I0J250000D01*
G01*
X162070000Y-78450000D01*
G37*
%TD.AperFunction*%
X162095000Y-99600000D02*
X162095000Y-99600000D01*
G75*
G02*
X162345000Y-99350000I250000J0D01*
G01*
X165520000Y-99350000D01*
G75*
G02*
X165770000Y-99600000I0J-250000D01*
G01*
X165770000Y-103800000D01*
G75*
G02*
X165520000Y-104050000I-250000J0D01*
G01*
X162345000Y-104050000D01*
G75*
G02*
X162095000Y-103800000I0J250000D01*
G01*
X162095000Y-99600000D01*
%TA.AperFunction,Conductor*%
G36*
X162095000Y-99600000D02*
G01*
X162095000Y-99600000D01*
G75*
G02*
X162345000Y-99350000I250000J0D01*
G01*
X165520000Y-99350000D01*
G75*
G02*
X165770000Y-99600000I0J-250000D01*
G01*
X165770000Y-103800000D01*
G75*
G02*
X165520000Y-104050000I-250000J0D01*
G01*
X162345000Y-104050000D01*
G75*
G02*
X162095000Y-103800000I0J250000D01*
G01*
X162095000Y-99600000D01*
G37*
%TD.AperFunction*%
%TO.N,BATT+*%
X164860001Y-88063437D02*
X171880000Y-88063437D01*
X171880000Y-90936563D01*
X164860001Y-90936563D01*
X164860001Y-88063437D01*
%TA.AperFunction,Conductor*%
G36*
X164860001Y-88063437D02*
G01*
X171880000Y-88063437D01*
X171880000Y-90936563D01*
X164860001Y-90936563D01*
X164860001Y-88063437D01*
G37*
%TD.AperFunction*%
%TO.N,LOW_SIDE_SOURCE*%
X165370000Y-99350000D02*
X170370000Y-99350000D01*
X170370000Y-100575000D01*
X165370000Y-100575000D01*
X165370000Y-99350000D01*
X170282500Y-78425000D02*
X170282500Y-78425000D01*
G75*
G02*
X170532500Y-78175000I250000J0D01*
G01*
X173495000Y-78175000D01*
G75*
G02*
X173745000Y-78425000I0J-250000D01*
G01*
X173745000Y-81400000D01*
G75*
G02*
X173495000Y-81650000I-250000J0D01*
G01*
X170532500Y-81650000D01*
G75*
G02*
X170282500Y-81400000I0J250000D01*
G01*
X170282500Y-78425000D01*
%TA.AperFunction,Conductor*%
G36*
X170282500Y-78425000D02*
G01*
X170282500Y-78425000D01*
G75*
G02*
X170532500Y-78175000I250000J0D01*
G01*
X173495000Y-78175000D01*
G75*
G02*
X173745000Y-78425000I0J-250000D01*
G01*
X173745000Y-81400000D01*
G75*
G02*
X173495000Y-81650000I-250000J0D01*
G01*
X170532500Y-81650000D01*
G75*
G02*
X170282500Y-81400000I0J250000D01*
G01*
X170282500Y-78425000D01*
G37*
%TD.AperFunction*%
%TO.N,BATT+*%
X170307500Y-88310000D02*
X170307500Y-88310000D01*
G75*
G02*
X170557500Y-88060000I250000J0D01*
G01*
X173670000Y-88060000D01*
G75*
G02*
X173920000Y-88310000I0J-250000D01*
G01*
X173920000Y-92612500D01*
G75*
G02*
X173670000Y-92862500I-250000J0D01*
G01*
X170557500Y-92862500D01*
G75*
G02*
X170307500Y-92612500I0J250000D01*
G01*
X170307500Y-88310000D01*
%TA.AperFunction,Conductor*%
G36*
X170307500Y-88310000D02*
G01*
X170307500Y-88310000D01*
G75*
G02*
X170557500Y-88060000I250000J0D01*
G01*
X173670000Y-88060000D01*
G75*
G02*
X173920000Y-88310000I0J-250000D01*
G01*
X173920000Y-92612500D01*
G75*
G02*
X173670000Y-92862500I-250000J0D01*
G01*
X170557500Y-92862500D01*
G75*
G02*
X170307500Y-92612500I0J250000D01*
G01*
X170307500Y-88310000D01*
G37*
%TD.AperFunction*%
%TO.N,LOW_SIDE_SOURCE*%
X170345000Y-99600000D02*
X170345000Y-99600000D01*
G75*
G02*
X170595000Y-99350000I250000J0D01*
G01*
X173745000Y-99350000D01*
G75*
G02*
X173995000Y-99600000I0J-250000D01*
G01*
X173995000Y-103800000D01*
G75*
G02*
X173745000Y-104050000I-250000J0D01*
G01*
X170595000Y-104050000D01*
G75*
G02*
X170345000Y-103800000I0J250000D01*
G01*
X170345000Y-99600000D01*
%TA.AperFunction,Conductor*%
G36*
X170345000Y-99600000D02*
G01*
X170345000Y-99600000D01*
G75*
G02*
X170595000Y-99350000I250000J0D01*
G01*
X173745000Y-99350000D01*
G75*
G02*
X173995000Y-99600000I0J-250000D01*
G01*
X173995000Y-103800000D01*
G75*
G02*
X173745000Y-104050000I-250000J0D01*
G01*
X170595000Y-104050000D01*
G75*
G02*
X170345000Y-103800000I0J250000D01*
G01*
X170345000Y-99600000D01*
G37*
%TD.AperFunction*%
%TD*%
D12*
%TO.N,BATT+*%
%TO.C,BATT+*%
X136180000Y-78480000D03*
%TD*%
D13*
%TO.N,SIGNAL_INPUT*%
%TO.C,J1*%
X109600000Y-108225000D03*
D14*
%TO.N,+5V*%
X109600000Y-110765000D03*
%TO.N,GND*%
X109600000Y-113305000D03*
%TD*%
D15*
%TO.N,BATT+*%
%TO.C,BATT+*%
X128420000Y-83350000D03*
X129364581Y-81069581D03*
X129364581Y-85630419D03*
X131645000Y-80125000D03*
D16*
X131645000Y-83350000D03*
D15*
X131645000Y-86575000D03*
X133925419Y-81069581D03*
X133925419Y-85630419D03*
X134870000Y-83350000D03*
%TD*%
D12*
%TO.N,BATT+*%
%TO.C,BATT+*%
X136940000Y-115470000D03*
%TD*%
D13*
%TO.N,SWDIO*%
%TO.C,J4*%
X108400000Y-84650000D03*
D14*
%TO.N,SWCLK*%
X108400000Y-87190000D03*
%TO.N,GND*%
X108400000Y-89730000D03*
%TO.N,+3.3V*%
X108400000Y-92270000D03*
%TD*%
D13*
%TO.N,TELEMETRY*%
%TO.C,J2*%
X109150000Y-78500000D03*
D14*
%TO.N,TELEMRX*%
X111690000Y-78500000D03*
%TD*%
D17*
%TO.N,MOTORC*%
%TO.C,C*%
X179355000Y-107225000D03*
X180167779Y-105262779D03*
X180167779Y-109187221D03*
X182130000Y-104450000D03*
D18*
X182130000Y-107225000D03*
D17*
X182130000Y-110000000D03*
X184092221Y-105262779D03*
X184092221Y-109187221D03*
X184905000Y-107225000D03*
%TD*%
D12*
%TO.N,GND*%
%TO.C,GND*%
X129430000Y-115500000D03*
%TD*%
D15*
%TO.N,GND*%
%TO.C,GND*%
X129589581Y-109280419D03*
X130534162Y-107000000D03*
X130534162Y-111560838D03*
X132814581Y-106055419D03*
D16*
X132814581Y-109280419D03*
D15*
X132814581Y-112505419D03*
X135095000Y-107000000D03*
X135095000Y-111560838D03*
X136039581Y-109280419D03*
%TD*%
D17*
%TO.N,MOTORB*%
%TO.C,B*%
X179382779Y-96037221D03*
X180195558Y-94075000D03*
X180195558Y-97999442D03*
X182157779Y-93262221D03*
D18*
X182157779Y-96037221D03*
D17*
X182157779Y-98812221D03*
X184120000Y-94075000D03*
X184120000Y-97999442D03*
X184932779Y-96037221D03*
%TD*%
D12*
%TO.N,GND*%
%TO.C,GND*%
X130840000Y-92170000D03*
%TD*%
D17*
%TO.N,MOTORA*%
%TO.C,A*%
X179370000Y-84875000D03*
X180182779Y-82912779D03*
X180182779Y-86837221D03*
X182145000Y-82100000D03*
D18*
X182145000Y-84875000D03*
D17*
X182145000Y-87650000D03*
X184107221Y-82912779D03*
X184107221Y-86837221D03*
X184920000Y-84875000D03*
%TD*%
D19*
%TO.N,GHB*%
X134220000Y-91700000D03*
X159120000Y-92895000D03*
X167420000Y-91775000D03*
%TO.N,Net-(IC6-OUT)*%
X164050000Y-112325000D03*
X169947500Y-112572500D03*
%TO.N,BATT+*%
X161570000Y-90200000D03*
X146005000Y-89175000D03*
X158570000Y-90225000D03*
X146050000Y-110675000D03*
X147265000Y-88275000D03*
X144790000Y-111575000D03*
X127045000Y-111900000D03*
X170935000Y-92625000D03*
X155600000Y-110675000D03*
X165175000Y-92625000D03*
X145995000Y-88275000D03*
X163895000Y-91725000D03*
X157570000Y-90206250D03*
X144780000Y-110675000D03*
X152975000Y-88300000D03*
X147320000Y-110675000D03*
X153060000Y-110675000D03*
X147330000Y-111575000D03*
X159570000Y-90225000D03*
X154330000Y-110675000D03*
X155515000Y-88300000D03*
X144735000Y-89175000D03*
X154255000Y-89200000D03*
X146060000Y-111575000D03*
X152985000Y-89200000D03*
X157070000Y-90781250D03*
X170925000Y-91725000D03*
X155525000Y-89200000D03*
X165165000Y-91725000D03*
X172195000Y-91725000D03*
X147275000Y-89175000D03*
X173475000Y-92625000D03*
X160570000Y-90225000D03*
X158070000Y-90781250D03*
X154245000Y-88300000D03*
X173465000Y-91725000D03*
X154340000Y-111575000D03*
X144725000Y-88275000D03*
X172205000Y-92625000D03*
X162625000Y-91725000D03*
X155610000Y-111575000D03*
X163905000Y-92625000D03*
X156570000Y-90206250D03*
X160070000Y-90800000D03*
X159070000Y-90800000D03*
X161070000Y-90800000D03*
X162635000Y-92625000D03*
X153070000Y-111575000D03*
%TO.N,GLA*%
X122545000Y-102175000D03*
X159095000Y-80580000D03*
X167345000Y-80605000D03*
%TO.N,+5V*%
X123545000Y-106925000D03*
X126845000Y-108175000D03*
%TO.N,GND*%
X115720000Y-95620000D03*
X113100000Y-106350000D03*
X117320000Y-98020000D03*
X116520000Y-99620000D03*
X119650000Y-113975000D03*
X117320000Y-100420000D03*
X113100000Y-113975000D03*
X186207500Y-100287500D03*
X118120000Y-96420000D03*
X115720000Y-96420000D03*
X116325000Y-113975000D03*
X120370000Y-85960000D03*
X116520000Y-97220000D03*
X118120000Y-99620000D03*
X115720000Y-98020000D03*
X118120000Y-98820000D03*
X118120000Y-98020000D03*
X118395000Y-88750000D03*
X118120000Y-100420000D03*
X118120000Y-95620000D03*
X117750000Y-92625000D03*
X116375000Y-106350000D03*
X111795000Y-83950000D03*
X174520000Y-112500000D03*
X131270000Y-97575000D03*
X115720000Y-97220000D03*
X115720000Y-100420000D03*
X117320000Y-97220000D03*
X118395000Y-90225000D03*
X116520000Y-98820000D03*
X125495000Y-97275000D03*
X115720000Y-99620000D03*
X118120000Y-97220000D03*
X123920000Y-109280419D03*
X162525000Y-115850000D03*
X117320000Y-95620000D03*
X116520000Y-98020000D03*
X116520000Y-95620000D03*
X116520000Y-96420000D03*
X116595000Y-86275000D03*
X117320000Y-99620000D03*
X115720000Y-98820000D03*
X117320000Y-96420000D03*
X110545000Y-91925000D03*
X119650000Y-106350000D03*
X122585000Y-106925000D03*
X117320000Y-98820000D03*
X116520000Y-100420000D03*
%TO.N,LOW_SIDE_SOURCE*%
X163905000Y-81425000D03*
X147310000Y-100375000D03*
X134220000Y-102175000D03*
X157170000Y-101856250D03*
X159170000Y-101875000D03*
X170905000Y-103750000D03*
X147300000Y-99475000D03*
X172105000Y-81425000D03*
X160670000Y-101300000D03*
X162645000Y-102850000D03*
X146030000Y-99475000D03*
X170825000Y-80525000D03*
X162625000Y-80525000D03*
X165195000Y-103750000D03*
X144770000Y-100375000D03*
X158170000Y-101856250D03*
X144760000Y-99475000D03*
X156670000Y-101281250D03*
X173375000Y-81425000D03*
X161170000Y-101875000D03*
X154290000Y-100375000D03*
X146040000Y-100375000D03*
X173435000Y-102850000D03*
X153010000Y-99475000D03*
X162655000Y-103750000D03*
X153020000Y-100375000D03*
X163925000Y-103750000D03*
X165175000Y-81425000D03*
X163895000Y-80525000D03*
X170895000Y-102850000D03*
X162635000Y-81425000D03*
X155550000Y-99475000D03*
X158670000Y-101300000D03*
X155560000Y-100375000D03*
X157670000Y-101281250D03*
X163915000Y-102850000D03*
X172095000Y-80525000D03*
X160170000Y-101875000D03*
X154280000Y-99475000D03*
X159670000Y-101300000D03*
X172165000Y-102850000D03*
X161670000Y-101275000D03*
X173365000Y-80525000D03*
X173445000Y-103750000D03*
X165165000Y-80525000D03*
X172175000Y-103750000D03*
X165185000Y-102850000D03*
X170835000Y-81425000D03*
%TO.N,Net-(R44-Pad1)*%
X136495000Y-104075000D03*
%TO.N,+3.3V*%
X136795000Y-101175000D03*
X143400000Y-105425000D03*
X120045000Y-93025000D03*
X124970000Y-98250000D03*
X113245000Y-102575000D03*
X134929620Y-97559620D03*
%TO.N,BEMFB*%
X125645000Y-104725000D03*
X175850000Y-102350000D03*
%TO.N,MOTORB*%
X166925000Y-96425000D03*
X150375000Y-97975000D03*
X158325000Y-97175000D03*
X159125000Y-97175000D03*
X168175000Y-94025000D03*
X151175000Y-94775000D03*
X150025000Y-95575000D03*
X159475000Y-94775000D03*
X175625000Y-96275000D03*
X150375000Y-96375000D03*
X176425000Y-97875000D03*
X166925000Y-94825000D03*
X168175000Y-97225000D03*
X149575000Y-94775000D03*
X159925000Y-95575000D03*
X175625000Y-94675000D03*
X168525000Y-96425000D03*
X151625000Y-95575000D03*
X150025000Y-97175000D03*
X175275000Y-97075000D03*
X158675000Y-97975000D03*
X175275000Y-95475000D03*
X167725000Y-98025000D03*
X176875000Y-95475000D03*
X177225000Y-96275000D03*
X166125000Y-96425000D03*
X159125000Y-93975000D03*
X158675000Y-96375000D03*
X150825000Y-95575000D03*
X159925000Y-97175000D03*
X127270000Y-96575000D03*
X166925000Y-98025000D03*
X150375000Y-94775000D03*
X174825000Y-96275000D03*
X160275000Y-97975000D03*
X159475000Y-96375000D03*
X157875000Y-94775000D03*
X157875000Y-97975000D03*
X151975000Y-96375000D03*
X157875000Y-96375000D03*
X176875000Y-97075000D03*
X150025000Y-93975000D03*
X166125000Y-98025000D03*
X151625000Y-93975000D03*
X166125000Y-94825000D03*
X168525000Y-94825000D03*
X167375000Y-95625000D03*
X176075000Y-97075000D03*
X158325000Y-95575000D03*
X175630000Y-97880000D03*
X151175000Y-97975000D03*
X177225000Y-94675000D03*
X160275000Y-94775000D03*
X176425000Y-94675000D03*
X151625000Y-97175000D03*
X176425000Y-96275000D03*
X150825000Y-97175000D03*
X176075000Y-95475000D03*
X160275000Y-96375000D03*
X159925000Y-93975000D03*
X166575000Y-94025000D03*
X159475000Y-97975000D03*
X168525000Y-98025000D03*
X167375000Y-97225000D03*
X150825000Y-93975000D03*
X168175000Y-95625000D03*
X174825000Y-94675000D03*
X167725000Y-96425000D03*
X149575000Y-97975000D03*
X176875000Y-93875000D03*
X151975000Y-94775000D03*
X177230000Y-97880000D03*
X175275000Y-93875000D03*
X167725000Y-94825000D03*
X159125000Y-95575000D03*
X166575000Y-97225000D03*
X158675000Y-94775000D03*
X158325000Y-93975000D03*
X151175000Y-96375000D03*
X149575000Y-96375000D03*
X166575000Y-95625000D03*
X176075000Y-93875000D03*
X167375000Y-94025000D03*
X151975000Y-97975000D03*
X174825000Y-97875000D03*
%TO.N,MOTORA*%
X168150000Y-85975000D03*
X168500000Y-85175000D03*
X167350000Y-84375000D03*
X159900000Y-85925000D03*
X177200000Y-83475000D03*
X125195000Y-92150000D03*
X166100000Y-85175000D03*
X166100000Y-86775000D03*
X158300000Y-82725000D03*
X167350000Y-82775000D03*
X176400000Y-83475000D03*
X168150000Y-84375000D03*
X159100000Y-85925000D03*
X149550000Y-86725000D03*
X150800000Y-84325000D03*
X157850000Y-86725000D03*
X175600000Y-83475000D03*
X166550000Y-84375000D03*
X159100000Y-84325000D03*
X150000000Y-82725000D03*
X158300000Y-84325000D03*
X151150000Y-86725000D03*
X177200000Y-86675000D03*
X174800000Y-85075000D03*
X168500000Y-83575000D03*
X158650000Y-85125000D03*
X176050000Y-82675000D03*
X167350000Y-85975000D03*
X174800000Y-83475000D03*
X151950000Y-85125000D03*
X150800000Y-85925000D03*
X157850000Y-85125000D03*
X149550000Y-85125000D03*
X176850000Y-82675000D03*
X167700000Y-83575000D03*
X176400000Y-85075000D03*
X176400000Y-86675000D03*
X167700000Y-86775000D03*
X166900000Y-83575000D03*
X166900000Y-86775000D03*
X159450000Y-86725000D03*
X159900000Y-84325000D03*
X176850000Y-85875000D03*
X151950000Y-83525000D03*
X168500000Y-86775000D03*
X150350000Y-86725000D03*
X166550000Y-82775000D03*
X175250000Y-84275000D03*
X151600000Y-84325000D03*
X159100000Y-82725000D03*
X149550000Y-83525000D03*
X166900000Y-85175000D03*
X168150000Y-82775000D03*
X160250000Y-86725000D03*
X158650000Y-86725000D03*
X151600000Y-82725000D03*
X175250000Y-82675000D03*
X150350000Y-83525000D03*
X150350000Y-85125000D03*
X150000000Y-84325000D03*
X151150000Y-83525000D03*
X176050000Y-85875000D03*
X166100000Y-83575000D03*
X176850000Y-84275000D03*
X151600000Y-85925000D03*
X158650000Y-83525000D03*
X175600000Y-85075000D03*
X159900000Y-82725000D03*
X160250000Y-83525000D03*
X159450000Y-85125000D03*
X174800000Y-86675000D03*
X151150000Y-85125000D03*
X175250000Y-85875000D03*
X176050000Y-84275000D03*
X177200000Y-85075000D03*
X158300000Y-85925000D03*
X150800000Y-82725000D03*
X167700000Y-85175000D03*
X157850000Y-83525000D03*
X175590000Y-86680000D03*
X166550000Y-85975000D03*
X150000000Y-85925000D03*
X151950000Y-86725000D03*
X159450000Y-83525000D03*
X160250000Y-85125000D03*
%TO.N,GHC*%
X129150024Y-101505026D03*
X159045000Y-110575000D03*
X150755000Y-111445000D03*
%TO.N,GHA*%
X133670000Y-91000000D03*
X150775000Y-88300000D03*
X159020000Y-88125000D03*
%TO.N,BEMF_COMMON*%
X125105051Y-102175001D03*
X186945000Y-91575000D03*
%TO.N,BEMFC*%
X174520000Y-111480000D03*
X124745000Y-105375000D03*
%TO.N,GLC*%
X126745000Y-104950000D03*
X110000442Y-100576652D03*
X159155000Y-103850000D03*
X167355000Y-102755000D03*
X135425253Y-99546954D03*
%TO.N,SWDIO*%
X111772880Y-96322120D03*
%TO.N,SWCLK*%
X111895000Y-93525000D03*
%TO.N,BEMFA*%
X124538261Y-101081739D03*
X186295000Y-88800000D03*
%TO.N,TELEMETRY*%
X116349334Y-93462500D03*
%TO.N,TELEMRX*%
X117349334Y-93462499D03*
%TO.N,MOTORC*%
X150020000Y-108375000D03*
X159520000Y-107450000D03*
X149570000Y-105975000D03*
X174820000Y-107425000D03*
X150820000Y-106775000D03*
X176870000Y-105025000D03*
X167720000Y-109125000D03*
X175270000Y-108225000D03*
X166570000Y-106725000D03*
X150370000Y-105975000D03*
X151970000Y-105975000D03*
X174820000Y-105825000D03*
X150820000Y-105175000D03*
X150370000Y-107575000D03*
X168170000Y-105125000D03*
X167720000Y-107525000D03*
X168520000Y-107525000D03*
X151170000Y-105975000D03*
X157920000Y-107450000D03*
X176870000Y-106625000D03*
X159170000Y-108250000D03*
X159970000Y-105050000D03*
X151170000Y-107575000D03*
X176070000Y-106625000D03*
X176070000Y-105025000D03*
X150370000Y-109175000D03*
X167370000Y-105125000D03*
X151970000Y-107575000D03*
X150820000Y-108375000D03*
X175620000Y-105825000D03*
X167370000Y-108325000D03*
X149570000Y-109175000D03*
X175270000Y-105025000D03*
X166920000Y-107525000D03*
X166120000Y-107525000D03*
X127080555Y-102284167D03*
X151170000Y-109175000D03*
X168520000Y-109125000D03*
X166570000Y-105125000D03*
X176070000Y-108225000D03*
X159170000Y-106650000D03*
X151620000Y-108375000D03*
X158370000Y-108250000D03*
X166920000Y-109125000D03*
X150020000Y-106775000D03*
X176870000Y-108225000D03*
X175620000Y-107425000D03*
X159970000Y-106650000D03*
X168520000Y-105925000D03*
X150020000Y-105175000D03*
X177220000Y-109025000D03*
X160320000Y-107450000D03*
X176420000Y-105825000D03*
X177220000Y-107425000D03*
X177220000Y-105825000D03*
X151620000Y-106775000D03*
X175620000Y-109025000D03*
X158720000Y-105850000D03*
X167370000Y-106725000D03*
X158720000Y-109050000D03*
X159520000Y-105850000D03*
X159520000Y-109050000D03*
X158720000Y-107450000D03*
X151620000Y-105175000D03*
X158370000Y-105050000D03*
X167720000Y-105925000D03*
X157920000Y-109050000D03*
X149570000Y-107575000D03*
X160320000Y-109050000D03*
X159170000Y-105050000D03*
X166120000Y-105925000D03*
X160320000Y-105850000D03*
X168170000Y-108325000D03*
X166120000Y-109125000D03*
X159970000Y-108250000D03*
X176420000Y-109025000D03*
X175270000Y-106625000D03*
X166920000Y-105925000D03*
X157920000Y-105850000D03*
X176420000Y-107425000D03*
X158370000Y-106650000D03*
X166570000Y-108325000D03*
X174820000Y-109025000D03*
X151970000Y-109175000D03*
X168170000Y-106725000D03*
%TO.N,+9V*%
X111145000Y-93125000D03*
X107495000Y-95022500D03*
X124345000Y-88500000D03*
%TO.N,INHA*%
X112593007Y-93915884D03*
%TO.N,INHB*%
X113645000Y-93525000D03*
X111145000Y-97725000D03*
%TO.N,INHC*%
X111745000Y-94310812D03*
%TO.N,INLA*%
X115245000Y-102625000D03*
%TO.N,INLB*%
X110800000Y-100550000D03*
X111761115Y-98431584D03*
%TO.N,INLC*%
X112405022Y-98906334D03*
X110094407Y-102593647D03*
%TO.N,GLB*%
X135495000Y-98750000D03*
X150775000Y-100375000D03*
X109250000Y-100875000D03*
X127370000Y-104175000D03*
X159070000Y-100295000D03*
%TO.N,Net-(U6-PB4)*%
X115145000Y-93594437D03*
X109350000Y-104905000D03*
%TO.N,VOLTSENSE*%
X136895000Y-95225000D03*
X127120000Y-105750000D03*
%TO.N,CURRENT*%
X121820000Y-101474998D03*
X137075000Y-106120000D03*
%TD*%
%TO.N,BATT+*%
D20*
X136137290Y-78532710D02*
X136137290Y-78502709D01*
X133932710Y-80737290D02*
X136137290Y-78532710D01*
X133902709Y-80737290D02*
X133932710Y-80737290D01*
%TO.N,GLA*%
D21*
X143050000Y-80580000D02*
X159095000Y-80580000D01*
X125385001Y-102885001D02*
X125775000Y-103275000D01*
X125395001Y-102875001D02*
X125385001Y-102885001D01*
X124815101Y-102875001D02*
X125395001Y-102875001D01*
X132620000Y-95375000D02*
X140960000Y-87035000D01*
X140960000Y-82670000D02*
X143050000Y-80580000D01*
X132620000Y-100875000D02*
X132620000Y-95375000D01*
X160665000Y-82150000D02*
X159095000Y-80580000D01*
X140960000Y-87035000D02*
X140960000Y-82670000D01*
X167345000Y-80605000D02*
X167345000Y-80990050D01*
X123195001Y-102825001D02*
X124765101Y-102825001D01*
X125775000Y-103275000D02*
X130220000Y-103275000D01*
X167345000Y-80990050D02*
X166185050Y-82150000D01*
X166185050Y-82150000D02*
X160665000Y-82150000D01*
X124765101Y-102825001D02*
X124815101Y-102875001D01*
X122545000Y-102175000D02*
X123195001Y-102825001D01*
X130220000Y-103275000D02*
X132620000Y-100875000D01*
%TO.N,LOW_SIDE_SOURCE*%
D22*
X154245000Y-101575000D02*
X163795000Y-101575000D01*
X165135000Y-100910000D02*
X166045000Y-100000000D01*
X153032500Y-102175000D02*
X153032500Y-100375000D01*
X171620000Y-101150000D02*
X173270000Y-102800000D01*
X166045000Y-100000000D02*
X169995000Y-100000000D01*
X148357500Y-103275000D02*
X151932500Y-103275000D01*
X165135000Y-102800000D02*
X165135000Y-100910000D01*
X146703750Y-102240000D02*
X147322500Y-102240000D01*
X147322500Y-102240000D02*
X148357500Y-103275000D01*
X151932500Y-103275000D02*
X153032500Y-102175000D01*
X169995000Y-100000000D02*
X171145000Y-101150000D01*
X146051250Y-101587500D02*
X146703750Y-102240000D01*
D20*
X172013750Y-79912500D02*
X171838750Y-79912500D01*
%TO.N,+3.3V*%
D23*
X143400000Y-105425000D02*
X141045000Y-105425000D01*
X134775253Y-97713987D02*
X134775253Y-99816193D01*
X134929620Y-97559620D02*
X134775253Y-97713987D01*
X134775253Y-99816193D02*
X136134060Y-101175000D01*
X141045000Y-105425000D02*
X136795000Y-101175000D01*
X136134060Y-101175000D02*
X136795000Y-101175000D01*
%TO.N,BEMFB*%
D24*
X178545000Y-101625000D02*
X186645000Y-101625000D01*
X186645000Y-101625000D02*
X188445000Y-103425000D01*
X125645000Y-112485000D02*
X125645000Y-104725000D01*
X126800000Y-113640000D02*
X125645000Y-112485000D01*
X131160000Y-114180000D02*
X130620000Y-113640000D01*
X177870000Y-102300000D02*
X178545000Y-101625000D01*
X148195000Y-115850000D02*
X140530000Y-115850000D01*
X148970000Y-116625000D02*
X148195000Y-115850000D01*
X135210000Y-114180000D02*
X131160000Y-114180000D01*
X173045000Y-114025000D02*
X170445000Y-116625000D01*
X138020000Y-113340000D02*
X136050000Y-113340000D01*
D25*
X175850000Y-102350000D02*
X175975000Y-102225000D01*
D24*
X175900000Y-102300000D02*
X177870000Y-102300000D01*
X175850000Y-102350000D02*
X175900000Y-102300000D01*
X136050000Y-113340000D02*
X135210000Y-114180000D01*
X188445000Y-103425000D02*
X188445000Y-110500000D01*
X130620000Y-113640000D02*
X126800000Y-113640000D01*
X184920000Y-114025000D02*
X173045000Y-114025000D01*
X170445000Y-116625000D02*
X148970000Y-116625000D01*
X188445000Y-110500000D02*
X184920000Y-114025000D01*
X140530000Y-115850000D02*
X138020000Y-113340000D01*
%TO.N,BEMF_COMMON*%
X187045000Y-78450000D02*
X187045000Y-91475000D01*
X126800000Y-88625000D02*
X133485000Y-88625000D01*
X122645000Y-92780000D02*
X126800000Y-88625000D01*
X122645000Y-99714950D02*
X122645000Y-92780000D01*
X123788261Y-100858211D02*
X122645000Y-99714950D01*
X124761789Y-101831739D02*
X124227600Y-101831739D01*
X144860000Y-77250000D02*
X185845000Y-77250000D01*
X125105051Y-102175001D02*
X124761789Y-101831739D01*
X185845000Y-77250000D02*
X187045000Y-78450000D01*
X124227600Y-101831739D02*
X123788261Y-101392400D01*
X187045000Y-91475000D02*
X186945000Y-91575000D01*
X133485000Y-88625000D02*
X144860000Y-77250000D01*
X123788261Y-101392400D02*
X123788261Y-100858211D01*
X122645000Y-92780000D02*
X126775000Y-88650000D01*
%TO.N,GLC*%
D21*
X159634950Y-103850000D02*
X159155000Y-103850000D01*
X160720000Y-104550000D02*
X160245000Y-104075000D01*
X135425253Y-99546954D02*
X135497207Y-99475000D01*
X156545000Y-104475000D02*
X157170000Y-103850000D01*
X144095000Y-104475000D02*
X156545000Y-104475000D01*
X160245000Y-104075000D02*
X159859950Y-104075000D01*
X157170000Y-103850000D02*
X159155000Y-103850000D01*
X165845000Y-104550000D02*
X160720000Y-104550000D01*
X167355000Y-103040000D02*
X165845000Y-104550000D01*
X139095000Y-99475000D02*
X144095000Y-104475000D01*
X167355000Y-102755000D02*
X167355000Y-103040000D01*
X159859950Y-104075000D02*
X159634950Y-103850000D01*
X135497207Y-99475000D02*
X139095000Y-99475000D01*
%TO.N,SWCLK*%
D23*
X111895000Y-90745000D02*
X108345000Y-87195000D01*
X111895000Y-93525000D02*
X111895000Y-90745000D01*
%TO.N,TELEMETRY*%
X114045000Y-91158166D02*
X114045000Y-89200000D01*
X111050000Y-83750000D02*
X109155000Y-81855000D01*
X109155000Y-81855000D02*
X109155000Y-78525000D01*
X116349334Y-93462500D02*
X114045000Y-91158166D01*
X111050000Y-86205000D02*
X111050000Y-83750000D01*
X114045000Y-89200000D02*
X111050000Y-86205000D01*
%TO.N,TELEMRX*%
X115645000Y-88025000D02*
X112920000Y-85300000D01*
X115645000Y-91758165D02*
X115645000Y-88025000D01*
X112920000Y-79750000D02*
X111695000Y-78525000D01*
X112920000Y-85300000D02*
X112920000Y-79750000D01*
X117349334Y-93462499D02*
X115645000Y-91758165D01*
%TO.N,INLC*%
X112170000Y-99141356D02*
X112405022Y-98906334D01*
X111001353Y-102593647D02*
X112170000Y-101425000D01*
X112170000Y-101425000D02*
X112170000Y-99141356D01*
X110094407Y-102593647D02*
X111001353Y-102593647D01*
%TO.N,GLB*%
D21*
X125934950Y-104025000D02*
X126109950Y-104200000D01*
X150775000Y-100164950D02*
X152264950Y-98675000D01*
X109250000Y-102725000D02*
X109394407Y-102869407D01*
X157450000Y-98675000D02*
X159070000Y-100295000D01*
X125355050Y-104025000D02*
X125934950Y-104025000D01*
X152264950Y-98675000D02*
X157450000Y-98675000D01*
X109804457Y-103293647D02*
X109818647Y-103293647D01*
X149150000Y-98750000D02*
X150775000Y-100375000D01*
X109394407Y-102883597D02*
X109804457Y-103293647D01*
X150775000Y-100375000D02*
X150775000Y-100164950D01*
X127345000Y-104200000D02*
X127370000Y-104175000D01*
X109394407Y-102869407D02*
X109394407Y-102883597D01*
X126109950Y-104200000D02*
X127345000Y-104200000D01*
X135495000Y-98750000D02*
X149150000Y-98750000D01*
X109250000Y-100875000D02*
X109250000Y-102725000D01*
X125180050Y-104200000D02*
X125355050Y-104025000D01*
X110725000Y-104200000D02*
X125180050Y-104200000D01*
X109818647Y-103293647D02*
X110725000Y-104200000D01*
%TO.N,Net-(U6-PB4)*%
D23*
X107900000Y-103100000D02*
X107900000Y-99175761D01*
X109350000Y-104550000D02*
X107900000Y-103100000D01*
X107900000Y-99175761D02*
X111850761Y-95225000D01*
X111850761Y-95225000D02*
X113358874Y-95225000D01*
X113358874Y-95225000D02*
X114989437Y-93594437D01*
X114989437Y-93594437D02*
X115145000Y-93594437D01*
X109350000Y-104905000D02*
X109350000Y-104550000D01*
%TO.N,VOLTSENSE*%
X133195000Y-98375000D02*
X136345000Y-95225000D01*
X133195000Y-101850000D02*
X133195000Y-98375000D01*
X129295000Y-105750000D02*
X133195000Y-101850000D01*
X127120000Y-105750000D02*
X129295000Y-105750000D01*
X136345000Y-95225000D02*
X136895000Y-95225000D01*
%TD*%
%TA.AperFunction,Conductor*%
%TO.N,LOW_SIDE_SOURCE*%
G36*
X187892782Y-76938079D02*
G01*
X187896100Y-76938197D01*
X187897207Y-76938237D01*
X187901624Y-76938473D01*
X188095146Y-76952314D01*
X188103916Y-76953256D01*
X188112713Y-76954521D01*
X188121370Y-76956084D01*
X188299100Y-76994746D01*
X188304465Y-76995913D01*
X188313038Y-76998100D01*
X188321506Y-77000587D01*
X188329896Y-77003378D01*
X188505475Y-77068866D01*
X188513640Y-77072249D01*
X188521666Y-77075914D01*
X188529570Y-77079869D01*
X188678296Y-77161081D01*
X188694025Y-77169669D01*
X188701630Y-77174182D01*
X188709078Y-77178969D01*
X188716344Y-77184015D01*
X188866312Y-77296279D01*
X188873204Y-77301833D01*
X188879893Y-77307629D01*
X188886372Y-77313661D01*
X189018837Y-77446126D01*
X189024869Y-77452605D01*
X189030665Y-77459294D01*
X189036219Y-77466186D01*
X189148483Y-77616154D01*
X189153529Y-77623420D01*
X189158316Y-77630868D01*
X189162835Y-77638485D01*
X189252620Y-77802913D01*
X189256577Y-77810817D01*
X189260256Y-77818872D01*
X189263640Y-77827042D01*
X189329111Y-78002580D01*
X189331906Y-78010978D01*
X189334398Y-78019465D01*
X189336587Y-78028042D01*
X189376407Y-78211095D01*
X189377978Y-78219797D01*
X189379238Y-78228556D01*
X189380185Y-78237365D01*
X189394026Y-78430871D01*
X189394263Y-78435291D01*
X189394421Y-78439714D01*
X189394500Y-78444141D01*
X189394500Y-103114926D01*
X189389476Y-103149865D01*
X189388767Y-103152278D01*
X189386941Y-103158498D01*
X189349164Y-103217275D01*
X189285607Y-103246297D01*
X189216449Y-103236350D01*
X189167385Y-103196082D01*
X189164389Y-103191927D01*
X189150408Y-103166855D01*
X189110088Y-103069512D01*
X189110083Y-103069502D01*
X189027953Y-102946586D01*
X189027952Y-102946585D01*
X189005401Y-102924034D01*
X188923416Y-102842049D01*
X188476552Y-102395185D01*
X187123421Y-101042052D01*
X187123414Y-101042046D01*
X187118572Y-101038811D01*
X187047398Y-100991254D01*
X187044800Y-100989518D01*
X187044790Y-100989513D01*
X187038419Y-100985256D01*
X187000495Y-100959916D01*
X186929617Y-100930557D01*
X186925030Y-100928193D01*
X186919597Y-100923015D01*
X186897209Y-100908604D01*
X186889579Y-100901480D01*
X186879982Y-100885253D01*
X186874456Y-100879986D01*
X186872777Y-100873071D01*
X186854011Y-100841341D01*
X186854054Y-100780183D01*
X186854389Y-100778872D01*
X186856839Y-100769269D01*
X186873884Y-100731046D01*
X186895549Y-100698624D01*
X186906917Y-100681611D01*
X186916891Y-100666683D01*
X186916894Y-100666679D01*
X186977237Y-100520997D01*
X187008000Y-100366342D01*
X187008000Y-100208658D01*
X187008000Y-100208655D01*
X187008000Y-100208473D01*
X187007565Y-100206471D01*
X186978730Y-100061509D01*
X186978729Y-100061505D01*
X186977237Y-100054003D01*
X186953604Y-99996947D01*
X186916897Y-99908327D01*
X186916890Y-99908314D01*
X186829289Y-99777211D01*
X186829286Y-99777207D01*
X186829281Y-99777201D01*
X186717797Y-99665717D01*
X186717791Y-99665712D01*
X186717790Y-99665711D01*
X186586691Y-99578113D01*
X186586690Y-99578112D01*
X186586685Y-99578109D01*
X186586672Y-99578102D01*
X186586665Y-99578098D01*
X186441002Y-99517764D01*
X186440971Y-99517757D01*
X186286347Y-99487000D01*
X186286345Y-99487000D01*
X186286342Y-99487000D01*
X186128658Y-99487000D01*
X186128655Y-99487000D01*
X186128653Y-99487000D01*
X185974027Y-99517757D01*
X185973996Y-99517764D01*
X185828333Y-99578098D01*
X185828324Y-99578103D01*
X185828307Y-99578113D01*
X185697208Y-99665711D01*
X185697207Y-99665712D01*
X185697201Y-99665717D01*
X185585717Y-99777201D01*
X185585712Y-99777207D01*
X185585711Y-99777208D01*
X185498113Y-99908307D01*
X185498103Y-99908324D01*
X185498098Y-99908333D01*
X185437764Y-100053996D01*
X185437761Y-100054011D01*
X185407000Y-100208649D01*
X185407000Y-100208653D01*
X185407000Y-100366346D01*
X185407000Y-100366348D01*
X185406999Y-100366348D01*
X185437757Y-100520971D01*
X185437764Y-100521002D01*
X185498100Y-100666669D01*
X185498102Y-100666672D01*
X185498104Y-100666677D01*
X185498114Y-100666694D01*
X185498189Y-100666806D01*
X185498215Y-100666861D01*
X185499553Y-100669072D01*
X185499335Y-100669203D01*
X185512252Y-100696206D01*
X185513409Y-100698624D01*
X185517478Y-100711619D01*
X185518725Y-100781478D01*
X185482006Y-100840921D01*
X185426586Y-100869597D01*
X185418531Y-100871425D01*
X185391088Y-100874500D01*
X178471078Y-100874500D01*
X178326096Y-100903338D01*
X178326079Y-100903344D01*
X178189517Y-100959908D01*
X178189508Y-100959913D01*
X178189491Y-100959923D01*
X178066581Y-101042049D01*
X178066578Y-101042052D01*
X177608058Y-101500573D01*
X177583093Y-101519262D01*
X177579807Y-101521722D01*
X177556719Y-101534330D01*
X177497289Y-101549500D01*
X176640346Y-101549500D01*
X176605410Y-101544477D01*
X176573602Y-101535137D01*
X176539647Y-101519262D01*
X176401547Y-101426986D01*
X176401548Y-101426986D01*
X176401538Y-101426981D01*
X176237667Y-101359105D01*
X176237632Y-101359097D01*
X176063699Y-101324500D01*
X176063696Y-101324500D01*
X176063692Y-101324500D01*
X175886309Y-101324500D01*
X175886304Y-101324500D01*
X175886299Y-101324500D01*
X175712366Y-101359097D01*
X175712333Y-101359105D01*
X175548451Y-101426987D01*
X175548449Y-101426988D01*
X175548439Y-101426994D01*
X175400966Y-101525534D01*
X175400956Y-101525542D01*
X175150538Y-101775960D01*
X175051983Y-101923457D01*
X174984105Y-102087331D01*
X174984097Y-102087366D01*
X174949500Y-102261299D01*
X174949500Y-102438699D01*
X174984097Y-102612632D01*
X174984105Y-102612665D01*
X175051987Y-102776547D01*
X175051988Y-102776548D01*
X175150534Y-102924034D01*
X175150540Y-102924041D01*
X175275958Y-103049459D01*
X175275965Y-103049465D01*
X175373935Y-103114926D01*
X175424474Y-103148695D01*
X175429075Y-103150341D01*
X175448768Y-103158498D01*
X175587334Y-103215895D01*
X175761303Y-103250499D01*
X175761307Y-103250500D01*
X175761308Y-103250500D01*
X175938693Y-103250500D01*
X175938694Y-103250499D01*
X176112666Y-103215895D01*
X176276547Y-103148012D01*
X176276552Y-103148008D01*
X176276555Y-103148007D01*
X176308083Y-103126939D01*
X176376395Y-103081295D01*
X176408220Y-103066070D01*
X176439866Y-103056162D01*
X176476911Y-103050500D01*
X177943921Y-103050500D01*
X178024429Y-103034485D01*
X178071222Y-103025177D01*
X178088913Y-103021658D01*
X178225495Y-102965084D01*
X178286928Y-102924036D01*
X178286928Y-102924035D01*
X178286930Y-102924035D01*
X178343613Y-102886161D01*
X178348416Y-102882952D01*
X178806946Y-102424419D01*
X178835197Y-102403273D01*
X178858287Y-102390666D01*
X178917710Y-102375500D01*
X186264940Y-102375500D01*
X186299872Y-102380521D01*
X186325116Y-102387934D01*
X186377862Y-102419230D01*
X187645575Y-103686942D01*
X187666723Y-103715192D01*
X187679331Y-103738281D01*
X187694500Y-103797710D01*
X187694500Y-110119940D01*
X187689476Y-110154877D01*
X187682064Y-110180118D01*
X187650769Y-110232862D01*
X184658058Y-113225573D01*
X184630373Y-113246298D01*
X184629807Y-113246722D01*
X184606719Y-113259330D01*
X184547289Y-113274500D01*
X175194771Y-113274500D01*
X175159836Y-113269477D01*
X175148982Y-113266290D01*
X175090204Y-113228516D01*
X175061179Y-113164960D01*
X175071122Y-113095803D01*
X175074312Y-113088819D01*
X175099420Y-113052658D01*
X175141786Y-113010292D01*
X175141789Y-113010289D01*
X175229394Y-112879179D01*
X175229397Y-112879172D01*
X175229398Y-112879171D01*
X175269622Y-112782057D01*
X175289737Y-112733497D01*
X175320500Y-112578842D01*
X175320500Y-112421158D01*
X175320500Y-112421155D01*
X175320500Y-112420973D01*
X175320065Y-112418972D01*
X175314492Y-112390958D01*
X175309729Y-112367011D01*
X175289737Y-112266503D01*
X175259427Y-112193327D01*
X175229397Y-112120827D01*
X175229389Y-112120813D01*
X175194070Y-112067956D01*
X175190884Y-112061796D01*
X175189973Y-112057108D01*
X175182687Y-112041879D01*
X175178016Y-112026963D01*
X175176766Y-111957106D01*
X175180370Y-111943968D01*
X175196846Y-111907889D01*
X175226770Y-111863106D01*
X175229394Y-111859179D01*
X175289737Y-111713497D01*
X175320500Y-111558842D01*
X175320500Y-111401158D01*
X175320500Y-111401155D01*
X175320500Y-111400973D01*
X175320065Y-111398972D01*
X175301279Y-111304530D01*
X175289737Y-111246503D01*
X175275238Y-111211498D01*
X175264148Y-111184725D01*
X175229400Y-111100833D01*
X175229395Y-111100824D01*
X175229390Y-111100814D01*
X175141789Y-110969711D01*
X175141786Y-110969707D01*
X175141781Y-110969701D01*
X175030297Y-110858217D01*
X175030291Y-110858212D01*
X175030290Y-110858211D01*
X174899191Y-110770613D01*
X174899190Y-110770612D01*
X174899185Y-110770609D01*
X174899172Y-110770602D01*
X174899165Y-110770598D01*
X174753502Y-110710264D01*
X174753471Y-110710257D01*
X174598847Y-110679500D01*
X174598845Y-110679500D01*
X174598842Y-110679500D01*
X174441158Y-110679500D01*
X174441155Y-110679500D01*
X174441153Y-110679500D01*
X174286527Y-110710257D01*
X174286496Y-110710264D01*
X174140833Y-110770598D01*
X174140824Y-110770603D01*
X174140807Y-110770613D01*
X174009708Y-110858211D01*
X174009707Y-110858212D01*
X174009701Y-110858217D01*
X173898217Y-110969701D01*
X173898212Y-110969707D01*
X173898211Y-110969708D01*
X173810613Y-111100807D01*
X173810603Y-111100824D01*
X173810598Y-111100833D01*
X173750264Y-111246496D01*
X173750257Y-111246527D01*
X173719500Y-111401150D01*
X173719500Y-111401153D01*
X173719500Y-111558846D01*
X173719500Y-111558848D01*
X173719499Y-111558848D01*
X173750257Y-111713471D01*
X173750264Y-111713502D01*
X173810600Y-111859169D01*
X173810604Y-111859176D01*
X173810606Y-111859179D01*
X173810609Y-111859183D01*
X173810611Y-111859187D01*
X173842081Y-111906286D01*
X173857314Y-111938128D01*
X173861984Y-111953045D01*
X173863231Y-112022893D01*
X173859629Y-112036025D01*
X173843149Y-112072113D01*
X173810615Y-112120804D01*
X173810602Y-112120827D01*
X173810597Y-112120838D01*
X173750264Y-112266496D01*
X173750257Y-112266527D01*
X173719500Y-112421150D01*
X173719500Y-112421153D01*
X173719500Y-112578846D01*
X173719500Y-112578848D01*
X173719499Y-112578848D01*
X173750257Y-112733471D01*
X173750264Y-112733501D01*
X173810598Y-112879165D01*
X173810603Y-112879174D01*
X173810613Y-112879191D01*
X173898206Y-113010282D01*
X173898212Y-113010291D01*
X173898216Y-113010296D01*
X173938132Y-113050211D01*
X173938133Y-113050212D01*
X173959283Y-113078465D01*
X173961645Y-113082790D01*
X173964704Y-113088392D01*
X173979556Y-113156665D01*
X173955139Y-113222129D01*
X173899206Y-113264001D01*
X173892018Y-113266682D01*
X173848684Y-113274500D01*
X172971078Y-113274500D01*
X172826096Y-113303338D01*
X172826079Y-113303344D01*
X172689517Y-113359908D01*
X172689508Y-113359913D01*
X172689491Y-113359923D01*
X172566581Y-113442049D01*
X172566580Y-113442050D01*
X172566574Y-113442055D01*
X170183058Y-115825573D01*
X170154807Y-115846722D01*
X170131719Y-115859330D01*
X170072289Y-115874500D01*
X163465650Y-115874500D01*
X163430709Y-115869475D01*
X163415710Y-115865070D01*
X163356948Y-115827309D01*
X163352136Y-115821757D01*
X163324222Y-115764736D01*
X163295395Y-115619815D01*
X163294983Y-115617403D01*
X163294737Y-115616504D01*
X163278279Y-115576769D01*
X163234402Y-115470840D01*
X163234399Y-115470833D01*
X163234397Y-115470827D01*
X163234390Y-115470814D01*
X163146789Y-115339711D01*
X163146786Y-115339707D01*
X163146781Y-115339701D01*
X163035297Y-115228217D01*
X163035291Y-115228212D01*
X163035290Y-115228211D01*
X162904191Y-115140613D01*
X162904190Y-115140612D01*
X162904185Y-115140609D01*
X162904172Y-115140602D01*
X162904165Y-115140598D01*
X162758502Y-115080264D01*
X162758471Y-115080257D01*
X162603847Y-115049500D01*
X162603845Y-115049500D01*
X162603842Y-115049500D01*
X162446158Y-115049500D01*
X162446155Y-115049500D01*
X162446153Y-115049500D01*
X162291527Y-115080257D01*
X162291496Y-115080264D01*
X162145833Y-115140598D01*
X162145824Y-115140603D01*
X162145807Y-115140613D01*
X162014708Y-115228211D01*
X162014707Y-115228212D01*
X162014701Y-115228217D01*
X161903217Y-115339701D01*
X161903212Y-115339707D01*
X161903211Y-115339708D01*
X161815613Y-115470807D01*
X161815603Y-115470824D01*
X161815598Y-115470833D01*
X161755264Y-115616496D01*
X161755257Y-115616527D01*
X161727275Y-115757203D01*
X161715533Y-115790487D01*
X161708286Y-115804341D01*
X161659781Y-115854613D01*
X161659771Y-115854618D01*
X161659770Y-115854620D01*
X161659767Y-115854620D01*
X161653399Y-115858248D01*
X161592029Y-115874500D01*
X156383636Y-115874500D01*
X156348701Y-115869477D01*
X156337847Y-115866290D01*
X156322841Y-115856646D01*
X156305730Y-115851620D01*
X156294062Y-115838151D01*
X156279069Y-115828516D01*
X156271659Y-115812290D01*
X156259981Y-115798810D01*
X156257446Y-115781170D01*
X156250044Y-115764960D01*
X156252582Y-115747306D01*
X156250046Y-115729651D01*
X156259986Y-115695814D01*
X156259987Y-115695804D01*
X156260250Y-115695229D01*
X156294054Y-115651165D01*
X156294417Y-115650864D01*
X156295798Y-115649724D01*
X156305574Y-115642934D01*
X156306009Y-115642433D01*
X156306506Y-115642286D01*
X156312762Y-115637941D01*
X156397962Y-115588752D01*
X156418716Y-115576770D01*
X156530520Y-115464966D01*
X156609577Y-115328034D01*
X156650500Y-115175307D01*
X156650500Y-114994573D01*
X156651418Y-114979513D01*
X156653246Y-114964588D01*
X156654391Y-114958401D01*
X156654335Y-114958393D01*
X156655180Y-114953005D01*
X156655183Y-114952995D01*
X156658000Y-114911454D01*
X156658000Y-112403848D01*
X163249499Y-112403848D01*
X163280257Y-112558471D01*
X163280264Y-112558502D01*
X163340598Y-112704165D01*
X163340603Y-112704174D01*
X163340613Y-112704191D01*
X163428211Y-112835290D01*
X163428212Y-112835291D01*
X163428217Y-112835297D01*
X163539701Y-112946781D01*
X163539707Y-112946786D01*
X163539711Y-112946789D01*
X163670814Y-113034390D01*
X163670827Y-113034397D01*
X163787665Y-113082792D01*
X163816503Y-113094737D01*
X163952502Y-113121789D01*
X163963527Y-113123982D01*
X163966251Y-113124704D01*
X163971155Y-113125500D01*
X164128844Y-113125500D01*
X164132964Y-113125500D01*
X164140814Y-113123118D01*
X164283497Y-113094737D01*
X164429179Y-113034394D01*
X164560289Y-112946789D01*
X164671789Y-112835289D01*
X164759394Y-112704179D01*
X164781277Y-112651348D01*
X169146999Y-112651348D01*
X169177757Y-112805971D01*
X169177764Y-112806002D01*
X169238098Y-112951665D01*
X169238102Y-112951672D01*
X169238107Y-112951682D01*
X169238113Y-112951691D01*
X169325711Y-113082790D01*
X169325712Y-113082791D01*
X169325717Y-113082797D01*
X169437201Y-113194281D01*
X169437207Y-113194286D01*
X169437211Y-113194289D01*
X169568314Y-113281890D01*
X169568327Y-113281897D01*
X169713998Y-113342235D01*
X169714003Y-113342237D01*
X169868653Y-113372999D01*
X169868656Y-113373000D01*
X169868658Y-113373000D01*
X170026344Y-113373000D01*
X170026345Y-113372999D01*
X170180997Y-113342237D01*
X170326679Y-113281894D01*
X170457789Y-113194289D01*
X170569289Y-113082789D01*
X170656894Y-112951679D01*
X170658920Y-112946789D01*
X170686927Y-112879172D01*
X170717237Y-112805997D01*
X170748000Y-112651342D01*
X170748000Y-112493658D01*
X170748000Y-112493655D01*
X170748000Y-112493471D01*
X170747564Y-112491466D01*
X170733578Y-112421153D01*
X170717239Y-112339010D01*
X170717236Y-112339001D01*
X170714590Y-112332614D01*
X170678780Y-112246158D01*
X170656897Y-112193327D01*
X170656890Y-112193314D01*
X170569289Y-112062211D01*
X170569286Y-112062207D01*
X170569281Y-112062201D01*
X170457797Y-111950717D01*
X170457791Y-111950712D01*
X170457790Y-111950711D01*
X170326691Y-111863113D01*
X170326690Y-111863112D01*
X170326685Y-111863109D01*
X170326672Y-111863102D01*
X170326665Y-111863098D01*
X170181002Y-111802764D01*
X170180971Y-111802757D01*
X170026347Y-111772000D01*
X170026345Y-111772000D01*
X170026342Y-111772000D01*
X169868658Y-111772000D01*
X169868655Y-111772000D01*
X169868653Y-111772000D01*
X169714027Y-111802757D01*
X169713996Y-111802764D01*
X169568333Y-111863098D01*
X169568324Y-111863103D01*
X169568307Y-111863113D01*
X169437208Y-111950711D01*
X169437207Y-111950712D01*
X169437201Y-111950717D01*
X169325717Y-112062201D01*
X169325712Y-112062207D01*
X169325711Y-112062208D01*
X169238113Y-112193307D01*
X169238103Y-112193324D01*
X169238102Y-112193327D01*
X169238099Y-112193331D01*
X169177764Y-112338996D01*
X169177757Y-112339027D01*
X169147000Y-112493650D01*
X169147000Y-112493653D01*
X169147000Y-112651346D01*
X169147000Y-112651348D01*
X169146999Y-112651348D01*
X164781277Y-112651348D01*
X164819737Y-112558497D01*
X164827989Y-112517011D01*
X164838659Y-112463374D01*
X164838661Y-112463366D01*
X164839846Y-112457407D01*
X164839847Y-112457398D01*
X164843421Y-112439432D01*
X164850072Y-112405990D01*
X164850500Y-112404025D01*
X164850500Y-112245971D01*
X164850064Y-112243966D01*
X164839990Y-112193321D01*
X164832245Y-112154385D01*
X164819737Y-112091503D01*
X164797423Y-112037631D01*
X164759397Y-111945827D01*
X164759390Y-111945814D01*
X164671789Y-111814711D01*
X164671786Y-111814707D01*
X164671781Y-111814701D01*
X164560297Y-111703217D01*
X164560291Y-111703212D01*
X164560290Y-111703211D01*
X164429191Y-111615613D01*
X164429190Y-111615612D01*
X164429185Y-111615609D01*
X164429172Y-111615602D01*
X164429165Y-111615598D01*
X164283502Y-111555264D01*
X164283471Y-111555257D01*
X164128847Y-111524500D01*
X164128845Y-111524500D01*
X164128842Y-111524500D01*
X163971158Y-111524500D01*
X163971155Y-111524500D01*
X163971153Y-111524500D01*
X163816527Y-111555257D01*
X163816496Y-111555264D01*
X163670833Y-111615598D01*
X163670824Y-111615603D01*
X163670807Y-111615613D01*
X163539708Y-111703211D01*
X163539707Y-111703212D01*
X163539701Y-111703217D01*
X163428217Y-111814701D01*
X163428212Y-111814707D01*
X163428211Y-111814708D01*
X163340613Y-111945807D01*
X163340603Y-111945824D01*
X163340598Y-111945833D01*
X163280264Y-112091496D01*
X163280257Y-112091527D01*
X163249500Y-112246150D01*
X163249500Y-112246153D01*
X163249500Y-112403846D01*
X163249500Y-112403848D01*
X163249499Y-112403848D01*
X156658000Y-112403848D01*
X156658000Y-110638546D01*
X156655183Y-110597005D01*
X156653216Y-110589097D01*
X156638797Y-110531117D01*
X156624026Y-110471723D01*
X156620470Y-110436622D01*
X156621051Y-110422747D01*
X156643520Y-110356595D01*
X156698191Y-110313087D01*
X156698201Y-110313083D01*
X156706644Y-110309647D01*
X156753385Y-110300500D01*
X158114494Y-110300500D01*
X158149426Y-110305521D01*
X158162745Y-110309432D01*
X158221523Y-110347206D01*
X158250549Y-110410761D01*
X158250548Y-110410763D01*
X158252115Y-110421657D01*
X158250995Y-110463499D01*
X158244500Y-110496150D01*
X158244500Y-110496153D01*
X158244500Y-110653846D01*
X158244500Y-110653848D01*
X158244499Y-110653848D01*
X158275257Y-110808471D01*
X158275264Y-110808502D01*
X158335598Y-110954165D01*
X158335603Y-110954174D01*
X158335613Y-110954191D01*
X158423211Y-111085290D01*
X158423212Y-111085291D01*
X158423217Y-111085297D01*
X158534701Y-111196781D01*
X158534707Y-111196786D01*
X158534711Y-111196789D01*
X158665814Y-111284390D01*
X158665827Y-111284397D01*
X158811498Y-111344735D01*
X158811503Y-111344737D01*
X158966153Y-111375499D01*
X158966156Y-111375500D01*
X158966158Y-111375500D01*
X159123844Y-111375500D01*
X159123845Y-111375499D01*
X159278497Y-111344737D01*
X159424179Y-111284394D01*
X159555289Y-111196789D01*
X159666789Y-111085289D01*
X159754394Y-110954179D01*
X159814737Y-110808497D01*
X159845500Y-110653842D01*
X159845500Y-110496158D01*
X159845500Y-110496155D01*
X159845500Y-110495970D01*
X159845068Y-110493983D01*
X159839537Y-110466177D01*
X159837647Y-110430940D01*
X159838885Y-110417107D01*
X159845412Y-110400518D01*
X159845764Y-110396586D01*
X159848186Y-110393467D01*
X159864466Y-110352092D01*
X159921135Y-110311227D01*
X159931531Y-110307559D01*
X159972774Y-110300500D01*
X179195902Y-110300500D01*
X179230834Y-110305521D01*
X179256197Y-110312969D01*
X179302995Y-110339010D01*
X179303028Y-110338970D01*
X179303174Y-110339087D01*
X179303200Y-110339056D01*
X179303458Y-110339267D01*
X179303950Y-110339541D01*
X179305462Y-110340894D01*
X179305759Y-110341162D01*
X179306311Y-110341609D01*
X179398752Y-110417473D01*
X179624747Y-110602942D01*
X179751980Y-110687956D01*
X179967908Y-110832235D01*
X179968571Y-110832603D01*
X179969353Y-110833007D01*
X180326581Y-111023950D01*
X180326580Y-111023950D01*
X180330676Y-111026139D01*
X180331881Y-111026783D01*
X180331882Y-111026783D01*
X180331886Y-111026785D01*
X180331889Y-111026787D01*
X180331891Y-111026788D01*
X180335357Y-111028640D01*
X180340329Y-111030283D01*
X180713187Y-111184726D01*
X181108131Y-111304530D01*
X181108137Y-111304531D01*
X181108140Y-111304532D01*
X181108147Y-111304534D01*
X181108154Y-111304536D01*
X181108703Y-111304665D01*
X181109979Y-111304899D01*
X181464914Y-111375499D01*
X181512915Y-111385047D01*
X181923643Y-111425500D01*
X181923646Y-111425500D01*
X182336354Y-111425500D01*
X182336357Y-111425500D01*
X182747085Y-111385047D01*
X182842071Y-111366153D01*
X183145998Y-111305699D01*
X183146001Y-111305698D01*
X183150471Y-111304809D01*
X183150481Y-111304807D01*
X183150663Y-111304770D01*
X183151848Y-111304535D01*
X183151855Y-111304532D01*
X183152141Y-111304476D01*
X183153595Y-111304058D01*
X183182132Y-111296275D01*
X183183854Y-111295011D01*
X183190093Y-111292934D01*
X183546813Y-111184726D01*
X183928111Y-111026787D01*
X184292093Y-110832234D01*
X184635253Y-110602942D01*
X184954286Y-110341119D01*
X185246119Y-110049286D01*
X185507942Y-109730253D01*
X185737234Y-109387093D01*
X185931787Y-109023111D01*
X186089726Y-108641813D01*
X186209530Y-108246869D01*
X186209532Y-108246859D01*
X186209535Y-108246848D01*
X186290047Y-107842084D01*
X186330500Y-107431353D01*
X186330500Y-107018646D01*
X186290047Y-106607915D01*
X186274649Y-106530505D01*
X186209899Y-106204979D01*
X186209899Y-106204978D01*
X186209534Y-106203148D01*
X186209531Y-106203137D01*
X186209530Y-106203131D01*
X186089726Y-105808187D01*
X185931787Y-105426889D01*
X185909159Y-105384556D01*
X185738022Y-105064381D01*
X185737608Y-105063581D01*
X185737235Y-105062908D01*
X185544513Y-104774480D01*
X185507942Y-104719747D01*
X185246609Y-104401311D01*
X185246609Y-104401310D01*
X185246109Y-104400702D01*
X184954296Y-104108889D01*
X184816931Y-103996157D01*
X184636563Y-103848133D01*
X184635576Y-103847300D01*
X184635259Y-103847062D01*
X184635254Y-103847059D01*
X184635248Y-103847055D01*
X184453438Y-103725573D01*
X184292107Y-103617775D01*
X184292099Y-103617770D01*
X184292093Y-103617766D01*
X184292088Y-103617763D01*
X184292081Y-103617759D01*
X184292072Y-103617754D01*
X184292065Y-103617750D01*
X184046594Y-103486543D01*
X183928118Y-103423216D01*
X183928113Y-103423214D01*
X183928107Y-103423211D01*
X183928014Y-103423168D01*
X183927436Y-103422933D01*
X183875502Y-103401422D01*
X183875500Y-103401421D01*
X183753972Y-103351082D01*
X183546815Y-103265274D01*
X183151845Y-103145462D01*
X182747089Y-103064953D01*
X182747073Y-103064950D01*
X182437741Y-103034485D01*
X182437741Y-103034484D01*
X182359477Y-103026777D01*
X182336357Y-103024500D01*
X182336354Y-103024500D01*
X181923646Y-103024500D01*
X181923643Y-103024500D01*
X181903789Y-103026455D01*
X181829965Y-103033725D01*
X181829966Y-103033726D01*
X181512925Y-103064950D01*
X181512909Y-103064953D01*
X181108154Y-103145462D01*
X181108152Y-103145462D01*
X180713183Y-103265274D01*
X180332564Y-103422932D01*
X180331989Y-103423166D01*
X180331875Y-103423219D01*
X179967927Y-103617754D01*
X179967908Y-103617765D01*
X179967902Y-103617768D01*
X179624750Y-103847055D01*
X179624731Y-103847069D01*
X179624728Y-103847071D01*
X179305702Y-104108889D01*
X179017347Y-104397245D01*
X178999479Y-104412044D01*
X178976321Y-104427820D01*
X178925816Y-104447827D01*
X178924801Y-104447987D01*
X178910385Y-104449116D01*
X178909833Y-104449295D01*
X178909439Y-104449190D01*
X178905493Y-104449500D01*
X177495771Y-104449500D01*
X177460834Y-104444476D01*
X177435593Y-104437064D01*
X177382849Y-104405769D01*
X177380297Y-104403217D01*
X177380291Y-104403212D01*
X177380290Y-104403211D01*
X177249191Y-104315613D01*
X177249190Y-104315612D01*
X177249185Y-104315609D01*
X177249172Y-104315602D01*
X177249165Y-104315598D01*
X177103502Y-104255264D01*
X177103471Y-104255257D01*
X176948847Y-104224500D01*
X176948845Y-104224500D01*
X176948842Y-104224500D01*
X176791158Y-104224500D01*
X176791155Y-104224500D01*
X176791153Y-104224500D01*
X176636527Y-104255257D01*
X176636501Y-104255263D01*
X176636499Y-104255263D01*
X176636498Y-104255264D01*
X176582699Y-104277548D01*
X176533922Y-104297752D01*
X176499726Y-104306479D01*
X176473573Y-104309291D01*
X176412865Y-104300563D01*
X176303502Y-104255264D01*
X176303471Y-104255257D01*
X176148847Y-104224500D01*
X176148845Y-104224500D01*
X176148842Y-104224500D01*
X175991158Y-104224500D01*
X175991155Y-104224500D01*
X175991153Y-104224500D01*
X175836527Y-104255257D01*
X175836501Y-104255263D01*
X175836499Y-104255263D01*
X175836498Y-104255264D01*
X175782699Y-104277548D01*
X175733922Y-104297752D01*
X175699726Y-104306479D01*
X175673573Y-104309291D01*
X175612865Y-104300563D01*
X175503502Y-104255264D01*
X175503471Y-104255257D01*
X175348847Y-104224500D01*
X175348845Y-104224500D01*
X175348842Y-104224500D01*
X175191158Y-104224500D01*
X175191155Y-104224500D01*
X175191153Y-104224500D01*
X175036527Y-104255257D01*
X175036496Y-104255264D01*
X174890833Y-104315598D01*
X174890824Y-104315603D01*
X174890807Y-104315613D01*
X174759708Y-104403211D01*
X174759707Y-104403212D01*
X174756384Y-104406095D01*
X174755836Y-104405464D01*
X174734090Y-104421726D01*
X174711005Y-104434331D01*
X174651578Y-104449500D01*
X168655350Y-104449500D01*
X168620412Y-104444476D01*
X168588606Y-104435136D01*
X168554656Y-104419264D01*
X168549187Y-104415610D01*
X168549179Y-104415605D01*
X168549162Y-104415597D01*
X168403502Y-104355264D01*
X168403471Y-104355257D01*
X168248847Y-104324500D01*
X168248845Y-104324500D01*
X168248842Y-104324500D01*
X168091158Y-104324500D01*
X168091155Y-104324500D01*
X168091153Y-104324500D01*
X167936527Y-104355257D01*
X167936501Y-104355263D01*
X167936499Y-104355263D01*
X167936498Y-104355264D01*
X167835146Y-104397245D01*
X167833922Y-104397752D01*
X167799726Y-104406479D01*
X167773573Y-104409291D01*
X167712865Y-104400563D01*
X167603502Y-104355264D01*
X167603471Y-104355257D01*
X167448847Y-104324500D01*
X167448845Y-104324500D01*
X167448842Y-104324500D01*
X167378347Y-104324500D01*
X167343412Y-104319477D01*
X167332558Y-104316290D01*
X167273780Y-104278516D01*
X167244755Y-104214960D01*
X167246196Y-104204935D01*
X167254695Y-104145811D01*
X167257885Y-104138824D01*
X167282992Y-104102662D01*
X167389497Y-103996158D01*
X167899113Y-103486543D01*
X167920708Y-103454225D01*
X167941428Y-103423216D01*
X167975082Y-103372847D01*
X167975706Y-103371935D01*
X167975772Y-103371815D01*
X167975771Y-103371815D01*
X167975775Y-103371811D01*
X168006707Y-103297134D01*
X168028580Y-103244329D01*
X168037620Y-103198876D01*
X168045132Y-103174533D01*
X168047530Y-103168894D01*
X168047985Y-103168201D01*
X168053896Y-103153932D01*
X168054082Y-103153495D01*
X168054438Y-103153060D01*
X168061626Y-103139617D01*
X168061518Y-103139560D01*
X168064392Y-103134182D01*
X168064392Y-103134181D01*
X168064394Y-103134179D01*
X168124737Y-102988497D01*
X168155500Y-102833842D01*
X168155500Y-102676158D01*
X168155500Y-102676155D01*
X168155500Y-102675971D01*
X168155064Y-102673966D01*
X168153301Y-102665106D01*
X168124737Y-102521503D01*
X168124735Y-102521498D01*
X168064397Y-102375827D01*
X168064390Y-102375814D01*
X167976789Y-102244711D01*
X167976786Y-102244707D01*
X167976781Y-102244701D01*
X167865297Y-102133217D01*
X167865291Y-102133212D01*
X167865290Y-102133211D01*
X167734191Y-102045613D01*
X167734190Y-102045612D01*
X167734185Y-102045609D01*
X167734172Y-102045602D01*
X167734165Y-102045598D01*
X167588502Y-101985264D01*
X167588471Y-101985257D01*
X167433847Y-101954500D01*
X167433845Y-101954500D01*
X167433842Y-101954500D01*
X167276158Y-101954500D01*
X167276155Y-101954500D01*
X167276153Y-101954500D01*
X167121527Y-101985257D01*
X167121496Y-101985264D01*
X166975833Y-102045598D01*
X166975824Y-102045603D01*
X166975807Y-102045613D01*
X166844708Y-102133211D01*
X166844707Y-102133212D01*
X166844701Y-102133217D01*
X166733217Y-102244701D01*
X166733212Y-102244707D01*
X166733211Y-102244708D01*
X166645613Y-102375807D01*
X166645603Y-102375824D01*
X166645598Y-102375833D01*
X166585264Y-102521496D01*
X166585257Y-102521527D01*
X166554500Y-102676150D01*
X166554500Y-102780650D01*
X166554499Y-102780652D01*
X166554500Y-102780653D01*
X166549476Y-102815587D01*
X166542064Y-102840828D01*
X166510769Y-102893572D01*
X165603769Y-103800573D01*
X165575518Y-103821722D01*
X165552430Y-103834330D01*
X165493000Y-103849500D01*
X161079348Y-103849500D01*
X161079347Y-103849499D01*
X161079347Y-103849500D01*
X161044412Y-103844477D01*
X161019170Y-103837065D01*
X160966426Y-103805770D01*
X160691543Y-103530886D01*
X160691542Y-103530885D01*
X160691541Y-103530884D01*
X160651352Y-103504031D01*
X160642832Y-103493837D01*
X160576809Y-103454223D01*
X160576802Y-103454219D01*
X160449354Y-103401429D01*
X160449340Y-103401424D01*
X160449332Y-103401421D01*
X160449322Y-103401418D01*
X160449317Y-103401416D01*
X160313998Y-103374500D01*
X160313996Y-103374500D01*
X160313994Y-103374500D01*
X160313993Y-103374500D01*
X160219299Y-103374500D01*
X160219296Y-103374499D01*
X160219296Y-103374500D01*
X160184362Y-103369476D01*
X160159121Y-103362064D01*
X160106375Y-103330767D01*
X160081498Y-103305889D01*
X159966760Y-103229224D01*
X159966759Y-103229223D01*
X159966757Y-103229222D01*
X159966755Y-103229221D01*
X159966753Y-103229220D01*
X159839297Y-103176426D01*
X159839286Y-103176423D01*
X159839282Y-103176421D01*
X159839272Y-103176418D01*
X159839267Y-103176416D01*
X159703948Y-103149500D01*
X159703946Y-103149500D01*
X159703944Y-103149500D01*
X159703943Y-103149500D01*
X159592528Y-103149500D01*
X159568339Y-103147117D01*
X159544839Y-103142443D01*
X159521582Y-103135387D01*
X159388502Y-103080264D01*
X159388471Y-103080257D01*
X159233847Y-103049500D01*
X159233845Y-103049500D01*
X159233842Y-103049500D01*
X159076158Y-103049500D01*
X159076155Y-103049500D01*
X159076153Y-103049500D01*
X158921527Y-103080257D01*
X158921496Y-103080264D01*
X158788417Y-103135387D01*
X158765161Y-103142442D01*
X158741668Y-103147116D01*
X158717472Y-103149500D01*
X157101001Y-103149500D01*
X156998570Y-103169874D01*
X156998571Y-103169875D01*
X156998565Y-103169875D01*
X156998566Y-103169876D01*
X156992589Y-103171065D01*
X156979131Y-103173742D01*
X156965673Y-103176419D01*
X156956523Y-103180209D01*
X156956511Y-103180213D01*
X156956508Y-103180215D01*
X156947601Y-103183903D01*
X156947595Y-103183904D01*
X156838198Y-103229219D01*
X156838184Y-103229227D01*
X156736560Y-103297130D01*
X156736561Y-103297131D01*
X156736557Y-103297134D01*
X156724391Y-103305263D01*
X156723922Y-103305575D01*
X156723809Y-103305651D01*
X156723451Y-103305890D01*
X156723449Y-103305892D01*
X156303769Y-103725573D01*
X156277960Y-103744894D01*
X156275518Y-103746722D01*
X156252430Y-103759330D01*
X156193000Y-103774500D01*
X144454349Y-103774500D01*
X144419413Y-103769477D01*
X144394171Y-103762065D01*
X144341426Y-103730769D01*
X140285445Y-99674788D01*
X140264296Y-99646538D01*
X140263162Y-99644461D01*
X140258874Y-99636608D01*
X140244021Y-99568338D01*
X140268435Y-99502873D01*
X140324365Y-99461001D01*
X140328244Y-99459554D01*
X140331580Y-99458311D01*
X140374894Y-99450500D01*
X148790651Y-99450500D01*
X148825583Y-99455521D01*
X148850827Y-99462934D01*
X148903573Y-99494230D01*
X149970292Y-100560949D01*
X149985711Y-100579736D01*
X149999024Y-100599661D01*
X150010481Y-100621096D01*
X150065596Y-100754158D01*
X150065604Y-100754176D01*
X150065613Y-100754191D01*
X150153211Y-100885290D01*
X150153212Y-100885291D01*
X150153217Y-100885297D01*
X150264701Y-100996781D01*
X150264707Y-100996786D01*
X150264711Y-100996789D01*
X150395814Y-101084390D01*
X150395827Y-101084397D01*
X150459887Y-101110931D01*
X150541503Y-101144737D01*
X150541505Y-101144737D01*
X150541510Y-101144739D01*
X150625279Y-101161401D01*
X150696153Y-101175499D01*
X150696156Y-101175500D01*
X150696158Y-101175500D01*
X150853844Y-101175500D01*
X150853845Y-101175499D01*
X151008497Y-101144737D01*
X151154179Y-101084394D01*
X151285289Y-100996789D01*
X151396789Y-100885289D01*
X151484394Y-100754179D01*
X151544737Y-100608497D01*
X151575500Y-100453842D01*
X151575500Y-100424297D01*
X151580522Y-100389364D01*
X151587934Y-100364119D01*
X151619228Y-100311377D01*
X152506182Y-99424423D01*
X152534432Y-99403275D01*
X152557524Y-99390667D01*
X152616949Y-99375500D01*
X157090651Y-99375500D01*
X157125583Y-99380521D01*
X157150827Y-99387934D01*
X157203573Y-99419230D01*
X158265292Y-100480949D01*
X158280711Y-100499736D01*
X158294024Y-100519661D01*
X158305481Y-100541096D01*
X158360596Y-100674158D01*
X158360604Y-100674176D01*
X158360613Y-100674191D01*
X158448211Y-100805290D01*
X158448212Y-100805291D01*
X158448217Y-100805297D01*
X158559701Y-100916781D01*
X158559707Y-100916786D01*
X158559711Y-100916789D01*
X158690814Y-101004390D01*
X158690827Y-101004397D01*
X158781736Y-101042052D01*
X158836503Y-101064737D01*
X158987169Y-101094706D01*
X158988636Y-101095091D01*
X158991155Y-101095500D01*
X159148844Y-101095500D01*
X159152964Y-101095500D01*
X159160814Y-101093118D01*
X159303497Y-101064737D01*
X159449179Y-101004394D01*
X159580289Y-100916789D01*
X159691789Y-100805289D01*
X159779394Y-100674179D01*
X159782504Y-100666672D01*
X159806055Y-100609814D01*
X159839737Y-100528497D01*
X159841231Y-100520989D01*
X159870499Y-100373846D01*
X159870500Y-100373844D01*
X159870500Y-100215975D01*
X159870074Y-100214020D01*
X159869007Y-100208653D01*
X159839737Y-100061503D01*
X159836633Y-100054010D01*
X159779397Y-99915827D01*
X159779390Y-99915814D01*
X159691789Y-99784711D01*
X159691786Y-99784707D01*
X159691781Y-99784701D01*
X159580297Y-99673217D01*
X159580291Y-99673212D01*
X159580290Y-99673211D01*
X159449191Y-99585613D01*
X159449190Y-99585612D01*
X159449185Y-99585609D01*
X159449172Y-99585602D01*
X159431067Y-99578103D01*
X159316096Y-99530481D01*
X159294661Y-99519024D01*
X159274736Y-99505711D01*
X159255949Y-99490292D01*
X158753087Y-98987430D01*
X158746724Y-98978930D01*
X158746511Y-98979121D01*
X158743555Y-98975809D01*
X158741288Y-98972190D01*
X158739344Y-98970834D01*
X158734524Y-98962633D01*
X158731934Y-98959172D01*
X158730189Y-98955976D01*
X158730509Y-98955800D01*
X158722729Y-98942560D01*
X158722061Y-98941493D01*
X158722051Y-98941498D01*
X158722009Y-98941411D01*
X158721402Y-98940441D01*
X158721248Y-98940067D01*
X158720503Y-98938236D01*
X158720467Y-98938171D01*
X158719194Y-98935077D01*
X158719185Y-98934998D01*
X158719179Y-98934982D01*
X158719183Y-98934980D01*
X158715869Y-98903505D01*
X158710862Y-98872134D01*
X158712236Y-98868996D01*
X158711878Y-98865591D01*
X158726154Y-98837227D01*
X158736181Y-98814338D01*
X158734811Y-98813314D01*
X158735700Y-98812125D01*
X158737861Y-98810505D01*
X158738899Y-98808136D01*
X158739153Y-98807835D01*
X158739415Y-98807525D01*
X158740553Y-98808487D01*
X158740660Y-98808407D01*
X158743291Y-98803181D01*
X158763740Y-98791108D01*
X158787087Y-98773610D01*
X158786513Y-98772265D01*
X158788846Y-98771269D01*
X158788857Y-98771265D01*
X158788867Y-98771259D01*
X158788987Y-98771209D01*
X158791206Y-98770522D01*
X158791609Y-98770221D01*
X158791611Y-98770221D01*
X158791793Y-98770153D01*
X158791856Y-98770321D01*
X158813464Y-98763639D01*
X158908497Y-98744737D01*
X158923688Y-98738444D01*
X158950412Y-98730750D01*
X158957778Y-98729500D01*
X158959187Y-98729560D01*
X158969351Y-98727538D01*
X158971084Y-98727245D01*
X158972450Y-98727406D01*
X158991813Y-98725500D01*
X159158183Y-98725500D01*
X159182370Y-98727882D01*
X159205862Y-98732554D01*
X159229130Y-98739612D01*
X159241502Y-98744737D01*
X159241509Y-98744738D01*
X159241511Y-98744739D01*
X159388528Y-98773982D01*
X159391252Y-98774704D01*
X159396155Y-98775500D01*
X159553844Y-98775500D01*
X159557965Y-98775500D01*
X159565818Y-98773117D01*
X159630152Y-98760320D01*
X159630153Y-98760320D01*
X159670740Y-98752247D01*
X159704123Y-98745607D01*
X159707922Y-98744992D01*
X159709347Y-98744663D01*
X159714086Y-98742421D01*
X159720871Y-98739611D01*
X159744148Y-98732551D01*
X159750969Y-98731194D01*
X159763518Y-98727812D01*
X159770841Y-98726760D01*
X159788474Y-98725500D01*
X159958183Y-98725500D01*
X159982370Y-98727882D01*
X160005862Y-98732554D01*
X160029130Y-98739612D01*
X160041502Y-98744737D01*
X160041509Y-98744738D01*
X160041511Y-98744739D01*
X160188528Y-98773982D01*
X160191252Y-98774704D01*
X160196155Y-98775500D01*
X160353844Y-98775500D01*
X160357965Y-98775500D01*
X160365818Y-98773117D01*
X160430152Y-98760320D01*
X160430153Y-98760320D01*
X160470740Y-98752247D01*
X160504123Y-98745607D01*
X160507922Y-98744992D01*
X160509349Y-98744662D01*
X160514100Y-98742416D01*
X160520872Y-98739611D01*
X160544134Y-98732554D01*
X160567627Y-98727881D01*
X160591815Y-98725500D01*
X165687472Y-98725500D01*
X165711656Y-98727881D01*
X165735165Y-98732557D01*
X165758411Y-98739609D01*
X165891498Y-98794735D01*
X165891503Y-98794737D01*
X165891506Y-98794737D01*
X165891507Y-98794738D01*
X165939459Y-98804276D01*
X166046153Y-98825499D01*
X166046156Y-98825500D01*
X166046158Y-98825500D01*
X166203844Y-98825500D01*
X166203845Y-98825499D01*
X166358497Y-98794737D01*
X166461082Y-98752244D01*
X166495271Y-98743519D01*
X166521427Y-98740707D01*
X166582132Y-98749434D01*
X166691498Y-98794735D01*
X166691503Y-98794737D01*
X166691506Y-98794737D01*
X166691507Y-98794738D01*
X166739459Y-98804276D01*
X166846153Y-98825499D01*
X166846156Y-98825500D01*
X166846158Y-98825500D01*
X167003844Y-98825500D01*
X167003845Y-98825499D01*
X167158497Y-98794737D01*
X167261082Y-98752244D01*
X167295271Y-98743519D01*
X167321427Y-98740707D01*
X167382132Y-98749434D01*
X167491498Y-98794735D01*
X167491503Y-98794737D01*
X167491506Y-98794737D01*
X167491507Y-98794738D01*
X167539459Y-98804276D01*
X167646153Y-98825499D01*
X167646156Y-98825500D01*
X167646158Y-98825500D01*
X167803844Y-98825500D01*
X167803845Y-98825499D01*
X167958497Y-98794737D01*
X168061082Y-98752244D01*
X168095271Y-98743519D01*
X168121427Y-98740707D01*
X168182132Y-98749434D01*
X168291498Y-98794735D01*
X168291503Y-98794737D01*
X168291506Y-98794737D01*
X168291507Y-98794738D01*
X168339459Y-98804276D01*
X168446153Y-98825499D01*
X168446156Y-98825500D01*
X168446158Y-98825500D01*
X168603844Y-98825500D01*
X168603845Y-98825499D01*
X168758497Y-98794737D01*
X168877548Y-98745425D01*
X168891586Y-98739610D01*
X168914834Y-98732557D01*
X168938342Y-98727881D01*
X168962528Y-98725500D01*
X178853564Y-98725500D01*
X178888500Y-98730523D01*
X178911716Y-98737340D01*
X178959213Y-98763685D01*
X178959985Y-98764372D01*
X178973405Y-98778339D01*
X179041668Y-98861517D01*
X179333480Y-99153329D01*
X179333557Y-99153398D01*
X179334090Y-99153830D01*
X179414887Y-99220138D01*
X179652526Y-99415163D01*
X179788044Y-99505713D01*
X179995687Y-99644456D01*
X179996350Y-99644824D01*
X179997132Y-99645228D01*
X180354360Y-99836171D01*
X180354359Y-99836171D01*
X180358455Y-99838360D01*
X180359660Y-99839004D01*
X180359661Y-99839004D01*
X180359665Y-99839006D01*
X180359668Y-99839008D01*
X180359670Y-99839009D01*
X180363136Y-99840861D01*
X180368108Y-99842504D01*
X180740966Y-99996947D01*
X181135910Y-100116751D01*
X181135916Y-100116752D01*
X181135919Y-100116753D01*
X181135926Y-100116755D01*
X181135933Y-100116757D01*
X181136482Y-100116886D01*
X181137758Y-100117120D01*
X181530222Y-100195185D01*
X181540694Y-100197268D01*
X181951422Y-100237721D01*
X181951425Y-100237721D01*
X182364133Y-100237721D01*
X182364136Y-100237721D01*
X182774864Y-100197268D01*
X182884299Y-100175500D01*
X183178974Y-100116886D01*
X183179919Y-100116698D01*
X183181374Y-100116279D01*
X183209911Y-100108496D01*
X183211633Y-100107232D01*
X183217872Y-100105155D01*
X183574592Y-99996947D01*
X183955890Y-99839008D01*
X184319872Y-99644455D01*
X184663032Y-99415163D01*
X184982065Y-99153340D01*
X185273898Y-98861507D01*
X185535721Y-98542474D01*
X185765013Y-98199314D01*
X185959566Y-97835332D01*
X186117505Y-97454034D01*
X186237309Y-97059090D01*
X186237311Y-97059080D01*
X186237314Y-97059069D01*
X186317826Y-96654305D01*
X186358279Y-96243574D01*
X186358279Y-95830867D01*
X186349925Y-95746051D01*
X186317826Y-95420136D01*
X186295124Y-95306006D01*
X186263328Y-95146153D01*
X186237678Y-95017200D01*
X186237678Y-95017199D01*
X186237313Y-95015371D01*
X186237311Y-95015361D01*
X186237310Y-95015358D01*
X186237309Y-95015352D01*
X186117505Y-94620408D01*
X185959566Y-94239110D01*
X185765013Y-93875128D01*
X185535721Y-93531968D01*
X185274388Y-93213532D01*
X185274388Y-93213531D01*
X185273888Y-93212923D01*
X184982075Y-92921110D01*
X184887717Y-92843673D01*
X184664342Y-92660354D01*
X184663355Y-92659521D01*
X184663033Y-92659280D01*
X184663027Y-92659276D01*
X184448311Y-92515807D01*
X184319886Y-92429996D01*
X184319878Y-92429991D01*
X184319872Y-92429987D01*
X184319867Y-92429984D01*
X184319860Y-92429980D01*
X184319851Y-92429975D01*
X184319844Y-92429971D01*
X184047494Y-92284397D01*
X183955897Y-92235437D01*
X183955892Y-92235435D01*
X183955887Y-92235433D01*
X183955792Y-92235388D01*
X183955213Y-92235153D01*
X183574594Y-92077495D01*
X183179625Y-91957683D01*
X183179623Y-91957683D01*
X182774868Y-91877174D01*
X182774852Y-91877171D01*
X182465520Y-91846706D01*
X182465520Y-91846705D01*
X182387256Y-91838998D01*
X182364136Y-91836721D01*
X182364133Y-91836721D01*
X181951425Y-91836721D01*
X181951422Y-91836721D01*
X181931568Y-91838676D01*
X181857744Y-91845946D01*
X181857745Y-91845947D01*
X181540704Y-91877171D01*
X181540688Y-91877174D01*
X181135933Y-91957683D01*
X181135931Y-91957683D01*
X180740962Y-92077495D01*
X180360343Y-92235153D01*
X180359768Y-92235387D01*
X180359654Y-92235440D01*
X179995706Y-92429975D01*
X179995687Y-92429986D01*
X179995681Y-92429989D01*
X179652529Y-92659276D01*
X179652510Y-92659290D01*
X179652507Y-92659292D01*
X179427052Y-92844320D01*
X179386697Y-92877439D01*
X179386688Y-92877446D01*
X179377422Y-92885049D01*
X179347243Y-92903320D01*
X179320613Y-92914631D01*
X179272136Y-92924500D01*
X174645259Y-92924500D01*
X174610320Y-92919476D01*
X174597002Y-92915565D01*
X174582003Y-92905925D01*
X174564900Y-92900903D01*
X174553226Y-92887430D01*
X174538225Y-92877789D01*
X174530818Y-92861569D01*
X174519146Y-92848098D01*
X174509203Y-92814234D01*
X174507906Y-92805212D01*
X174510309Y-92757642D01*
X174517683Y-92727995D01*
X174520500Y-92686454D01*
X174520500Y-88236046D01*
X174517683Y-88194505D01*
X174516201Y-88188546D01*
X174505800Y-88146721D01*
X174505800Y-88146717D01*
X174502244Y-88111623D01*
X174502825Y-88097746D01*
X174508560Y-88080862D01*
X174508726Y-88076914D01*
X174510998Y-88073683D01*
X174525294Y-88031594D01*
X174579961Y-87988087D01*
X174588418Y-87984646D01*
X174635157Y-87975500D01*
X179239484Y-87975500D01*
X179274419Y-87980523D01*
X179302182Y-87988675D01*
X179345909Y-88011796D01*
X179495422Y-88134498D01*
X179639741Y-88252938D01*
X179982908Y-88482235D01*
X179983571Y-88482603D01*
X179984353Y-88483007D01*
X180341581Y-88673950D01*
X180341580Y-88673950D01*
X180345676Y-88676139D01*
X180346881Y-88676783D01*
X180346882Y-88676783D01*
X180346886Y-88676785D01*
X180346889Y-88676787D01*
X180346891Y-88676788D01*
X180350357Y-88678640D01*
X180355329Y-88680283D01*
X180728187Y-88834726D01*
X181123131Y-88954530D01*
X181123137Y-88954531D01*
X181123140Y-88954532D01*
X181123147Y-88954534D01*
X181123154Y-88954536D01*
X181123703Y-88954665D01*
X181124979Y-88954899D01*
X181520070Y-89033487D01*
X181520071Y-89033487D01*
X181521318Y-89033734D01*
X181527915Y-89035047D01*
X181938643Y-89075500D01*
X181938646Y-89075500D01*
X182351354Y-89075500D01*
X182351357Y-89075500D01*
X182762085Y-89035047D01*
X182891071Y-89009390D01*
X183166848Y-88954535D01*
X183166859Y-88954532D01*
X183166859Y-88954531D01*
X183167145Y-88954475D01*
X183168595Y-88954058D01*
X183197132Y-88946275D01*
X183198854Y-88945011D01*
X183205093Y-88942934D01*
X183561813Y-88834726D01*
X183943111Y-88676787D01*
X184307093Y-88482234D01*
X184650253Y-88252942D01*
X184969286Y-87991119D01*
X185261119Y-87699286D01*
X185522942Y-87380253D01*
X185752234Y-87037093D01*
X185946787Y-86673111D01*
X186049116Y-86426063D01*
X186050482Y-86424368D01*
X186050789Y-86422208D01*
X186067126Y-86395710D01*
X186072776Y-86388699D01*
X186087413Y-86378537D01*
X186092955Y-86371661D01*
X186107068Y-86364893D01*
X186130170Y-86348856D01*
X186199996Y-86346367D01*
X186260082Y-86382024D01*
X186289995Y-86437984D01*
X186291174Y-86442971D01*
X186292148Y-86451327D01*
X186293206Y-86453633D01*
X186292772Y-86456684D01*
X186294500Y-86471500D01*
X186294500Y-87864322D01*
X186289475Y-87899266D01*
X186285070Y-87914264D01*
X186247301Y-87973030D01*
X186241748Y-87977842D01*
X186184734Y-88005749D01*
X186061513Y-88030259D01*
X186061504Y-88030262D01*
X186061498Y-88030264D01*
X186061493Y-88030265D01*
X186061475Y-88030272D01*
X185915833Y-88090598D01*
X185915824Y-88090603D01*
X185915807Y-88090613D01*
X185784708Y-88178211D01*
X185784707Y-88178212D01*
X185784701Y-88178217D01*
X185673217Y-88289701D01*
X185673212Y-88289707D01*
X185673211Y-88289708D01*
X185585613Y-88420807D01*
X185585603Y-88420824D01*
X185585598Y-88420833D01*
X185525264Y-88566496D01*
X185525257Y-88566527D01*
X185494500Y-88721150D01*
X185494500Y-88878845D01*
X185494499Y-88878848D01*
X185525257Y-89033471D01*
X185525264Y-89033502D01*
X185585598Y-89179165D01*
X185585603Y-89179174D01*
X185585613Y-89179191D01*
X185673211Y-89310290D01*
X185673212Y-89310291D01*
X185673217Y-89310297D01*
X185784701Y-89421781D01*
X185784707Y-89421786D01*
X185784711Y-89421789D01*
X185915814Y-89509390D01*
X185915827Y-89509397D01*
X186061498Y-89569735D01*
X186061503Y-89569737D01*
X186107082Y-89578803D01*
X186171949Y-89591706D01*
X186171981Y-89591711D01*
X186171987Y-89591713D01*
X186177205Y-89592751D01*
X186210480Y-89604490D01*
X186224337Y-89611738D01*
X186237174Y-89624123D01*
X186239115Y-89625139D01*
X186240197Y-89627040D01*
X186274613Y-89660245D01*
X186278248Y-89666627D01*
X186294500Y-89727997D01*
X186294500Y-91052234D01*
X186294499Y-91052237D01*
X186294500Y-91052239D01*
X186289476Y-91087173D01*
X186280135Y-91118981D01*
X186264262Y-91152931D01*
X186235612Y-91195809D01*
X186235597Y-91195836D01*
X186175264Y-91341496D01*
X186175257Y-91341527D01*
X186144500Y-91496150D01*
X186144500Y-91496153D01*
X186144500Y-91653846D01*
X186144500Y-91653848D01*
X186144499Y-91653848D01*
X186175257Y-91808471D01*
X186175264Y-91808502D01*
X186235598Y-91954165D01*
X186235602Y-91954172D01*
X186235608Y-91954184D01*
X186235613Y-91954191D01*
X186323211Y-92085290D01*
X186323212Y-92085291D01*
X186323217Y-92085297D01*
X186434701Y-92196781D01*
X186434707Y-92196786D01*
X186434711Y-92196789D01*
X186565814Y-92284390D01*
X186565827Y-92284397D01*
X186711498Y-92344735D01*
X186711503Y-92344737D01*
X186866153Y-92375499D01*
X186866156Y-92375500D01*
X186866158Y-92375500D01*
X187023844Y-92375500D01*
X187023845Y-92375499D01*
X187178497Y-92344737D01*
X187322011Y-92285292D01*
X187324172Y-92284397D01*
X187324172Y-92284396D01*
X187324179Y-92284394D01*
X187455289Y-92196789D01*
X187566789Y-92085289D01*
X187654394Y-91954179D01*
X187691357Y-91864939D01*
X187696545Y-91853970D01*
X187702269Y-91843261D01*
X187708519Y-91832836D01*
X187710084Y-91830495D01*
X187710085Y-91830491D01*
X187710087Y-91830489D01*
X187765729Y-91696155D01*
X187766658Y-91693913D01*
X187786528Y-91594024D01*
X187795500Y-91548920D01*
X187795500Y-78376079D01*
X187795500Y-78376076D01*
X187766717Y-78231383D01*
X187766419Y-78229885D01*
X187764338Y-78225487D01*
X187710087Y-78094511D01*
X187710080Y-78094498D01*
X187679964Y-78049426D01*
X187627954Y-77971587D01*
X187276075Y-77619708D01*
X186818656Y-77162288D01*
X186797507Y-77134038D01*
X186792085Y-77124108D01*
X186777232Y-77055838D01*
X186801646Y-76990373D01*
X186857576Y-76948501D01*
X186861455Y-76947054D01*
X186864791Y-76945811D01*
X186908105Y-76938000D01*
X187888357Y-76938000D01*
X187892782Y-76938079D01*
G37*
%TD.AperFunction*%
%TA.AperFunction,Conductor*%
G36*
X185499872Y-78005521D02*
G01*
X185525116Y-78012934D01*
X185577862Y-78044230D01*
X186245573Y-78711940D01*
X186266723Y-78740192D01*
X186279331Y-78763281D01*
X186294500Y-78822710D01*
X186294500Y-83275122D01*
X186293888Y-83277203D01*
X186294429Y-83279303D01*
X186289476Y-83310061D01*
X186288767Y-83312474D01*
X186286941Y-83318694D01*
X186277302Y-83333691D01*
X186274815Y-83342161D01*
X186264368Y-83353814D01*
X186249164Y-83377471D01*
X186185607Y-83406493D01*
X186116449Y-83396546D01*
X186067388Y-83356282D01*
X186064391Y-83352126D01*
X186060307Y-83344803D01*
X186058451Y-83343082D01*
X186057682Y-83340097D01*
X186050407Y-83327050D01*
X186036283Y-83292952D01*
X185993098Y-83188695D01*
X185946787Y-83076889D01*
X185911845Y-83011518D01*
X185753022Y-82714381D01*
X185752608Y-82713581D01*
X185752235Y-82712908D01*
X185572028Y-82443210D01*
X185522942Y-82369747D01*
X185268851Y-82060135D01*
X185261609Y-82051311D01*
X185261609Y-82051310D01*
X185261109Y-82050702D01*
X184969296Y-81758889D01*
X184897796Y-81700211D01*
X184651563Y-81498133D01*
X184650576Y-81497300D01*
X184650259Y-81497062D01*
X184650254Y-81497059D01*
X184650248Y-81497055D01*
X184399374Y-81329426D01*
X184307107Y-81267775D01*
X184307099Y-81267770D01*
X184307093Y-81267766D01*
X184307088Y-81267763D01*
X184307081Y-81267759D01*
X184307072Y-81267754D01*
X184307065Y-81267750D01*
X184081940Y-81147418D01*
X183943118Y-81073216D01*
X183943113Y-81073214D01*
X183943108Y-81073212D01*
X183943013Y-81073167D01*
X183942434Y-81072932D01*
X183561815Y-80915274D01*
X183166845Y-80795462D01*
X182762089Y-80714953D01*
X182762073Y-80714950D01*
X182446249Y-80683846D01*
X182445020Y-80683725D01*
X182351357Y-80674500D01*
X182351354Y-80674500D01*
X181938646Y-80674500D01*
X181938643Y-80674500D01*
X181918789Y-80676455D01*
X181844965Y-80683725D01*
X181844966Y-80683726D01*
X181527925Y-80714950D01*
X181527909Y-80714953D01*
X181123154Y-80795462D01*
X181123152Y-80795462D01*
X180728183Y-80915274D01*
X180347564Y-81072932D01*
X180346989Y-81073166D01*
X180346875Y-81073219D01*
X179982927Y-81267754D01*
X179982908Y-81267765D01*
X179982902Y-81267768D01*
X179639750Y-81497055D01*
X179639731Y-81497069D01*
X179639728Y-81497071D01*
X179320702Y-81758889D01*
X179054025Y-82025566D01*
X179054024Y-82025569D01*
X179054020Y-82025571D01*
X179054019Y-82025573D01*
X179029813Y-82043694D01*
X179025770Y-82046721D01*
X179002683Y-82059329D01*
X178943251Y-82074500D01*
X177447596Y-82074500D01*
X177412661Y-82069477D01*
X177380852Y-82060137D01*
X177346898Y-82044263D01*
X177229185Y-81965609D01*
X177229172Y-81965602D01*
X177229165Y-81965598D01*
X177083502Y-81905264D01*
X177083471Y-81905257D01*
X176928847Y-81874500D01*
X176928845Y-81874500D01*
X176928842Y-81874500D01*
X176771158Y-81874500D01*
X176771155Y-81874500D01*
X176771153Y-81874500D01*
X176616527Y-81905257D01*
X176616501Y-81905263D01*
X176616499Y-81905263D01*
X176616498Y-81905264D01*
X176573018Y-81923274D01*
X176513922Y-81947752D01*
X176479726Y-81956479D01*
X176453573Y-81959291D01*
X176392865Y-81950563D01*
X176283502Y-81905264D01*
X176283471Y-81905257D01*
X176128847Y-81874500D01*
X176128845Y-81874500D01*
X176128842Y-81874500D01*
X175971158Y-81874500D01*
X175971155Y-81874500D01*
X175971153Y-81874500D01*
X175816527Y-81905257D01*
X175816501Y-81905263D01*
X175816499Y-81905263D01*
X175816498Y-81905264D01*
X175773018Y-81923274D01*
X175713922Y-81947752D01*
X175679726Y-81956479D01*
X175653573Y-81959291D01*
X175592865Y-81950563D01*
X175483502Y-81905264D01*
X175483471Y-81905257D01*
X175328847Y-81874500D01*
X175328845Y-81874500D01*
X175328842Y-81874500D01*
X175171158Y-81874500D01*
X175171155Y-81874500D01*
X175171153Y-81874500D01*
X175016527Y-81905257D01*
X175016496Y-81905264D01*
X174870833Y-81965598D01*
X174870824Y-81965603D01*
X174870797Y-81965619D01*
X174753953Y-82043691D01*
X174753952Y-82043694D01*
X174722115Y-82058927D01*
X174690478Y-82068834D01*
X174653422Y-82074500D01*
X168587528Y-82074500D01*
X168563339Y-82072117D01*
X168539839Y-82067443D01*
X168516582Y-82060387D01*
X168383502Y-82005264D01*
X168383471Y-82005257D01*
X168228847Y-81974500D01*
X168228845Y-81974500D01*
X168228842Y-81974500D01*
X168071158Y-81974500D01*
X168071155Y-81974500D01*
X168071153Y-81974500D01*
X167916527Y-82005257D01*
X167916499Y-82005263D01*
X167813923Y-82047751D01*
X167782744Y-82056117D01*
X167781205Y-82056320D01*
X167767343Y-82057811D01*
X167761092Y-82058983D01*
X167757776Y-82059422D01*
X167726397Y-82054551D01*
X167694815Y-82051368D01*
X167694052Y-82051055D01*
X167582227Y-82004736D01*
X167552537Y-81987258D01*
X167545870Y-81981960D01*
X167545864Y-81981956D01*
X167543897Y-81980393D01*
X167503657Y-81923274D01*
X167498469Y-81864549D01*
X167498925Y-81861570D01*
X167519945Y-81809175D01*
X167521737Y-81806618D01*
X167535589Y-81790116D01*
X167889114Y-81436593D01*
X167965775Y-81321861D01*
X167967864Y-81316819D01*
X167971404Y-81308274D01*
X167979985Y-81287555D01*
X168018578Y-81194382D01*
X168018580Y-81194378D01*
X168027389Y-81150090D01*
X168045500Y-81059046D01*
X168045500Y-81042528D01*
X168047882Y-81018340D01*
X168052557Y-80994834D01*
X168059609Y-80971588D01*
X168113054Y-80842557D01*
X168114221Y-80840001D01*
X168114730Y-80838510D01*
X168114735Y-80838501D01*
X168114737Y-80838497D01*
X168139395Y-80714533D01*
X168145500Y-80683844D01*
X168145500Y-80525973D01*
X168145065Y-80523972D01*
X168115397Y-80374824D01*
X168114994Y-80372467D01*
X168114738Y-80371508D01*
X168114737Y-80371506D01*
X168114737Y-80371503D01*
X168114735Y-80371498D01*
X168054397Y-80225827D01*
X168054390Y-80225814D01*
X167966789Y-80094711D01*
X167966786Y-80094707D01*
X167966781Y-80094701D01*
X167855297Y-79983217D01*
X167855291Y-79983212D01*
X167855290Y-79983211D01*
X167724191Y-79895613D01*
X167724190Y-79895612D01*
X167724185Y-79895609D01*
X167724172Y-79895602D01*
X167724165Y-79895598D01*
X167578502Y-79835264D01*
X167578471Y-79835257D01*
X167423847Y-79804500D01*
X167423845Y-79804500D01*
X167423842Y-79804500D01*
X167266158Y-79804500D01*
X167266155Y-79804500D01*
X167266153Y-79804500D01*
X167111527Y-79835257D01*
X167111496Y-79835264D01*
X166965833Y-79895598D01*
X166965824Y-79895603D01*
X166965807Y-79895613D01*
X166834708Y-79983211D01*
X166834707Y-79983212D01*
X166834701Y-79983217D01*
X166723217Y-80094701D01*
X166723212Y-80094707D01*
X166723211Y-80094708D01*
X166635613Y-80225807D01*
X166635603Y-80225824D01*
X166635598Y-80225833D01*
X166575264Y-80371496D01*
X166575257Y-80371527D01*
X166544500Y-80526150D01*
X166544500Y-80526153D01*
X166544500Y-80526158D01*
X166544500Y-80683842D01*
X166544500Y-80683844D01*
X166544499Y-80683844D01*
X166548958Y-80706256D01*
X166549480Y-80714533D01*
X166548462Y-80719026D01*
X166549233Y-80733385D01*
X166547364Y-80754281D01*
X166527567Y-80811206D01*
X166523883Y-80816827D01*
X166507854Y-80836536D01*
X165943819Y-81400573D01*
X165915568Y-81421722D01*
X165892480Y-81434330D01*
X165833050Y-81449500D01*
X161024349Y-81449500D01*
X160989413Y-81444477D01*
X160964171Y-81437065D01*
X160911426Y-81405769D01*
X159899706Y-80394049D01*
X159884288Y-80375263D01*
X159870972Y-80355333D01*
X159859522Y-80333914D01*
X159804397Y-80200827D01*
X159804390Y-80200814D01*
X159716789Y-80069711D01*
X159716786Y-80069707D01*
X159716781Y-80069701D01*
X159605297Y-79958217D01*
X159605291Y-79958212D01*
X159605290Y-79958211D01*
X159474191Y-79870613D01*
X159474190Y-79870612D01*
X159474185Y-79870609D01*
X159474172Y-79870602D01*
X159474165Y-79870598D01*
X159328502Y-79810264D01*
X159328471Y-79810257D01*
X159173847Y-79779500D01*
X159173845Y-79779500D01*
X159173842Y-79779500D01*
X159016158Y-79779500D01*
X159016155Y-79779500D01*
X159016153Y-79779500D01*
X158861527Y-79810257D01*
X158861496Y-79810264D01*
X158728417Y-79865387D01*
X158705161Y-79872442D01*
X158681668Y-79877116D01*
X158657472Y-79879500D01*
X143609059Y-79879500D01*
X143574124Y-79874477D01*
X143563270Y-79871290D01*
X143504492Y-79833516D01*
X143475467Y-79769960D01*
X143485407Y-79700811D01*
X143488597Y-79693824D01*
X143513706Y-79657660D01*
X145121948Y-78049418D01*
X145150193Y-78028275D01*
X145173285Y-78015667D01*
X145232710Y-78000500D01*
X185464940Y-78000500D01*
X185499872Y-78005521D01*
G37*
%TD.AperFunction*%
%TD*%
%TA.AperFunction,Conductor*%
%TO.N,GND*%
G36*
X108156505Y-76957685D02*
G01*
X108202260Y-77010489D01*
X108212204Y-77079647D01*
X108183179Y-77143203D01*
X108132799Y-77178182D01*
X108057671Y-77206202D01*
X108057664Y-77206206D01*
X107942455Y-77292452D01*
X107942452Y-77292455D01*
X107856206Y-77407664D01*
X107856202Y-77407671D01*
X107805908Y-77542517D01*
X107799501Y-77602116D01*
X107799500Y-77602135D01*
X107799500Y-79397870D01*
X107799501Y-79397876D01*
X107805908Y-79457483D01*
X107856202Y-79592328D01*
X107856206Y-79592335D01*
X107942452Y-79707544D01*
X107942455Y-79707547D01*
X108057664Y-79793793D01*
X108057671Y-79793797D01*
X108071404Y-79798919D01*
X108192517Y-79844091D01*
X108252127Y-79850500D01*
X108380500Y-79850499D01*
X108447539Y-79870183D01*
X108493294Y-79922987D01*
X108504500Y-79974499D01*
X108504500Y-81919069D01*
X108524593Y-82020081D01*
X108529499Y-82044743D01*
X108578534Y-82163125D01*
X108649726Y-82269673D01*
X108649727Y-82269674D01*
X109478819Y-83098765D01*
X109512304Y-83160088D01*
X109507320Y-83229779D01*
X109465448Y-83285713D01*
X109399984Y-83310130D01*
X109362631Y-83307125D01*
X109357481Y-83305908D01*
X109297883Y-83299501D01*
X109297881Y-83299500D01*
X109297873Y-83299500D01*
X109297864Y-83299500D01*
X107502129Y-83299500D01*
X107502123Y-83299501D01*
X107442516Y-83305908D01*
X107307671Y-83356202D01*
X107307664Y-83356206D01*
X107192455Y-83442452D01*
X107192452Y-83442455D01*
X107106206Y-83557664D01*
X107106202Y-83557671D01*
X107055908Y-83692517D01*
X107049501Y-83752116D01*
X107049501Y-83752123D01*
X107049500Y-83752135D01*
X107049500Y-85547870D01*
X107049501Y-85547876D01*
X107055908Y-85607483D01*
X107106202Y-85742328D01*
X107106206Y-85742335D01*
X107192452Y-85857544D01*
X107192455Y-85857547D01*
X107307664Y-85943793D01*
X107307671Y-85943797D01*
X107439082Y-85992810D01*
X107495016Y-86034681D01*
X107519433Y-86100145D01*
X107504582Y-86168418D01*
X107483431Y-86196673D01*
X107369889Y-86310215D01*
X107244951Y-86482179D01*
X107148444Y-86671585D01*
X107082753Y-86873760D01*
X107049500Y-87083713D01*
X107049500Y-87296286D01*
X107082753Y-87506239D01*
X107082753Y-87506241D01*
X107082754Y-87506243D01*
X107145547Y-87699500D01*
X107148444Y-87708414D01*
X107244951Y-87897820D01*
X107369890Y-88069786D01*
X107520213Y-88220109D01*
X107692179Y-88345048D01*
X107692181Y-88345049D01*
X107692184Y-88345051D01*
X107881588Y-88441557D01*
X108083757Y-88507246D01*
X108293713Y-88540500D01*
X108293714Y-88540500D01*
X108506286Y-88540500D01*
X108506287Y-88540500D01*
X108672020Y-88514250D01*
X108741311Y-88523204D01*
X108779097Y-88549042D01*
X111208181Y-90978126D01*
X111241666Y-91039449D01*
X111244500Y-91065807D01*
X111244500Y-92200500D01*
X111224815Y-92267539D01*
X111172011Y-92313294D01*
X111120500Y-92324500D01*
X111066155Y-92324500D01*
X110911510Y-92355261D01*
X110911498Y-92355264D01*
X110765827Y-92415602D01*
X110765814Y-92415609D01*
X110634711Y-92503210D01*
X110634707Y-92503213D01*
X110523213Y-92614707D01*
X110523210Y-92614711D01*
X110435609Y-92745814D01*
X110435602Y-92745827D01*
X110375264Y-92891498D01*
X110375261Y-92891510D01*
X110344500Y-93046153D01*
X110344500Y-93203846D01*
X110375261Y-93358489D01*
X110375264Y-93358501D01*
X110435602Y-93504172D01*
X110435609Y-93504185D01*
X110523210Y-93635288D01*
X110523213Y-93635292D01*
X110634707Y-93746786D01*
X110634711Y-93746789D01*
X110765814Y-93834390D01*
X110765826Y-93834397D01*
X110863650Y-93874916D01*
X110911503Y-93894737D01*
X110911505Y-93894737D01*
X110915915Y-93896564D01*
X110970319Y-93940404D01*
X110992384Y-94006698D01*
X110983025Y-94058576D01*
X110975263Y-94077315D01*
X110975261Y-94077322D01*
X110944500Y-94231965D01*
X110944500Y-94389658D01*
X110975261Y-94544301D01*
X110975264Y-94544313D01*
X111035602Y-94689984D01*
X111035609Y-94689997D01*
X111123210Y-94821100D01*
X111123213Y-94821104D01*
X111141280Y-94839171D01*
X111174765Y-94900494D01*
X111169781Y-94970186D01*
X111141280Y-95014533D01*
X107394726Y-98761087D01*
X107332495Y-98854225D01*
X107323533Y-98867637D01*
X107274499Y-98986016D01*
X107274497Y-98986022D01*
X107249500Y-99111689D01*
X107249500Y-103164071D01*
X107270878Y-103271541D01*
X107274498Y-103289739D01*
X107274500Y-103289746D01*
X107317892Y-103394505D01*
X107323535Y-103408127D01*
X107384588Y-103499500D01*
X107394726Y-103514673D01*
X107394727Y-103514674D01*
X108528633Y-104648579D01*
X108562118Y-104709902D01*
X108562570Y-104760450D01*
X108555343Y-104796786D01*
X108549500Y-104826159D01*
X108549500Y-104983846D01*
X108580261Y-105138489D01*
X108580264Y-105138501D01*
X108640602Y-105284172D01*
X108640609Y-105284185D01*
X108728210Y-105415288D01*
X108728213Y-105415292D01*
X108839707Y-105526786D01*
X108839711Y-105526789D01*
X108970814Y-105614390D01*
X108970827Y-105614397D01*
X109116498Y-105674735D01*
X109116503Y-105674737D01*
X109271153Y-105705499D01*
X109271156Y-105705500D01*
X109271158Y-105705500D01*
X109428844Y-105705500D01*
X109428845Y-105705499D01*
X109583497Y-105674737D01*
X109729179Y-105614394D01*
X109860289Y-105526789D01*
X109971789Y-105415289D01*
X110059394Y-105284179D01*
X110119737Y-105138497D01*
X110150500Y-104983842D01*
X110150500Y-104890603D01*
X110170185Y-104823564D01*
X110222989Y-104777809D01*
X110292147Y-104767865D01*
X110343390Y-104787500D01*
X110393189Y-104820775D01*
X110393190Y-104820775D01*
X110393191Y-104820776D01*
X110451041Y-104844738D01*
X110520672Y-104873580D01*
X110520676Y-104873580D01*
X110520677Y-104873581D01*
X110656003Y-104900500D01*
X110656006Y-104900500D01*
X110656007Y-104900500D01*
X123889510Y-104900500D01*
X123956549Y-104920185D01*
X124002304Y-104972989D01*
X124012248Y-105042147D01*
X124004071Y-105071952D01*
X123975264Y-105141498D01*
X123975261Y-105141510D01*
X123944500Y-105296153D01*
X123944500Y-105453846D01*
X123975261Y-105608489D01*
X123975264Y-105608501D01*
X124035602Y-105754172D01*
X124035609Y-105754185D01*
X124123210Y-105885288D01*
X124123213Y-105885292D01*
X124234707Y-105996786D01*
X124234711Y-105996789D01*
X124365814Y-106084390D01*
X124365827Y-106084397D01*
X124462646Y-106124500D01*
X124511503Y-106144737D01*
X124666153Y-106175499D01*
X124666156Y-106175500D01*
X124770500Y-106175500D01*
X124837539Y-106195185D01*
X124883294Y-106247989D01*
X124894500Y-106299500D01*
X124894500Y-112558918D01*
X124894500Y-112558920D01*
X124894499Y-112558920D01*
X124923340Y-112703907D01*
X124923343Y-112703917D01*
X124979913Y-112840490D01*
X124979914Y-112840491D01*
X124979916Y-112840495D01*
X124994007Y-112861583D01*
X124994008Y-112861585D01*
X125062051Y-112963420D01*
X125062052Y-112963421D01*
X126217049Y-114118416D01*
X126321584Y-114222951D01*
X126321587Y-114222953D01*
X126321588Y-114222954D01*
X126444503Y-114305083D01*
X126444506Y-114305085D01*
X126494665Y-114325861D01*
X126501080Y-114328518D01*
X126581088Y-114361659D01*
X126697241Y-114384763D01*
X126720380Y-114389365D01*
X126726081Y-114390500D01*
X126726082Y-114390500D01*
X126726083Y-114390500D01*
X126873918Y-114390500D01*
X130257770Y-114390500D01*
X130324809Y-114410185D01*
X130345451Y-114426819D01*
X130577048Y-114658415D01*
X130577049Y-114658416D01*
X130681584Y-114762951D01*
X130681585Y-114762952D01*
X130804498Y-114845080D01*
X130804511Y-114845087D01*
X130941082Y-114901656D01*
X130941087Y-114901658D01*
X130941091Y-114901658D01*
X130941092Y-114901659D01*
X131086079Y-114930500D01*
X131086082Y-114930500D01*
X135110708Y-114930500D01*
X135177747Y-114950185D01*
X135223502Y-115002989D01*
X135233446Y-115072147D01*
X135230483Y-115086592D01*
X135219452Y-115127760D01*
X135189500Y-115355258D01*
X135189500Y-115584741D01*
X135198211Y-115650901D01*
X135219452Y-115812238D01*
X135240034Y-115889051D01*
X135278842Y-116033887D01*
X135366650Y-116245876D01*
X135366657Y-116245890D01*
X135481392Y-116444617D01*
X135621081Y-116626661D01*
X135621089Y-116626670D01*
X135719738Y-116725319D01*
X135753223Y-116786642D01*
X135748239Y-116856334D01*
X135706367Y-116912267D01*
X135640903Y-116936684D01*
X135632057Y-116937000D01*
X107899428Y-116937000D01*
X107890582Y-116936684D01*
X107868622Y-116935113D01*
X107690442Y-116922369D01*
X107672931Y-116919851D01*
X107481209Y-116878145D01*
X107464234Y-116873161D01*
X107280394Y-116804593D01*
X107264300Y-116797243D01*
X107092091Y-116703209D01*
X107077208Y-116693644D01*
X106920135Y-116576061D01*
X106906764Y-116564475D01*
X106768024Y-116425735D01*
X106756438Y-116412364D01*
X106638855Y-116255291D01*
X106629290Y-116240408D01*
X106535253Y-116068194D01*
X106527909Y-116052111D01*
X106459336Y-115868260D01*
X106454354Y-115851290D01*
X106445859Y-115812240D01*
X106412647Y-115659563D01*
X106410130Y-115642056D01*
X106409345Y-115631087D01*
X106395816Y-115441918D01*
X106395500Y-115433072D01*
X106395500Y-107327135D01*
X108249500Y-107327135D01*
X108249500Y-109122870D01*
X108249501Y-109122876D01*
X108255908Y-109182483D01*
X108306202Y-109317328D01*
X108306206Y-109317335D01*
X108392452Y-109432544D01*
X108392455Y-109432547D01*
X108507664Y-109518793D01*
X108507671Y-109518797D01*
X108639082Y-109567810D01*
X108695016Y-109609681D01*
X108719433Y-109675145D01*
X108704582Y-109743418D01*
X108683431Y-109771673D01*
X108569889Y-109885215D01*
X108444951Y-110057179D01*
X108348444Y-110246585D01*
X108282753Y-110448760D01*
X108249500Y-110658713D01*
X108249500Y-110871287D01*
X108282754Y-111081243D01*
X108341882Y-111263220D01*
X108348444Y-111283414D01*
X108444951Y-111472820D01*
X108569890Y-111644786D01*
X108720213Y-111795109D01*
X108892179Y-111920048D01*
X108892181Y-111920049D01*
X108892184Y-111920051D01*
X109081588Y-112016557D01*
X109283757Y-112082246D01*
X109493713Y-112115500D01*
X109493714Y-112115500D01*
X109706286Y-112115500D01*
X109706287Y-112115500D01*
X109916243Y-112082246D01*
X110118412Y-112016557D01*
X110307816Y-111920051D01*
X110329789Y-111904086D01*
X110479786Y-111795109D01*
X110479788Y-111795106D01*
X110479792Y-111795104D01*
X110630104Y-111644792D01*
X110630106Y-111644788D01*
X110630109Y-111644786D01*
X110755048Y-111472820D01*
X110755047Y-111472820D01*
X110755051Y-111472816D01*
X110851557Y-111283412D01*
X110917246Y-111081243D01*
X110950500Y-110871287D01*
X110950500Y-110658713D01*
X110917246Y-110448757D01*
X110851557Y-110246588D01*
X110755051Y-110057184D01*
X110755049Y-110057181D01*
X110755048Y-110057179D01*
X110630109Y-109885213D01*
X110516569Y-109771673D01*
X110483084Y-109710350D01*
X110488068Y-109640658D01*
X110529940Y-109584725D01*
X110560915Y-109567810D01*
X110692331Y-109518796D01*
X110807546Y-109432546D01*
X110893796Y-109317331D01*
X110944091Y-109182483D01*
X110950500Y-109122873D01*
X110950499Y-107327128D01*
X110944091Y-107267517D01*
X110903426Y-107158489D01*
X110893797Y-107132671D01*
X110893793Y-107132664D01*
X110807547Y-107017455D01*
X110807544Y-107017452D01*
X110703208Y-106939345D01*
X110703190Y-106939333D01*
X110692331Y-106931204D01*
X110692328Y-106931202D01*
X110557482Y-106880908D01*
X110557483Y-106880908D01*
X110497883Y-106874501D01*
X110497881Y-106874500D01*
X110497873Y-106874500D01*
X110497864Y-106874500D01*
X108702129Y-106874500D01*
X108702123Y-106874501D01*
X108642516Y-106880908D01*
X108507671Y-106931202D01*
X108507664Y-106931206D01*
X108392455Y-107017452D01*
X108392452Y-107017455D01*
X108306206Y-107132664D01*
X108306202Y-107132671D01*
X108255908Y-107267517D01*
X108251432Y-107309155D01*
X108249501Y-107327123D01*
X108249500Y-107327135D01*
X106395500Y-107327135D01*
X106395500Y-106846153D01*
X122744500Y-106846153D01*
X122744500Y-107003846D01*
X122775261Y-107158489D01*
X122775264Y-107158501D01*
X122835602Y-107304172D01*
X122835609Y-107304185D01*
X122923210Y-107435288D01*
X122923213Y-107435292D01*
X123034707Y-107546786D01*
X123034711Y-107546789D01*
X123165814Y-107634390D01*
X123165827Y-107634397D01*
X123239013Y-107664711D01*
X123311503Y-107694737D01*
X123466153Y-107725499D01*
X123466156Y-107725500D01*
X123466158Y-107725500D01*
X123623844Y-107725500D01*
X123623845Y-107725499D01*
X123778497Y-107694737D01*
X123924179Y-107634394D01*
X124055289Y-107546789D01*
X124166789Y-107435289D01*
X124254394Y-107304179D01*
X124314737Y-107158497D01*
X124345500Y-107003842D01*
X124345500Y-106846158D01*
X124345500Y-106846155D01*
X124345499Y-106846153D01*
X124342165Y-106829390D01*
X124314737Y-106691503D01*
X124289381Y-106630288D01*
X124254397Y-106545827D01*
X124254390Y-106545814D01*
X124166789Y-106414711D01*
X124166786Y-106414707D01*
X124055292Y-106303213D01*
X124055288Y-106303210D01*
X123924185Y-106215609D01*
X123924172Y-106215602D01*
X123778501Y-106155264D01*
X123778489Y-106155261D01*
X123623845Y-106124500D01*
X123623842Y-106124500D01*
X123466158Y-106124500D01*
X123466155Y-106124500D01*
X123311510Y-106155261D01*
X123311498Y-106155264D01*
X123165827Y-106215602D01*
X123165814Y-106215609D01*
X123034711Y-106303210D01*
X123034707Y-106303213D01*
X122923213Y-106414707D01*
X122923210Y-106414711D01*
X122835609Y-106545814D01*
X122835602Y-106545827D01*
X122775264Y-106691498D01*
X122775261Y-106691510D01*
X122744500Y-106846153D01*
X106395500Y-106846153D01*
X106395500Y-94943653D01*
X106694500Y-94943653D01*
X106694500Y-95101346D01*
X106725261Y-95255989D01*
X106725264Y-95256001D01*
X106785602Y-95401672D01*
X106785609Y-95401685D01*
X106873210Y-95532788D01*
X106873213Y-95532792D01*
X106984707Y-95644286D01*
X106984711Y-95644289D01*
X107115814Y-95731890D01*
X107115827Y-95731897D01*
X107261498Y-95792235D01*
X107261503Y-95792237D01*
X107416153Y-95822999D01*
X107416156Y-95823000D01*
X107416158Y-95823000D01*
X107573844Y-95823000D01*
X107573845Y-95822999D01*
X107728497Y-95792237D01*
X107874179Y-95731894D01*
X108005289Y-95644289D01*
X108116789Y-95532789D01*
X108204394Y-95401679D01*
X108264737Y-95255997D01*
X108295500Y-95101342D01*
X108295500Y-94943658D01*
X108295500Y-94943655D01*
X108295499Y-94943653D01*
X108292476Y-94928454D01*
X108264737Y-94789003D01*
X108236041Y-94719723D01*
X108204397Y-94643327D01*
X108204390Y-94643314D01*
X108116789Y-94512211D01*
X108116786Y-94512207D01*
X108005292Y-94400713D01*
X108005288Y-94400710D01*
X107874185Y-94313109D01*
X107874172Y-94313102D01*
X107728501Y-94252764D01*
X107728489Y-94252761D01*
X107573845Y-94222000D01*
X107573842Y-94222000D01*
X107416158Y-94222000D01*
X107416155Y-94222000D01*
X107261510Y-94252761D01*
X107261498Y-94252764D01*
X107115827Y-94313102D01*
X107115814Y-94313109D01*
X106984711Y-94400710D01*
X106984707Y-94400713D01*
X106873213Y-94512207D01*
X106873210Y-94512211D01*
X106785609Y-94643314D01*
X106785602Y-94643327D01*
X106725264Y-94788998D01*
X106725261Y-94789010D01*
X106694500Y-94943653D01*
X106395500Y-94943653D01*
X106395500Y-92163713D01*
X107049500Y-92163713D01*
X107049500Y-92376286D01*
X107080654Y-92572989D01*
X107082754Y-92586243D01*
X107137672Y-92755263D01*
X107148444Y-92788414D01*
X107244951Y-92977820D01*
X107369890Y-93149786D01*
X107520213Y-93300109D01*
X107692179Y-93425048D01*
X107692181Y-93425049D01*
X107692184Y-93425051D01*
X107881588Y-93521557D01*
X108083757Y-93587246D01*
X108293713Y-93620500D01*
X108293714Y-93620500D01*
X108506286Y-93620500D01*
X108506287Y-93620500D01*
X108716243Y-93587246D01*
X108918412Y-93521557D01*
X109107816Y-93425051D01*
X109136554Y-93404172D01*
X109279786Y-93300109D01*
X109279788Y-93300106D01*
X109279792Y-93300104D01*
X109430104Y-93149792D01*
X109430106Y-93149788D01*
X109430109Y-93149786D01*
X109555048Y-92977820D01*
X109555047Y-92977820D01*
X109555051Y-92977816D01*
X109651557Y-92788412D01*
X109717246Y-92586243D01*
X109750500Y-92376287D01*
X109750500Y-92163713D01*
X109717246Y-91953757D01*
X109651557Y-91751588D01*
X109555051Y-91562184D01*
X109555049Y-91562181D01*
X109555048Y-91562179D01*
X109430109Y-91390213D01*
X109279786Y-91239890D01*
X109107820Y-91114951D01*
X108918414Y-91018444D01*
X108918413Y-91018443D01*
X108918412Y-91018443D01*
X108716243Y-90952754D01*
X108716241Y-90952753D01*
X108716240Y-90952753D01*
X108554957Y-90927208D01*
X108506287Y-90919500D01*
X108293713Y-90919500D01*
X108245042Y-90927208D01*
X108083760Y-90952753D01*
X107881585Y-91018444D01*
X107692179Y-91114951D01*
X107520213Y-91239890D01*
X107369890Y-91390213D01*
X107244951Y-91562179D01*
X107148444Y-91751585D01*
X107082753Y-91953760D01*
X107049500Y-92163713D01*
X106395500Y-92163713D01*
X106395500Y-78441927D01*
X106395816Y-78433081D01*
X106410130Y-78232943D01*
X106412646Y-78215438D01*
X106454356Y-78023700D01*
X106459335Y-78006742D01*
X106527911Y-77822882D01*
X106535251Y-77806810D01*
X106629294Y-77634583D01*
X106638850Y-77619714D01*
X106756443Y-77462628D01*
X106768017Y-77449271D01*
X106906771Y-77310517D01*
X106920128Y-77298943D01*
X107077214Y-77181350D01*
X107092083Y-77171794D01*
X107264310Y-77077751D01*
X107280382Y-77070411D01*
X107464242Y-77001835D01*
X107481200Y-76996856D01*
X107672938Y-76955146D01*
X107690436Y-76952630D01*
X107890582Y-76938316D01*
X107899428Y-76938000D01*
X107960892Y-76938000D01*
X108089466Y-76938000D01*
X108156505Y-76957685D01*
G37*
%TD.AperFunction*%
%TA.AperFunction,Conductor*%
G36*
X134044087Y-98548373D02*
G01*
X134100020Y-98590245D01*
X134124437Y-98655709D01*
X134124753Y-98664555D01*
X134124753Y-99880262D01*
X134124753Y-99880264D01*
X134124752Y-99880264D01*
X134148607Y-100000184D01*
X134149751Y-100005936D01*
X134198786Y-100124318D01*
X134269979Y-100230866D01*
X135719387Y-101680274D01*
X135791500Y-101728458D01*
X135825926Y-101751461D01*
X135825932Y-101751464D01*
X135825933Y-101751465D01*
X135944316Y-101800501D01*
X135944320Y-101800501D01*
X135944321Y-101800502D01*
X136069988Y-101825500D01*
X136069991Y-101825500D01*
X136290065Y-101825500D01*
X136357104Y-101845185D01*
X136358909Y-101846366D01*
X136415821Y-101884394D01*
X136415823Y-101884395D01*
X136415827Y-101884397D01*
X136491164Y-101915602D01*
X136561503Y-101944737D01*
X136628580Y-101958079D01*
X136690490Y-101990463D01*
X136692069Y-101992015D01*
X137483604Y-102783550D01*
X137517089Y-102844873D01*
X137519923Y-102871486D01*
X137517902Y-103855510D01*
X137498080Y-103922509D01*
X137445182Y-103968155D01*
X137376003Y-103977956D01*
X137312507Y-103948801D01*
X137274853Y-103889945D01*
X137272285Y-103879447D01*
X137264738Y-103841508D01*
X137264737Y-103841507D01*
X137264737Y-103841503D01*
X137264735Y-103841498D01*
X137204397Y-103695827D01*
X137204390Y-103695814D01*
X137116789Y-103564711D01*
X137116786Y-103564707D01*
X137005292Y-103453213D01*
X137005288Y-103453210D01*
X136874185Y-103365609D01*
X136874172Y-103365602D01*
X136728501Y-103305264D01*
X136728489Y-103305261D01*
X136573845Y-103274500D01*
X136573842Y-103274500D01*
X136416158Y-103274500D01*
X136416155Y-103274500D01*
X136261510Y-103305261D01*
X136261498Y-103305264D01*
X136115827Y-103365602D01*
X136115814Y-103365609D01*
X135984711Y-103453210D01*
X135984707Y-103453213D01*
X135873213Y-103564707D01*
X135873210Y-103564711D01*
X135785609Y-103695814D01*
X135785602Y-103695827D01*
X135725264Y-103841498D01*
X135725261Y-103841510D01*
X135694500Y-103996153D01*
X135694500Y-104153846D01*
X135725261Y-104308489D01*
X135725264Y-104308501D01*
X135785602Y-104454172D01*
X135785609Y-104454185D01*
X135873210Y-104585288D01*
X135873213Y-104585292D01*
X135984707Y-104696786D01*
X135984711Y-104696789D01*
X136115814Y-104784390D01*
X136115827Y-104784397D01*
X136216651Y-104826159D01*
X136261503Y-104844737D01*
X136406496Y-104873578D01*
X136416153Y-104875499D01*
X136416156Y-104875500D01*
X136416158Y-104875500D01*
X136573844Y-104875500D01*
X136573845Y-104875499D01*
X136728497Y-104844737D01*
X136874179Y-104784394D01*
X137005289Y-104696789D01*
X137116789Y-104585289D01*
X137204394Y-104454179D01*
X137264737Y-104308497D01*
X137271372Y-104275138D01*
X137303755Y-104213229D01*
X137364469Y-104178653D01*
X137434239Y-104182391D01*
X137490912Y-104223256D01*
X137516495Y-104288274D01*
X137516989Y-104299584D01*
X137515036Y-105250490D01*
X137495214Y-105317489D01*
X137442316Y-105363135D01*
X137373137Y-105372936D01*
X137343584Y-105364796D01*
X137308501Y-105350264D01*
X137308489Y-105350261D01*
X137153845Y-105319500D01*
X137153842Y-105319500D01*
X136996158Y-105319500D01*
X136996155Y-105319500D01*
X136841510Y-105350261D01*
X136841498Y-105350264D01*
X136695827Y-105410602D01*
X136695814Y-105410609D01*
X136564711Y-105498210D01*
X136564707Y-105498213D01*
X136453213Y-105609707D01*
X136453210Y-105609711D01*
X136365609Y-105740814D01*
X136365602Y-105740827D01*
X136305264Y-105886498D01*
X136305261Y-105886510D01*
X136274500Y-106041153D01*
X136274500Y-106198846D01*
X136305261Y-106353489D01*
X136305264Y-106353501D01*
X136365602Y-106499172D01*
X136365609Y-106499185D01*
X136453210Y-106630288D01*
X136453213Y-106630292D01*
X136564707Y-106741786D01*
X136564711Y-106741789D01*
X136695814Y-106829390D01*
X136695827Y-106829397D01*
X136820190Y-106880909D01*
X136841503Y-106889737D01*
X136996153Y-106920499D01*
X136996156Y-106920500D01*
X136996158Y-106920500D01*
X137153844Y-106920500D01*
X137153845Y-106920499D01*
X137308497Y-106889737D01*
X137340008Y-106876684D01*
X137409474Y-106869215D01*
X137471954Y-106900488D01*
X137507608Y-106960576D01*
X137511460Y-106991500D01*
X137500217Y-112465755D01*
X137480395Y-112532754D01*
X137427497Y-112578400D01*
X137376217Y-112589500D01*
X135976080Y-112589500D01*
X135831092Y-112618340D01*
X135831082Y-112618343D01*
X135694511Y-112674912D01*
X135694498Y-112674919D01*
X135571584Y-112757048D01*
X135571580Y-112757051D01*
X134935451Y-113393181D01*
X134874128Y-113426666D01*
X134847770Y-113429500D01*
X131522229Y-113429500D01*
X131455190Y-113409815D01*
X131434548Y-113393181D01*
X131098421Y-113057052D01*
X131098420Y-113057051D01*
X130989847Y-112984506D01*
X130975495Y-112974916D01*
X130975490Y-112974913D01*
X130838917Y-112918343D01*
X130838907Y-112918340D01*
X130693920Y-112889500D01*
X130693918Y-112889500D01*
X127371333Y-112889500D01*
X127304294Y-112869815D01*
X127258539Y-112817011D01*
X127248595Y-112747853D01*
X127277620Y-112684297D01*
X127323881Y-112650939D01*
X127424172Y-112609397D01*
X127424172Y-112609396D01*
X127424179Y-112609394D01*
X127555289Y-112521789D01*
X127666789Y-112410289D01*
X127754394Y-112279179D01*
X127814737Y-112133497D01*
X127845500Y-111978842D01*
X127845500Y-111821158D01*
X127845500Y-111821155D01*
X127845499Y-111821153D01*
X127840318Y-111795109D01*
X127814737Y-111666503D01*
X127805742Y-111644786D01*
X127754397Y-111520827D01*
X127754390Y-111520814D01*
X127666789Y-111389711D01*
X127666786Y-111389707D01*
X127555292Y-111278213D01*
X127555288Y-111278210D01*
X127424185Y-111190609D01*
X127424172Y-111190602D01*
X127278501Y-111130264D01*
X127278489Y-111130261D01*
X127123845Y-111099500D01*
X127123842Y-111099500D01*
X126966158Y-111099500D01*
X126966155Y-111099500D01*
X126811510Y-111130261D01*
X126811498Y-111130264D01*
X126665827Y-111190602D01*
X126665809Y-111190612D01*
X126588390Y-111242342D01*
X126521713Y-111263220D01*
X126454333Y-111244735D01*
X126407643Y-111192756D01*
X126395500Y-111139240D01*
X126395500Y-109040844D01*
X126415185Y-108973805D01*
X126467989Y-108928050D01*
X126537147Y-108918106D01*
X126566944Y-108926280D01*
X126611503Y-108944737D01*
X126757637Y-108973805D01*
X126766153Y-108975499D01*
X126766156Y-108975500D01*
X126766158Y-108975500D01*
X126923844Y-108975500D01*
X126923845Y-108975499D01*
X127078497Y-108944737D01*
X127224179Y-108884394D01*
X127355289Y-108796789D01*
X127466789Y-108685289D01*
X127554394Y-108554179D01*
X127614737Y-108408497D01*
X127645500Y-108253842D01*
X127645500Y-108096158D01*
X127645500Y-108096155D01*
X127645499Y-108096153D01*
X127614738Y-107941510D01*
X127614737Y-107941503D01*
X127614735Y-107941498D01*
X127554397Y-107795827D01*
X127554390Y-107795814D01*
X127466789Y-107664711D01*
X127466786Y-107664707D01*
X127355292Y-107553213D01*
X127355288Y-107553210D01*
X127224185Y-107465609D01*
X127224172Y-107465602D01*
X127078501Y-107405264D01*
X127078489Y-107405261D01*
X126923845Y-107374500D01*
X126923842Y-107374500D01*
X126766158Y-107374500D01*
X126766155Y-107374500D01*
X126611510Y-107405261D01*
X126611498Y-107405264D01*
X126566952Y-107423716D01*
X126497483Y-107431185D01*
X126435004Y-107399909D01*
X126399352Y-107339820D01*
X126395500Y-107309155D01*
X126395500Y-106456941D01*
X126415185Y-106389902D01*
X126467989Y-106344147D01*
X126537147Y-106334203D01*
X126600703Y-106363228D01*
X126607181Y-106369260D01*
X126609707Y-106371786D01*
X126609711Y-106371789D01*
X126740814Y-106459390D01*
X126740827Y-106459397D01*
X126886498Y-106519735D01*
X126886503Y-106519737D01*
X127041153Y-106550499D01*
X127041156Y-106550500D01*
X127041158Y-106550500D01*
X127198844Y-106550500D01*
X127198845Y-106550499D01*
X127353497Y-106519737D01*
X127499179Y-106459394D01*
X127556044Y-106421397D01*
X127622721Y-106400520D01*
X127624935Y-106400500D01*
X129359071Y-106400500D01*
X129443615Y-106383682D01*
X129484744Y-106375501D01*
X129603127Y-106326465D01*
X129628152Y-106309744D01*
X129709669Y-106255277D01*
X133363777Y-102601167D01*
X133425098Y-102567684D01*
X133494790Y-102572668D01*
X133550723Y-102614540D01*
X133554558Y-102619959D01*
X133598210Y-102685288D01*
X133598213Y-102685292D01*
X133709707Y-102796786D01*
X133709711Y-102796789D01*
X133840814Y-102884390D01*
X133840827Y-102884397D01*
X133985185Y-102944191D01*
X133986503Y-102944737D01*
X134118892Y-102971071D01*
X134141153Y-102975499D01*
X134141156Y-102975500D01*
X134141158Y-102975500D01*
X134298844Y-102975500D01*
X134298845Y-102975499D01*
X134453497Y-102944737D01*
X134599179Y-102884394D01*
X134730289Y-102796789D01*
X134841789Y-102685289D01*
X134929394Y-102554179D01*
X134932719Y-102546153D01*
X134946642Y-102512538D01*
X134989737Y-102408497D01*
X135020500Y-102253842D01*
X135020500Y-102096158D01*
X135020500Y-102096156D01*
X135020500Y-102096155D01*
X135020499Y-102096153D01*
X135002012Y-102003213D01*
X134989737Y-101941503D01*
X134989244Y-101940313D01*
X134929397Y-101795827D01*
X134929390Y-101795814D01*
X134841789Y-101664711D01*
X134841786Y-101664707D01*
X134730292Y-101553213D01*
X134730288Y-101553210D01*
X134599185Y-101465609D01*
X134599172Y-101465602D01*
X134453501Y-101405264D01*
X134453489Y-101405261D01*
X134298845Y-101374500D01*
X134298842Y-101374500D01*
X134141158Y-101374500D01*
X134141153Y-101374500D01*
X133993691Y-101403832D01*
X133924099Y-101397605D01*
X133868922Y-101354742D01*
X133845678Y-101288852D01*
X133845500Y-101282215D01*
X133845500Y-98695808D01*
X133854144Y-98666367D01*
X133860668Y-98636381D01*
X133864422Y-98631365D01*
X133865185Y-98628769D01*
X133881819Y-98608127D01*
X133913072Y-98576874D01*
X133974395Y-98543389D01*
X134044087Y-98548373D01*
G37*
%TD.AperFunction*%
%TA.AperFunction,Conductor*%
G36*
X135015811Y-76957685D02*
G01*
X135061566Y-77010489D01*
X135071510Y-77079647D01*
X135042485Y-77143203D01*
X135026363Y-77158392D01*
X135026382Y-77158413D01*
X135025808Y-77158915D01*
X135024262Y-77160373D01*
X135023337Y-77161082D01*
X134861081Y-77323338D01*
X134721392Y-77505382D01*
X134606657Y-77704109D01*
X134606653Y-77704118D01*
X134518842Y-77916112D01*
X134486074Y-78038404D01*
X134453980Y-78093991D01*
X133649873Y-78898098D01*
X133588550Y-78931583D01*
X133518858Y-78926599D01*
X133509786Y-78922798D01*
X133483826Y-78910692D01*
X133483818Y-78910689D01*
X133089906Y-78767317D01*
X132685015Y-78658828D01*
X132685018Y-78658828D01*
X132685008Y-78658826D01*
X132685002Y-78658824D01*
X132684998Y-78658824D01*
X132272192Y-78586035D01*
X131854597Y-78549500D01*
X131854594Y-78549500D01*
X131435406Y-78549500D01*
X131435402Y-78549500D01*
X131017809Y-78586035D01*
X131017805Y-78586035D01*
X130605001Y-78658824D01*
X130604984Y-78658828D01*
X130200097Y-78767316D01*
X130049201Y-78822238D01*
X129806178Y-78910691D01*
X129806174Y-78910692D01*
X129806168Y-78910695D01*
X129806160Y-78910698D01*
X129426273Y-79087843D01*
X129426257Y-79087851D01*
X129063244Y-79297438D01*
X129063218Y-79297454D01*
X128719855Y-79537879D01*
X128398737Y-79807331D01*
X128102331Y-80103737D01*
X127832879Y-80424855D01*
X127592454Y-80768218D01*
X127592438Y-80768244D01*
X127382851Y-81131257D01*
X127382843Y-81131273D01*
X127205698Y-81511160D01*
X127205695Y-81511168D01*
X127205692Y-81511174D01*
X127205691Y-81511178D01*
X127165402Y-81621872D01*
X127062316Y-81905097D01*
X126953828Y-82309984D01*
X126953824Y-82310001D01*
X126881035Y-82722805D01*
X126881035Y-82722809D01*
X126844500Y-83140402D01*
X126844500Y-83559597D01*
X126881035Y-83977190D01*
X126881035Y-83977194D01*
X126953824Y-84389998D01*
X126953826Y-84390008D01*
X126963108Y-84424648D01*
X127062316Y-84794902D01*
X127062319Y-84794912D01*
X127062320Y-84794913D01*
X127205691Y-85188822D01*
X127205694Y-85188829D01*
X127205695Y-85188831D01*
X127205698Y-85188839D01*
X127382843Y-85568726D01*
X127382851Y-85568742D01*
X127483072Y-85742328D01*
X127592443Y-85931764D01*
X127592447Y-85931770D01*
X127592454Y-85931781D01*
X127832879Y-86275144D01*
X128013909Y-86490886D01*
X128102329Y-86596260D01*
X128398740Y-86892671D01*
X128486137Y-86966006D01*
X128719855Y-87162120D01*
X129063218Y-87402545D01*
X129063225Y-87402549D01*
X129063236Y-87402557D01*
X129426264Y-87612152D01*
X129440701Y-87618884D01*
X129481947Y-87638118D01*
X129534386Y-87684291D01*
X129553538Y-87751484D01*
X129533322Y-87818365D01*
X129480157Y-87863700D01*
X129429542Y-87874500D01*
X126726080Y-87874500D01*
X126581092Y-87903340D01*
X126581082Y-87903343D01*
X126444511Y-87959912D01*
X126444498Y-87959919D01*
X126321588Y-88042045D01*
X126321581Y-88042051D01*
X126292268Y-88071361D01*
X126292248Y-88071383D01*
X122062050Y-92301581D01*
X122062048Y-92301584D01*
X122046068Y-92325501D01*
X122046066Y-92325502D01*
X122046066Y-92325503D01*
X121979916Y-92424503D01*
X121979914Y-92424506D01*
X121923343Y-92561082D01*
X121923340Y-92561092D01*
X121894500Y-92706079D01*
X121894500Y-92706082D01*
X121894500Y-99788868D01*
X121894500Y-99788870D01*
X121894499Y-99788870D01*
X121923340Y-99933857D01*
X121923343Y-99933867D01*
X121979913Y-100070440D01*
X121979914Y-100070441D01*
X121979916Y-100070445D01*
X121993696Y-100091068D01*
X122058874Y-100188616D01*
X122062051Y-100193370D01*
X122062052Y-100193371D01*
X123001442Y-101132759D01*
X123034927Y-101194082D01*
X123037761Y-101220440D01*
X123037761Y-101327074D01*
X123030066Y-101353276D01*
X123025780Y-101380250D01*
X123020365Y-101386314D01*
X123018076Y-101394113D01*
X122997438Y-101411995D01*
X122979248Y-101432371D01*
X122971414Y-101434545D01*
X122965272Y-101439868D01*
X122938240Y-101443754D01*
X122911925Y-101451060D01*
X122901875Y-101448983D01*
X122896114Y-101449812D01*
X122877068Y-101445521D01*
X122871598Y-101443826D01*
X122778497Y-101405263D01*
X122690806Y-101387820D01*
X122684637Y-101385909D01*
X122660692Y-101370014D01*
X122635227Y-101356694D01*
X122631946Y-101350933D01*
X122626425Y-101347268D01*
X122614875Y-101320954D01*
X122600653Y-101295978D01*
X122599719Y-101291684D01*
X122589737Y-101241501D01*
X122544695Y-101132759D01*
X122529397Y-101095825D01*
X122529390Y-101095812D01*
X122441789Y-100964709D01*
X122441786Y-100964705D01*
X122330292Y-100853211D01*
X122330288Y-100853208D01*
X122199185Y-100765607D01*
X122199172Y-100765600D01*
X122053501Y-100705262D01*
X122053489Y-100705259D01*
X121898845Y-100674498D01*
X121898842Y-100674498D01*
X121741158Y-100674498D01*
X121741155Y-100674498D01*
X121586510Y-100705259D01*
X121586498Y-100705262D01*
X121440827Y-100765600D01*
X121440814Y-100765607D01*
X121309711Y-100853208D01*
X121309707Y-100853211D01*
X121198213Y-100964705D01*
X121198210Y-100964709D01*
X121110609Y-101095812D01*
X121110602Y-101095825D01*
X121050264Y-101241496D01*
X121050261Y-101241508D01*
X121019500Y-101396151D01*
X121019500Y-101553844D01*
X121050261Y-101708487D01*
X121050264Y-101708499D01*
X121110602Y-101854170D01*
X121110609Y-101854183D01*
X121198210Y-101985286D01*
X121198213Y-101985290D01*
X121309707Y-102096784D01*
X121309711Y-102096787D01*
X121440814Y-102184388D01*
X121440827Y-102184395D01*
X121586498Y-102244733D01*
X121586503Y-102244735D01*
X121667860Y-102260918D01*
X121729771Y-102293302D01*
X121764345Y-102354018D01*
X121765286Y-102358343D01*
X121775261Y-102408490D01*
X121775263Y-102408498D01*
X121835602Y-102554172D01*
X121835609Y-102554185D01*
X121923210Y-102685288D01*
X121923213Y-102685292D01*
X122034707Y-102796786D01*
X122034711Y-102796789D01*
X122165814Y-102884390D01*
X122165827Y-102884397D01*
X122310185Y-102944191D01*
X122350414Y-102971071D01*
X122667161Y-103287819D01*
X122700646Y-103349142D01*
X122695662Y-103418834D01*
X122653790Y-103474767D01*
X122588326Y-103499184D01*
X122579480Y-103499500D01*
X115785854Y-103499500D01*
X115718815Y-103479815D01*
X115673060Y-103427011D01*
X115663116Y-103357853D01*
X115692141Y-103294297D01*
X115716963Y-103272398D01*
X115730300Y-103263485D01*
X115755289Y-103246789D01*
X115866789Y-103135289D01*
X115954394Y-103004179D01*
X116014737Y-102858497D01*
X116045500Y-102703842D01*
X116045500Y-102546158D01*
X116045500Y-102546155D01*
X116045499Y-102546153D01*
X116039832Y-102517664D01*
X116014737Y-102391503D01*
X116002935Y-102363011D01*
X115954397Y-102245827D01*
X115954390Y-102245814D01*
X115866789Y-102114711D01*
X115866786Y-102114707D01*
X115755292Y-102003213D01*
X115755288Y-102003210D01*
X115624185Y-101915609D01*
X115624172Y-101915602D01*
X115478501Y-101855264D01*
X115478489Y-101855261D01*
X115323845Y-101824500D01*
X115323842Y-101824500D01*
X115166158Y-101824500D01*
X115166155Y-101824500D01*
X115011510Y-101855261D01*
X115011498Y-101855264D01*
X114865827Y-101915602D01*
X114865814Y-101915609D01*
X114734711Y-102003210D01*
X114734707Y-102003213D01*
X114623213Y-102114707D01*
X114623210Y-102114711D01*
X114535609Y-102245814D01*
X114535602Y-102245827D01*
X114475264Y-102391498D01*
X114475261Y-102391510D01*
X114444500Y-102546153D01*
X114444500Y-102703846D01*
X114475261Y-102858489D01*
X114475264Y-102858501D01*
X114535602Y-103004172D01*
X114535609Y-103004185D01*
X114623210Y-103135288D01*
X114623213Y-103135292D01*
X114734707Y-103246786D01*
X114734711Y-103246789D01*
X114773037Y-103272398D01*
X114817842Y-103326010D01*
X114826549Y-103395335D01*
X114796395Y-103458363D01*
X114736952Y-103495082D01*
X114704146Y-103499500D01*
X113711024Y-103499500D01*
X113643985Y-103479815D01*
X113598230Y-103427011D01*
X113588286Y-103357853D01*
X113617311Y-103294297D01*
X113642133Y-103272398D01*
X113690163Y-103240304D01*
X113755289Y-103196789D01*
X113866789Y-103085289D01*
X113954394Y-102954179D01*
X114014737Y-102808497D01*
X114045500Y-102653842D01*
X114045500Y-102496158D01*
X114045500Y-102496155D01*
X114045499Y-102496153D01*
X114032908Y-102432853D01*
X114014737Y-102341503D01*
X114011058Y-102332622D01*
X113954397Y-102195827D01*
X113954390Y-102195814D01*
X113866789Y-102064711D01*
X113866786Y-102064707D01*
X113755292Y-101953213D01*
X113755288Y-101953210D01*
X113624185Y-101865609D01*
X113624172Y-101865602D01*
X113478501Y-101805264D01*
X113478489Y-101805261D01*
X113323845Y-101774500D01*
X113323842Y-101774500D01*
X113166158Y-101774500D01*
X113166155Y-101774500D01*
X113011510Y-101805261D01*
X113011498Y-101805264D01*
X112932080Y-101838160D01*
X112913211Y-101840188D01*
X112895542Y-101847118D01*
X112879190Y-101843846D01*
X112862610Y-101845629D01*
X112845638Y-101837133D01*
X112827030Y-101833410D01*
X112815043Y-101821817D01*
X112800131Y-101814353D01*
X112790447Y-101798031D01*
X112776805Y-101784838D01*
X112772987Y-101768604D01*
X112764480Y-101754264D01*
X112765157Y-101735299D01*
X112760813Y-101716823D01*
X112766749Y-101690729D01*
X112766974Y-101684439D01*
X112767738Y-101682215D01*
X112768823Y-101679149D01*
X112795501Y-101614744D01*
X112798725Y-101598535D01*
X112820500Y-101489069D01*
X112820500Y-99657752D01*
X112840185Y-99590713D01*
X112875606Y-99554652D01*
X112915311Y-99528123D01*
X113026811Y-99416623D01*
X113114416Y-99285513D01*
X113174759Y-99139831D01*
X113205522Y-98985176D01*
X113205522Y-98827492D01*
X113205522Y-98827489D01*
X113205521Y-98827487D01*
X113174760Y-98672844D01*
X113174759Y-98672837D01*
X113171329Y-98664555D01*
X113114419Y-98527161D01*
X113114412Y-98527148D01*
X113026811Y-98396045D01*
X113026808Y-98396041D01*
X112915314Y-98284547D01*
X112915310Y-98284544D01*
X112784207Y-98196943D01*
X112784194Y-98196936D01*
X112638523Y-98136598D01*
X112638511Y-98136595D01*
X112558396Y-98120659D01*
X112496485Y-98088274D01*
X112473224Y-98057487D01*
X112470513Y-98052415D01*
X112470509Y-98052405D01*
X112408557Y-97959687D01*
X112382904Y-97921294D01*
X112271407Y-97809797D01*
X112271403Y-97809794D01*
X112140300Y-97722193D01*
X112140287Y-97722186D01*
X112005726Y-97666450D01*
X111951322Y-97622609D01*
X111931561Y-97576080D01*
X111914738Y-97491510D01*
X111914737Y-97491503D01*
X111910081Y-97480263D01*
X111854397Y-97345827D01*
X111854395Y-97345823D01*
X111854394Y-97345821D01*
X111825541Y-97302639D01*
X111804663Y-97235962D01*
X111823147Y-97168582D01*
X111875126Y-97121891D01*
X111904442Y-97112133D01*
X112006377Y-97091857D01*
X112152059Y-97031514D01*
X112283169Y-96943909D01*
X112394669Y-96832409D01*
X112482274Y-96701299D01*
X112542617Y-96555617D01*
X112573380Y-96400962D01*
X112573380Y-96243278D01*
X112573380Y-96243275D01*
X112573379Y-96243273D01*
X112542618Y-96088630D01*
X112542617Y-96088623D01*
X112542615Y-96088618D01*
X112525357Y-96046952D01*
X112517888Y-95977482D01*
X112549164Y-95915003D01*
X112609253Y-95879352D01*
X112639918Y-95875500D01*
X113422945Y-95875500D01*
X113507489Y-95858682D01*
X113548618Y-95850501D01*
X113667001Y-95801465D01*
X113680812Y-95792237D01*
X113773543Y-95730277D01*
X115072564Y-94431256D01*
X115133887Y-94397771D01*
X115160245Y-94394937D01*
X115223844Y-94394937D01*
X115223845Y-94394936D01*
X115378497Y-94364174D01*
X115524179Y-94303831D01*
X115655289Y-94216226D01*
X115736024Y-94135490D01*
X115797344Y-94102006D01*
X115867036Y-94106990D01*
X115892594Y-94120069D01*
X115970155Y-94171894D01*
X115970157Y-94171895D01*
X115970161Y-94171897D01*
X116115180Y-94231965D01*
X116115837Y-94232237D01*
X116219033Y-94252764D01*
X116270487Y-94262999D01*
X116270490Y-94263000D01*
X116270492Y-94263000D01*
X116428178Y-94263000D01*
X116428179Y-94262999D01*
X116582831Y-94232237D01*
X116728513Y-94171894D01*
X116780444Y-94137194D01*
X116847119Y-94116316D01*
X116914499Y-94134800D01*
X116918226Y-94137195D01*
X116970147Y-94171888D01*
X116970149Y-94171889D01*
X116970155Y-94171893D01*
X116970157Y-94171894D01*
X116970161Y-94171896D01*
X117077185Y-94216226D01*
X117115837Y-94232236D01*
X117219033Y-94252763D01*
X117270487Y-94262998D01*
X117270490Y-94262999D01*
X117270492Y-94262999D01*
X117428178Y-94262999D01*
X117428179Y-94262998D01*
X117582831Y-94232236D01*
X117695500Y-94185566D01*
X117728506Y-94171896D01*
X117728506Y-94171895D01*
X117728513Y-94171893D01*
X117859623Y-94084288D01*
X117971123Y-93972788D01*
X118058728Y-93841678D01*
X118119071Y-93695996D01*
X118149834Y-93541341D01*
X118149834Y-93383657D01*
X118149834Y-93383654D01*
X118149833Y-93383652D01*
X118133214Y-93300104D01*
X118119071Y-93229002D01*
X118108651Y-93203846D01*
X118058731Y-93083326D01*
X118058724Y-93083313D01*
X118009041Y-93008957D01*
X117971123Y-92952210D01*
X117971120Y-92952206D01*
X117965067Y-92946153D01*
X119244500Y-92946153D01*
X119244500Y-93103846D01*
X119275261Y-93258489D01*
X119275264Y-93258501D01*
X119335602Y-93404172D01*
X119335609Y-93404185D01*
X119423210Y-93535288D01*
X119423213Y-93535292D01*
X119534707Y-93646786D01*
X119534711Y-93646789D01*
X119665814Y-93734390D01*
X119665827Y-93734397D01*
X119811498Y-93794735D01*
X119811503Y-93794737D01*
X119966153Y-93825499D01*
X119966156Y-93825500D01*
X119966158Y-93825500D01*
X120123844Y-93825500D01*
X120123845Y-93825499D01*
X120278497Y-93794737D01*
X120424179Y-93734394D01*
X120555289Y-93646789D01*
X120666789Y-93535289D01*
X120754394Y-93404179D01*
X120762897Y-93383652D01*
X120797503Y-93300104D01*
X120814737Y-93258497D01*
X120845500Y-93103842D01*
X120845500Y-92946158D01*
X120845500Y-92946155D01*
X120845499Y-92946153D01*
X120840245Y-92919738D01*
X120814737Y-92791503D01*
X120806570Y-92771786D01*
X120754397Y-92645827D01*
X120754390Y-92645814D01*
X120666789Y-92514711D01*
X120666786Y-92514707D01*
X120555292Y-92403213D01*
X120555288Y-92403210D01*
X120424185Y-92315609D01*
X120424172Y-92315602D01*
X120278501Y-92255264D01*
X120278489Y-92255261D01*
X120123845Y-92224500D01*
X120123842Y-92224500D01*
X119966158Y-92224500D01*
X119966155Y-92224500D01*
X119811510Y-92255261D01*
X119811498Y-92255264D01*
X119665827Y-92315602D01*
X119665814Y-92315609D01*
X119534711Y-92403210D01*
X119534707Y-92403213D01*
X119423213Y-92514707D01*
X119423210Y-92514711D01*
X119335609Y-92645814D01*
X119335602Y-92645827D01*
X119275264Y-92791498D01*
X119275261Y-92791510D01*
X119244500Y-92946153D01*
X117965067Y-92946153D01*
X117859626Y-92840712D01*
X117859622Y-92840709D01*
X117728519Y-92753108D01*
X117728506Y-92753101D01*
X117582835Y-92692763D01*
X117582823Y-92692760D01*
X117515754Y-92679419D01*
X117453843Y-92647034D01*
X117452264Y-92645483D01*
X116331819Y-91525038D01*
X116298334Y-91463715D01*
X116295500Y-91437357D01*
X116295500Y-88421153D01*
X123544500Y-88421153D01*
X123544500Y-88578846D01*
X123575261Y-88733489D01*
X123575264Y-88733501D01*
X123635602Y-88879172D01*
X123635609Y-88879185D01*
X123723210Y-89010288D01*
X123723213Y-89010292D01*
X123834707Y-89121786D01*
X123834711Y-89121789D01*
X123965814Y-89209390D01*
X123965827Y-89209397D01*
X124081202Y-89257186D01*
X124111503Y-89269737D01*
X124213789Y-89290083D01*
X124266153Y-89300499D01*
X124266156Y-89300500D01*
X124266158Y-89300500D01*
X124423844Y-89300500D01*
X124423845Y-89300499D01*
X124578497Y-89269737D01*
X124724179Y-89209394D01*
X124855289Y-89121789D01*
X124966789Y-89010289D01*
X125054394Y-88879179D01*
X125114737Y-88733497D01*
X125145500Y-88578842D01*
X125145500Y-88421158D01*
X125145500Y-88421155D01*
X125145499Y-88421153D01*
X125130361Y-88345051D01*
X125114737Y-88266503D01*
X125095518Y-88220104D01*
X125054397Y-88120827D01*
X125054390Y-88120814D01*
X124966789Y-87989711D01*
X124966786Y-87989707D01*
X124855292Y-87878213D01*
X124855288Y-87878210D01*
X124724185Y-87790609D01*
X124724172Y-87790602D01*
X124578501Y-87730264D01*
X124578489Y-87730261D01*
X124423845Y-87699500D01*
X124423842Y-87699500D01*
X124266158Y-87699500D01*
X124266155Y-87699500D01*
X124111510Y-87730261D01*
X124111498Y-87730264D01*
X123965827Y-87790602D01*
X123965814Y-87790609D01*
X123834711Y-87878210D01*
X123834707Y-87878213D01*
X123723213Y-87989707D01*
X123723210Y-87989711D01*
X123635609Y-88120814D01*
X123635602Y-88120827D01*
X123575264Y-88266498D01*
X123575261Y-88266510D01*
X123544500Y-88421153D01*
X116295500Y-88421153D01*
X116295500Y-87960928D01*
X116270502Y-87835261D01*
X116270501Y-87835260D01*
X116270501Y-87835256D01*
X116221465Y-87716873D01*
X116186079Y-87663914D01*
X116150277Y-87610331D01*
X113606819Y-85066873D01*
X113573334Y-85005550D01*
X113570500Y-84979192D01*
X113570500Y-79685928D01*
X113545502Y-79560261D01*
X113545501Y-79560260D01*
X113545501Y-79560256D01*
X113504354Y-79460917D01*
X113501742Y-79454611D01*
X113501741Y-79454608D01*
X113496469Y-79441881D01*
X113496468Y-79441880D01*
X113496466Y-79441874D01*
X113479558Y-79416569D01*
X113425278Y-79335332D01*
X113425272Y-79335325D01*
X113036194Y-78946248D01*
X113002709Y-78884925D01*
X113005944Y-78820247D01*
X113007246Y-78816243D01*
X113040500Y-78606287D01*
X113040500Y-78393713D01*
X113007246Y-78183757D01*
X112941557Y-77981588D01*
X112845051Y-77792184D01*
X112845049Y-77792181D01*
X112845048Y-77792179D01*
X112720109Y-77620213D01*
X112569786Y-77469890D01*
X112397820Y-77344951D01*
X112208414Y-77248444D01*
X112208413Y-77248443D01*
X112208412Y-77248443D01*
X112006243Y-77182754D01*
X112006233Y-77182752D01*
X112005487Y-77182573D01*
X112005229Y-77182424D01*
X112001610Y-77181249D01*
X112001857Y-77180488D01*
X111944897Y-77147780D01*
X111912735Y-77085753D01*
X111919214Y-77016184D01*
X111962275Y-76961161D01*
X112028249Y-76938155D01*
X112034439Y-76938000D01*
X134948772Y-76938000D01*
X135015811Y-76957685D01*
G37*
%TD.AperFunction*%
%TA.AperFunction,Conductor*%
G36*
X137474082Y-85799797D02*
G01*
X137530015Y-85841669D01*
X137554432Y-85907133D01*
X137554748Y-85916234D01*
X137547581Y-89405652D01*
X137527759Y-89472651D01*
X137511262Y-89493078D01*
X135232181Y-91772160D01*
X135170858Y-91805645D01*
X135101166Y-91800661D01*
X135045233Y-91758789D01*
X135020816Y-91693325D01*
X135020500Y-91684479D01*
X135020500Y-91621155D01*
X135020499Y-91621153D01*
X135002012Y-91528213D01*
X134989737Y-91466503D01*
X134988582Y-91463715D01*
X134929397Y-91320827D01*
X134929390Y-91320814D01*
X134841789Y-91189711D01*
X134841786Y-91189707D01*
X134730292Y-91078213D01*
X134730288Y-91078210D01*
X134599185Y-90990609D01*
X134599180Y-90990607D01*
X134599179Y-90990606D01*
X134569050Y-90978126D01*
X134535233Y-90964118D01*
X134480830Y-90920276D01*
X134461070Y-90873748D01*
X134439738Y-90766510D01*
X134439737Y-90766503D01*
X134439735Y-90766498D01*
X134379397Y-90620827D01*
X134379390Y-90620814D01*
X134291789Y-90489711D01*
X134291786Y-90489707D01*
X134180292Y-90378213D01*
X134180288Y-90378210D01*
X134049185Y-90290609D01*
X134049172Y-90290602D01*
X133903501Y-90230264D01*
X133903489Y-90230261D01*
X133748845Y-90199500D01*
X133748842Y-90199500D01*
X133591158Y-90199500D01*
X133591155Y-90199500D01*
X133436510Y-90230261D01*
X133436498Y-90230264D01*
X133290827Y-90290602D01*
X133290814Y-90290609D01*
X133159711Y-90378210D01*
X133159707Y-90378213D01*
X133048213Y-90489707D01*
X133048210Y-90489711D01*
X132960609Y-90620814D01*
X132960602Y-90620827D01*
X132900264Y-90766498D01*
X132900261Y-90766510D01*
X132869500Y-90921153D01*
X132869500Y-91078846D01*
X132900261Y-91233489D01*
X132900264Y-91233501D01*
X132960602Y-91379172D01*
X132960609Y-91379185D01*
X133048210Y-91510288D01*
X133048213Y-91510292D01*
X133159707Y-91621786D01*
X133159711Y-91621789D01*
X133290817Y-91709392D01*
X133290819Y-91709392D01*
X133290821Y-91709394D01*
X133336519Y-91728322D01*
X133354764Y-91735880D01*
X133409168Y-91779721D01*
X133428929Y-91826249D01*
X133450261Y-91933491D01*
X133450264Y-91933501D01*
X133510602Y-92079172D01*
X133510609Y-92079185D01*
X133598210Y-92210288D01*
X133598213Y-92210292D01*
X133709707Y-92321786D01*
X133709711Y-92321789D01*
X133840814Y-92409390D01*
X133840827Y-92409397D01*
X133986498Y-92469735D01*
X133986503Y-92469737D01*
X134141153Y-92500499D01*
X134141156Y-92500500D01*
X134204480Y-92500500D01*
X134271519Y-92520185D01*
X134317274Y-92572989D01*
X134327218Y-92642147D01*
X134298193Y-92705703D01*
X134292161Y-92712181D01*
X132075888Y-94928453D01*
X132075887Y-94928454D01*
X131999222Y-95043192D01*
X131946421Y-95170667D01*
X131946418Y-95170679D01*
X131919934Y-95303823D01*
X131919931Y-95303838D01*
X131919500Y-95306000D01*
X131919500Y-100533481D01*
X131899815Y-100600520D01*
X131883181Y-100621162D01*
X129966162Y-102538181D01*
X129904839Y-102571666D01*
X129878481Y-102574500D01*
X127990081Y-102574500D01*
X127923042Y-102554815D01*
X127877287Y-102502011D01*
X127867343Y-102432853D01*
X127868464Y-102426308D01*
X127881055Y-102363011D01*
X127881055Y-102205322D01*
X127881054Y-102205320D01*
X127879166Y-102195827D01*
X127850292Y-102050670D01*
X127830634Y-102003210D01*
X127789952Y-101904994D01*
X127789945Y-101904981D01*
X127702344Y-101773878D01*
X127702341Y-101773874D01*
X127590847Y-101662380D01*
X127590843Y-101662377D01*
X127459740Y-101574776D01*
X127459727Y-101574769D01*
X127362876Y-101534653D01*
X127314056Y-101514431D01*
X127314044Y-101514428D01*
X127159400Y-101483667D01*
X127159397Y-101483667D01*
X127001713Y-101483667D01*
X127001710Y-101483667D01*
X126847065Y-101514428D01*
X126847053Y-101514431D01*
X126701382Y-101574769D01*
X126701369Y-101574776D01*
X126570266Y-101662377D01*
X126570262Y-101662380D01*
X126458768Y-101773874D01*
X126458765Y-101773878D01*
X126371164Y-101904981D01*
X126371157Y-101904994D01*
X126310819Y-102050665D01*
X126310816Y-102050677D01*
X126280055Y-102205320D01*
X126280055Y-102205325D01*
X126280055Y-102363009D01*
X126280055Y-102363011D01*
X126280054Y-102363011D01*
X126292646Y-102426308D01*
X126290768Y-102447292D01*
X126293767Y-102468147D01*
X126287716Y-102481394D01*
X126286419Y-102495900D01*
X126273494Y-102512538D01*
X126264742Y-102531703D01*
X126252490Y-102539576D01*
X126243557Y-102551077D01*
X126223688Y-102558086D01*
X126205964Y-102569477D01*
X126181381Y-102573011D01*
X126177667Y-102574322D01*
X126171029Y-102574500D01*
X126116519Y-102574500D01*
X126049480Y-102554815D01*
X126028838Y-102538181D01*
X125988024Y-102497367D01*
X125972603Y-102478577D01*
X125939113Y-102428455D01*
X125939111Y-102428454D01*
X125929018Y-102418361D01*
X125895531Y-102357039D01*
X125895079Y-102306488D01*
X125905551Y-102253843D01*
X125905551Y-102096159D01*
X125905551Y-102096158D01*
X125905551Y-102096156D01*
X125905550Y-102096154D01*
X125905550Y-102096153D01*
X125874788Y-101941504D01*
X125867315Y-101923462D01*
X125814448Y-101795828D01*
X125814441Y-101795815D01*
X125726840Y-101664712D01*
X125726837Y-101664708D01*
X125615343Y-101553214D01*
X125615339Y-101553211D01*
X125484236Y-101465610D01*
X125484226Y-101465605D01*
X125460574Y-101455808D01*
X125453641Y-101451175D01*
X125448600Y-101450079D01*
X125420346Y-101428928D01*
X125417597Y-101426179D01*
X128349524Y-101426179D01*
X128349524Y-101583872D01*
X128380285Y-101738515D01*
X128380288Y-101738527D01*
X128440626Y-101884198D01*
X128440633Y-101884211D01*
X128528234Y-102015314D01*
X128528237Y-102015318D01*
X128639731Y-102126812D01*
X128639735Y-102126815D01*
X128770838Y-102214416D01*
X128770851Y-102214423D01*
X128916522Y-102274761D01*
X128916527Y-102274763D01*
X129071177Y-102305525D01*
X129071180Y-102305526D01*
X129071182Y-102305526D01*
X129228868Y-102305526D01*
X129228869Y-102305525D01*
X129383521Y-102274763D01*
X129502970Y-102225286D01*
X129529196Y-102214423D01*
X129529196Y-102214422D01*
X129529203Y-102214420D01*
X129660313Y-102126815D01*
X129771813Y-102015315D01*
X129859418Y-101884205D01*
X129919761Y-101738523D01*
X129950524Y-101583868D01*
X129950524Y-101426184D01*
X129950524Y-101426181D01*
X129950523Y-101426179D01*
X129946363Y-101405264D01*
X129919761Y-101271529D01*
X129907321Y-101241496D01*
X129859421Y-101125853D01*
X129859414Y-101125840D01*
X129771813Y-100994737D01*
X129771810Y-100994733D01*
X129660316Y-100883239D01*
X129660312Y-100883236D01*
X129529209Y-100795635D01*
X129529196Y-100795628D01*
X129383525Y-100735290D01*
X129383513Y-100735287D01*
X129228869Y-100704526D01*
X129228866Y-100704526D01*
X129071182Y-100704526D01*
X129071179Y-100704526D01*
X128916534Y-100735287D01*
X128916522Y-100735290D01*
X128770851Y-100795628D01*
X128770838Y-100795635D01*
X128639735Y-100883236D01*
X128639731Y-100883239D01*
X128528237Y-100994733D01*
X128528234Y-100994737D01*
X128440633Y-101125840D01*
X128440626Y-101125853D01*
X128380288Y-101271524D01*
X128380285Y-101271536D01*
X128349524Y-101426179D01*
X125417597Y-101426179D01*
X125354641Y-101363223D01*
X125321156Y-101301900D01*
X125320705Y-101251353D01*
X125338761Y-101160581D01*
X125338761Y-101002897D01*
X125338761Y-101002894D01*
X125338760Y-101002892D01*
X125314959Y-100883237D01*
X125307998Y-100848242D01*
X125286208Y-100795635D01*
X125247658Y-100702566D01*
X125247651Y-100702553D01*
X125160050Y-100571450D01*
X125160047Y-100571446D01*
X125048553Y-100459952D01*
X125048549Y-100459949D01*
X124917446Y-100372348D01*
X124917433Y-100372341D01*
X124771762Y-100312003D01*
X124771750Y-100312000D01*
X124617106Y-100281239D01*
X124617103Y-100281239D01*
X124459419Y-100281239D01*
X124459416Y-100281239D01*
X124368647Y-100299294D01*
X124299056Y-100293067D01*
X124256775Y-100265358D01*
X123431819Y-99440401D01*
X123398334Y-99379078D01*
X123395500Y-99352720D01*
X123395500Y-98171153D01*
X124169500Y-98171153D01*
X124169500Y-98328846D01*
X124200261Y-98483489D01*
X124200264Y-98483501D01*
X124260602Y-98629172D01*
X124260609Y-98629185D01*
X124348210Y-98760288D01*
X124348213Y-98760292D01*
X124459707Y-98871786D01*
X124459711Y-98871789D01*
X124590814Y-98959390D01*
X124590827Y-98959397D01*
X124736498Y-99019735D01*
X124736503Y-99019737D01*
X124891153Y-99050499D01*
X124891156Y-99050500D01*
X124891158Y-99050500D01*
X125048844Y-99050500D01*
X125048845Y-99050499D01*
X125203497Y-99019737D01*
X125349179Y-98959394D01*
X125480289Y-98871789D01*
X125591789Y-98760289D01*
X125679394Y-98629179D01*
X125739737Y-98483497D01*
X125770500Y-98328842D01*
X125770500Y-98171158D01*
X125770500Y-98171155D01*
X125770499Y-98171153D01*
X125739737Y-98016503D01*
X125715712Y-97958501D01*
X125679397Y-97870827D01*
X125679390Y-97870814D01*
X125591789Y-97739711D01*
X125591786Y-97739707D01*
X125480292Y-97628213D01*
X125480288Y-97628210D01*
X125349185Y-97540609D01*
X125349172Y-97540602D01*
X125203501Y-97480264D01*
X125203489Y-97480261D01*
X125048845Y-97449500D01*
X125048842Y-97449500D01*
X124891158Y-97449500D01*
X124891155Y-97449500D01*
X124736510Y-97480261D01*
X124736498Y-97480264D01*
X124590827Y-97540602D01*
X124590814Y-97540609D01*
X124459711Y-97628210D01*
X124459707Y-97628213D01*
X124348213Y-97739707D01*
X124348210Y-97739711D01*
X124260609Y-97870814D01*
X124260602Y-97870827D01*
X124200264Y-98016498D01*
X124200261Y-98016510D01*
X124169500Y-98171153D01*
X123395500Y-98171153D01*
X123395500Y-96496153D01*
X126469500Y-96496153D01*
X126469500Y-96653846D01*
X126500261Y-96808489D01*
X126500264Y-96808501D01*
X126560602Y-96954172D01*
X126560609Y-96954185D01*
X126648210Y-97085288D01*
X126648213Y-97085292D01*
X126759707Y-97196786D01*
X126759711Y-97196789D01*
X126890814Y-97284390D01*
X126890827Y-97284397D01*
X127036498Y-97344735D01*
X127036503Y-97344737D01*
X127191153Y-97375499D01*
X127191156Y-97375500D01*
X127191158Y-97375500D01*
X127348844Y-97375500D01*
X127348845Y-97375499D01*
X127503497Y-97344737D01*
X127649179Y-97284394D01*
X127780289Y-97196789D01*
X127891789Y-97085289D01*
X127979394Y-96954179D01*
X127987972Y-96933471D01*
X128039735Y-96808501D01*
X128039737Y-96808497D01*
X128070500Y-96653842D01*
X128070500Y-96496158D01*
X128070500Y-96496155D01*
X128070499Y-96496153D01*
X128051565Y-96400966D01*
X128039737Y-96341503D01*
X128039735Y-96341498D01*
X127979397Y-96195827D01*
X127979390Y-96195814D01*
X127891789Y-96064711D01*
X127891786Y-96064707D01*
X127780292Y-95953213D01*
X127780288Y-95953210D01*
X127649185Y-95865609D01*
X127649172Y-95865602D01*
X127503501Y-95805264D01*
X127503489Y-95805261D01*
X127348845Y-95774500D01*
X127348842Y-95774500D01*
X127191158Y-95774500D01*
X127191155Y-95774500D01*
X127036510Y-95805261D01*
X127036498Y-95805264D01*
X126890827Y-95865602D01*
X126890814Y-95865609D01*
X126759711Y-95953210D01*
X126759707Y-95953213D01*
X126648213Y-96064707D01*
X126648210Y-96064711D01*
X126560609Y-96195814D01*
X126560602Y-96195827D01*
X126500264Y-96341498D01*
X126500261Y-96341510D01*
X126469500Y-96496153D01*
X123395500Y-96496153D01*
X123395500Y-93142230D01*
X123415185Y-93075191D01*
X123431819Y-93054549D01*
X123814287Y-92672081D01*
X124207736Y-92278631D01*
X124269057Y-92245148D01*
X124338748Y-92250132D01*
X124394682Y-92292004D01*
X124417032Y-92342121D01*
X124425261Y-92383492D01*
X124425264Y-92383501D01*
X124485602Y-92529172D01*
X124485609Y-92529185D01*
X124573210Y-92660288D01*
X124573213Y-92660292D01*
X124684707Y-92771786D01*
X124684711Y-92771789D01*
X124815814Y-92859390D01*
X124815827Y-92859397D01*
X124893356Y-92891510D01*
X124961503Y-92919737D01*
X125116153Y-92950499D01*
X125116156Y-92950500D01*
X125116158Y-92950500D01*
X125273844Y-92950500D01*
X125273845Y-92950499D01*
X125428497Y-92919737D01*
X125574179Y-92859394D01*
X125705289Y-92771789D01*
X125816789Y-92660289D01*
X125904394Y-92529179D01*
X125910389Y-92514707D01*
X125929016Y-92469735D01*
X125964737Y-92383497D01*
X125995500Y-92228842D01*
X125995500Y-92071158D01*
X125995500Y-92071155D01*
X125995499Y-92071153D01*
X125964738Y-91916510D01*
X125964737Y-91916503D01*
X125927353Y-91826249D01*
X125904397Y-91770827D01*
X125904390Y-91770814D01*
X125816789Y-91639711D01*
X125816786Y-91639707D01*
X125705292Y-91528213D01*
X125705288Y-91528210D01*
X125574185Y-91440609D01*
X125574172Y-91440602D01*
X125428501Y-91380264D01*
X125428492Y-91380261D01*
X125387121Y-91372032D01*
X125325210Y-91339646D01*
X125290637Y-91278930D01*
X125294378Y-91209160D01*
X125323631Y-91162736D01*
X127074549Y-89411819D01*
X127135872Y-89378334D01*
X127162230Y-89375500D01*
X133558920Y-89375500D01*
X133656462Y-89356096D01*
X133703913Y-89346658D01*
X133840495Y-89290084D01*
X133889729Y-89257186D01*
X133963416Y-89207952D01*
X137343072Y-85828294D01*
X137404390Y-85794813D01*
X137474082Y-85799797D01*
G37*
%TD.AperFunction*%
%TA.AperFunction,Conductor*%
G36*
X110614997Y-79383796D02*
G01*
X110668418Y-79395417D01*
X110696673Y-79416569D01*
X110810213Y-79530109D01*
X110982179Y-79655048D01*
X110982181Y-79655049D01*
X110982184Y-79655051D01*
X111171588Y-79751557D01*
X111373757Y-79817246D01*
X111583713Y-79850500D01*
X111583714Y-79850500D01*
X111796286Y-79850500D01*
X111796287Y-79850500D01*
X111996549Y-79818781D01*
X112001973Y-79819482D01*
X112007100Y-79817570D01*
X112036250Y-79823911D01*
X112065841Y-79827735D01*
X112071446Y-79831567D01*
X112075373Y-79832422D01*
X112103627Y-79853573D01*
X112233181Y-79983127D01*
X112266666Y-80044450D01*
X112269500Y-80070808D01*
X112269500Y-85364070D01*
X112282046Y-85427138D01*
X112282046Y-85427140D01*
X112294497Y-85489736D01*
X112294499Y-85489744D01*
X112343534Y-85608125D01*
X112414726Y-85714673D01*
X112414727Y-85714674D01*
X114958181Y-88258127D01*
X114991666Y-88319450D01*
X114994500Y-88345808D01*
X114994500Y-90888358D01*
X114988261Y-90909603D01*
X114986682Y-90931692D01*
X114978609Y-90942475D01*
X114974815Y-90955397D01*
X114958081Y-90969896D01*
X114944810Y-90987625D01*
X114932189Y-90992332D01*
X114922011Y-91001152D01*
X114900093Y-91004303D01*
X114879346Y-91012042D01*
X114866185Y-91009179D01*
X114852853Y-91011096D01*
X114832709Y-91001896D01*
X114811073Y-90997190D01*
X114793347Y-90983921D01*
X114789297Y-90982071D01*
X114782819Y-90976039D01*
X114731819Y-90925039D01*
X114698334Y-90863716D01*
X114695500Y-90837358D01*
X114695500Y-89135928D01*
X114670502Y-89010260D01*
X114670500Y-89010254D01*
X114650189Y-88961221D01*
X114650187Y-88961216D01*
X114621468Y-88891878D01*
X114621462Y-88891868D01*
X114550278Y-88785332D01*
X114550272Y-88785325D01*
X111736819Y-85971872D01*
X111703334Y-85910549D01*
X111700500Y-85884191D01*
X111700500Y-83685928D01*
X111675502Y-83560261D01*
X111675501Y-83560260D01*
X111675501Y-83560256D01*
X111626465Y-83441873D01*
X111617758Y-83428842D01*
X111555277Y-83335331D01*
X111555275Y-83335329D01*
X111555273Y-83335326D01*
X109841819Y-81621872D01*
X109808334Y-81560549D01*
X109805500Y-81534191D01*
X109805500Y-79974499D01*
X109825185Y-79907460D01*
X109877989Y-79861705D01*
X109929500Y-79850499D01*
X110047871Y-79850499D01*
X110047872Y-79850499D01*
X110107483Y-79844091D01*
X110242331Y-79793796D01*
X110357546Y-79707546D01*
X110443796Y-79592331D01*
X110492811Y-79460914D01*
X110534682Y-79404983D01*
X110578083Y-79388795D01*
X110600145Y-79380566D01*
X110600146Y-79380566D01*
X110614997Y-79383796D01*
G37*
%TD.AperFunction*%
%TD*%
M02*
