%TF.GenerationSoftware,KiCad,Pcbnew,10.0.1*%
%TF.CreationDate,2026-05-12T01:40:20+05:30*%
%TF.ProjectId,am32_100a_esc,616d3332-5f31-4303-9061-5f6573632e6b,rev?*%
%TF.SameCoordinates,Original*%
%TF.FileFunction,AssemblyDrawing,Bot*%
%FSLAX46Y46*%
G04 Gerber Fmt 4.6, Leading zero omitted, Abs format (unit mm)*
G04 Created by KiCad (PCBNEW 10.0.1) date 2026-05-12 01:40:20*
%MOMM*%
%LPD*%
G01*
G04 APERTURE LIST*
%ADD10C,0.150000*%
%ADD11C,0.120000*%
%ADD12C,0.060000*%
%ADD13C,0.040000*%
%ADD14C,0.080000*%
%ADD15C,0.254000*%
%ADD16C,0.100000*%
G04 APERTURE END LIST*
D10*
X118225057Y-111000000D02*
X118177438Y-111047619D01*
X118177438Y-111047619D02*
X118129819Y-111142857D01*
X118129819Y-111142857D02*
X118129819Y-111380952D01*
X118129819Y-111380952D02*
X118177438Y-111476190D01*
X118177438Y-111476190D02*
X118225057Y-111523809D01*
X118225057Y-111523809D02*
X118320295Y-111571428D01*
X118320295Y-111571428D02*
X118415533Y-111571428D01*
X118415533Y-111571428D02*
X118558390Y-111523809D01*
X118558390Y-111523809D02*
X119129819Y-110952381D01*
X119129819Y-110952381D02*
X119129819Y-111571428D01*
X118225057Y-111952381D02*
X118177438Y-112000000D01*
X118177438Y-112000000D02*
X118129819Y-112095238D01*
X118129819Y-112095238D02*
X118129819Y-112333333D01*
X118129819Y-112333333D02*
X118177438Y-112428571D01*
X118177438Y-112428571D02*
X118225057Y-112476190D01*
X118225057Y-112476190D02*
X118320295Y-112523809D01*
X118320295Y-112523809D02*
X118415533Y-112523809D01*
X118415533Y-112523809D02*
X118558390Y-112476190D01*
X118558390Y-112476190D02*
X119129819Y-111904762D01*
X119129819Y-111904762D02*
X119129819Y-112523809D01*
X118463152Y-113380952D02*
X119129819Y-113380952D01*
X118463152Y-112952381D02*
X118986961Y-112952381D01*
X118986961Y-112952381D02*
X119082200Y-113000000D01*
X119082200Y-113000000D02*
X119129819Y-113095238D01*
X119129819Y-113095238D02*
X119129819Y-113238095D01*
X119129819Y-113238095D02*
X119082200Y-113333333D01*
X119082200Y-113333333D02*
X119034580Y-113380952D01*
X118463152Y-113714286D02*
X118463152Y-114095238D01*
X119129819Y-113857143D02*
X118272676Y-113857143D01*
X118272676Y-113857143D02*
X118177438Y-113904762D01*
X118177438Y-113904762D02*
X118129819Y-114000000D01*
X118129819Y-114000000D02*
X118129819Y-114095238D01*
D11*
X116662664Y-111985714D02*
X116700760Y-111947618D01*
X116700760Y-111947618D02*
X116738855Y-111833333D01*
X116738855Y-111833333D02*
X116738855Y-111757142D01*
X116738855Y-111757142D02*
X116700760Y-111642856D01*
X116700760Y-111642856D02*
X116624569Y-111566666D01*
X116624569Y-111566666D02*
X116548379Y-111528571D01*
X116548379Y-111528571D02*
X116395998Y-111490475D01*
X116395998Y-111490475D02*
X116281712Y-111490475D01*
X116281712Y-111490475D02*
X116129331Y-111528571D01*
X116129331Y-111528571D02*
X116053140Y-111566666D01*
X116053140Y-111566666D02*
X115976950Y-111642856D01*
X115976950Y-111642856D02*
X115938855Y-111757142D01*
X115938855Y-111757142D02*
X115938855Y-111833333D01*
X115938855Y-111833333D02*
X115976950Y-111947618D01*
X115976950Y-111947618D02*
X116015045Y-111985714D01*
X115938855Y-112709523D02*
X115938855Y-112328571D01*
X115938855Y-112328571D02*
X116319807Y-112290475D01*
X116319807Y-112290475D02*
X116281712Y-112328571D01*
X116281712Y-112328571D02*
X116243617Y-112404761D01*
X116243617Y-112404761D02*
X116243617Y-112595237D01*
X116243617Y-112595237D02*
X116281712Y-112671428D01*
X116281712Y-112671428D02*
X116319807Y-112709523D01*
X116319807Y-112709523D02*
X116395998Y-112747618D01*
X116395998Y-112747618D02*
X116586474Y-112747618D01*
X116586474Y-112747618D02*
X116662664Y-112709523D01*
X116662664Y-112709523D02*
X116700760Y-112671428D01*
X116700760Y-112671428D02*
X116738855Y-112595237D01*
X116738855Y-112595237D02*
X116738855Y-112404761D01*
X116738855Y-112404761D02*
X116700760Y-112328571D01*
X116700760Y-112328571D02*
X116662664Y-112290475D01*
X115938855Y-113433333D02*
X115938855Y-113280952D01*
X115938855Y-113280952D02*
X115976950Y-113204761D01*
X115976950Y-113204761D02*
X116015045Y-113166666D01*
X116015045Y-113166666D02*
X116129331Y-113090476D01*
X116129331Y-113090476D02*
X116281712Y-113052380D01*
X116281712Y-113052380D02*
X116586474Y-113052380D01*
X116586474Y-113052380D02*
X116662664Y-113090476D01*
X116662664Y-113090476D02*
X116700760Y-113128571D01*
X116700760Y-113128571D02*
X116738855Y-113204761D01*
X116738855Y-113204761D02*
X116738855Y-113357142D01*
X116738855Y-113357142D02*
X116700760Y-113433333D01*
X116700760Y-113433333D02*
X116662664Y-113471428D01*
X116662664Y-113471428D02*
X116586474Y-113509523D01*
X116586474Y-113509523D02*
X116395998Y-113509523D01*
X116395998Y-113509523D02*
X116319807Y-113471428D01*
X116319807Y-113471428D02*
X116281712Y-113433333D01*
X116281712Y-113433333D02*
X116243617Y-113357142D01*
X116243617Y-113357142D02*
X116243617Y-113204761D01*
X116243617Y-113204761D02*
X116281712Y-113128571D01*
X116281712Y-113128571D02*
X116319807Y-113090476D01*
X116319807Y-113090476D02*
X116395998Y-113052380D01*
D10*
X113625057Y-106325000D02*
X113577438Y-106372619D01*
X113577438Y-106372619D02*
X113529819Y-106467857D01*
X113529819Y-106467857D02*
X113529819Y-106705952D01*
X113529819Y-106705952D02*
X113577438Y-106801190D01*
X113577438Y-106801190D02*
X113625057Y-106848809D01*
X113625057Y-106848809D02*
X113720295Y-106896428D01*
X113720295Y-106896428D02*
X113815533Y-106896428D01*
X113815533Y-106896428D02*
X113958390Y-106848809D01*
X113958390Y-106848809D02*
X114529819Y-106277381D01*
X114529819Y-106277381D02*
X114529819Y-106896428D01*
X113625057Y-107277381D02*
X113577438Y-107325000D01*
X113577438Y-107325000D02*
X113529819Y-107420238D01*
X113529819Y-107420238D02*
X113529819Y-107658333D01*
X113529819Y-107658333D02*
X113577438Y-107753571D01*
X113577438Y-107753571D02*
X113625057Y-107801190D01*
X113625057Y-107801190D02*
X113720295Y-107848809D01*
X113720295Y-107848809D02*
X113815533Y-107848809D01*
X113815533Y-107848809D02*
X113958390Y-107801190D01*
X113958390Y-107801190D02*
X114529819Y-107229762D01*
X114529819Y-107229762D02*
X114529819Y-107848809D01*
X113863152Y-108705952D02*
X114529819Y-108705952D01*
X113863152Y-108277381D02*
X114386961Y-108277381D01*
X114386961Y-108277381D02*
X114482200Y-108325000D01*
X114482200Y-108325000D02*
X114529819Y-108420238D01*
X114529819Y-108420238D02*
X114529819Y-108563095D01*
X114529819Y-108563095D02*
X114482200Y-108658333D01*
X114482200Y-108658333D02*
X114434580Y-108705952D01*
X113863152Y-109039286D02*
X113863152Y-109420238D01*
X114529819Y-109182143D02*
X113672676Y-109182143D01*
X113672676Y-109182143D02*
X113577438Y-109229762D01*
X113577438Y-109229762D02*
X113529819Y-109325000D01*
X113529819Y-109325000D02*
X113529819Y-109420238D01*
D11*
X116662664Y-107310714D02*
X116700760Y-107272618D01*
X116700760Y-107272618D02*
X116738855Y-107158333D01*
X116738855Y-107158333D02*
X116738855Y-107082142D01*
X116738855Y-107082142D02*
X116700760Y-106967856D01*
X116700760Y-106967856D02*
X116624569Y-106891666D01*
X116624569Y-106891666D02*
X116548379Y-106853571D01*
X116548379Y-106853571D02*
X116395998Y-106815475D01*
X116395998Y-106815475D02*
X116281712Y-106815475D01*
X116281712Y-106815475D02*
X116129331Y-106853571D01*
X116129331Y-106853571D02*
X116053140Y-106891666D01*
X116053140Y-106891666D02*
X115976950Y-106967856D01*
X115976950Y-106967856D02*
X115938855Y-107082142D01*
X115938855Y-107082142D02*
X115938855Y-107158333D01*
X115938855Y-107158333D02*
X115976950Y-107272618D01*
X115976950Y-107272618D02*
X116015045Y-107310714D01*
X115938855Y-107996428D02*
X115938855Y-107844047D01*
X115938855Y-107844047D02*
X115976950Y-107767856D01*
X115976950Y-107767856D02*
X116015045Y-107729761D01*
X116015045Y-107729761D02*
X116129331Y-107653571D01*
X116129331Y-107653571D02*
X116281712Y-107615475D01*
X116281712Y-107615475D02*
X116586474Y-107615475D01*
X116586474Y-107615475D02*
X116662664Y-107653571D01*
X116662664Y-107653571D02*
X116700760Y-107691666D01*
X116700760Y-107691666D02*
X116738855Y-107767856D01*
X116738855Y-107767856D02*
X116738855Y-107920237D01*
X116738855Y-107920237D02*
X116700760Y-107996428D01*
X116700760Y-107996428D02*
X116662664Y-108034523D01*
X116662664Y-108034523D02*
X116586474Y-108072618D01*
X116586474Y-108072618D02*
X116395998Y-108072618D01*
X116395998Y-108072618D02*
X116319807Y-108034523D01*
X116319807Y-108034523D02*
X116281712Y-107996428D01*
X116281712Y-107996428D02*
X116243617Y-107920237D01*
X116243617Y-107920237D02*
X116243617Y-107767856D01*
X116243617Y-107767856D02*
X116281712Y-107691666D01*
X116281712Y-107691666D02*
X116319807Y-107653571D01*
X116319807Y-107653571D02*
X116395998Y-107615475D01*
X115938855Y-108339285D02*
X115938855Y-108834523D01*
X115938855Y-108834523D02*
X116243617Y-108567857D01*
X116243617Y-108567857D02*
X116243617Y-108682142D01*
X116243617Y-108682142D02*
X116281712Y-108758333D01*
X116281712Y-108758333D02*
X116319807Y-108796428D01*
X116319807Y-108796428D02*
X116395998Y-108834523D01*
X116395998Y-108834523D02*
X116586474Y-108834523D01*
X116586474Y-108834523D02*
X116662664Y-108796428D01*
X116662664Y-108796428D02*
X116700760Y-108758333D01*
X116700760Y-108758333D02*
X116738855Y-108682142D01*
X116738855Y-108682142D02*
X116738855Y-108453571D01*
X116738855Y-108453571D02*
X116700760Y-108377380D01*
X116700760Y-108377380D02*
X116662664Y-108339285D01*
D10*
X121644819Y-95620237D02*
X121644819Y-95048809D01*
X121644819Y-95334523D02*
X120644819Y-95334523D01*
X120644819Y-95334523D02*
X120787676Y-95239285D01*
X120787676Y-95239285D02*
X120882914Y-95144047D01*
X120882914Y-95144047D02*
X120930533Y-95048809D01*
X120644819Y-96239285D02*
X120644819Y-96334523D01*
X120644819Y-96334523D02*
X120692438Y-96429761D01*
X120692438Y-96429761D02*
X120740057Y-96477380D01*
X120740057Y-96477380D02*
X120835295Y-96524999D01*
X120835295Y-96524999D02*
X121025771Y-96572618D01*
X121025771Y-96572618D02*
X121263866Y-96572618D01*
X121263866Y-96572618D02*
X121454342Y-96524999D01*
X121454342Y-96524999D02*
X121549580Y-96477380D01*
X121549580Y-96477380D02*
X121597200Y-96429761D01*
X121597200Y-96429761D02*
X121644819Y-96334523D01*
X121644819Y-96334523D02*
X121644819Y-96239285D01*
X121644819Y-96239285D02*
X121597200Y-96144047D01*
X121597200Y-96144047D02*
X121549580Y-96096428D01*
X121549580Y-96096428D02*
X121454342Y-96048809D01*
X121454342Y-96048809D02*
X121263866Y-96001190D01*
X121263866Y-96001190D02*
X121025771Y-96001190D01*
X121025771Y-96001190D02*
X120835295Y-96048809D01*
X120835295Y-96048809D02*
X120740057Y-96096428D01*
X120740057Y-96096428D02*
X120692438Y-96144047D01*
X120692438Y-96144047D02*
X120644819Y-96239285D01*
X120644819Y-97191666D02*
X120644819Y-97286904D01*
X120644819Y-97286904D02*
X120692438Y-97382142D01*
X120692438Y-97382142D02*
X120740057Y-97429761D01*
X120740057Y-97429761D02*
X120835295Y-97477380D01*
X120835295Y-97477380D02*
X121025771Y-97524999D01*
X121025771Y-97524999D02*
X121263866Y-97524999D01*
X121263866Y-97524999D02*
X121454342Y-97477380D01*
X121454342Y-97477380D02*
X121549580Y-97429761D01*
X121549580Y-97429761D02*
X121597200Y-97382142D01*
X121597200Y-97382142D02*
X121644819Y-97286904D01*
X121644819Y-97286904D02*
X121644819Y-97191666D01*
X121644819Y-97191666D02*
X121597200Y-97096428D01*
X121597200Y-97096428D02*
X121549580Y-97048809D01*
X121549580Y-97048809D02*
X121454342Y-97001190D01*
X121454342Y-97001190D02*
X121263866Y-96953571D01*
X121263866Y-96953571D02*
X121025771Y-96953571D01*
X121025771Y-96953571D02*
X120835295Y-97001190D01*
X120835295Y-97001190D02*
X120740057Y-97048809D01*
X120740057Y-97048809D02*
X120692438Y-97096428D01*
X120692438Y-97096428D02*
X120644819Y-97191666D01*
X120978152Y-97953571D02*
X121644819Y-97953571D01*
X121073390Y-97953571D02*
X121025771Y-98001190D01*
X121025771Y-98001190D02*
X120978152Y-98096428D01*
X120978152Y-98096428D02*
X120978152Y-98239285D01*
X120978152Y-98239285D02*
X121025771Y-98334523D01*
X121025771Y-98334523D02*
X121121009Y-98382142D01*
X121121009Y-98382142D02*
X121644819Y-98382142D01*
X120978152Y-98715476D02*
X120978152Y-99096428D01*
X121644819Y-98858333D02*
X120787676Y-98858333D01*
X120787676Y-98858333D02*
X120692438Y-98905952D01*
X120692438Y-98905952D02*
X120644819Y-99001190D01*
X120644819Y-99001190D02*
X120644819Y-99096428D01*
D12*
X122763832Y-96767857D02*
X122782880Y-96748809D01*
X122782880Y-96748809D02*
X122801927Y-96691667D01*
X122801927Y-96691667D02*
X122801927Y-96653571D01*
X122801927Y-96653571D02*
X122782880Y-96596428D01*
X122782880Y-96596428D02*
X122744784Y-96558333D01*
X122744784Y-96558333D02*
X122706689Y-96539286D01*
X122706689Y-96539286D02*
X122630499Y-96520238D01*
X122630499Y-96520238D02*
X122573356Y-96520238D01*
X122573356Y-96520238D02*
X122497165Y-96539286D01*
X122497165Y-96539286D02*
X122459070Y-96558333D01*
X122459070Y-96558333D02*
X122420975Y-96596428D01*
X122420975Y-96596428D02*
X122401927Y-96653571D01*
X122401927Y-96653571D02*
X122401927Y-96691667D01*
X122401927Y-96691667D02*
X122420975Y-96748809D01*
X122420975Y-96748809D02*
X122440022Y-96767857D01*
X122401927Y-97129762D02*
X122401927Y-96939286D01*
X122401927Y-96939286D02*
X122592403Y-96920238D01*
X122592403Y-96920238D02*
X122573356Y-96939286D01*
X122573356Y-96939286D02*
X122554308Y-96977381D01*
X122554308Y-96977381D02*
X122554308Y-97072619D01*
X122554308Y-97072619D02*
X122573356Y-97110714D01*
X122573356Y-97110714D02*
X122592403Y-97129762D01*
X122592403Y-97129762D02*
X122630499Y-97148809D01*
X122630499Y-97148809D02*
X122725737Y-97148809D01*
X122725737Y-97148809D02*
X122763832Y-97129762D01*
X122763832Y-97129762D02*
X122782880Y-97110714D01*
X122782880Y-97110714D02*
X122801927Y-97072619D01*
X122801927Y-97072619D02*
X122801927Y-96977381D01*
X122801927Y-96977381D02*
X122782880Y-96939286D01*
X122782880Y-96939286D02*
X122763832Y-96920238D01*
X122801927Y-97339285D02*
X122801927Y-97415476D01*
X122801927Y-97415476D02*
X122782880Y-97453571D01*
X122782880Y-97453571D02*
X122763832Y-97472619D01*
X122763832Y-97472619D02*
X122706689Y-97510714D01*
X122706689Y-97510714D02*
X122630499Y-97529761D01*
X122630499Y-97529761D02*
X122478118Y-97529761D01*
X122478118Y-97529761D02*
X122440022Y-97510714D01*
X122440022Y-97510714D02*
X122420975Y-97491666D01*
X122420975Y-97491666D02*
X122401927Y-97453571D01*
X122401927Y-97453571D02*
X122401927Y-97377380D01*
X122401927Y-97377380D02*
X122420975Y-97339285D01*
X122420975Y-97339285D02*
X122440022Y-97320238D01*
X122440022Y-97320238D02*
X122478118Y-97301190D01*
X122478118Y-97301190D02*
X122573356Y-97301190D01*
X122573356Y-97301190D02*
X122611451Y-97320238D01*
X122611451Y-97320238D02*
X122630499Y-97339285D01*
X122630499Y-97339285D02*
X122649546Y-97377380D01*
X122649546Y-97377380D02*
X122649546Y-97453571D01*
X122649546Y-97453571D02*
X122630499Y-97491666D01*
X122630499Y-97491666D02*
X122611451Y-97510714D01*
X122611451Y-97510714D02*
X122573356Y-97529761D01*
D10*
X118031904Y-97467319D02*
X118031904Y-98276842D01*
X118031904Y-98276842D02*
X117984285Y-98372080D01*
X117984285Y-98372080D02*
X117936666Y-98419700D01*
X117936666Y-98419700D02*
X117841428Y-98467319D01*
X117841428Y-98467319D02*
X117650952Y-98467319D01*
X117650952Y-98467319D02*
X117555714Y-98419700D01*
X117555714Y-98419700D02*
X117508095Y-98372080D01*
X117508095Y-98372080D02*
X117460476Y-98276842D01*
X117460476Y-98276842D02*
X117460476Y-97467319D01*
X116555714Y-97467319D02*
X116746190Y-97467319D01*
X116746190Y-97467319D02*
X116841428Y-97514938D01*
X116841428Y-97514938D02*
X116889047Y-97562557D01*
X116889047Y-97562557D02*
X116984285Y-97705414D01*
X116984285Y-97705414D02*
X117031904Y-97895890D01*
X117031904Y-97895890D02*
X117031904Y-98276842D01*
X117031904Y-98276842D02*
X116984285Y-98372080D01*
X116984285Y-98372080D02*
X116936666Y-98419700D01*
X116936666Y-98419700D02*
X116841428Y-98467319D01*
X116841428Y-98467319D02*
X116650952Y-98467319D01*
X116650952Y-98467319D02*
X116555714Y-98419700D01*
X116555714Y-98419700D02*
X116508095Y-98372080D01*
X116508095Y-98372080D02*
X116460476Y-98276842D01*
X116460476Y-98276842D02*
X116460476Y-98038747D01*
X116460476Y-98038747D02*
X116508095Y-97943509D01*
X116508095Y-97943509D02*
X116555714Y-97895890D01*
X116555714Y-97895890D02*
X116650952Y-97848271D01*
X116650952Y-97848271D02*
X116841428Y-97848271D01*
X116841428Y-97848271D02*
X116936666Y-97895890D01*
X116936666Y-97895890D02*
X116984285Y-97943509D01*
X116984285Y-97943509D02*
X117031904Y-98038747D01*
X118855238Y-91909819D02*
X119426666Y-91909819D01*
X119140952Y-91909819D02*
X119140952Y-90909819D01*
X119140952Y-90909819D02*
X119236190Y-91052676D01*
X119236190Y-91052676D02*
X119331428Y-91147914D01*
X119331428Y-91147914D02*
X119426666Y-91195533D01*
X118236190Y-90909819D02*
X118140952Y-90909819D01*
X118140952Y-90909819D02*
X118045714Y-90957438D01*
X118045714Y-90957438D02*
X117998095Y-91005057D01*
X117998095Y-91005057D02*
X117950476Y-91100295D01*
X117950476Y-91100295D02*
X117902857Y-91290771D01*
X117902857Y-91290771D02*
X117902857Y-91528866D01*
X117902857Y-91528866D02*
X117950476Y-91719342D01*
X117950476Y-91719342D02*
X117998095Y-91814580D01*
X117998095Y-91814580D02*
X118045714Y-91862200D01*
X118045714Y-91862200D02*
X118140952Y-91909819D01*
X118140952Y-91909819D02*
X118236190Y-91909819D01*
X118236190Y-91909819D02*
X118331428Y-91862200D01*
X118331428Y-91862200D02*
X118379047Y-91814580D01*
X118379047Y-91814580D02*
X118426666Y-91719342D01*
X118426666Y-91719342D02*
X118474285Y-91528866D01*
X118474285Y-91528866D02*
X118474285Y-91290771D01*
X118474285Y-91290771D02*
X118426666Y-91100295D01*
X118426666Y-91100295D02*
X118379047Y-91005057D01*
X118379047Y-91005057D02*
X118331428Y-90957438D01*
X118331428Y-90957438D02*
X118236190Y-90909819D01*
X117474285Y-91909819D02*
X117474285Y-90909819D01*
X117379047Y-91528866D02*
X117093333Y-91909819D01*
X117093333Y-91243152D02*
X117474285Y-91624104D01*
D13*
X118427142Y-92743200D02*
X118513809Y-92619391D01*
X118575714Y-92743200D02*
X118575714Y-92483200D01*
X118575714Y-92483200D02*
X118476666Y-92483200D01*
X118476666Y-92483200D02*
X118451904Y-92495581D01*
X118451904Y-92495581D02*
X118439523Y-92507962D01*
X118439523Y-92507962D02*
X118427142Y-92532724D01*
X118427142Y-92532724D02*
X118427142Y-92569867D01*
X118427142Y-92569867D02*
X118439523Y-92594629D01*
X118439523Y-92594629D02*
X118451904Y-92607010D01*
X118451904Y-92607010D02*
X118476666Y-92619391D01*
X118476666Y-92619391D02*
X118575714Y-92619391D01*
X118191904Y-92483200D02*
X118315714Y-92483200D01*
X118315714Y-92483200D02*
X118328095Y-92607010D01*
X118328095Y-92607010D02*
X118315714Y-92594629D01*
X118315714Y-92594629D02*
X118290952Y-92582248D01*
X118290952Y-92582248D02*
X118229047Y-92582248D01*
X118229047Y-92582248D02*
X118204285Y-92594629D01*
X118204285Y-92594629D02*
X118191904Y-92607010D01*
X118191904Y-92607010D02*
X118179523Y-92631772D01*
X118179523Y-92631772D02*
X118179523Y-92693677D01*
X118179523Y-92693677D02*
X118191904Y-92718439D01*
X118191904Y-92718439D02*
X118204285Y-92730820D01*
X118204285Y-92730820D02*
X118229047Y-92743200D01*
X118229047Y-92743200D02*
X118290952Y-92743200D01*
X118290952Y-92743200D02*
X118315714Y-92730820D01*
X118315714Y-92730820D02*
X118328095Y-92718439D01*
X118055714Y-92743200D02*
X118006190Y-92743200D01*
X118006190Y-92743200D02*
X117981428Y-92730820D01*
X117981428Y-92730820D02*
X117969047Y-92718439D01*
X117969047Y-92718439D02*
X117944285Y-92681296D01*
X117944285Y-92681296D02*
X117931904Y-92631772D01*
X117931904Y-92631772D02*
X117931904Y-92532724D01*
X117931904Y-92532724D02*
X117944285Y-92507962D01*
X117944285Y-92507962D02*
X117956666Y-92495581D01*
X117956666Y-92495581D02*
X117981428Y-92483200D01*
X117981428Y-92483200D02*
X118030952Y-92483200D01*
X118030952Y-92483200D02*
X118055714Y-92495581D01*
X118055714Y-92495581D02*
X118068095Y-92507962D01*
X118068095Y-92507962D02*
X118080476Y-92532724D01*
X118080476Y-92532724D02*
X118080476Y-92594629D01*
X118080476Y-92594629D02*
X118068095Y-92619391D01*
X118068095Y-92619391D02*
X118055714Y-92631772D01*
X118055714Y-92631772D02*
X118030952Y-92644153D01*
X118030952Y-92644153D02*
X117981428Y-92644153D01*
X117981428Y-92644153D02*
X117956666Y-92631772D01*
X117956666Y-92631772D02*
X117944285Y-92619391D01*
X117944285Y-92619391D02*
X117931904Y-92594629D01*
X123225714Y-107014765D02*
X123237618Y-107026670D01*
X123237618Y-107026670D02*
X123273333Y-107038574D01*
X123273333Y-107038574D02*
X123297142Y-107038574D01*
X123297142Y-107038574D02*
X123332856Y-107026670D01*
X123332856Y-107026670D02*
X123356666Y-107002860D01*
X123356666Y-107002860D02*
X123368571Y-106979050D01*
X123368571Y-106979050D02*
X123380475Y-106931431D01*
X123380475Y-106931431D02*
X123380475Y-106895717D01*
X123380475Y-106895717D02*
X123368571Y-106848098D01*
X123368571Y-106848098D02*
X123356666Y-106824289D01*
X123356666Y-106824289D02*
X123332856Y-106800479D01*
X123332856Y-106800479D02*
X123297142Y-106788574D01*
X123297142Y-106788574D02*
X123273333Y-106788574D01*
X123273333Y-106788574D02*
X123237618Y-106800479D01*
X123237618Y-106800479D02*
X123225714Y-106812384D01*
X123011428Y-106871908D02*
X123011428Y-107038574D01*
X123070952Y-106776670D02*
X123130475Y-106955241D01*
X123130475Y-106955241D02*
X122975714Y-106955241D01*
X122892380Y-106812384D02*
X122880476Y-106800479D01*
X122880476Y-106800479D02*
X122856666Y-106788574D01*
X122856666Y-106788574D02*
X122797142Y-106788574D01*
X122797142Y-106788574D02*
X122773333Y-106800479D01*
X122773333Y-106800479D02*
X122761428Y-106812384D01*
X122761428Y-106812384D02*
X122749523Y-106836193D01*
X122749523Y-106836193D02*
X122749523Y-106860003D01*
X122749523Y-106860003D02*
X122761428Y-106895717D01*
X122761428Y-106895717D02*
X122904285Y-107038574D01*
X122904285Y-107038574D02*
X122749523Y-107038574D01*
D10*
X116900057Y-106325000D02*
X116852438Y-106372619D01*
X116852438Y-106372619D02*
X116804819Y-106467857D01*
X116804819Y-106467857D02*
X116804819Y-106705952D01*
X116804819Y-106705952D02*
X116852438Y-106801190D01*
X116852438Y-106801190D02*
X116900057Y-106848809D01*
X116900057Y-106848809D02*
X116995295Y-106896428D01*
X116995295Y-106896428D02*
X117090533Y-106896428D01*
X117090533Y-106896428D02*
X117233390Y-106848809D01*
X117233390Y-106848809D02*
X117804819Y-106277381D01*
X117804819Y-106277381D02*
X117804819Y-106896428D01*
X116900057Y-107277381D02*
X116852438Y-107325000D01*
X116852438Y-107325000D02*
X116804819Y-107420238D01*
X116804819Y-107420238D02*
X116804819Y-107658333D01*
X116804819Y-107658333D02*
X116852438Y-107753571D01*
X116852438Y-107753571D02*
X116900057Y-107801190D01*
X116900057Y-107801190D02*
X116995295Y-107848809D01*
X116995295Y-107848809D02*
X117090533Y-107848809D01*
X117090533Y-107848809D02*
X117233390Y-107801190D01*
X117233390Y-107801190D02*
X117804819Y-107229762D01*
X117804819Y-107229762D02*
X117804819Y-107848809D01*
X117138152Y-108705952D02*
X117804819Y-108705952D01*
X117138152Y-108277381D02*
X117661961Y-108277381D01*
X117661961Y-108277381D02*
X117757200Y-108325000D01*
X117757200Y-108325000D02*
X117804819Y-108420238D01*
X117804819Y-108420238D02*
X117804819Y-108563095D01*
X117804819Y-108563095D02*
X117757200Y-108658333D01*
X117757200Y-108658333D02*
X117709580Y-108705952D01*
X117138152Y-109039286D02*
X117138152Y-109420238D01*
X117804819Y-109182143D02*
X116947676Y-109182143D01*
X116947676Y-109182143D02*
X116852438Y-109229762D01*
X116852438Y-109229762D02*
X116804819Y-109325000D01*
X116804819Y-109325000D02*
X116804819Y-109420238D01*
D11*
X119937664Y-107310714D02*
X119975760Y-107272618D01*
X119975760Y-107272618D02*
X120013855Y-107158333D01*
X120013855Y-107158333D02*
X120013855Y-107082142D01*
X120013855Y-107082142D02*
X119975760Y-106967856D01*
X119975760Y-106967856D02*
X119899569Y-106891666D01*
X119899569Y-106891666D02*
X119823379Y-106853571D01*
X119823379Y-106853571D02*
X119670998Y-106815475D01*
X119670998Y-106815475D02*
X119556712Y-106815475D01*
X119556712Y-106815475D02*
X119404331Y-106853571D01*
X119404331Y-106853571D02*
X119328140Y-106891666D01*
X119328140Y-106891666D02*
X119251950Y-106967856D01*
X119251950Y-106967856D02*
X119213855Y-107082142D01*
X119213855Y-107082142D02*
X119213855Y-107158333D01*
X119213855Y-107158333D02*
X119251950Y-107272618D01*
X119251950Y-107272618D02*
X119290045Y-107310714D01*
X119213855Y-107996428D02*
X119213855Y-107844047D01*
X119213855Y-107844047D02*
X119251950Y-107767856D01*
X119251950Y-107767856D02*
X119290045Y-107729761D01*
X119290045Y-107729761D02*
X119404331Y-107653571D01*
X119404331Y-107653571D02*
X119556712Y-107615475D01*
X119556712Y-107615475D02*
X119861474Y-107615475D01*
X119861474Y-107615475D02*
X119937664Y-107653571D01*
X119937664Y-107653571D02*
X119975760Y-107691666D01*
X119975760Y-107691666D02*
X120013855Y-107767856D01*
X120013855Y-107767856D02*
X120013855Y-107920237D01*
X120013855Y-107920237D02*
X119975760Y-107996428D01*
X119975760Y-107996428D02*
X119937664Y-108034523D01*
X119937664Y-108034523D02*
X119861474Y-108072618D01*
X119861474Y-108072618D02*
X119670998Y-108072618D01*
X119670998Y-108072618D02*
X119594807Y-108034523D01*
X119594807Y-108034523D02*
X119556712Y-107996428D01*
X119556712Y-107996428D02*
X119518617Y-107920237D01*
X119518617Y-107920237D02*
X119518617Y-107767856D01*
X119518617Y-107767856D02*
X119556712Y-107691666D01*
X119556712Y-107691666D02*
X119594807Y-107653571D01*
X119594807Y-107653571D02*
X119670998Y-107615475D01*
X119480521Y-108758333D02*
X120013855Y-108758333D01*
X119175760Y-108567857D02*
X119747188Y-108377380D01*
X119747188Y-108377380D02*
X119747188Y-108872619D01*
D12*
X130702142Y-96503832D02*
X130721190Y-96522880D01*
X130721190Y-96522880D02*
X130778332Y-96541927D01*
X130778332Y-96541927D02*
X130816428Y-96541927D01*
X130816428Y-96541927D02*
X130873571Y-96522880D01*
X130873571Y-96522880D02*
X130911666Y-96484784D01*
X130911666Y-96484784D02*
X130930713Y-96446689D01*
X130930713Y-96446689D02*
X130949761Y-96370499D01*
X130949761Y-96370499D02*
X130949761Y-96313356D01*
X130949761Y-96313356D02*
X130930713Y-96237165D01*
X130930713Y-96237165D02*
X130911666Y-96199070D01*
X130911666Y-96199070D02*
X130873571Y-96160975D01*
X130873571Y-96160975D02*
X130816428Y-96141927D01*
X130816428Y-96141927D02*
X130778332Y-96141927D01*
X130778332Y-96141927D02*
X130721190Y-96160975D01*
X130721190Y-96160975D02*
X130702142Y-96180022D01*
X130359285Y-96141927D02*
X130435475Y-96141927D01*
X130435475Y-96141927D02*
X130473571Y-96160975D01*
X130473571Y-96160975D02*
X130492618Y-96180022D01*
X130492618Y-96180022D02*
X130530713Y-96237165D01*
X130530713Y-96237165D02*
X130549761Y-96313356D01*
X130549761Y-96313356D02*
X130549761Y-96465737D01*
X130549761Y-96465737D02*
X130530713Y-96503832D01*
X130530713Y-96503832D02*
X130511666Y-96522880D01*
X130511666Y-96522880D02*
X130473571Y-96541927D01*
X130473571Y-96541927D02*
X130397380Y-96541927D01*
X130397380Y-96541927D02*
X130359285Y-96522880D01*
X130359285Y-96522880D02*
X130340237Y-96503832D01*
X130340237Y-96503832D02*
X130321190Y-96465737D01*
X130321190Y-96465737D02*
X130321190Y-96370499D01*
X130321190Y-96370499D02*
X130340237Y-96332403D01*
X130340237Y-96332403D02*
X130359285Y-96313356D01*
X130359285Y-96313356D02*
X130397380Y-96294308D01*
X130397380Y-96294308D02*
X130473571Y-96294308D01*
X130473571Y-96294308D02*
X130511666Y-96313356D01*
X130511666Y-96313356D02*
X130530713Y-96332403D01*
X130530713Y-96332403D02*
X130549761Y-96370499D01*
X129940238Y-96541927D02*
X130168809Y-96541927D01*
X130054523Y-96541927D02*
X130054523Y-96141927D01*
X130054523Y-96141927D02*
X130092619Y-96199070D01*
X130092619Y-96199070D02*
X130130714Y-96237165D01*
X130130714Y-96237165D02*
X130168809Y-96256213D01*
X140113832Y-106592857D02*
X140132880Y-106573809D01*
X140132880Y-106573809D02*
X140151927Y-106516667D01*
X140151927Y-106516667D02*
X140151927Y-106478571D01*
X140151927Y-106478571D02*
X140132880Y-106421428D01*
X140132880Y-106421428D02*
X140094784Y-106383333D01*
X140094784Y-106383333D02*
X140056689Y-106364286D01*
X140056689Y-106364286D02*
X139980499Y-106345238D01*
X139980499Y-106345238D02*
X139923356Y-106345238D01*
X139923356Y-106345238D02*
X139847165Y-106364286D01*
X139847165Y-106364286D02*
X139809070Y-106383333D01*
X139809070Y-106383333D02*
X139770975Y-106421428D01*
X139770975Y-106421428D02*
X139751927Y-106478571D01*
X139751927Y-106478571D02*
X139751927Y-106516667D01*
X139751927Y-106516667D02*
X139770975Y-106573809D01*
X139770975Y-106573809D02*
X139790022Y-106592857D01*
X139751927Y-106726190D02*
X139751927Y-106973809D01*
X139751927Y-106973809D02*
X139904308Y-106840476D01*
X139904308Y-106840476D02*
X139904308Y-106897619D01*
X139904308Y-106897619D02*
X139923356Y-106935714D01*
X139923356Y-106935714D02*
X139942403Y-106954762D01*
X139942403Y-106954762D02*
X139980499Y-106973809D01*
X139980499Y-106973809D02*
X140075737Y-106973809D01*
X140075737Y-106973809D02*
X140113832Y-106954762D01*
X140113832Y-106954762D02*
X140132880Y-106935714D01*
X140132880Y-106935714D02*
X140151927Y-106897619D01*
X140151927Y-106897619D02*
X140151927Y-106783333D01*
X140151927Y-106783333D02*
X140132880Y-106745238D01*
X140132880Y-106745238D02*
X140113832Y-106726190D01*
X139751927Y-107107142D02*
X139751927Y-107354761D01*
X139751927Y-107354761D02*
X139904308Y-107221428D01*
X139904308Y-107221428D02*
X139904308Y-107278571D01*
X139904308Y-107278571D02*
X139923356Y-107316666D01*
X139923356Y-107316666D02*
X139942403Y-107335714D01*
X139942403Y-107335714D02*
X139980499Y-107354761D01*
X139980499Y-107354761D02*
X140075737Y-107354761D01*
X140075737Y-107354761D02*
X140113832Y-107335714D01*
X140113832Y-107335714D02*
X140132880Y-107316666D01*
X140132880Y-107316666D02*
X140151927Y-107278571D01*
X140151927Y-107278571D02*
X140151927Y-107164285D01*
X140151927Y-107164285D02*
X140132880Y-107126190D01*
X140132880Y-107126190D02*
X140113832Y-107107142D01*
X130702142Y-94978832D02*
X130721190Y-94997880D01*
X130721190Y-94997880D02*
X130778332Y-95016927D01*
X130778332Y-95016927D02*
X130816428Y-95016927D01*
X130816428Y-95016927D02*
X130873571Y-94997880D01*
X130873571Y-94997880D02*
X130911666Y-94959784D01*
X130911666Y-94959784D02*
X130930713Y-94921689D01*
X130930713Y-94921689D02*
X130949761Y-94845499D01*
X130949761Y-94845499D02*
X130949761Y-94788356D01*
X130949761Y-94788356D02*
X130930713Y-94712165D01*
X130930713Y-94712165D02*
X130911666Y-94674070D01*
X130911666Y-94674070D02*
X130873571Y-94635975D01*
X130873571Y-94635975D02*
X130816428Y-94616927D01*
X130816428Y-94616927D02*
X130778332Y-94616927D01*
X130778332Y-94616927D02*
X130721190Y-94635975D01*
X130721190Y-94635975D02*
X130702142Y-94655022D01*
X130359285Y-94616927D02*
X130435475Y-94616927D01*
X130435475Y-94616927D02*
X130473571Y-94635975D01*
X130473571Y-94635975D02*
X130492618Y-94655022D01*
X130492618Y-94655022D02*
X130530713Y-94712165D01*
X130530713Y-94712165D02*
X130549761Y-94788356D01*
X130549761Y-94788356D02*
X130549761Y-94940737D01*
X130549761Y-94940737D02*
X130530713Y-94978832D01*
X130530713Y-94978832D02*
X130511666Y-94997880D01*
X130511666Y-94997880D02*
X130473571Y-95016927D01*
X130473571Y-95016927D02*
X130397380Y-95016927D01*
X130397380Y-95016927D02*
X130359285Y-94997880D01*
X130359285Y-94997880D02*
X130340237Y-94978832D01*
X130340237Y-94978832D02*
X130321190Y-94940737D01*
X130321190Y-94940737D02*
X130321190Y-94845499D01*
X130321190Y-94845499D02*
X130340237Y-94807403D01*
X130340237Y-94807403D02*
X130359285Y-94788356D01*
X130359285Y-94788356D02*
X130397380Y-94769308D01*
X130397380Y-94769308D02*
X130473571Y-94769308D01*
X130473571Y-94769308D02*
X130511666Y-94788356D01*
X130511666Y-94788356D02*
X130530713Y-94807403D01*
X130530713Y-94807403D02*
X130549761Y-94845499D01*
X130168809Y-94655022D02*
X130149761Y-94635975D01*
X130149761Y-94635975D02*
X130111666Y-94616927D01*
X130111666Y-94616927D02*
X130016428Y-94616927D01*
X130016428Y-94616927D02*
X129978333Y-94635975D01*
X129978333Y-94635975D02*
X129959285Y-94655022D01*
X129959285Y-94655022D02*
X129940238Y-94693118D01*
X129940238Y-94693118D02*
X129940238Y-94731213D01*
X129940238Y-94731213D02*
X129959285Y-94788356D01*
X129959285Y-94788356D02*
X130187857Y-95016927D01*
X130187857Y-95016927D02*
X129940238Y-95016927D01*
D11*
X119937664Y-111985714D02*
X119975760Y-111947618D01*
X119975760Y-111947618D02*
X120013855Y-111833333D01*
X120013855Y-111833333D02*
X120013855Y-111757142D01*
X120013855Y-111757142D02*
X119975760Y-111642856D01*
X119975760Y-111642856D02*
X119899569Y-111566666D01*
X119899569Y-111566666D02*
X119823379Y-111528571D01*
X119823379Y-111528571D02*
X119670998Y-111490475D01*
X119670998Y-111490475D02*
X119556712Y-111490475D01*
X119556712Y-111490475D02*
X119404331Y-111528571D01*
X119404331Y-111528571D02*
X119328140Y-111566666D01*
X119328140Y-111566666D02*
X119251950Y-111642856D01*
X119251950Y-111642856D02*
X119213855Y-111757142D01*
X119213855Y-111757142D02*
X119213855Y-111833333D01*
X119213855Y-111833333D02*
X119251950Y-111947618D01*
X119251950Y-111947618D02*
X119290045Y-111985714D01*
X119213855Y-112671428D02*
X119213855Y-112519047D01*
X119213855Y-112519047D02*
X119251950Y-112442856D01*
X119251950Y-112442856D02*
X119290045Y-112404761D01*
X119290045Y-112404761D02*
X119404331Y-112328571D01*
X119404331Y-112328571D02*
X119556712Y-112290475D01*
X119556712Y-112290475D02*
X119861474Y-112290475D01*
X119861474Y-112290475D02*
X119937664Y-112328571D01*
X119937664Y-112328571D02*
X119975760Y-112366666D01*
X119975760Y-112366666D02*
X120013855Y-112442856D01*
X120013855Y-112442856D02*
X120013855Y-112595237D01*
X120013855Y-112595237D02*
X119975760Y-112671428D01*
X119975760Y-112671428D02*
X119937664Y-112709523D01*
X119937664Y-112709523D02*
X119861474Y-112747618D01*
X119861474Y-112747618D02*
X119670998Y-112747618D01*
X119670998Y-112747618D02*
X119594807Y-112709523D01*
X119594807Y-112709523D02*
X119556712Y-112671428D01*
X119556712Y-112671428D02*
X119518617Y-112595237D01*
X119518617Y-112595237D02*
X119518617Y-112442856D01*
X119518617Y-112442856D02*
X119556712Y-112366666D01*
X119556712Y-112366666D02*
X119594807Y-112328571D01*
X119594807Y-112328571D02*
X119670998Y-112290475D01*
X119213855Y-113471428D02*
X119213855Y-113090476D01*
X119213855Y-113090476D02*
X119594807Y-113052380D01*
X119594807Y-113052380D02*
X119556712Y-113090476D01*
X119556712Y-113090476D02*
X119518617Y-113166666D01*
X119518617Y-113166666D02*
X119518617Y-113357142D01*
X119518617Y-113357142D02*
X119556712Y-113433333D01*
X119556712Y-113433333D02*
X119594807Y-113471428D01*
X119594807Y-113471428D02*
X119670998Y-113509523D01*
X119670998Y-113509523D02*
X119861474Y-113509523D01*
X119861474Y-113509523D02*
X119937664Y-113471428D01*
X119937664Y-113471428D02*
X119975760Y-113433333D01*
X119975760Y-113433333D02*
X120013855Y-113357142D01*
X120013855Y-113357142D02*
X120013855Y-113166666D01*
X120013855Y-113166666D02*
X119975760Y-113090476D01*
X119975760Y-113090476D02*
X119937664Y-113052380D01*
D10*
X114950057Y-111000000D02*
X114902438Y-111047619D01*
X114902438Y-111047619D02*
X114854819Y-111142857D01*
X114854819Y-111142857D02*
X114854819Y-111380952D01*
X114854819Y-111380952D02*
X114902438Y-111476190D01*
X114902438Y-111476190D02*
X114950057Y-111523809D01*
X114950057Y-111523809D02*
X115045295Y-111571428D01*
X115045295Y-111571428D02*
X115140533Y-111571428D01*
X115140533Y-111571428D02*
X115283390Y-111523809D01*
X115283390Y-111523809D02*
X115854819Y-110952381D01*
X115854819Y-110952381D02*
X115854819Y-111571428D01*
X114950057Y-111952381D02*
X114902438Y-112000000D01*
X114902438Y-112000000D02*
X114854819Y-112095238D01*
X114854819Y-112095238D02*
X114854819Y-112333333D01*
X114854819Y-112333333D02*
X114902438Y-112428571D01*
X114902438Y-112428571D02*
X114950057Y-112476190D01*
X114950057Y-112476190D02*
X115045295Y-112523809D01*
X115045295Y-112523809D02*
X115140533Y-112523809D01*
X115140533Y-112523809D02*
X115283390Y-112476190D01*
X115283390Y-112476190D02*
X115854819Y-111904762D01*
X115854819Y-111904762D02*
X115854819Y-112523809D01*
X115188152Y-113380952D02*
X115854819Y-113380952D01*
X115188152Y-112952381D02*
X115711961Y-112952381D01*
X115711961Y-112952381D02*
X115807200Y-113000000D01*
X115807200Y-113000000D02*
X115854819Y-113095238D01*
X115854819Y-113095238D02*
X115854819Y-113238095D01*
X115854819Y-113238095D02*
X115807200Y-113333333D01*
X115807200Y-113333333D02*
X115759580Y-113380952D01*
X115188152Y-113714286D02*
X115188152Y-114095238D01*
X115854819Y-113857143D02*
X114997676Y-113857143D01*
X114997676Y-113857143D02*
X114902438Y-113904762D01*
X114902438Y-113904762D02*
X114854819Y-114000000D01*
X114854819Y-114000000D02*
X114854819Y-114095238D01*
D11*
X113387664Y-111985714D02*
X113425760Y-111947618D01*
X113425760Y-111947618D02*
X113463855Y-111833333D01*
X113463855Y-111833333D02*
X113463855Y-111757142D01*
X113463855Y-111757142D02*
X113425760Y-111642856D01*
X113425760Y-111642856D02*
X113349569Y-111566666D01*
X113349569Y-111566666D02*
X113273379Y-111528571D01*
X113273379Y-111528571D02*
X113120998Y-111490475D01*
X113120998Y-111490475D02*
X113006712Y-111490475D01*
X113006712Y-111490475D02*
X112854331Y-111528571D01*
X112854331Y-111528571D02*
X112778140Y-111566666D01*
X112778140Y-111566666D02*
X112701950Y-111642856D01*
X112701950Y-111642856D02*
X112663855Y-111757142D01*
X112663855Y-111757142D02*
X112663855Y-111833333D01*
X112663855Y-111833333D02*
X112701950Y-111947618D01*
X112701950Y-111947618D02*
X112740045Y-111985714D01*
X112663855Y-112709523D02*
X112663855Y-112328571D01*
X112663855Y-112328571D02*
X113044807Y-112290475D01*
X113044807Y-112290475D02*
X113006712Y-112328571D01*
X113006712Y-112328571D02*
X112968617Y-112404761D01*
X112968617Y-112404761D02*
X112968617Y-112595237D01*
X112968617Y-112595237D02*
X113006712Y-112671428D01*
X113006712Y-112671428D02*
X113044807Y-112709523D01*
X113044807Y-112709523D02*
X113120998Y-112747618D01*
X113120998Y-112747618D02*
X113311474Y-112747618D01*
X113311474Y-112747618D02*
X113387664Y-112709523D01*
X113387664Y-112709523D02*
X113425760Y-112671428D01*
X113425760Y-112671428D02*
X113463855Y-112595237D01*
X113463855Y-112595237D02*
X113463855Y-112404761D01*
X113463855Y-112404761D02*
X113425760Y-112328571D01*
X113425760Y-112328571D02*
X113387664Y-112290475D01*
X112663855Y-113471428D02*
X112663855Y-113090476D01*
X112663855Y-113090476D02*
X113044807Y-113052380D01*
X113044807Y-113052380D02*
X113006712Y-113090476D01*
X113006712Y-113090476D02*
X112968617Y-113166666D01*
X112968617Y-113166666D02*
X112968617Y-113357142D01*
X112968617Y-113357142D02*
X113006712Y-113433333D01*
X113006712Y-113433333D02*
X113044807Y-113471428D01*
X113044807Y-113471428D02*
X113120998Y-113509523D01*
X113120998Y-113509523D02*
X113311474Y-113509523D01*
X113311474Y-113509523D02*
X113387664Y-113471428D01*
X113387664Y-113471428D02*
X113425760Y-113433333D01*
X113425760Y-113433333D02*
X113463855Y-113357142D01*
X113463855Y-113357142D02*
X113463855Y-113166666D01*
X113463855Y-113166666D02*
X113425760Y-113090476D01*
X113425760Y-113090476D02*
X113387664Y-113052380D01*
D10*
X118215238Y-92829819D02*
X118691428Y-92829819D01*
X118691428Y-92829819D02*
X118691428Y-91829819D01*
X117977142Y-91829819D02*
X117310476Y-91829819D01*
X117310476Y-91829819D02*
X117739047Y-92829819D01*
X116786666Y-92258390D02*
X116881904Y-92210771D01*
X116881904Y-92210771D02*
X116929523Y-92163152D01*
X116929523Y-92163152D02*
X116977142Y-92067914D01*
X116977142Y-92067914D02*
X116977142Y-92020295D01*
X116977142Y-92020295D02*
X116929523Y-91925057D01*
X116929523Y-91925057D02*
X116881904Y-91877438D01*
X116881904Y-91877438D02*
X116786666Y-91829819D01*
X116786666Y-91829819D02*
X116596190Y-91829819D01*
X116596190Y-91829819D02*
X116500952Y-91877438D01*
X116500952Y-91877438D02*
X116453333Y-91925057D01*
X116453333Y-91925057D02*
X116405714Y-92020295D01*
X116405714Y-92020295D02*
X116405714Y-92067914D01*
X116405714Y-92067914D02*
X116453333Y-92163152D01*
X116453333Y-92163152D02*
X116500952Y-92210771D01*
X116500952Y-92210771D02*
X116596190Y-92258390D01*
X116596190Y-92258390D02*
X116786666Y-92258390D01*
X116786666Y-92258390D02*
X116881904Y-92306009D01*
X116881904Y-92306009D02*
X116929523Y-92353628D01*
X116929523Y-92353628D02*
X116977142Y-92448866D01*
X116977142Y-92448866D02*
X116977142Y-92639342D01*
X116977142Y-92639342D02*
X116929523Y-92734580D01*
X116929523Y-92734580D02*
X116881904Y-92782200D01*
X116881904Y-92782200D02*
X116786666Y-92829819D01*
X116786666Y-92829819D02*
X116596190Y-92829819D01*
X116596190Y-92829819D02*
X116500952Y-92782200D01*
X116500952Y-92782200D02*
X116453333Y-92734580D01*
X116453333Y-92734580D02*
X116405714Y-92639342D01*
X116405714Y-92639342D02*
X116405714Y-92448866D01*
X116405714Y-92448866D02*
X116453333Y-92353628D01*
X116453333Y-92353628D02*
X116500952Y-92306009D01*
X116500952Y-92306009D02*
X116596190Y-92258390D01*
X115786666Y-91829819D02*
X115691428Y-91829819D01*
X115691428Y-91829819D02*
X115596190Y-91877438D01*
X115596190Y-91877438D02*
X115548571Y-91925057D01*
X115548571Y-91925057D02*
X115500952Y-92020295D01*
X115500952Y-92020295D02*
X115453333Y-92210771D01*
X115453333Y-92210771D02*
X115453333Y-92448866D01*
X115453333Y-92448866D02*
X115500952Y-92639342D01*
X115500952Y-92639342D02*
X115548571Y-92734580D01*
X115548571Y-92734580D02*
X115596190Y-92782200D01*
X115596190Y-92782200D02*
X115691428Y-92829819D01*
X115691428Y-92829819D02*
X115786666Y-92829819D01*
X115786666Y-92829819D02*
X115881904Y-92782200D01*
X115881904Y-92782200D02*
X115929523Y-92734580D01*
X115929523Y-92734580D02*
X115977142Y-92639342D01*
X115977142Y-92639342D02*
X116024761Y-92448866D01*
X116024761Y-92448866D02*
X116024761Y-92210771D01*
X116024761Y-92210771D02*
X115977142Y-92020295D01*
X115977142Y-92020295D02*
X115929523Y-91925057D01*
X115929523Y-91925057D02*
X115881904Y-91877438D01*
X115881904Y-91877438D02*
X115786666Y-91829819D01*
X114977142Y-92829819D02*
X114786666Y-92829819D01*
X114786666Y-92829819D02*
X114691428Y-92782200D01*
X114691428Y-92782200D02*
X114643809Y-92734580D01*
X114643809Y-92734580D02*
X114548571Y-92591723D01*
X114548571Y-92591723D02*
X114500952Y-92401247D01*
X114500952Y-92401247D02*
X114500952Y-92020295D01*
X114500952Y-92020295D02*
X114548571Y-91925057D01*
X114548571Y-91925057D02*
X114596190Y-91877438D01*
X114596190Y-91877438D02*
X114691428Y-91829819D01*
X114691428Y-91829819D02*
X114881904Y-91829819D01*
X114881904Y-91829819D02*
X114977142Y-91877438D01*
X114977142Y-91877438D02*
X115024761Y-91925057D01*
X115024761Y-91925057D02*
X115072380Y-92020295D01*
X115072380Y-92020295D02*
X115072380Y-92258390D01*
X115072380Y-92258390D02*
X115024761Y-92353628D01*
X115024761Y-92353628D02*
X114977142Y-92401247D01*
X114977142Y-92401247D02*
X114881904Y-92448866D01*
X114881904Y-92448866D02*
X114691428Y-92448866D01*
X114691428Y-92448866D02*
X114596190Y-92401247D01*
X114596190Y-92401247D02*
X114548571Y-92353628D01*
X114548571Y-92353628D02*
X114500952Y-92258390D01*
X117456904Y-85414819D02*
X117456904Y-86224342D01*
X117456904Y-86224342D02*
X117409285Y-86319580D01*
X117409285Y-86319580D02*
X117361666Y-86367200D01*
X117361666Y-86367200D02*
X117266428Y-86414819D01*
X117266428Y-86414819D02*
X117075952Y-86414819D01*
X117075952Y-86414819D02*
X116980714Y-86367200D01*
X116980714Y-86367200D02*
X116933095Y-86319580D01*
X116933095Y-86319580D02*
X116885476Y-86224342D01*
X116885476Y-86224342D02*
X116885476Y-85414819D01*
X116456904Y-85510057D02*
X116409285Y-85462438D01*
X116409285Y-85462438D02*
X116314047Y-85414819D01*
X116314047Y-85414819D02*
X116075952Y-85414819D01*
X116075952Y-85414819D02*
X115980714Y-85462438D01*
X115980714Y-85462438D02*
X115933095Y-85510057D01*
X115933095Y-85510057D02*
X115885476Y-85605295D01*
X115885476Y-85605295D02*
X115885476Y-85700533D01*
X115885476Y-85700533D02*
X115933095Y-85843390D01*
X115933095Y-85843390D02*
X116504523Y-86414819D01*
X116504523Y-86414819D02*
X115885476Y-86414819D01*
D12*
X138538832Y-106592857D02*
X138557880Y-106573809D01*
X138557880Y-106573809D02*
X138576927Y-106516667D01*
X138576927Y-106516667D02*
X138576927Y-106478571D01*
X138576927Y-106478571D02*
X138557880Y-106421428D01*
X138557880Y-106421428D02*
X138519784Y-106383333D01*
X138519784Y-106383333D02*
X138481689Y-106364286D01*
X138481689Y-106364286D02*
X138405499Y-106345238D01*
X138405499Y-106345238D02*
X138348356Y-106345238D01*
X138348356Y-106345238D02*
X138272165Y-106364286D01*
X138272165Y-106364286D02*
X138234070Y-106383333D01*
X138234070Y-106383333D02*
X138195975Y-106421428D01*
X138195975Y-106421428D02*
X138176927Y-106478571D01*
X138176927Y-106478571D02*
X138176927Y-106516667D01*
X138176927Y-106516667D02*
X138195975Y-106573809D01*
X138195975Y-106573809D02*
X138215022Y-106592857D01*
X138176927Y-106726190D02*
X138176927Y-106973809D01*
X138176927Y-106973809D02*
X138329308Y-106840476D01*
X138329308Y-106840476D02*
X138329308Y-106897619D01*
X138329308Y-106897619D02*
X138348356Y-106935714D01*
X138348356Y-106935714D02*
X138367403Y-106954762D01*
X138367403Y-106954762D02*
X138405499Y-106973809D01*
X138405499Y-106973809D02*
X138500737Y-106973809D01*
X138500737Y-106973809D02*
X138538832Y-106954762D01*
X138538832Y-106954762D02*
X138557880Y-106935714D01*
X138557880Y-106935714D02*
X138576927Y-106897619D01*
X138576927Y-106897619D02*
X138576927Y-106783333D01*
X138576927Y-106783333D02*
X138557880Y-106745238D01*
X138557880Y-106745238D02*
X138538832Y-106726190D01*
X138215022Y-107126190D02*
X138195975Y-107145238D01*
X138195975Y-107145238D02*
X138176927Y-107183333D01*
X138176927Y-107183333D02*
X138176927Y-107278571D01*
X138176927Y-107278571D02*
X138195975Y-107316666D01*
X138195975Y-107316666D02*
X138215022Y-107335714D01*
X138215022Y-107335714D02*
X138253118Y-107354761D01*
X138253118Y-107354761D02*
X138291213Y-107354761D01*
X138291213Y-107354761D02*
X138348356Y-107335714D01*
X138348356Y-107335714D02*
X138576927Y-107107142D01*
X138576927Y-107107142D02*
X138576927Y-107354761D01*
X127188832Y-111058333D02*
X127207880Y-111039285D01*
X127207880Y-111039285D02*
X127226927Y-110982143D01*
X127226927Y-110982143D02*
X127226927Y-110944047D01*
X127226927Y-110944047D02*
X127207880Y-110886904D01*
X127207880Y-110886904D02*
X127169784Y-110848809D01*
X127169784Y-110848809D02*
X127131689Y-110829762D01*
X127131689Y-110829762D02*
X127055499Y-110810714D01*
X127055499Y-110810714D02*
X126998356Y-110810714D01*
X126998356Y-110810714D02*
X126922165Y-110829762D01*
X126922165Y-110829762D02*
X126884070Y-110848809D01*
X126884070Y-110848809D02*
X126845975Y-110886904D01*
X126845975Y-110886904D02*
X126826927Y-110944047D01*
X126826927Y-110944047D02*
X126826927Y-110982143D01*
X126826927Y-110982143D02*
X126845975Y-111039285D01*
X126845975Y-111039285D02*
X126865022Y-111058333D01*
X126865022Y-111210714D02*
X126845975Y-111229762D01*
X126845975Y-111229762D02*
X126826927Y-111267857D01*
X126826927Y-111267857D02*
X126826927Y-111363095D01*
X126826927Y-111363095D02*
X126845975Y-111401190D01*
X126845975Y-111401190D02*
X126865022Y-111420238D01*
X126865022Y-111420238D02*
X126903118Y-111439285D01*
X126903118Y-111439285D02*
X126941213Y-111439285D01*
X126941213Y-111439285D02*
X126998356Y-111420238D01*
X126998356Y-111420238D02*
X127226927Y-111191666D01*
X127226927Y-111191666D02*
X127226927Y-111439285D01*
X137076927Y-95767857D02*
X136886451Y-95634524D01*
X137076927Y-95539286D02*
X136676927Y-95539286D01*
X136676927Y-95539286D02*
X136676927Y-95691667D01*
X136676927Y-95691667D02*
X136695975Y-95729762D01*
X136695975Y-95729762D02*
X136715022Y-95748809D01*
X136715022Y-95748809D02*
X136753118Y-95767857D01*
X136753118Y-95767857D02*
X136810260Y-95767857D01*
X136810260Y-95767857D02*
X136848356Y-95748809D01*
X136848356Y-95748809D02*
X136867403Y-95729762D01*
X136867403Y-95729762D02*
X136886451Y-95691667D01*
X136886451Y-95691667D02*
X136886451Y-95539286D01*
X136676927Y-96129762D02*
X136676927Y-95939286D01*
X136676927Y-95939286D02*
X136867403Y-95920238D01*
X136867403Y-95920238D02*
X136848356Y-95939286D01*
X136848356Y-95939286D02*
X136829308Y-95977381D01*
X136829308Y-95977381D02*
X136829308Y-96072619D01*
X136829308Y-96072619D02*
X136848356Y-96110714D01*
X136848356Y-96110714D02*
X136867403Y-96129762D01*
X136867403Y-96129762D02*
X136905499Y-96148809D01*
X136905499Y-96148809D02*
X137000737Y-96148809D01*
X137000737Y-96148809D02*
X137038832Y-96129762D01*
X137038832Y-96129762D02*
X137057880Y-96110714D01*
X137057880Y-96110714D02*
X137076927Y-96072619D01*
X137076927Y-96072619D02*
X137076927Y-95977381D01*
X137076927Y-95977381D02*
X137057880Y-95939286D01*
X137057880Y-95939286D02*
X137038832Y-95920238D01*
X136676927Y-96510714D02*
X136676927Y-96320238D01*
X136676927Y-96320238D02*
X136867403Y-96301190D01*
X136867403Y-96301190D02*
X136848356Y-96320238D01*
X136848356Y-96320238D02*
X136829308Y-96358333D01*
X136829308Y-96358333D02*
X136829308Y-96453571D01*
X136829308Y-96453571D02*
X136848356Y-96491666D01*
X136848356Y-96491666D02*
X136867403Y-96510714D01*
X136867403Y-96510714D02*
X136905499Y-96529761D01*
X136905499Y-96529761D02*
X137000737Y-96529761D01*
X137000737Y-96529761D02*
X137038832Y-96510714D01*
X137038832Y-96510714D02*
X137057880Y-96491666D01*
X137057880Y-96491666D02*
X137076927Y-96453571D01*
X137076927Y-96453571D02*
X137076927Y-96358333D01*
X137076927Y-96358333D02*
X137057880Y-96320238D01*
X137057880Y-96320238D02*
X137038832Y-96301190D01*
D13*
X137193200Y-105442857D02*
X137069391Y-105356190D01*
X137193200Y-105294285D02*
X136933200Y-105294285D01*
X136933200Y-105294285D02*
X136933200Y-105393333D01*
X136933200Y-105393333D02*
X136945581Y-105418095D01*
X136945581Y-105418095D02*
X136957962Y-105430476D01*
X136957962Y-105430476D02*
X136982724Y-105442857D01*
X136982724Y-105442857D02*
X137019867Y-105442857D01*
X137019867Y-105442857D02*
X137044629Y-105430476D01*
X137044629Y-105430476D02*
X137057010Y-105418095D01*
X137057010Y-105418095D02*
X137069391Y-105393333D01*
X137069391Y-105393333D02*
X137069391Y-105294285D01*
X137019867Y-105665714D02*
X137193200Y-105665714D01*
X136920820Y-105603809D02*
X137106534Y-105541904D01*
X137106534Y-105541904D02*
X137106534Y-105702857D01*
X137019867Y-105913333D02*
X137193200Y-105913333D01*
X136920820Y-105851428D02*
X137106534Y-105789523D01*
X137106534Y-105789523D02*
X137106534Y-105950476D01*
D14*
X124074530Y-110053571D02*
X124098340Y-110029762D01*
X124098340Y-110029762D02*
X124122149Y-109958333D01*
X124122149Y-109958333D02*
X124122149Y-109910714D01*
X124122149Y-109910714D02*
X124098340Y-109839286D01*
X124098340Y-109839286D02*
X124050720Y-109791667D01*
X124050720Y-109791667D02*
X124003101Y-109767857D01*
X124003101Y-109767857D02*
X123907863Y-109744048D01*
X123907863Y-109744048D02*
X123836435Y-109744048D01*
X123836435Y-109744048D02*
X123741197Y-109767857D01*
X123741197Y-109767857D02*
X123693578Y-109791667D01*
X123693578Y-109791667D02*
X123645959Y-109839286D01*
X123645959Y-109839286D02*
X123622149Y-109910714D01*
X123622149Y-109910714D02*
X123622149Y-109958333D01*
X123622149Y-109958333D02*
X123645959Y-110029762D01*
X123645959Y-110029762D02*
X123669768Y-110053571D01*
X123788816Y-110482143D02*
X124122149Y-110482143D01*
X123598340Y-110363095D02*
X123955482Y-110244048D01*
X123955482Y-110244048D02*
X123955482Y-110553571D01*
X124122149Y-111005952D02*
X124122149Y-110720238D01*
X124122149Y-110863095D02*
X123622149Y-110863095D01*
X123622149Y-110863095D02*
X123693578Y-110815476D01*
X123693578Y-110815476D02*
X123741197Y-110767857D01*
X123741197Y-110767857D02*
X123765006Y-110720238D01*
D11*
X113387664Y-107310714D02*
X113425760Y-107272618D01*
X113425760Y-107272618D02*
X113463855Y-107158333D01*
X113463855Y-107158333D02*
X113463855Y-107082142D01*
X113463855Y-107082142D02*
X113425760Y-106967856D01*
X113425760Y-106967856D02*
X113349569Y-106891666D01*
X113349569Y-106891666D02*
X113273379Y-106853571D01*
X113273379Y-106853571D02*
X113120998Y-106815475D01*
X113120998Y-106815475D02*
X113006712Y-106815475D01*
X113006712Y-106815475D02*
X112854331Y-106853571D01*
X112854331Y-106853571D02*
X112778140Y-106891666D01*
X112778140Y-106891666D02*
X112701950Y-106967856D01*
X112701950Y-106967856D02*
X112663855Y-107082142D01*
X112663855Y-107082142D02*
X112663855Y-107158333D01*
X112663855Y-107158333D02*
X112701950Y-107272618D01*
X112701950Y-107272618D02*
X112740045Y-107310714D01*
X112663855Y-108034523D02*
X112663855Y-107653571D01*
X112663855Y-107653571D02*
X113044807Y-107615475D01*
X113044807Y-107615475D02*
X113006712Y-107653571D01*
X113006712Y-107653571D02*
X112968617Y-107729761D01*
X112968617Y-107729761D02*
X112968617Y-107920237D01*
X112968617Y-107920237D02*
X113006712Y-107996428D01*
X113006712Y-107996428D02*
X113044807Y-108034523D01*
X113044807Y-108034523D02*
X113120998Y-108072618D01*
X113120998Y-108072618D02*
X113311474Y-108072618D01*
X113311474Y-108072618D02*
X113387664Y-108034523D01*
X113387664Y-108034523D02*
X113425760Y-107996428D01*
X113425760Y-107996428D02*
X113463855Y-107920237D01*
X113463855Y-107920237D02*
X113463855Y-107729761D01*
X113463855Y-107729761D02*
X113425760Y-107653571D01*
X113425760Y-107653571D02*
X113387664Y-107615475D01*
X112930521Y-108758333D02*
X113463855Y-108758333D01*
X112625760Y-108567857D02*
X113197188Y-108377380D01*
X113197188Y-108377380D02*
X113197188Y-108872619D01*
D15*
X136161428Y-101574318D02*
X136584762Y-100969556D01*
X136887143Y-101574318D02*
X136887143Y-100304318D01*
X136887143Y-100304318D02*
X136403333Y-100304318D01*
X136403333Y-100304318D02*
X136282381Y-100364794D01*
X136282381Y-100364794D02*
X136221904Y-100425270D01*
X136221904Y-100425270D02*
X136161428Y-100546222D01*
X136161428Y-100546222D02*
X136161428Y-100727651D01*
X136161428Y-100727651D02*
X136221904Y-100848603D01*
X136221904Y-100848603D02*
X136282381Y-100909080D01*
X136282381Y-100909080D02*
X136403333Y-100969556D01*
X136403333Y-100969556D02*
X136887143Y-100969556D01*
X135072857Y-100727651D02*
X135072857Y-101574318D01*
X135375238Y-100243842D02*
X135677619Y-101150984D01*
X135677619Y-101150984D02*
X134891428Y-101150984D01*
X134528571Y-100304318D02*
X133742380Y-100304318D01*
X133742380Y-100304318D02*
X134165714Y-100788127D01*
X134165714Y-100788127D02*
X133984285Y-100788127D01*
X133984285Y-100788127D02*
X133863333Y-100848603D01*
X133863333Y-100848603D02*
X133802857Y-100909080D01*
X133802857Y-100909080D02*
X133742380Y-101030032D01*
X133742380Y-101030032D02*
X133742380Y-101332413D01*
X133742380Y-101332413D02*
X133802857Y-101453365D01*
X133802857Y-101453365D02*
X133863333Y-101513842D01*
X133863333Y-101513842D02*
X133984285Y-101574318D01*
X133984285Y-101574318D02*
X134347142Y-101574318D01*
X134347142Y-101574318D02*
X134468095Y-101513842D01*
X134468095Y-101513842D02*
X134528571Y-101453365D01*
%TO.C,C56*%
D16*
X115125000Y-110900000D02*
X117625000Y-110900000D01*
X117625000Y-114100000D01*
X115125000Y-114100000D01*
X115125000Y-110900000D01*
%TO.C,C63*%
X115125000Y-106225000D02*
X117625000Y-106225000D01*
X117625000Y-109425000D01*
X115125000Y-109425000D01*
X115125000Y-106225000D01*
%TO.C,C59*%
X122220000Y-96225000D02*
X123020000Y-96225000D01*
X123020000Y-97825000D01*
X122220000Y-97825000D01*
X122220000Y-96225000D01*
%TO.C,U6*%
X120770000Y-95512500D02*
X120770000Y-101512500D01*
X113770000Y-101512500D01*
X113770000Y-94512500D01*
X119770000Y-94512500D01*
X120770000Y-95512500D01*
%TO.C,R59*%
X117735000Y-92355000D02*
X118785000Y-92355000D01*
X118785000Y-92895000D01*
X117735000Y-92895000D01*
X117735000Y-92355000D01*
%TO.C,C42*%
X122565000Y-106675000D02*
X123565000Y-106675000D01*
X123565000Y-107175000D01*
X122565000Y-107175000D01*
X122565000Y-106675000D01*
%TO.C,C64*%
X118400000Y-106225000D02*
X120900000Y-106225000D01*
X120900000Y-109425000D01*
X118400000Y-109425000D01*
X118400000Y-106225000D01*
%TO.C,C61*%
X129645000Y-95960000D02*
X131245000Y-95960000D01*
X131245000Y-96760000D01*
X129645000Y-96760000D01*
X129645000Y-95960000D01*
%TO.C,C33*%
X139570000Y-106050000D02*
X140370000Y-106050000D01*
X140370000Y-107650000D01*
X139570000Y-107650000D01*
X139570000Y-106050000D01*
%TO.C,C62*%
X129645000Y-94435000D02*
X131245000Y-94435000D01*
X131245000Y-95235000D01*
X129645000Y-95235000D01*
X129645000Y-94435000D01*
%TO.C,C65*%
X118400000Y-110900000D02*
X120900000Y-110900000D01*
X120900000Y-114100000D01*
X118400000Y-114100000D01*
X118400000Y-110900000D01*
%TO.C,C55*%
X111850000Y-110900000D02*
X114350000Y-110900000D01*
X114350000Y-114100000D01*
X111850000Y-114100000D01*
X111850000Y-110900000D01*
%TO.C,U2*%
X111070000Y-80960000D02*
X111070000Y-90960000D01*
X111070000Y-90960000D02*
X112070000Y-90960000D01*
X112070000Y-80960000D02*
X111070000Y-80960000D01*
X121320000Y-82920000D02*
X126020000Y-82920000D01*
X121320000Y-88000000D02*
X126020000Y-88000000D01*
X126020000Y-82920000D02*
X126020000Y-83920000D01*
X126020000Y-83920000D02*
X121320000Y-83920000D01*
X126020000Y-88000000D02*
X126020000Y-89000000D01*
X126020000Y-89000000D02*
X121320000Y-89000000D01*
X121320000Y-81960000D02*
X121320000Y-90960000D01*
X112070000Y-90960000D01*
X112070000Y-80960000D01*
X120320000Y-80960000D01*
X121320000Y-81960000D01*
%TO.C,C32*%
X137995000Y-106050000D02*
X138795000Y-106050000D01*
X138795000Y-107650000D01*
X137995000Y-107650000D01*
X137995000Y-106050000D01*
%TO.C,C2*%
X126645000Y-110325000D02*
X127445000Y-110325000D01*
X127445000Y-111925000D01*
X126645000Y-111925000D01*
X126645000Y-110325000D01*
%TO.C,R55*%
X136482500Y-95225000D02*
X137307500Y-95225000D01*
X137307500Y-96825000D01*
X136482500Y-96825000D01*
X136482500Y-95225000D01*
%TO.C,R44*%
X136805000Y-105085000D02*
X137345000Y-105085000D01*
X137345000Y-106135000D01*
X136805000Y-106135000D01*
X136805000Y-105085000D01*
%TO.C,C41*%
X123270000Y-109375000D02*
X124520000Y-109375000D01*
X124520000Y-111375000D01*
X123270000Y-111375000D01*
X123270000Y-109375000D01*
%TO.C,C54*%
X111850000Y-106225000D02*
X114350000Y-106225000D01*
X114350000Y-109425000D01*
X111850000Y-109425000D01*
X111850000Y-106225000D01*
%TO.C,R43*%
X130345000Y-98375000D02*
X130345000Y-103625000D01*
X130345000Y-103625000D02*
X140345000Y-103625000D01*
X140345000Y-98375000D02*
X130345000Y-98375000D01*
X140345000Y-103625000D02*
X140345000Y-98375000D01*
%TD*%
M02*
