%TF.GenerationSoftware,KiCad,Pcbnew,10.0.1*%
%TF.CreationDate,2026-05-12T11:50:07+05:30*%
%TF.ProjectId,am32_100a_esc,616d3332-5f31-4303-9061-5f6573632e6b,rev?*%
%TF.SameCoordinates,Original*%
%TF.FileFunction,Paste,Bot*%
%TF.FilePolarity,Positive*%
%FSLAX46Y46*%
G04 Gerber Fmt 4.6, Leading zero omitted, Abs format (unit mm)*
G04 Created by KiCad (PCBNEW 10.0.1) date 2026-05-12 11:50:07*
%MOMM*%
%LPD*%
G01*
G04 APERTURE LIST*
G04 Aperture macros list*
%AMRoundRect*
0 Rectangle with rounded corners*
0 $1 Rounding radius*
0 $2 $3 $4 $5 $6 $7 $8 $9 X,Y pos of 4 corners*
0 Add a 4 corners polygon primitive as box body*
4,1,4,$2,$3,$4,$5,$6,$7,$8,$9,$2,$3,0*
0 Add four circle primitives for the rounded corners*
1,1,$1+$1,$2,$3*
1,1,$1+$1,$4,$5*
1,1,$1+$1,$6,$7*
1,1,$1+$1,$8,$9*
0 Add four rect primitives between the rounded corners*
20,1,$1+$1,$2,$3,$4,$5,0*
20,1,$1+$1,$4,$5,$6,$7,0*
20,1,$1+$1,$6,$7,$8,$9,0*
20,1,$1+$1,$8,$9,$2,$3,0*%
G04 Aperture macros list end*
%ADD10RoundRect,0.250000X-1.100000X0.325000X-1.100000X-0.325000X1.100000X-0.325000X1.100000X0.325000X0*%
%ADD11RoundRect,0.250000X1.100000X-0.325000X1.100000X0.325000X-1.100000X0.325000X-1.100000X-0.325000X0*%
%ADD12RoundRect,0.225000X0.250000X-0.225000X0.250000X0.225000X-0.250000X0.225000X-0.250000X-0.225000X0*%
%ADD13RoundRect,0.250000X0.315000X0.315000X-0.315000X0.315000X-0.315000X-0.315000X0.315000X-0.315000X0*%
%ADD14RoundRect,0.062500X0.375000X0.062500X-0.375000X0.062500X-0.375000X-0.062500X0.375000X-0.062500X0*%
%ADD15RoundRect,0.062500X0.062500X0.375000X-0.062500X0.375000X-0.062500X-0.375000X0.062500X-0.375000X0*%
%ADD16RoundRect,0.135000X-0.135000X-0.185000X0.135000X-0.185000X0.135000X0.185000X-0.135000X0.185000X0*%
%ADD17RoundRect,0.140000X0.140000X0.170000X-0.140000X0.170000X-0.140000X-0.170000X0.140000X-0.170000X0*%
%ADD18RoundRect,0.225000X-0.225000X-0.250000X0.225000X-0.250000X0.225000X0.250000X-0.225000X0.250000X0*%
%ADD19RoundRect,0.225000X-0.250000X0.225000X-0.250000X-0.225000X0.250000X-0.225000X0.250000X0.225000X0*%
%ADD20RoundRect,0.250000X2.025000X2.375000X-2.025000X2.375000X-2.025000X-2.375000X2.025000X-2.375000X0*%
%ADD21RoundRect,0.250000X2.050000X0.300000X-2.050000X0.300000X-2.050000X-0.300000X2.050000X-0.300000X0*%
%ADD22RoundRect,0.200000X-0.275000X0.200000X-0.275000X-0.200000X0.275000X-0.200000X0.275000X0.200000X0*%
%ADD23RoundRect,0.135000X-0.185000X0.135000X-0.185000X-0.135000X0.185000X-0.135000X0.185000X0.135000X0*%
%ADD24RoundRect,0.250000X0.475000X-0.250000X0.475000X0.250000X-0.475000X0.250000X-0.475000X-0.250000X0*%
%ADD25R,2.900000X5.500000*%
G04 APERTURE END LIST*
D10*
%TO.C,C56*%
X116375000Y-111025000D03*
X116375000Y-113975000D03*
%TD*%
D11*
%TO.C,C63*%
X116375000Y-109300000D03*
X116375000Y-106350000D03*
%TD*%
D12*
%TO.C,C59*%
X122620000Y-97800000D03*
X122620000Y-96250000D03*
%TD*%
D13*
%TO.C,U6*%
X119370000Y-100112500D03*
X119370000Y-98712500D03*
X119370000Y-97312500D03*
X119370000Y-95912500D03*
X117970000Y-100112500D03*
X117970000Y-98712500D03*
X117970000Y-97312500D03*
X117970000Y-95912500D03*
X116570000Y-100112500D03*
X116570000Y-98712500D03*
X116570000Y-97312500D03*
X116570000Y-95912500D03*
X115170000Y-100112500D03*
X115170000Y-98712500D03*
X115170000Y-97312500D03*
X115170000Y-95912500D03*
D14*
X120707500Y-95262500D03*
X120707500Y-95762500D03*
X120707500Y-96262500D03*
X120707500Y-96762500D03*
X120707500Y-97262500D03*
X120707500Y-97762500D03*
X120707500Y-98262500D03*
X120707500Y-98762500D03*
X120707500Y-99262500D03*
X120707500Y-99762500D03*
X120707500Y-100262500D03*
X120707500Y-100762500D03*
D15*
X120020000Y-101450000D03*
X119520000Y-101450000D03*
X119020000Y-101450000D03*
X118520000Y-101450000D03*
X118020000Y-101450000D03*
X117520000Y-101450000D03*
X117020000Y-101450000D03*
X116520000Y-101450000D03*
X116020000Y-101450000D03*
X115520000Y-101450000D03*
X115020000Y-101450000D03*
X114520000Y-101450000D03*
D14*
X113832500Y-100762500D03*
X113832500Y-100262500D03*
X113832500Y-99762500D03*
X113832500Y-99262500D03*
X113832500Y-98762500D03*
X113832500Y-98262500D03*
X113832500Y-97762500D03*
X113832500Y-97262500D03*
X113832500Y-96762500D03*
X113832500Y-96262500D03*
X113832500Y-95762500D03*
X113832500Y-95262500D03*
D15*
X114520000Y-94575000D03*
X115020000Y-94575000D03*
X115520000Y-94575000D03*
X116020000Y-94575000D03*
X116520000Y-94575000D03*
X117020000Y-94575000D03*
X117520000Y-94575000D03*
X118020000Y-94575000D03*
X118520000Y-94575000D03*
X119020000Y-94575000D03*
X119520000Y-94575000D03*
X120020000Y-94575000D03*
%TD*%
D16*
%TO.C,R59*%
X117750000Y-92625000D03*
X118770000Y-92625000D03*
%TD*%
D17*
%TO.C,C42*%
X123545000Y-106925000D03*
X122585000Y-106925000D03*
%TD*%
D11*
%TO.C,C64*%
X119650000Y-109300000D03*
X119650000Y-106350000D03*
%TD*%
D18*
%TO.C,C61*%
X129670000Y-96360000D03*
X131220000Y-96360000D03*
%TD*%
D19*
%TO.C,C33*%
X139970000Y-106075000D03*
X139970000Y-107625000D03*
%TD*%
D18*
%TO.C,C62*%
X129670000Y-94835000D03*
X131220000Y-94835000D03*
%TD*%
D10*
%TO.C,C65*%
X119650000Y-111025000D03*
X119650000Y-113975000D03*
%TD*%
%TO.C,C55*%
X113100000Y-111025000D03*
X113100000Y-113975000D03*
%TD*%
D20*
%TO.C,U2*%
X117620000Y-88735000D03*
X117620000Y-83185000D03*
X112770000Y-88735000D03*
X112770000Y-83185000D03*
D21*
X124345000Y-83420000D03*
X124345000Y-88500000D03*
%TD*%
D19*
%TO.C,C32*%
X138395000Y-106075000D03*
X138395000Y-107625000D03*
%TD*%
D12*
%TO.C,C2*%
X127045000Y-111900000D03*
X127045000Y-110350000D03*
%TD*%
D22*
%TO.C,R55*%
X136895000Y-95200000D03*
X136895000Y-96850000D03*
%TD*%
D23*
%TO.C,R44*%
X137075000Y-105100000D03*
X137075000Y-106120000D03*
%TD*%
D24*
%TO.C,C41*%
X123895000Y-111325000D03*
X123895000Y-109425000D03*
%TD*%
D11*
%TO.C,C54*%
X113100000Y-109300000D03*
X113100000Y-106350000D03*
%TD*%
D25*
%TO.C,R43*%
X131295000Y-101000000D03*
X139395000Y-101000000D03*
%TD*%
M02*
