%TF.GenerationSoftware,KiCad,Pcbnew,10.0.1*%
%TF.CreationDate,2026-05-12T01:40:20+05:30*%
%TF.ProjectId,am32_100a_esc,616d3332-5f31-4303-9061-5f6573632e6b,rev?*%
%TF.SameCoordinates,Original*%
%TF.FileFunction,Legend,Top*%
%TF.FilePolarity,Positive*%
%FSLAX46Y46*%
G04 Gerber Fmt 4.6, Leading zero omitted, Abs format (unit mm)*
G04 Created by KiCad (PCBNEW 10.0.1) date 2026-05-12 01:40:20*
%MOMM*%
%LPD*%
G01*
G04 APERTURE LIST*
%ADD10C,0.200000*%
%ADD11C,0.375000*%
%ADD12C,0.125000*%
%ADD13C,0.150000*%
%ADD14C,0.300000*%
%ADD15C,0.400000*%
%ADD16C,0.254000*%
%ADD17C,0.120000*%
%ADD18C,0.100000*%
%ADD19C,0.000000*%
G04 APERTURE END LIST*
D10*
X107571904Y-112919838D02*
X107476666Y-112872219D01*
X107476666Y-112872219D02*
X107333809Y-112872219D01*
X107333809Y-112872219D02*
X107190952Y-112919838D01*
X107190952Y-112919838D02*
X107095714Y-113015076D01*
X107095714Y-113015076D02*
X107048095Y-113110314D01*
X107048095Y-113110314D02*
X107000476Y-113300790D01*
X107000476Y-113300790D02*
X107000476Y-113443647D01*
X107000476Y-113443647D02*
X107048095Y-113634123D01*
X107048095Y-113634123D02*
X107095714Y-113729361D01*
X107095714Y-113729361D02*
X107190952Y-113824600D01*
X107190952Y-113824600D02*
X107333809Y-113872219D01*
X107333809Y-113872219D02*
X107429047Y-113872219D01*
X107429047Y-113872219D02*
X107571904Y-113824600D01*
X107571904Y-113824600D02*
X107619523Y-113776980D01*
X107619523Y-113776980D02*
X107619523Y-113443647D01*
X107619523Y-113443647D02*
X107429047Y-113443647D01*
X107870476Y-80199695D02*
X108327619Y-80199695D01*
X108099047Y-80999695D02*
X108099047Y-80199695D01*
X108518095Y-80199695D02*
X109051429Y-80999695D01*
X109051429Y-80199695D02*
X108518095Y-80999695D01*
X111798571Y-80169695D02*
X112255714Y-80169695D01*
X112027142Y-80969695D02*
X112027142Y-80169695D01*
X112674762Y-80588742D02*
X112674762Y-80969695D01*
X112408095Y-80169695D02*
X112674762Y-80588742D01*
X112674762Y-80588742D02*
X112941428Y-80169695D01*
X107044286Y-108744600D02*
X107187143Y-108792219D01*
X107187143Y-108792219D02*
X107425238Y-108792219D01*
X107425238Y-108792219D02*
X107520476Y-108744600D01*
X107520476Y-108744600D02*
X107568095Y-108696980D01*
X107568095Y-108696980D02*
X107615714Y-108601742D01*
X107615714Y-108601742D02*
X107615714Y-108506504D01*
X107615714Y-108506504D02*
X107568095Y-108411266D01*
X107568095Y-108411266D02*
X107520476Y-108363647D01*
X107520476Y-108363647D02*
X107425238Y-108316028D01*
X107425238Y-108316028D02*
X107234762Y-108268409D01*
X107234762Y-108268409D02*
X107139524Y-108220790D01*
X107139524Y-108220790D02*
X107091905Y-108173171D01*
X107091905Y-108173171D02*
X107044286Y-108077933D01*
X107044286Y-108077933D02*
X107044286Y-107982695D01*
X107044286Y-107982695D02*
X107091905Y-107887457D01*
X107091905Y-107887457D02*
X107139524Y-107839838D01*
X107139524Y-107839838D02*
X107234762Y-107792219D01*
X107234762Y-107792219D02*
X107472857Y-107792219D01*
X107472857Y-107792219D02*
X107615714Y-107839838D01*
X106949048Y-110951266D02*
X107710953Y-110951266D01*
X107330000Y-111332219D02*
X107330000Y-110570314D01*
X110338095Y-85082219D02*
X110338095Y-84082219D01*
X110338095Y-84082219D02*
X110576190Y-84082219D01*
X110576190Y-84082219D02*
X110719047Y-84129838D01*
X110719047Y-84129838D02*
X110814285Y-84225076D01*
X110814285Y-84225076D02*
X110861904Y-84320314D01*
X110861904Y-84320314D02*
X110909523Y-84510790D01*
X110909523Y-84510790D02*
X110909523Y-84653647D01*
X110909523Y-84653647D02*
X110861904Y-84844123D01*
X110861904Y-84844123D02*
X110814285Y-84939361D01*
X110814285Y-84939361D02*
X110719047Y-85034600D01*
X110719047Y-85034600D02*
X110576190Y-85082219D01*
X110576190Y-85082219D02*
X110338095Y-85082219D01*
X110909523Y-87526980D02*
X110861904Y-87574600D01*
X110861904Y-87574600D02*
X110719047Y-87622219D01*
X110719047Y-87622219D02*
X110623809Y-87622219D01*
X110623809Y-87622219D02*
X110480952Y-87574600D01*
X110480952Y-87574600D02*
X110385714Y-87479361D01*
X110385714Y-87479361D02*
X110338095Y-87384123D01*
X110338095Y-87384123D02*
X110290476Y-87193647D01*
X110290476Y-87193647D02*
X110290476Y-87050790D01*
X110290476Y-87050790D02*
X110338095Y-86860314D01*
X110338095Y-86860314D02*
X110385714Y-86765076D01*
X110385714Y-86765076D02*
X110480952Y-86669838D01*
X110480952Y-86669838D02*
X110623809Y-86622219D01*
X110623809Y-86622219D02*
X110719047Y-86622219D01*
X110719047Y-86622219D02*
X110861904Y-86669838D01*
X110861904Y-86669838D02*
X110909523Y-86717457D01*
X110219048Y-89781266D02*
X110980953Y-89781266D01*
X110221429Y-91702219D02*
X110840476Y-91702219D01*
X110840476Y-91702219D02*
X110507143Y-92083171D01*
X110507143Y-92083171D02*
X110650000Y-92083171D01*
X110650000Y-92083171D02*
X110745238Y-92130790D01*
X110745238Y-92130790D02*
X110792857Y-92178409D01*
X110792857Y-92178409D02*
X110840476Y-92273647D01*
X110840476Y-92273647D02*
X110840476Y-92511742D01*
X110840476Y-92511742D02*
X110792857Y-92606980D01*
X110792857Y-92606980D02*
X110745238Y-92654600D01*
X110745238Y-92654600D02*
X110650000Y-92702219D01*
X110650000Y-92702219D02*
X110364286Y-92702219D01*
X110364286Y-92702219D02*
X110269048Y-92654600D01*
X110269048Y-92654600D02*
X110221429Y-92606980D01*
X111269048Y-92606980D02*
X111316667Y-92654600D01*
X111316667Y-92654600D02*
X111269048Y-92702219D01*
X111269048Y-92702219D02*
X111221429Y-92654600D01*
X111221429Y-92654600D02*
X111269048Y-92606980D01*
X111269048Y-92606980D02*
X111269048Y-92702219D01*
X111650000Y-91702219D02*
X112269047Y-91702219D01*
X112269047Y-91702219D02*
X111935714Y-92083171D01*
X111935714Y-92083171D02*
X112078571Y-92083171D01*
X112078571Y-92083171D02*
X112173809Y-92130790D01*
X112173809Y-92130790D02*
X112221428Y-92178409D01*
X112221428Y-92178409D02*
X112269047Y-92273647D01*
X112269047Y-92273647D02*
X112269047Y-92511742D01*
X112269047Y-92511742D02*
X112221428Y-92606980D01*
X112221428Y-92606980D02*
X112173809Y-92654600D01*
X112173809Y-92654600D02*
X112078571Y-92702219D01*
X112078571Y-92702219D02*
X111792857Y-92702219D01*
X111792857Y-92702219D02*
X111697619Y-92654600D01*
X111697619Y-92654600D02*
X111650000Y-92606980D01*
X112602381Y-92035552D02*
X112840476Y-92702219D01*
X112840476Y-92702219D02*
X113078571Y-92035552D01*
D11*
G36*
X139088260Y-106894548D02*
G01*
X139152923Y-106911314D01*
X139220968Y-106940596D01*
X139560679Y-107111780D01*
X139620415Y-107152190D01*
X139667199Y-107207126D01*
X139697339Y-107272642D01*
X139707500Y-107345978D01*
X139707500Y-107674882D01*
X139700816Y-107709245D01*
X139680755Y-107737988D01*
X139651509Y-107757468D01*
X139617649Y-107763908D01*
X139582844Y-107757437D01*
X139553077Y-107737988D01*
X139532585Y-107709201D01*
X139525783Y-107674882D01*
X139525783Y-107587687D01*
X138523410Y-107587687D01*
X138523410Y-107672867D01*
X138516628Y-107707194D01*
X138496208Y-107735973D01*
X138466365Y-107755425D01*
X138431544Y-107761893D01*
X138397684Y-107755453D01*
X138368438Y-107735973D01*
X138348377Y-107707230D01*
X138341693Y-107672867D01*
X138341693Y-107356236D01*
X138521762Y-107356236D01*
X138523319Y-107409634D01*
X139525783Y-107409634D01*
X139525783Y-107352023D01*
X139520912Y-107318257D01*
X139504114Y-107291109D01*
X139473393Y-107268767D01*
X139137070Y-107098591D01*
X139073075Y-107073976D01*
X139026612Y-107067083D01*
X138972245Y-107073439D01*
X138921282Y-107092454D01*
X138572228Y-107268584D01*
X138544189Y-107290252D01*
X138527629Y-107318713D01*
X138521762Y-107356236D01*
X138341693Y-107356236D01*
X138341693Y-107332606D01*
X138352816Y-107267118D01*
X138385566Y-107201447D01*
X138433549Y-107145324D01*
X138488239Y-107107658D01*
X138830698Y-106937574D01*
X138894334Y-106910506D01*
X138959196Y-106894475D01*
X139026062Y-106889122D01*
X139088260Y-106894548D01*
G37*
G36*
X139282365Y-105626040D02*
G01*
X139311551Y-105645956D01*
X139331610Y-105674992D01*
X139338204Y-105708513D01*
X139338204Y-106314205D01*
X139385648Y-106314205D01*
X139424698Y-106305249D01*
X139458280Y-106277385D01*
X139500412Y-106227193D01*
X139524539Y-106186337D01*
X139531645Y-106151173D01*
X139531645Y-105708513D01*
X139538021Y-105674915D01*
X139557290Y-105645956D01*
X139585645Y-105626101D01*
X139619572Y-105619487D01*
X139652686Y-105626153D01*
X139681396Y-105646506D01*
X139701093Y-105675802D01*
X139707500Y-105708513D01*
X139707500Y-106162438D01*
X139702908Y-106208216D01*
X139688357Y-106258243D01*
X139667314Y-106304433D01*
X139648240Y-106332431D01*
X139580554Y-106409276D01*
X139546796Y-106441765D01*
X139499496Y-106469910D01*
X139447943Y-106488597D01*
X139403784Y-106494273D01*
X139008568Y-106494273D01*
X138971887Y-106488709D01*
X138915969Y-106467895D01*
X138863149Y-106437038D01*
X138825569Y-106400942D01*
X138769149Y-106329226D01*
X138736481Y-106279099D01*
X138717383Y-106226641D01*
X138710989Y-106170590D01*
X138710989Y-105942070D01*
X138892705Y-105942070D01*
X138892705Y-106158225D01*
X138899316Y-106195091D01*
X138919633Y-106229117D01*
X138961765Y-106279400D01*
X138990431Y-106304004D01*
X139026154Y-106312098D01*
X139156488Y-106312098D01*
X139156488Y-105795433D01*
X139039434Y-105795433D01*
X138997134Y-105803005D01*
X138967810Y-105824101D01*
X138923755Y-105874384D01*
X138899460Y-105912575D01*
X138892705Y-105942070D01*
X138710989Y-105942070D01*
X138710989Y-105928790D01*
X138719080Y-105870044D01*
X138743938Y-105812554D01*
X138788108Y-105754675D01*
X138849932Y-105690103D01*
X138896895Y-105652229D01*
X138958564Y-105628241D01*
X139039526Y-105619487D01*
X139248720Y-105619487D01*
X139282365Y-105626040D01*
G37*
G36*
X138710989Y-104980822D02*
G01*
X138710989Y-104586339D01*
X138717274Y-104526084D01*
X138735715Y-104471590D01*
X138766584Y-104421475D01*
X138807232Y-104378434D01*
X138843082Y-104356407D01*
X138876036Y-104349760D01*
X138910979Y-104356617D01*
X138938684Y-104376871D01*
X138957118Y-104405731D01*
X138963047Y-104436679D01*
X138953981Y-104475935D01*
X138924945Y-104512792D01*
X138895480Y-104548707D01*
X138886844Y-104582218D01*
X138886844Y-104971571D01*
X138892544Y-105003495D01*
X138907079Y-105020186D01*
X138931723Y-105026068D01*
X138958852Y-105017599D01*
X138979992Y-104989890D01*
X139186438Y-104531843D01*
X139226627Y-104468179D01*
X139286547Y-104416346D01*
X139334190Y-104391322D01*
X139384915Y-104376357D01*
X139439687Y-104371283D01*
X139511057Y-104380223D01*
X139573623Y-104406373D01*
X139629647Y-104450601D01*
X139673679Y-104507097D01*
X139699046Y-104566433D01*
X139707500Y-104630395D01*
X139707500Y-104978807D01*
X139701443Y-105037865D01*
X139683320Y-105094014D01*
X139652453Y-105148342D01*
X139611723Y-105195840D01*
X139576463Y-105219606D01*
X139544559Y-105226652D01*
X139511755Y-105220281D01*
X139482460Y-105200732D01*
X139462369Y-105171393D01*
X139455441Y-105133504D01*
X139463848Y-105100833D01*
X139493543Y-105062155D01*
X139514024Y-105034950D01*
X139526957Y-105000079D01*
X139531645Y-104955268D01*
X139531645Y-104634425D01*
X139524528Y-104600967D01*
X139502885Y-104573059D01*
X139471891Y-104554421D01*
X139436665Y-104548237D01*
X139401852Y-104554444D01*
X139374893Y-104572384D01*
X139353866Y-104603925D01*
X139145222Y-105066002D01*
X139107874Y-105126292D01*
X139058027Y-105169866D01*
X138999378Y-105197368D01*
X138941615Y-105206136D01*
X138881832Y-105198875D01*
X138828391Y-105177511D01*
X138779590Y-105141290D01*
X138741357Y-105094440D01*
X138718740Y-105041628D01*
X138710989Y-104980822D01*
G37*
G36*
X138265490Y-103609704D02*
G01*
X138265490Y-103519578D01*
X138271970Y-103485222D01*
X138291318Y-103456563D01*
X138319801Y-103437065D01*
X138353875Y-103430552D01*
X138427148Y-103430552D01*
X138461418Y-103437010D01*
X138490804Y-103456472D01*
X138510865Y-103485215D01*
X138517548Y-103519578D01*
X138517548Y-103611719D01*
X138510679Y-103646897D01*
X138490163Y-103675832D01*
X138460755Y-103695200D01*
X138429071Y-103700745D01*
X138353875Y-103698730D01*
X138319794Y-103692237D01*
X138291318Y-103672810D01*
X138271967Y-103644076D01*
X138265490Y-103609704D01*
G37*
G36*
X139707500Y-103259276D02*
G01*
X139707500Y-103783910D01*
X139701063Y-103818296D01*
X139681854Y-103847016D01*
X139653480Y-103866448D01*
X139619572Y-103872936D01*
X139586452Y-103866510D01*
X139557840Y-103847016D01*
X139538202Y-103818253D01*
X139531645Y-103783910D01*
X139531645Y-103610620D01*
X138892705Y-103610620D01*
X138892705Y-103781803D01*
X138886022Y-103816166D01*
X138865961Y-103844910D01*
X138836715Y-103864390D01*
X138802855Y-103870830D01*
X138768050Y-103864359D01*
X138738283Y-103844910D01*
X138717791Y-103816123D01*
X138710989Y-103781803D01*
X138710989Y-103519578D01*
X138717751Y-103485244D01*
X138738100Y-103456472D01*
X138767778Y-103437021D01*
X138802488Y-103430552D01*
X139531645Y-103430552D01*
X139531645Y-103261291D01*
X139538045Y-103226812D01*
X139557290Y-103197269D01*
X139585688Y-103176983D01*
X139619572Y-103170250D01*
X139653515Y-103176861D01*
X139681946Y-103196720D01*
X139701143Y-103225671D01*
X139707500Y-103259276D01*
G37*
G36*
X139837082Y-101828438D02*
G01*
X139899664Y-101857509D01*
X139956994Y-101907758D01*
X140017535Y-101977459D01*
X140038917Y-102008184D01*
X140059118Y-102053663D01*
X140072600Y-102102311D01*
X140076795Y-102145346D01*
X140076795Y-102518305D01*
X140070438Y-102552719D01*
X140051516Y-102581411D01*
X140023328Y-102600766D01*
X139988318Y-102607331D01*
X139954237Y-102600819D01*
X139926127Y-102581411D01*
X139907276Y-102552726D01*
X139900940Y-102518305D01*
X139900940Y-102145346D01*
X139894957Y-102114200D01*
X139876027Y-102083705D01*
X139825560Y-102025178D01*
X139800284Y-102003724D01*
X139768224Y-101996602D01*
X139512411Y-101996602D01*
X139568032Y-102059723D01*
X139604369Y-102118780D01*
X139624749Y-102174870D01*
X139631296Y-102229335D01*
X139631296Y-102361592D01*
X139623420Y-102428047D01*
X139599945Y-102489636D01*
X139559763Y-102547980D01*
X139502244Y-102612552D01*
X139470533Y-102641478D01*
X139423292Y-102668148D01*
X139371050Y-102685785D01*
X139321535Y-102691412D01*
X139036137Y-102691412D01*
X138976336Y-102685560D01*
X138920000Y-102668148D01*
X138870152Y-102641301D01*
X138837934Y-102612552D01*
X138777392Y-102541843D01*
X138740468Y-102487680D01*
X138718489Y-102428181D01*
X138710989Y-102361592D01*
X138710989Y-102243715D01*
X138886844Y-102243715D01*
X138886844Y-102359486D01*
X138893800Y-102394708D01*
X138916153Y-102430377D01*
X138960758Y-102483592D01*
X138989754Y-102505708D01*
X139028810Y-102513359D01*
X139318604Y-102513359D01*
X139350468Y-102505719D01*
X139382718Y-102480477D01*
X139433367Y-102424149D01*
X139450157Y-102397093D01*
X139455441Y-102369744D01*
X139455441Y-102229335D01*
X139448772Y-102200154D01*
X139425124Y-102163664D01*
X139308254Y-102027376D01*
X139278078Y-102004179D01*
X139242583Y-101996602D01*
X139112707Y-101996602D01*
X139071022Y-102005321D01*
X139037328Y-102031498D01*
X138914504Y-102171907D01*
X138893881Y-102204015D01*
X138886844Y-102243715D01*
X138710989Y-102243715D01*
X138710989Y-102237578D01*
X138718972Y-102171915D01*
X138742908Y-102110351D01*
X138784170Y-102051282D01*
X138830332Y-101996968D01*
X138802397Y-101998708D01*
X138767879Y-101992147D01*
X138738191Y-101972330D01*
X138717705Y-101943239D01*
X138710989Y-101909682D01*
X138717469Y-101875230D01*
X138737001Y-101845660D01*
X138765765Y-101825383D01*
X138800107Y-101818640D01*
X139766942Y-101818640D01*
X139837082Y-101828438D01*
G37*
G36*
X138916977Y-101010349D02*
G01*
X139073048Y-101243723D01*
X139618931Y-101243723D01*
X139652214Y-101250268D01*
X139681121Y-101270193D01*
X139700969Y-101299195D01*
X139707500Y-101332658D01*
X139700944Y-101366193D01*
X139681030Y-101395215D01*
X139652008Y-101415130D01*
X139618473Y-101421685D01*
X138802030Y-101421685D01*
X138767509Y-101415217D01*
X138738008Y-101395764D01*
X138717732Y-101367000D01*
X138710989Y-101332658D01*
X138717704Y-101299196D01*
X138738191Y-101270193D01*
X138767987Y-101250310D01*
X138802671Y-101243723D01*
X138855245Y-101243723D01*
X138762005Y-101091407D01*
X138733817Y-101036438D01*
X138716802Y-100976876D01*
X138710989Y-100911522D01*
X138710989Y-100831655D01*
X138719204Y-100765492D01*
X138743402Y-100706388D01*
X138784536Y-100652411D01*
X138837463Y-100609859D01*
X138897236Y-100583462D01*
X138965887Y-100572544D01*
X139618381Y-100549005D01*
X139651989Y-100554763D01*
X139681030Y-100574467D01*
X139700902Y-100603618D01*
X139707500Y-100637940D01*
X139701555Y-100670738D01*
X139683594Y-100699489D01*
X139655962Y-100719327D01*
X139618381Y-100726966D01*
X138974405Y-100752612D01*
X138934739Y-100759969D01*
X138908789Y-100776895D01*
X138892823Y-100803605D01*
X138886844Y-100843928D01*
X138886844Y-100928009D01*
X138893718Y-100965759D01*
X138916977Y-101010349D01*
G37*
G36*
X139282365Y-99287938D02*
G01*
X139311551Y-99307854D01*
X139331610Y-99336891D01*
X139338204Y-99370411D01*
X139338204Y-99976103D01*
X139385648Y-99976103D01*
X139424698Y-99967147D01*
X139458280Y-99939283D01*
X139500412Y-99889091D01*
X139524539Y-99848235D01*
X139531645Y-99813071D01*
X139531645Y-99370411D01*
X139538021Y-99336813D01*
X139557290Y-99307854D01*
X139585645Y-99287999D01*
X139619572Y-99281385D01*
X139652686Y-99288051D01*
X139681396Y-99308404D01*
X139701093Y-99337700D01*
X139707500Y-99370411D01*
X139707500Y-99824336D01*
X139702908Y-99870114D01*
X139688357Y-99920141D01*
X139667314Y-99966331D01*
X139648240Y-99994330D01*
X139580554Y-100071174D01*
X139546796Y-100103663D01*
X139499496Y-100131808D01*
X139447943Y-100150496D01*
X139403784Y-100156171D01*
X139008568Y-100156171D01*
X138971887Y-100150607D01*
X138915969Y-100129793D01*
X138863149Y-100098936D01*
X138825569Y-100062840D01*
X138769149Y-99991124D01*
X138736481Y-99940997D01*
X138717383Y-99888539D01*
X138710989Y-99832488D01*
X138710989Y-99603968D01*
X138892705Y-99603968D01*
X138892705Y-99820123D01*
X138899316Y-99856989D01*
X138919633Y-99891015D01*
X138961765Y-99941298D01*
X138990431Y-99965902D01*
X139026154Y-99973996D01*
X139156488Y-99973996D01*
X139156488Y-99457331D01*
X139039434Y-99457331D01*
X138997134Y-99464903D01*
X138967810Y-99485999D01*
X138923755Y-99536283D01*
X138899460Y-99574473D01*
X138892705Y-99603968D01*
X138710989Y-99603968D01*
X138710989Y-99590688D01*
X138719080Y-99531942D01*
X138743938Y-99474453D01*
X138788108Y-99416573D01*
X138849932Y-99352001D01*
X138896895Y-99314127D01*
X138958564Y-99290139D01*
X139039526Y-99281385D01*
X139248720Y-99281385D01*
X139282365Y-99287938D01*
G37*
G36*
X139652883Y-98022395D02*
G01*
X139681579Y-98042249D01*
X139701067Y-98071216D01*
X139707500Y-98104714D01*
X139700980Y-98139866D01*
X139681762Y-98168278D01*
X139653247Y-98187350D01*
X139619114Y-98193741D01*
X139588431Y-98193741D01*
X139658841Y-98280251D01*
X139696068Y-98356731D01*
X139707500Y-98426474D01*
X139707500Y-98573019D01*
X139699701Y-98629933D01*
X139675223Y-98688743D01*
X139630929Y-98751164D01*
X139570479Y-98822880D01*
X139541305Y-98845609D01*
X139490520Y-98870324D01*
X139435041Y-98887310D01*
X139385923Y-98892581D01*
X139035587Y-98892581D01*
X138977697Y-98886419D01*
X138921190Y-98867759D01*
X138870820Y-98839492D01*
X138837751Y-98809599D01*
X138777301Y-98738891D01*
X138740431Y-98684733D01*
X138718480Y-98625234D01*
X138710989Y-98558640D01*
X138710989Y-98440853D01*
X138892705Y-98440853D01*
X138892705Y-98560746D01*
X138899244Y-98595478D01*
X138919450Y-98627516D01*
X138967352Y-98682837D01*
X138995217Y-98703511D01*
X139030367Y-98710498D01*
X139393159Y-98710498D01*
X139424918Y-98702777D01*
X139455166Y-98677708D01*
X139503068Y-98621288D01*
X139520364Y-98594187D01*
X139525783Y-98566883D01*
X139525783Y-98426474D01*
X139519351Y-98399704D01*
X139495466Y-98362726D01*
X139385465Y-98226439D01*
X139353658Y-98201893D01*
X139314665Y-98193741D01*
X139128186Y-98193741D01*
X139073252Y-98203175D01*
X139037969Y-98228637D01*
X138917710Y-98368954D01*
X138899288Y-98399456D01*
X138892705Y-98440853D01*
X138710989Y-98440853D01*
X138710989Y-98434717D01*
X138718974Y-98368993D01*
X138742913Y-98307400D01*
X138784170Y-98248329D01*
X138830698Y-98193741D01*
X138430628Y-98193741D01*
X138396322Y-98187345D01*
X138367705Y-98168278D01*
X138348178Y-98140138D01*
X138341693Y-98106821D01*
X138348161Y-98072299D01*
X138367614Y-98042799D01*
X138396290Y-98022521D01*
X138430537Y-98015779D01*
X139618656Y-98015779D01*
X139652883Y-98022395D01*
G37*
G36*
X139433828Y-95477269D02*
G01*
X139486490Y-95493086D01*
X139534566Y-95516742D01*
X139564251Y-95540805D01*
X139634959Y-95615635D01*
X139660323Y-95648883D01*
X139685243Y-95698525D01*
X139702568Y-95750943D01*
X139707500Y-95789842D01*
X139707500Y-95937395D01*
X139696609Y-96006165D01*
X139661093Y-96082326D01*
X139594018Y-96169120D01*
X139620396Y-96169120D01*
X139653950Y-96175617D01*
X139682129Y-96195132D01*
X139701124Y-96223742D01*
X139707500Y-96258055D01*
X139701003Y-96292420D01*
X139681579Y-96321161D01*
X139652926Y-96340586D01*
X139618656Y-96347082D01*
X138430537Y-96347082D01*
X138396310Y-96340466D01*
X138367614Y-96320612D01*
X138348130Y-96291632D01*
X138341693Y-96258055D01*
X138348149Y-96223771D01*
X138367431Y-96195132D01*
X138395913Y-96175634D01*
X138429987Y-96169120D01*
X138825203Y-96169120D01*
X138769790Y-96098045D01*
X138736208Y-96047346D01*
X138717179Y-95997615D01*
X138710989Y-95947653D01*
X138710989Y-95803122D01*
X138892705Y-95803122D01*
X138892705Y-95922007D01*
X138897813Y-95960502D01*
X138911207Y-95985663D01*
X139041541Y-96140452D01*
X139072053Y-96161342D01*
X139119302Y-96169120D01*
X139315398Y-96169120D01*
X139353614Y-96160978D01*
X139384641Y-96136422D01*
X139499313Y-95997936D01*
X139519523Y-95967546D01*
X139525783Y-95937395D01*
X139525783Y-95796986D01*
X139521330Y-95770220D01*
X139508197Y-95747710D01*
X139446923Y-95678925D01*
X139423581Y-95659175D01*
X139391144Y-95652363D01*
X139030367Y-95652363D01*
X138993139Y-95659346D01*
X138967444Y-95678925D01*
X138915512Y-95741481D01*
X138898316Y-95771059D01*
X138892705Y-95803122D01*
X138710989Y-95803122D01*
X138710989Y-95789842D01*
X138717664Y-95733274D01*
X138737455Y-95681513D01*
X138771164Y-95633129D01*
X138841872Y-95551155D01*
X138876944Y-95520839D01*
X138927968Y-95494552D01*
X138984067Y-95477707D01*
X139037602Y-95472295D01*
X139385923Y-95472295D01*
X139433828Y-95477269D01*
G37*
G36*
X138966528Y-94208797D02*
G01*
X140019275Y-94673255D01*
X140051742Y-94693934D01*
X140070309Y-94721418D01*
X140076795Y-94757885D01*
X140076795Y-94996663D01*
X140070438Y-95031078D01*
X140051516Y-95059769D01*
X140023328Y-95079125D01*
X139988318Y-95085689D01*
X139954237Y-95079177D01*
X139926127Y-95059769D01*
X139907276Y-95031085D01*
X139900940Y-94996663D01*
X139900940Y-94814122D01*
X139631296Y-94698717D01*
X139631296Y-94736361D01*
X139624442Y-94772525D01*
X139604387Y-94800808D01*
X139568464Y-94823098D01*
X138966528Y-95081568D01*
X138799924Y-95081568D01*
X138765618Y-95075172D01*
X138737001Y-95056105D01*
X138717477Y-95027953D01*
X138710989Y-94994556D01*
X138717449Y-94960098D01*
X138736909Y-94930534D01*
X138765585Y-94910256D01*
X138799832Y-94903515D01*
X138926960Y-94903515D01*
X139449579Y-94678109D01*
X139449579Y-94621506D01*
X138930624Y-94388865D01*
X138799649Y-94388865D01*
X138767117Y-94382262D01*
X138737916Y-94361845D01*
X138717668Y-94332204D01*
X138710989Y-94297823D01*
X138717504Y-94264274D01*
X138737275Y-94235266D01*
X138766094Y-94215340D01*
X138799282Y-94208797D01*
X138966528Y-94208797D01*
G37*
G36*
X142138656Y-104594857D02*
G01*
X140950537Y-104594857D01*
X140917118Y-104588429D01*
X140888163Y-104568937D01*
X140868310Y-104540153D01*
X140861693Y-104505831D01*
X140868244Y-104472375D01*
X140888163Y-104443366D01*
X140917104Y-104423377D01*
X140950537Y-104416804D01*
X141453738Y-104416804D01*
X141453738Y-103898032D01*
X140950537Y-103898032D01*
X140917054Y-103891597D01*
X140888163Y-103872112D01*
X140868310Y-103843328D01*
X140861693Y-103809006D01*
X140868309Y-103774779D01*
X140888163Y-103746083D01*
X140917419Y-103726614D01*
X140952643Y-103720071D01*
X142138656Y-103720071D01*
X142171991Y-103726735D01*
X142201030Y-103747090D01*
X142221012Y-103776338D01*
X142227500Y-103809006D01*
X142220919Y-103844136D01*
X142201488Y-103872570D01*
X142172706Y-103891639D01*
X142138290Y-103898032D01*
X141629593Y-103898032D01*
X141629593Y-104414789D01*
X142138290Y-104414789D01*
X142171798Y-104421459D01*
X142200938Y-104441809D01*
X142220900Y-104471421D01*
X142227500Y-104505831D01*
X142221063Y-104539407D01*
X142201579Y-104568387D01*
X142172883Y-104588242D01*
X142138656Y-104594857D01*
G37*
G36*
X141635440Y-102460511D02*
G01*
X141718345Y-102490644D01*
X142100005Y-102680238D01*
X142156452Y-102716766D01*
X142195325Y-102762273D01*
X142219080Y-102818219D01*
X142227500Y-102887783D01*
X142218322Y-102954244D01*
X142191229Y-103012896D01*
X142149881Y-103061903D01*
X142100005Y-103096427D01*
X141718345Y-103287028D01*
X141639256Y-103315369D01*
X141547161Y-103325222D01*
X141454923Y-103315396D01*
X141374970Y-103287028D01*
X140989188Y-103096427D01*
X140932458Y-103058015D01*
X140893565Y-103011564D01*
X140869981Y-102955767D01*
X140861693Y-102887783D01*
X141037548Y-102887783D01*
X141046595Y-102918219D01*
X141075925Y-102942554D01*
X141439542Y-103120791D01*
X141493740Y-103139262D01*
X141545146Y-103145154D01*
X141599607Y-103139076D01*
X141651666Y-103120791D01*
X142019496Y-102937425D01*
X142043538Y-102918298D01*
X142051645Y-102887783D01*
X142043937Y-102860946D01*
X142019405Y-102840247D01*
X141651666Y-102655783D01*
X141597369Y-102636569D01*
X141545146Y-102630412D01*
X141490871Y-102636751D01*
X141439542Y-102655783D01*
X141075833Y-102836126D01*
X141046643Y-102858028D01*
X141037548Y-102887783D01*
X140861693Y-102887783D01*
X140870075Y-102818749D01*
X140893777Y-102762923D01*
X140932654Y-102717223D01*
X140989188Y-102680238D01*
X141374970Y-102490644D01*
X141457219Y-102460595D01*
X141547161Y-102450436D01*
X141635440Y-102460511D01*
G37*
G36*
X141635440Y-101192891D02*
G01*
X141718345Y-101223024D01*
X142100005Y-101412617D01*
X142156452Y-101449146D01*
X142195325Y-101494653D01*
X142219080Y-101550598D01*
X142227500Y-101620162D01*
X142218322Y-101686624D01*
X142191229Y-101745276D01*
X142149881Y-101794282D01*
X142100005Y-101828807D01*
X141718345Y-102019408D01*
X141639256Y-102047749D01*
X141547161Y-102057601D01*
X141454923Y-102047775D01*
X141374970Y-102019408D01*
X140989188Y-101828807D01*
X140932458Y-101790394D01*
X140893565Y-101743944D01*
X140869981Y-101688147D01*
X140861693Y-101620162D01*
X141037548Y-101620162D01*
X141046595Y-101650599D01*
X141075925Y-101674934D01*
X141439542Y-101853170D01*
X141493740Y-101871642D01*
X141545146Y-101877533D01*
X141599607Y-101871456D01*
X141651666Y-101853170D01*
X142019496Y-101669805D01*
X142043538Y-101650677D01*
X142051645Y-101620162D01*
X142043937Y-101593326D01*
X142019405Y-101572627D01*
X141651666Y-101388162D01*
X141597369Y-101368949D01*
X141545146Y-101362792D01*
X141490871Y-101369131D01*
X141439542Y-101388162D01*
X141075833Y-101568505D01*
X141046643Y-101590408D01*
X141037548Y-101620162D01*
X140861693Y-101620162D01*
X140870075Y-101551129D01*
X140893777Y-101495303D01*
X140932654Y-101449603D01*
X140989188Y-101412617D01*
X141374970Y-101223024D01*
X141457219Y-101192974D01*
X141547161Y-101182815D01*
X141635440Y-101192891D01*
G37*
G36*
X141400432Y-100441569D02*
G01*
X141357568Y-100441569D01*
X141108440Y-100613943D01*
X142138473Y-100613943D01*
X142172831Y-100620460D01*
X142201579Y-100639955D01*
X142221000Y-100668620D01*
X142227500Y-100702970D01*
X142220883Y-100737291D01*
X142201030Y-100766076D01*
X142172075Y-100785568D01*
X142138656Y-100791996D01*
X140861693Y-100791996D01*
X140861693Y-100565125D01*
X141167791Y-100354557D01*
X140861693Y-100137853D01*
X140861693Y-99915195D01*
X142138656Y-99915195D01*
X142172919Y-99921933D01*
X142201671Y-99942214D01*
X142221052Y-99971708D01*
X142227500Y-100006236D01*
X142220929Y-100039685D01*
X142200938Y-100068701D01*
X142171751Y-100088618D01*
X142138107Y-100095171D01*
X141108531Y-100095171D01*
X141353446Y-100263516D01*
X141400432Y-100263516D01*
X141433708Y-100270080D01*
X141462622Y-100290077D01*
X141482398Y-100319072D01*
X141488909Y-100352542D01*
X141482332Y-100386878D01*
X141462622Y-100415648D01*
X141433757Y-100435142D01*
X141400432Y-100441569D01*
G37*
G36*
X142172873Y-98653971D02*
G01*
X142201579Y-98673037D01*
X142221181Y-98700744D01*
X142227500Y-98731472D01*
X142219977Y-98773205D01*
X142199085Y-98801738D01*
X142162928Y-98820315D01*
X141934408Y-98889375D01*
X141934408Y-99277446D01*
X142179231Y-99352642D01*
X142195132Y-99360168D01*
X142212112Y-99379387D01*
X142223670Y-99403829D01*
X142227500Y-99430220D01*
X142220770Y-99466259D01*
X142201030Y-99494883D01*
X142171811Y-99513849D01*
X142136458Y-99520254D01*
X142103943Y-99515033D01*
X140929471Y-99166621D01*
X140891053Y-99146708D01*
X140869337Y-99117950D01*
X140862110Y-99079884D01*
X141273579Y-99079884D01*
X141752691Y-99223407D01*
X141752691Y-98941307D01*
X141273579Y-99079884D01*
X140862110Y-99079884D01*
X140861693Y-99077686D01*
X140868498Y-99038131D01*
X140887111Y-99011691D01*
X140918755Y-98994979D01*
X142112095Y-98651788D01*
X142138473Y-98647574D01*
X142172873Y-98653971D01*
G37*
G36*
X140952643Y-97379954D02*
G01*
X142227500Y-97379954D01*
X142227500Y-97616351D01*
X141183453Y-98074672D01*
X142138656Y-98074672D01*
X142172919Y-98081188D01*
X142201579Y-98100684D01*
X142221004Y-98129337D01*
X142227500Y-98163607D01*
X142221003Y-98197972D01*
X142201579Y-98226713D01*
X142172926Y-98246138D01*
X142138656Y-98252634D01*
X140861693Y-98252634D01*
X140861693Y-98019260D01*
X141905832Y-97559930D01*
X140952735Y-97559930D01*
X140918291Y-97553244D01*
X140888713Y-97533003D01*
X140868397Y-97503342D01*
X140861693Y-97468889D01*
X140868309Y-97434662D01*
X140888163Y-97405966D01*
X140917419Y-97386497D01*
X140952643Y-97379954D01*
G37*
D12*
X156935714Y-92363595D02*
X156669047Y-91982642D01*
X156478571Y-92363595D02*
X156478571Y-91563595D01*
X156478571Y-91563595D02*
X156783333Y-91563595D01*
X156783333Y-91563595D02*
X156859523Y-91601690D01*
X156859523Y-91601690D02*
X156897618Y-91639785D01*
X156897618Y-91639785D02*
X156935714Y-91715976D01*
X156935714Y-91715976D02*
X156935714Y-91830261D01*
X156935714Y-91830261D02*
X156897618Y-91906452D01*
X156897618Y-91906452D02*
X156859523Y-91944547D01*
X156859523Y-91944547D02*
X156783333Y-91982642D01*
X156783333Y-91982642D02*
X156478571Y-91982642D01*
X157202380Y-91563595D02*
X157697618Y-91563595D01*
X157697618Y-91563595D02*
X157430952Y-91868357D01*
X157430952Y-91868357D02*
X157545237Y-91868357D01*
X157545237Y-91868357D02*
X157621428Y-91906452D01*
X157621428Y-91906452D02*
X157659523Y-91944547D01*
X157659523Y-91944547D02*
X157697618Y-92020738D01*
X157697618Y-92020738D02*
X157697618Y-92211214D01*
X157697618Y-92211214D02*
X157659523Y-92287404D01*
X157659523Y-92287404D02*
X157621428Y-92325500D01*
X157621428Y-92325500D02*
X157545237Y-92363595D01*
X157545237Y-92363595D02*
X157316666Y-92363595D01*
X157316666Y-92363595D02*
X157240475Y-92325500D01*
X157240475Y-92325500D02*
X157202380Y-92287404D01*
X158421428Y-91563595D02*
X158040476Y-91563595D01*
X158040476Y-91563595D02*
X158002380Y-91944547D01*
X158002380Y-91944547D02*
X158040476Y-91906452D01*
X158040476Y-91906452D02*
X158116666Y-91868357D01*
X158116666Y-91868357D02*
X158307142Y-91868357D01*
X158307142Y-91868357D02*
X158383333Y-91906452D01*
X158383333Y-91906452D02*
X158421428Y-91944547D01*
X158421428Y-91944547D02*
X158459523Y-92020738D01*
X158459523Y-92020738D02*
X158459523Y-92211214D01*
X158459523Y-92211214D02*
X158421428Y-92287404D01*
X158421428Y-92287404D02*
X158383333Y-92325500D01*
X158383333Y-92325500D02*
X158307142Y-92363595D01*
X158307142Y-92363595D02*
X158116666Y-92363595D01*
X158116666Y-92363595D02*
X158040476Y-92325500D01*
X158040476Y-92325500D02*
X158002380Y-92287404D01*
D10*
X162959695Y-114020238D02*
X162959695Y-114401190D01*
X162959695Y-114401190D02*
X162159695Y-114401190D01*
X162540647Y-113753571D02*
X162540647Y-113486905D01*
X162959695Y-113372619D02*
X162959695Y-113753571D01*
X162959695Y-113753571D02*
X162159695Y-113753571D01*
X162159695Y-113753571D02*
X162159695Y-113372619D01*
X162959695Y-113029761D02*
X162159695Y-113029761D01*
X162159695Y-113029761D02*
X162159695Y-112839285D01*
X162159695Y-112839285D02*
X162197790Y-112724999D01*
X162197790Y-112724999D02*
X162273980Y-112648809D01*
X162273980Y-112648809D02*
X162350171Y-112610714D01*
X162350171Y-112610714D02*
X162502552Y-112572618D01*
X162502552Y-112572618D02*
X162616838Y-112572618D01*
X162616838Y-112572618D02*
X162769219Y-112610714D01*
X162769219Y-112610714D02*
X162845409Y-112648809D01*
X162845409Y-112648809D02*
X162921600Y-112724999D01*
X162921600Y-112724999D02*
X162959695Y-112839285D01*
X162959695Y-112839285D02*
X162959695Y-113029761D01*
X162959695Y-111810714D02*
X162959695Y-112267857D01*
X162959695Y-112039285D02*
X162159695Y-112039285D01*
X162159695Y-112039285D02*
X162273980Y-112115476D01*
X162273980Y-112115476D02*
X162350171Y-112191666D01*
X162350171Y-112191666D02*
X162388266Y-112267857D01*
D12*
X168738595Y-81714285D02*
X168357642Y-81980952D01*
X168738595Y-82171428D02*
X167938595Y-82171428D01*
X167938595Y-82171428D02*
X167938595Y-81866666D01*
X167938595Y-81866666D02*
X167976690Y-81790476D01*
X167976690Y-81790476D02*
X168014785Y-81752381D01*
X168014785Y-81752381D02*
X168090976Y-81714285D01*
X168090976Y-81714285D02*
X168205261Y-81714285D01*
X168205261Y-81714285D02*
X168281452Y-81752381D01*
X168281452Y-81752381D02*
X168319547Y-81790476D01*
X168319547Y-81790476D02*
X168357642Y-81866666D01*
X168357642Y-81866666D02*
X168357642Y-82171428D01*
X168205261Y-81028571D02*
X168738595Y-81028571D01*
X167900500Y-81219047D02*
X168471928Y-81409524D01*
X168471928Y-81409524D02*
X168471928Y-80914285D01*
X167938595Y-80457142D02*
X167938595Y-80380952D01*
X167938595Y-80380952D02*
X167976690Y-80304761D01*
X167976690Y-80304761D02*
X168014785Y-80266666D01*
X168014785Y-80266666D02*
X168090976Y-80228571D01*
X168090976Y-80228571D02*
X168243357Y-80190476D01*
X168243357Y-80190476D02*
X168433833Y-80190476D01*
X168433833Y-80190476D02*
X168586214Y-80228571D01*
X168586214Y-80228571D02*
X168662404Y-80266666D01*
X168662404Y-80266666D02*
X168700500Y-80304761D01*
X168700500Y-80304761D02*
X168738595Y-80380952D01*
X168738595Y-80380952D02*
X168738595Y-80457142D01*
X168738595Y-80457142D02*
X168700500Y-80533333D01*
X168700500Y-80533333D02*
X168662404Y-80571428D01*
X168662404Y-80571428D02*
X168586214Y-80609523D01*
X168586214Y-80609523D02*
X168433833Y-80647619D01*
X168433833Y-80647619D02*
X168243357Y-80647619D01*
X168243357Y-80647619D02*
X168090976Y-80609523D01*
X168090976Y-80609523D02*
X168014785Y-80571428D01*
X168014785Y-80571428D02*
X167976690Y-80533333D01*
X167976690Y-80533333D02*
X167938595Y-80457142D01*
D13*
X109266666Y-115229819D02*
X109266666Y-115944104D01*
X109266666Y-115944104D02*
X109219047Y-116086961D01*
X109219047Y-116086961D02*
X109123809Y-116182200D01*
X109123809Y-116182200D02*
X108980952Y-116229819D01*
X108980952Y-116229819D02*
X108885714Y-116229819D01*
X110266666Y-116229819D02*
X109695238Y-116229819D01*
X109980952Y-116229819D02*
X109980952Y-115229819D01*
X109980952Y-115229819D02*
X109885714Y-115372676D01*
X109885714Y-115372676D02*
X109790476Y-115467914D01*
X109790476Y-115467914D02*
X109695238Y-115515533D01*
X134595595Y-100179819D02*
X134595595Y-100989342D01*
X134595595Y-100989342D02*
X134643214Y-101084580D01*
X134643214Y-101084580D02*
X134690833Y-101132200D01*
X134690833Y-101132200D02*
X134786071Y-101179819D01*
X134786071Y-101179819D02*
X134976547Y-101179819D01*
X134976547Y-101179819D02*
X135071785Y-101132200D01*
X135071785Y-101132200D02*
X135119404Y-101084580D01*
X135119404Y-101084580D02*
X135167023Y-100989342D01*
X135167023Y-100989342D02*
X135167023Y-100179819D01*
X136071785Y-100513152D02*
X136071785Y-101179819D01*
X135833690Y-100132200D02*
X135595595Y-100846485D01*
X135595595Y-100846485D02*
X136214642Y-100846485D01*
X112465714Y-85576104D02*
X112427618Y-85614200D01*
X112427618Y-85614200D02*
X112313333Y-85652295D01*
X112313333Y-85652295D02*
X112237142Y-85652295D01*
X112237142Y-85652295D02*
X112122856Y-85614200D01*
X112122856Y-85614200D02*
X112046666Y-85538009D01*
X112046666Y-85538009D02*
X112008571Y-85461819D01*
X112008571Y-85461819D02*
X111970475Y-85309438D01*
X111970475Y-85309438D02*
X111970475Y-85195152D01*
X111970475Y-85195152D02*
X112008571Y-85042771D01*
X112008571Y-85042771D02*
X112046666Y-84966580D01*
X112046666Y-84966580D02*
X112122856Y-84890390D01*
X112122856Y-84890390D02*
X112237142Y-84852295D01*
X112237142Y-84852295D02*
X112313333Y-84852295D01*
X112313333Y-84852295D02*
X112427618Y-84890390D01*
X112427618Y-84890390D02*
X112465714Y-84928485D01*
X113151428Y-85118961D02*
X113151428Y-85652295D01*
X112960952Y-84814200D02*
X112770475Y-85385628D01*
X112770475Y-85385628D02*
X113265714Y-85385628D01*
X113494285Y-84852295D02*
X113989523Y-84852295D01*
X113989523Y-84852295D02*
X113722857Y-85157057D01*
X113722857Y-85157057D02*
X113837142Y-85157057D01*
X113837142Y-85157057D02*
X113913333Y-85195152D01*
X113913333Y-85195152D02*
X113951428Y-85233247D01*
X113951428Y-85233247D02*
X113989523Y-85309438D01*
X113989523Y-85309438D02*
X113989523Y-85499914D01*
X113989523Y-85499914D02*
X113951428Y-85576104D01*
X113951428Y-85576104D02*
X113913333Y-85614200D01*
X113913333Y-85614200D02*
X113837142Y-85652295D01*
X113837142Y-85652295D02*
X113608571Y-85652295D01*
X113608571Y-85652295D02*
X113532380Y-85614200D01*
X113532380Y-85614200D02*
X113494285Y-85576104D01*
D12*
X176910714Y-100163595D02*
X176644047Y-99782642D01*
X176453571Y-100163595D02*
X176453571Y-99363595D01*
X176453571Y-99363595D02*
X176758333Y-99363595D01*
X176758333Y-99363595D02*
X176834523Y-99401690D01*
X176834523Y-99401690D02*
X176872618Y-99439785D01*
X176872618Y-99439785D02*
X176910714Y-99515976D01*
X176910714Y-99515976D02*
X176910714Y-99630261D01*
X176910714Y-99630261D02*
X176872618Y-99706452D01*
X176872618Y-99706452D02*
X176834523Y-99744547D01*
X176834523Y-99744547D02*
X176758333Y-99782642D01*
X176758333Y-99782642D02*
X176453571Y-99782642D01*
X177634523Y-99363595D02*
X177253571Y-99363595D01*
X177253571Y-99363595D02*
X177215475Y-99744547D01*
X177215475Y-99744547D02*
X177253571Y-99706452D01*
X177253571Y-99706452D02*
X177329761Y-99668357D01*
X177329761Y-99668357D02*
X177520237Y-99668357D01*
X177520237Y-99668357D02*
X177596428Y-99706452D01*
X177596428Y-99706452D02*
X177634523Y-99744547D01*
X177634523Y-99744547D02*
X177672618Y-99820738D01*
X177672618Y-99820738D02*
X177672618Y-100011214D01*
X177672618Y-100011214D02*
X177634523Y-100087404D01*
X177634523Y-100087404D02*
X177596428Y-100125500D01*
X177596428Y-100125500D02*
X177520237Y-100163595D01*
X177520237Y-100163595D02*
X177329761Y-100163595D01*
X177329761Y-100163595D02*
X177253571Y-100125500D01*
X177253571Y-100125500D02*
X177215475Y-100087404D01*
X178167857Y-99363595D02*
X178244047Y-99363595D01*
X178244047Y-99363595D02*
X178320238Y-99401690D01*
X178320238Y-99401690D02*
X178358333Y-99439785D01*
X178358333Y-99439785D02*
X178396428Y-99515976D01*
X178396428Y-99515976D02*
X178434523Y-99668357D01*
X178434523Y-99668357D02*
X178434523Y-99858833D01*
X178434523Y-99858833D02*
X178396428Y-100011214D01*
X178396428Y-100011214D02*
X178358333Y-100087404D01*
X178358333Y-100087404D02*
X178320238Y-100125500D01*
X178320238Y-100125500D02*
X178244047Y-100163595D01*
X178244047Y-100163595D02*
X178167857Y-100163595D01*
X178167857Y-100163595D02*
X178091666Y-100125500D01*
X178091666Y-100125500D02*
X178053571Y-100087404D01*
X178053571Y-100087404D02*
X178015476Y-100011214D01*
X178015476Y-100011214D02*
X177977380Y-99858833D01*
X177977380Y-99858833D02*
X177977380Y-99668357D01*
X177977380Y-99668357D02*
X178015476Y-99515976D01*
X178015476Y-99515976D02*
X178053571Y-99439785D01*
X178053571Y-99439785D02*
X178091666Y-99401690D01*
X178091666Y-99401690D02*
X178167857Y-99363595D01*
D13*
X172486104Y-114994285D02*
X172524200Y-115032381D01*
X172524200Y-115032381D02*
X172562295Y-115146666D01*
X172562295Y-115146666D02*
X172562295Y-115222857D01*
X172562295Y-115222857D02*
X172524200Y-115337143D01*
X172524200Y-115337143D02*
X172448009Y-115413333D01*
X172448009Y-115413333D02*
X172371819Y-115451428D01*
X172371819Y-115451428D02*
X172219438Y-115489524D01*
X172219438Y-115489524D02*
X172105152Y-115489524D01*
X172105152Y-115489524D02*
X171952771Y-115451428D01*
X171952771Y-115451428D02*
X171876580Y-115413333D01*
X171876580Y-115413333D02*
X171800390Y-115337143D01*
X171800390Y-115337143D02*
X171762295Y-115222857D01*
X171762295Y-115222857D02*
X171762295Y-115146666D01*
X171762295Y-115146666D02*
X171800390Y-115032381D01*
X171800390Y-115032381D02*
X171838485Y-114994285D01*
X172028961Y-114308571D02*
X172562295Y-114308571D01*
X171724200Y-114499047D02*
X172295628Y-114689524D01*
X172295628Y-114689524D02*
X172295628Y-114194285D01*
X171762295Y-113737142D02*
X171762295Y-113660952D01*
X171762295Y-113660952D02*
X171800390Y-113584761D01*
X171800390Y-113584761D02*
X171838485Y-113546666D01*
X171838485Y-113546666D02*
X171914676Y-113508571D01*
X171914676Y-113508571D02*
X172067057Y-113470476D01*
X172067057Y-113470476D02*
X172257533Y-113470476D01*
X172257533Y-113470476D02*
X172409914Y-113508571D01*
X172409914Y-113508571D02*
X172486104Y-113546666D01*
X172486104Y-113546666D02*
X172524200Y-113584761D01*
X172524200Y-113584761D02*
X172562295Y-113660952D01*
X172562295Y-113660952D02*
X172562295Y-113737142D01*
X172562295Y-113737142D02*
X172524200Y-113813333D01*
X172524200Y-113813333D02*
X172486104Y-113851428D01*
X172486104Y-113851428D02*
X172409914Y-113889523D01*
X172409914Y-113889523D02*
X172257533Y-113927619D01*
X172257533Y-113927619D02*
X172067057Y-113927619D01*
X172067057Y-113927619D02*
X171914676Y-113889523D01*
X171914676Y-113889523D02*
X171838485Y-113851428D01*
X171838485Y-113851428D02*
X171800390Y-113813333D01*
X171800390Y-113813333D02*
X171762295Y-113737142D01*
X123077142Y-90659580D02*
X123029523Y-90707200D01*
X123029523Y-90707200D02*
X122886666Y-90754819D01*
X122886666Y-90754819D02*
X122791428Y-90754819D01*
X122791428Y-90754819D02*
X122648571Y-90707200D01*
X122648571Y-90707200D02*
X122553333Y-90611961D01*
X122553333Y-90611961D02*
X122505714Y-90516723D01*
X122505714Y-90516723D02*
X122458095Y-90326247D01*
X122458095Y-90326247D02*
X122458095Y-90183390D01*
X122458095Y-90183390D02*
X122505714Y-89992914D01*
X122505714Y-89992914D02*
X122553333Y-89897676D01*
X122553333Y-89897676D02*
X122648571Y-89802438D01*
X122648571Y-89802438D02*
X122791428Y-89754819D01*
X122791428Y-89754819D02*
X122886666Y-89754819D01*
X122886666Y-89754819D02*
X123029523Y-89802438D01*
X123029523Y-89802438D02*
X123077142Y-89850057D01*
X123410476Y-89754819D02*
X124029523Y-89754819D01*
X124029523Y-89754819D02*
X123696190Y-90135771D01*
X123696190Y-90135771D02*
X123839047Y-90135771D01*
X123839047Y-90135771D02*
X123934285Y-90183390D01*
X123934285Y-90183390D02*
X123981904Y-90231009D01*
X123981904Y-90231009D02*
X124029523Y-90326247D01*
X124029523Y-90326247D02*
X124029523Y-90564342D01*
X124029523Y-90564342D02*
X123981904Y-90659580D01*
X123981904Y-90659580D02*
X123934285Y-90707200D01*
X123934285Y-90707200D02*
X123839047Y-90754819D01*
X123839047Y-90754819D02*
X123553333Y-90754819D01*
X123553333Y-90754819D02*
X123458095Y-90707200D01*
X123458095Y-90707200D02*
X123410476Y-90659580D01*
X124886666Y-89754819D02*
X124696190Y-89754819D01*
X124696190Y-89754819D02*
X124600952Y-89802438D01*
X124600952Y-89802438D02*
X124553333Y-89850057D01*
X124553333Y-89850057D02*
X124458095Y-89992914D01*
X124458095Y-89992914D02*
X124410476Y-90183390D01*
X124410476Y-90183390D02*
X124410476Y-90564342D01*
X124410476Y-90564342D02*
X124458095Y-90659580D01*
X124458095Y-90659580D02*
X124505714Y-90707200D01*
X124505714Y-90707200D02*
X124600952Y-90754819D01*
X124600952Y-90754819D02*
X124791428Y-90754819D01*
X124791428Y-90754819D02*
X124886666Y-90707200D01*
X124886666Y-90707200D02*
X124934285Y-90659580D01*
X124934285Y-90659580D02*
X124981904Y-90564342D01*
X124981904Y-90564342D02*
X124981904Y-90326247D01*
X124981904Y-90326247D02*
X124934285Y-90231009D01*
X124934285Y-90231009D02*
X124886666Y-90183390D01*
X124886666Y-90183390D02*
X124791428Y-90135771D01*
X124791428Y-90135771D02*
X124600952Y-90135771D01*
X124600952Y-90135771D02*
X124505714Y-90183390D01*
X124505714Y-90183390D02*
X124458095Y-90231009D01*
X124458095Y-90231009D02*
X124410476Y-90326247D01*
D12*
X150235714Y-112788595D02*
X149969047Y-112407642D01*
X149778571Y-112788595D02*
X149778571Y-111988595D01*
X149778571Y-111988595D02*
X150083333Y-111988595D01*
X150083333Y-111988595D02*
X150159523Y-112026690D01*
X150159523Y-112026690D02*
X150197618Y-112064785D01*
X150197618Y-112064785D02*
X150235714Y-112140976D01*
X150235714Y-112140976D02*
X150235714Y-112255261D01*
X150235714Y-112255261D02*
X150197618Y-112331452D01*
X150197618Y-112331452D02*
X150159523Y-112369547D01*
X150159523Y-112369547D02*
X150083333Y-112407642D01*
X150083333Y-112407642D02*
X149778571Y-112407642D01*
X150502380Y-111988595D02*
X150997618Y-111988595D01*
X150997618Y-111988595D02*
X150730952Y-112293357D01*
X150730952Y-112293357D02*
X150845237Y-112293357D01*
X150845237Y-112293357D02*
X150921428Y-112331452D01*
X150921428Y-112331452D02*
X150959523Y-112369547D01*
X150959523Y-112369547D02*
X150997618Y-112445738D01*
X150997618Y-112445738D02*
X150997618Y-112636214D01*
X150997618Y-112636214D02*
X150959523Y-112712404D01*
X150959523Y-112712404D02*
X150921428Y-112750500D01*
X150921428Y-112750500D02*
X150845237Y-112788595D01*
X150845237Y-112788595D02*
X150616666Y-112788595D01*
X150616666Y-112788595D02*
X150540475Y-112750500D01*
X150540475Y-112750500D02*
X150502380Y-112712404D01*
X151264285Y-111988595D02*
X151759523Y-111988595D01*
X151759523Y-111988595D02*
X151492857Y-112293357D01*
X151492857Y-112293357D02*
X151607142Y-112293357D01*
X151607142Y-112293357D02*
X151683333Y-112331452D01*
X151683333Y-112331452D02*
X151721428Y-112369547D01*
X151721428Y-112369547D02*
X151759523Y-112445738D01*
X151759523Y-112445738D02*
X151759523Y-112636214D01*
X151759523Y-112636214D02*
X151721428Y-112712404D01*
X151721428Y-112712404D02*
X151683333Y-112750500D01*
X151683333Y-112750500D02*
X151607142Y-112788595D01*
X151607142Y-112788595D02*
X151378571Y-112788595D01*
X151378571Y-112788595D02*
X151302380Y-112750500D01*
X151302380Y-112750500D02*
X151264285Y-112712404D01*
X149635714Y-90713595D02*
X149369047Y-90332642D01*
X149178571Y-90713595D02*
X149178571Y-89913595D01*
X149178571Y-89913595D02*
X149483333Y-89913595D01*
X149483333Y-89913595D02*
X149559523Y-89951690D01*
X149559523Y-89951690D02*
X149597618Y-89989785D01*
X149597618Y-89989785D02*
X149635714Y-90065976D01*
X149635714Y-90065976D02*
X149635714Y-90180261D01*
X149635714Y-90180261D02*
X149597618Y-90256452D01*
X149597618Y-90256452D02*
X149559523Y-90294547D01*
X149559523Y-90294547D02*
X149483333Y-90332642D01*
X149483333Y-90332642D02*
X149178571Y-90332642D01*
X149902380Y-89913595D02*
X150397618Y-89913595D01*
X150397618Y-89913595D02*
X150130952Y-90218357D01*
X150130952Y-90218357D02*
X150245237Y-90218357D01*
X150245237Y-90218357D02*
X150321428Y-90256452D01*
X150321428Y-90256452D02*
X150359523Y-90294547D01*
X150359523Y-90294547D02*
X150397618Y-90370738D01*
X150397618Y-90370738D02*
X150397618Y-90561214D01*
X150397618Y-90561214D02*
X150359523Y-90637404D01*
X150359523Y-90637404D02*
X150321428Y-90675500D01*
X150321428Y-90675500D02*
X150245237Y-90713595D01*
X150245237Y-90713595D02*
X150016666Y-90713595D01*
X150016666Y-90713595D02*
X149940475Y-90675500D01*
X149940475Y-90675500D02*
X149902380Y-90637404D01*
X151083333Y-90180261D02*
X151083333Y-90713595D01*
X150892857Y-89875500D02*
X150702380Y-90446928D01*
X150702380Y-90446928D02*
X151197619Y-90446928D01*
X177113595Y-114564285D02*
X176732642Y-114830952D01*
X177113595Y-115021428D02*
X176313595Y-115021428D01*
X176313595Y-115021428D02*
X176313595Y-114716666D01*
X176313595Y-114716666D02*
X176351690Y-114640476D01*
X176351690Y-114640476D02*
X176389785Y-114602381D01*
X176389785Y-114602381D02*
X176465976Y-114564285D01*
X176465976Y-114564285D02*
X176580261Y-114564285D01*
X176580261Y-114564285D02*
X176656452Y-114602381D01*
X176656452Y-114602381D02*
X176694547Y-114640476D01*
X176694547Y-114640476D02*
X176732642Y-114716666D01*
X176732642Y-114716666D02*
X176732642Y-115021428D01*
X176313595Y-113840476D02*
X176313595Y-114221428D01*
X176313595Y-114221428D02*
X176694547Y-114259524D01*
X176694547Y-114259524D02*
X176656452Y-114221428D01*
X176656452Y-114221428D02*
X176618357Y-114145238D01*
X176618357Y-114145238D02*
X176618357Y-113954762D01*
X176618357Y-113954762D02*
X176656452Y-113878571D01*
X176656452Y-113878571D02*
X176694547Y-113840476D01*
X176694547Y-113840476D02*
X176770738Y-113802381D01*
X176770738Y-113802381D02*
X176961214Y-113802381D01*
X176961214Y-113802381D02*
X177037404Y-113840476D01*
X177037404Y-113840476D02*
X177075500Y-113878571D01*
X177075500Y-113878571D02*
X177113595Y-113954762D01*
X177113595Y-113954762D02*
X177113595Y-114145238D01*
X177113595Y-114145238D02*
X177075500Y-114221428D01*
X177075500Y-114221428D02*
X177037404Y-114259524D01*
X177113595Y-113040476D02*
X177113595Y-113497619D01*
X177113595Y-113269047D02*
X176313595Y-113269047D01*
X176313595Y-113269047D02*
X176427880Y-113345238D01*
X176427880Y-113345238D02*
X176504071Y-113421428D01*
X176504071Y-113421428D02*
X176542166Y-113497619D01*
D14*
X138026190Y-88899638D02*
X138026190Y-86899638D01*
X138026190Y-87852019D02*
X139169047Y-87852019D01*
X139169047Y-88899638D02*
X139169047Y-86899638D01*
X140978571Y-87566304D02*
X140978571Y-88899638D01*
X140502380Y-86804400D02*
X140026190Y-88232971D01*
X140026190Y-88232971D02*
X141264285Y-88232971D01*
D13*
X116918810Y-116304819D02*
X116918810Y-115304819D01*
X117966428Y-116209580D02*
X117918809Y-116257200D01*
X117918809Y-116257200D02*
X117775952Y-116304819D01*
X117775952Y-116304819D02*
X117680714Y-116304819D01*
X117680714Y-116304819D02*
X117537857Y-116257200D01*
X117537857Y-116257200D02*
X117442619Y-116161961D01*
X117442619Y-116161961D02*
X117395000Y-116066723D01*
X117395000Y-116066723D02*
X117347381Y-115876247D01*
X117347381Y-115876247D02*
X117347381Y-115733390D01*
X117347381Y-115733390D02*
X117395000Y-115542914D01*
X117395000Y-115542914D02*
X117442619Y-115447676D01*
X117442619Y-115447676D02*
X117537857Y-115352438D01*
X117537857Y-115352438D02*
X117680714Y-115304819D01*
X117680714Y-115304819D02*
X117775952Y-115304819D01*
X117775952Y-115304819D02*
X117918809Y-115352438D01*
X117918809Y-115352438D02*
X117966428Y-115400057D01*
X118299762Y-115304819D02*
X118966428Y-115304819D01*
X118966428Y-115304819D02*
X118537857Y-116304819D01*
X115657142Y-89059580D02*
X115609523Y-89107200D01*
X115609523Y-89107200D02*
X115466666Y-89154819D01*
X115466666Y-89154819D02*
X115371428Y-89154819D01*
X115371428Y-89154819D02*
X115228571Y-89107200D01*
X115228571Y-89107200D02*
X115133333Y-89011961D01*
X115133333Y-89011961D02*
X115085714Y-88916723D01*
X115085714Y-88916723D02*
X115038095Y-88726247D01*
X115038095Y-88726247D02*
X115038095Y-88583390D01*
X115038095Y-88583390D02*
X115085714Y-88392914D01*
X115085714Y-88392914D02*
X115133333Y-88297676D01*
X115133333Y-88297676D02*
X115228571Y-88202438D01*
X115228571Y-88202438D02*
X115371428Y-88154819D01*
X115371428Y-88154819D02*
X115466666Y-88154819D01*
X115466666Y-88154819D02*
X115609523Y-88202438D01*
X115609523Y-88202438D02*
X115657142Y-88250057D01*
X116514285Y-88154819D02*
X116323809Y-88154819D01*
X116323809Y-88154819D02*
X116228571Y-88202438D01*
X116228571Y-88202438D02*
X116180952Y-88250057D01*
X116180952Y-88250057D02*
X116085714Y-88392914D01*
X116085714Y-88392914D02*
X116038095Y-88583390D01*
X116038095Y-88583390D02*
X116038095Y-88964342D01*
X116038095Y-88964342D02*
X116085714Y-89059580D01*
X116085714Y-89059580D02*
X116133333Y-89107200D01*
X116133333Y-89107200D02*
X116228571Y-89154819D01*
X116228571Y-89154819D02*
X116419047Y-89154819D01*
X116419047Y-89154819D02*
X116514285Y-89107200D01*
X116514285Y-89107200D02*
X116561904Y-89059580D01*
X116561904Y-89059580D02*
X116609523Y-88964342D01*
X116609523Y-88964342D02*
X116609523Y-88726247D01*
X116609523Y-88726247D02*
X116561904Y-88631009D01*
X116561904Y-88631009D02*
X116514285Y-88583390D01*
X116514285Y-88583390D02*
X116419047Y-88535771D01*
X116419047Y-88535771D02*
X116228571Y-88535771D01*
X116228571Y-88535771D02*
X116133333Y-88583390D01*
X116133333Y-88583390D02*
X116085714Y-88631009D01*
X116085714Y-88631009D02*
X116038095Y-88726247D01*
X117228571Y-88154819D02*
X117323809Y-88154819D01*
X117323809Y-88154819D02*
X117419047Y-88202438D01*
X117419047Y-88202438D02*
X117466666Y-88250057D01*
X117466666Y-88250057D02*
X117514285Y-88345295D01*
X117514285Y-88345295D02*
X117561904Y-88535771D01*
X117561904Y-88535771D02*
X117561904Y-88773866D01*
X117561904Y-88773866D02*
X117514285Y-88964342D01*
X117514285Y-88964342D02*
X117466666Y-89059580D01*
X117466666Y-89059580D02*
X117419047Y-89107200D01*
X117419047Y-89107200D02*
X117323809Y-89154819D01*
X117323809Y-89154819D02*
X117228571Y-89154819D01*
X117228571Y-89154819D02*
X117133333Y-89107200D01*
X117133333Y-89107200D02*
X117085714Y-89059580D01*
X117085714Y-89059580D02*
X117038095Y-88964342D01*
X117038095Y-88964342D02*
X116990476Y-88773866D01*
X116990476Y-88773866D02*
X116990476Y-88535771D01*
X116990476Y-88535771D02*
X117038095Y-88345295D01*
X117038095Y-88345295D02*
X117085714Y-88250057D01*
X117085714Y-88250057D02*
X117133333Y-88202438D01*
X117133333Y-88202438D02*
X117228571Y-88154819D01*
D12*
X166835714Y-102188595D02*
X166569047Y-101807642D01*
X166378571Y-102188595D02*
X166378571Y-101388595D01*
X166378571Y-101388595D02*
X166683333Y-101388595D01*
X166683333Y-101388595D02*
X166759523Y-101426690D01*
X166759523Y-101426690D02*
X166797618Y-101464785D01*
X166797618Y-101464785D02*
X166835714Y-101540976D01*
X166835714Y-101540976D02*
X166835714Y-101655261D01*
X166835714Y-101655261D02*
X166797618Y-101731452D01*
X166797618Y-101731452D02*
X166759523Y-101769547D01*
X166759523Y-101769547D02*
X166683333Y-101807642D01*
X166683333Y-101807642D02*
X166378571Y-101807642D01*
X167521428Y-101655261D02*
X167521428Y-102188595D01*
X167330952Y-101350500D02*
X167140475Y-101921928D01*
X167140475Y-101921928D02*
X167635714Y-101921928D01*
X167902380Y-101464785D02*
X167940476Y-101426690D01*
X167940476Y-101426690D02*
X168016666Y-101388595D01*
X168016666Y-101388595D02*
X168207142Y-101388595D01*
X168207142Y-101388595D02*
X168283333Y-101426690D01*
X168283333Y-101426690D02*
X168321428Y-101464785D01*
X168321428Y-101464785D02*
X168359523Y-101540976D01*
X168359523Y-101540976D02*
X168359523Y-101617166D01*
X168359523Y-101617166D02*
X168321428Y-101731452D01*
X168321428Y-101731452D02*
X167864285Y-102188595D01*
X167864285Y-102188595D02*
X168359523Y-102188595D01*
D13*
X115607142Y-92109580D02*
X115559523Y-92157200D01*
X115559523Y-92157200D02*
X115416666Y-92204819D01*
X115416666Y-92204819D02*
X115321428Y-92204819D01*
X115321428Y-92204819D02*
X115178571Y-92157200D01*
X115178571Y-92157200D02*
X115083333Y-92061961D01*
X115083333Y-92061961D02*
X115035714Y-91966723D01*
X115035714Y-91966723D02*
X114988095Y-91776247D01*
X114988095Y-91776247D02*
X114988095Y-91633390D01*
X114988095Y-91633390D02*
X115035714Y-91442914D01*
X115035714Y-91442914D02*
X115083333Y-91347676D01*
X115083333Y-91347676D02*
X115178571Y-91252438D01*
X115178571Y-91252438D02*
X115321428Y-91204819D01*
X115321428Y-91204819D02*
X115416666Y-91204819D01*
X115416666Y-91204819D02*
X115559523Y-91252438D01*
X115559523Y-91252438D02*
X115607142Y-91300057D01*
X116511904Y-91204819D02*
X116035714Y-91204819D01*
X116035714Y-91204819D02*
X115988095Y-91681009D01*
X115988095Y-91681009D02*
X116035714Y-91633390D01*
X116035714Y-91633390D02*
X116130952Y-91585771D01*
X116130952Y-91585771D02*
X116369047Y-91585771D01*
X116369047Y-91585771D02*
X116464285Y-91633390D01*
X116464285Y-91633390D02*
X116511904Y-91681009D01*
X116511904Y-91681009D02*
X116559523Y-91776247D01*
X116559523Y-91776247D02*
X116559523Y-92014342D01*
X116559523Y-92014342D02*
X116511904Y-92109580D01*
X116511904Y-92109580D02*
X116464285Y-92157200D01*
X116464285Y-92157200D02*
X116369047Y-92204819D01*
X116369047Y-92204819D02*
X116130952Y-92204819D01*
X116130952Y-92204819D02*
X116035714Y-92157200D01*
X116035714Y-92157200D02*
X115988095Y-92109580D01*
X116892857Y-91204819D02*
X117559523Y-91204819D01*
X117559523Y-91204819D02*
X117130952Y-92204819D01*
X114145714Y-86826104D02*
X114107618Y-86864200D01*
X114107618Y-86864200D02*
X113993333Y-86902295D01*
X113993333Y-86902295D02*
X113917142Y-86902295D01*
X113917142Y-86902295D02*
X113802856Y-86864200D01*
X113802856Y-86864200D02*
X113726666Y-86788009D01*
X113726666Y-86788009D02*
X113688571Y-86711819D01*
X113688571Y-86711819D02*
X113650475Y-86559438D01*
X113650475Y-86559438D02*
X113650475Y-86445152D01*
X113650475Y-86445152D02*
X113688571Y-86292771D01*
X113688571Y-86292771D02*
X113726666Y-86216580D01*
X113726666Y-86216580D02*
X113802856Y-86140390D01*
X113802856Y-86140390D02*
X113917142Y-86102295D01*
X113917142Y-86102295D02*
X113993333Y-86102295D01*
X113993333Y-86102295D02*
X114107618Y-86140390D01*
X114107618Y-86140390D02*
X114145714Y-86178485D01*
X114831428Y-86368961D02*
X114831428Y-86902295D01*
X114640952Y-86064200D02*
X114450475Y-86635628D01*
X114450475Y-86635628D02*
X114945714Y-86635628D01*
X115593333Y-86368961D02*
X115593333Y-86902295D01*
X115402857Y-86064200D02*
X115212380Y-86635628D01*
X115212380Y-86635628D02*
X115707619Y-86635628D01*
X108066666Y-81964819D02*
X108066666Y-82679104D01*
X108066666Y-82679104D02*
X108019047Y-82821961D01*
X108019047Y-82821961D02*
X107923809Y-82917200D01*
X107923809Y-82917200D02*
X107780952Y-82964819D01*
X107780952Y-82964819D02*
X107685714Y-82964819D01*
X108971428Y-82298152D02*
X108971428Y-82964819D01*
X108733333Y-81917200D02*
X108495238Y-82631485D01*
X108495238Y-82631485D02*
X109114285Y-82631485D01*
X116561905Y-78104819D02*
X116561905Y-77104819D01*
X116561905Y-77104819D02*
X116800000Y-77104819D01*
X116800000Y-77104819D02*
X116942857Y-77152438D01*
X116942857Y-77152438D02*
X117038095Y-77247676D01*
X117038095Y-77247676D02*
X117085714Y-77342914D01*
X117085714Y-77342914D02*
X117133333Y-77533390D01*
X117133333Y-77533390D02*
X117133333Y-77676247D01*
X117133333Y-77676247D02*
X117085714Y-77866723D01*
X117085714Y-77866723D02*
X117038095Y-77961961D01*
X117038095Y-77961961D02*
X116942857Y-78057200D01*
X116942857Y-78057200D02*
X116800000Y-78104819D01*
X116800000Y-78104819D02*
X116561905Y-78104819D01*
X117514286Y-77200057D02*
X117561905Y-77152438D01*
X117561905Y-77152438D02*
X117657143Y-77104819D01*
X117657143Y-77104819D02*
X117895238Y-77104819D01*
X117895238Y-77104819D02*
X117990476Y-77152438D01*
X117990476Y-77152438D02*
X118038095Y-77200057D01*
X118038095Y-77200057D02*
X118085714Y-77295295D01*
X118085714Y-77295295D02*
X118085714Y-77390533D01*
X118085714Y-77390533D02*
X118038095Y-77533390D01*
X118038095Y-77533390D02*
X117466667Y-78104819D01*
X117466667Y-78104819D02*
X118085714Y-78104819D01*
D12*
X177060714Y-88913595D02*
X176794047Y-88532642D01*
X176603571Y-88913595D02*
X176603571Y-88113595D01*
X176603571Y-88113595D02*
X176908333Y-88113595D01*
X176908333Y-88113595D02*
X176984523Y-88151690D01*
X176984523Y-88151690D02*
X177022618Y-88189785D01*
X177022618Y-88189785D02*
X177060714Y-88265976D01*
X177060714Y-88265976D02*
X177060714Y-88380261D01*
X177060714Y-88380261D02*
X177022618Y-88456452D01*
X177022618Y-88456452D02*
X176984523Y-88494547D01*
X176984523Y-88494547D02*
X176908333Y-88532642D01*
X176908333Y-88532642D02*
X176603571Y-88532642D01*
X177746428Y-88380261D02*
X177746428Y-88913595D01*
X177555952Y-88075500D02*
X177365475Y-88646928D01*
X177365475Y-88646928D02*
X177860714Y-88646928D01*
X178089285Y-88113595D02*
X178622619Y-88113595D01*
X178622619Y-88113595D02*
X178279761Y-88913595D01*
X157635714Y-113038595D02*
X157369047Y-112657642D01*
X157178571Y-113038595D02*
X157178571Y-112238595D01*
X157178571Y-112238595D02*
X157483333Y-112238595D01*
X157483333Y-112238595D02*
X157559523Y-112276690D01*
X157559523Y-112276690D02*
X157597618Y-112314785D01*
X157597618Y-112314785D02*
X157635714Y-112390976D01*
X157635714Y-112390976D02*
X157635714Y-112505261D01*
X157635714Y-112505261D02*
X157597618Y-112581452D01*
X157597618Y-112581452D02*
X157559523Y-112619547D01*
X157559523Y-112619547D02*
X157483333Y-112657642D01*
X157483333Y-112657642D02*
X157178571Y-112657642D01*
X157902380Y-112238595D02*
X158397618Y-112238595D01*
X158397618Y-112238595D02*
X158130952Y-112543357D01*
X158130952Y-112543357D02*
X158245237Y-112543357D01*
X158245237Y-112543357D02*
X158321428Y-112581452D01*
X158321428Y-112581452D02*
X158359523Y-112619547D01*
X158359523Y-112619547D02*
X158397618Y-112695738D01*
X158397618Y-112695738D02*
X158397618Y-112886214D01*
X158397618Y-112886214D02*
X158359523Y-112962404D01*
X158359523Y-112962404D02*
X158321428Y-113000500D01*
X158321428Y-113000500D02*
X158245237Y-113038595D01*
X158245237Y-113038595D02*
X158016666Y-113038595D01*
X158016666Y-113038595D02*
X157940475Y-113000500D01*
X157940475Y-113000500D02*
X157902380Y-112962404D01*
X159083333Y-112238595D02*
X158930952Y-112238595D01*
X158930952Y-112238595D02*
X158854761Y-112276690D01*
X158854761Y-112276690D02*
X158816666Y-112314785D01*
X158816666Y-112314785D02*
X158740476Y-112429071D01*
X158740476Y-112429071D02*
X158702380Y-112581452D01*
X158702380Y-112581452D02*
X158702380Y-112886214D01*
X158702380Y-112886214D02*
X158740476Y-112962404D01*
X158740476Y-112962404D02*
X158778571Y-113000500D01*
X158778571Y-113000500D02*
X158854761Y-113038595D01*
X158854761Y-113038595D02*
X159007142Y-113038595D01*
X159007142Y-113038595D02*
X159083333Y-113000500D01*
X159083333Y-113000500D02*
X159121428Y-112962404D01*
X159121428Y-112962404D02*
X159159523Y-112886214D01*
X159159523Y-112886214D02*
X159159523Y-112695738D01*
X159159523Y-112695738D02*
X159121428Y-112619547D01*
X159121428Y-112619547D02*
X159083333Y-112581452D01*
X159083333Y-112581452D02*
X159007142Y-112543357D01*
X159007142Y-112543357D02*
X158854761Y-112543357D01*
X158854761Y-112543357D02*
X158778571Y-112581452D01*
X158778571Y-112581452D02*
X158740476Y-112619547D01*
X158740476Y-112619547D02*
X158702380Y-112695738D01*
D13*
X113629819Y-78833333D02*
X114344104Y-78833333D01*
X114344104Y-78833333D02*
X114486961Y-78880952D01*
X114486961Y-78880952D02*
X114582200Y-78976190D01*
X114582200Y-78976190D02*
X114629819Y-79119047D01*
X114629819Y-79119047D02*
X114629819Y-79214285D01*
X113725057Y-78404761D02*
X113677438Y-78357142D01*
X113677438Y-78357142D02*
X113629819Y-78261904D01*
X113629819Y-78261904D02*
X113629819Y-78023809D01*
X113629819Y-78023809D02*
X113677438Y-77928571D01*
X113677438Y-77928571D02*
X113725057Y-77880952D01*
X113725057Y-77880952D02*
X113820295Y-77833333D01*
X113820295Y-77833333D02*
X113915533Y-77833333D01*
X113915533Y-77833333D02*
X114058390Y-77880952D01*
X114058390Y-77880952D02*
X114629819Y-78452380D01*
X114629819Y-78452380D02*
X114629819Y-77833333D01*
D12*
X156960714Y-103388595D02*
X156694047Y-103007642D01*
X156503571Y-103388595D02*
X156503571Y-102588595D01*
X156503571Y-102588595D02*
X156808333Y-102588595D01*
X156808333Y-102588595D02*
X156884523Y-102626690D01*
X156884523Y-102626690D02*
X156922618Y-102664785D01*
X156922618Y-102664785D02*
X156960714Y-102740976D01*
X156960714Y-102740976D02*
X156960714Y-102855261D01*
X156960714Y-102855261D02*
X156922618Y-102931452D01*
X156922618Y-102931452D02*
X156884523Y-102969547D01*
X156884523Y-102969547D02*
X156808333Y-103007642D01*
X156808333Y-103007642D02*
X156503571Y-103007642D01*
X157227380Y-102588595D02*
X157722618Y-102588595D01*
X157722618Y-102588595D02*
X157455952Y-102893357D01*
X157455952Y-102893357D02*
X157570237Y-102893357D01*
X157570237Y-102893357D02*
X157646428Y-102931452D01*
X157646428Y-102931452D02*
X157684523Y-102969547D01*
X157684523Y-102969547D02*
X157722618Y-103045738D01*
X157722618Y-103045738D02*
X157722618Y-103236214D01*
X157722618Y-103236214D02*
X157684523Y-103312404D01*
X157684523Y-103312404D02*
X157646428Y-103350500D01*
X157646428Y-103350500D02*
X157570237Y-103388595D01*
X157570237Y-103388595D02*
X157341666Y-103388595D01*
X157341666Y-103388595D02*
X157265475Y-103350500D01*
X157265475Y-103350500D02*
X157227380Y-103312404D01*
X158103571Y-103388595D02*
X158255952Y-103388595D01*
X158255952Y-103388595D02*
X158332142Y-103350500D01*
X158332142Y-103350500D02*
X158370238Y-103312404D01*
X158370238Y-103312404D02*
X158446428Y-103198119D01*
X158446428Y-103198119D02*
X158484523Y-103045738D01*
X158484523Y-103045738D02*
X158484523Y-102740976D01*
X158484523Y-102740976D02*
X158446428Y-102664785D01*
X158446428Y-102664785D02*
X158408333Y-102626690D01*
X158408333Y-102626690D02*
X158332142Y-102588595D01*
X158332142Y-102588595D02*
X158179761Y-102588595D01*
X158179761Y-102588595D02*
X158103571Y-102626690D01*
X158103571Y-102626690D02*
X158065476Y-102664785D01*
X158065476Y-102664785D02*
X158027380Y-102740976D01*
X158027380Y-102740976D02*
X158027380Y-102931452D01*
X158027380Y-102931452D02*
X158065476Y-103007642D01*
X158065476Y-103007642D02*
X158103571Y-103045738D01*
X158103571Y-103045738D02*
X158179761Y-103083833D01*
X158179761Y-103083833D02*
X158332142Y-103083833D01*
X158332142Y-103083833D02*
X158408333Y-103045738D01*
X158408333Y-103045738D02*
X158446428Y-103007642D01*
X158446428Y-103007642D02*
X158484523Y-102931452D01*
D15*
X188917652Y-106446190D02*
X189036700Y-106565238D01*
X189036700Y-106565238D02*
X189155747Y-106922380D01*
X189155747Y-106922380D02*
X189155747Y-107160476D01*
X189155747Y-107160476D02*
X189036700Y-107517619D01*
X189036700Y-107517619D02*
X188798604Y-107755714D01*
X188798604Y-107755714D02*
X188560509Y-107874761D01*
X188560509Y-107874761D02*
X188084319Y-107993809D01*
X188084319Y-107993809D02*
X187727176Y-107993809D01*
X187727176Y-107993809D02*
X187250985Y-107874761D01*
X187250985Y-107874761D02*
X187012890Y-107755714D01*
X187012890Y-107755714D02*
X186774795Y-107517619D01*
X186774795Y-107517619D02*
X186655747Y-107160476D01*
X186655747Y-107160476D02*
X186655747Y-106922380D01*
X186655747Y-106922380D02*
X186774795Y-106565238D01*
X186774795Y-106565238D02*
X186893842Y-106446190D01*
D12*
X177960714Y-90538595D02*
X177694047Y-90157642D01*
X177503571Y-90538595D02*
X177503571Y-89738595D01*
X177503571Y-89738595D02*
X177808333Y-89738595D01*
X177808333Y-89738595D02*
X177884523Y-89776690D01*
X177884523Y-89776690D02*
X177922618Y-89814785D01*
X177922618Y-89814785D02*
X177960714Y-89890976D01*
X177960714Y-89890976D02*
X177960714Y-90005261D01*
X177960714Y-90005261D02*
X177922618Y-90081452D01*
X177922618Y-90081452D02*
X177884523Y-90119547D01*
X177884523Y-90119547D02*
X177808333Y-90157642D01*
X177808333Y-90157642D02*
X177503571Y-90157642D01*
X178646428Y-90005261D02*
X178646428Y-90538595D01*
X178455952Y-89700500D02*
X178265475Y-90271928D01*
X178265475Y-90271928D02*
X178760714Y-90271928D01*
X179446428Y-89738595D02*
X179065476Y-89738595D01*
X179065476Y-89738595D02*
X179027380Y-90119547D01*
X179027380Y-90119547D02*
X179065476Y-90081452D01*
X179065476Y-90081452D02*
X179141666Y-90043357D01*
X179141666Y-90043357D02*
X179332142Y-90043357D01*
X179332142Y-90043357D02*
X179408333Y-90081452D01*
X179408333Y-90081452D02*
X179446428Y-90119547D01*
X179446428Y-90119547D02*
X179484523Y-90195738D01*
X179484523Y-90195738D02*
X179484523Y-90386214D01*
X179484523Y-90386214D02*
X179446428Y-90462404D01*
X179446428Y-90462404D02*
X179408333Y-90500500D01*
X179408333Y-90500500D02*
X179332142Y-90538595D01*
X179332142Y-90538595D02*
X179141666Y-90538595D01*
X179141666Y-90538595D02*
X179065476Y-90500500D01*
X179065476Y-90500500D02*
X179027380Y-90462404D01*
D13*
X110532142Y-96909580D02*
X110484523Y-96957200D01*
X110484523Y-96957200D02*
X110341666Y-97004819D01*
X110341666Y-97004819D02*
X110246428Y-97004819D01*
X110246428Y-97004819D02*
X110103571Y-96957200D01*
X110103571Y-96957200D02*
X110008333Y-96861961D01*
X110008333Y-96861961D02*
X109960714Y-96766723D01*
X109960714Y-96766723D02*
X109913095Y-96576247D01*
X109913095Y-96576247D02*
X109913095Y-96433390D01*
X109913095Y-96433390D02*
X109960714Y-96242914D01*
X109960714Y-96242914D02*
X110008333Y-96147676D01*
X110008333Y-96147676D02*
X110103571Y-96052438D01*
X110103571Y-96052438D02*
X110246428Y-96004819D01*
X110246428Y-96004819D02*
X110341666Y-96004819D01*
X110341666Y-96004819D02*
X110484523Y-96052438D01*
X110484523Y-96052438D02*
X110532142Y-96100057D01*
X110865476Y-96004819D02*
X111484523Y-96004819D01*
X111484523Y-96004819D02*
X111151190Y-96385771D01*
X111151190Y-96385771D02*
X111294047Y-96385771D01*
X111294047Y-96385771D02*
X111389285Y-96433390D01*
X111389285Y-96433390D02*
X111436904Y-96481009D01*
X111436904Y-96481009D02*
X111484523Y-96576247D01*
X111484523Y-96576247D02*
X111484523Y-96814342D01*
X111484523Y-96814342D02*
X111436904Y-96909580D01*
X111436904Y-96909580D02*
X111389285Y-96957200D01*
X111389285Y-96957200D02*
X111294047Y-97004819D01*
X111294047Y-97004819D02*
X111008333Y-97004819D01*
X111008333Y-97004819D02*
X110913095Y-96957200D01*
X110913095Y-96957200D02*
X110865476Y-96909580D01*
X112389285Y-96004819D02*
X111913095Y-96004819D01*
X111913095Y-96004819D02*
X111865476Y-96481009D01*
X111865476Y-96481009D02*
X111913095Y-96433390D01*
X111913095Y-96433390D02*
X112008333Y-96385771D01*
X112008333Y-96385771D02*
X112246428Y-96385771D01*
X112246428Y-96385771D02*
X112341666Y-96433390D01*
X112341666Y-96433390D02*
X112389285Y-96481009D01*
X112389285Y-96481009D02*
X112436904Y-96576247D01*
X112436904Y-96576247D02*
X112436904Y-96814342D01*
X112436904Y-96814342D02*
X112389285Y-96909580D01*
X112389285Y-96909580D02*
X112341666Y-96957200D01*
X112341666Y-96957200D02*
X112246428Y-97004819D01*
X112246428Y-97004819D02*
X112008333Y-97004819D01*
X112008333Y-97004819D02*
X111913095Y-96957200D01*
X111913095Y-96957200D02*
X111865476Y-96909580D01*
X120908333Y-84984580D02*
X120860714Y-85032200D01*
X120860714Y-85032200D02*
X120717857Y-85079819D01*
X120717857Y-85079819D02*
X120622619Y-85079819D01*
X120622619Y-85079819D02*
X120479762Y-85032200D01*
X120479762Y-85032200D02*
X120384524Y-84936961D01*
X120384524Y-84936961D02*
X120336905Y-84841723D01*
X120336905Y-84841723D02*
X120289286Y-84651247D01*
X120289286Y-84651247D02*
X120289286Y-84508390D01*
X120289286Y-84508390D02*
X120336905Y-84317914D01*
X120336905Y-84317914D02*
X120384524Y-84222676D01*
X120384524Y-84222676D02*
X120479762Y-84127438D01*
X120479762Y-84127438D02*
X120622619Y-84079819D01*
X120622619Y-84079819D02*
X120717857Y-84079819D01*
X120717857Y-84079819D02*
X120860714Y-84127438D01*
X120860714Y-84127438D02*
X120908333Y-84175057D01*
X121860714Y-85079819D02*
X121289286Y-85079819D01*
X121575000Y-85079819D02*
X121575000Y-84079819D01*
X121575000Y-84079819D02*
X121479762Y-84222676D01*
X121479762Y-84222676D02*
X121384524Y-84317914D01*
X121384524Y-84317914D02*
X121289286Y-84365533D01*
D12*
X177910714Y-101663595D02*
X177644047Y-101282642D01*
X177453571Y-101663595D02*
X177453571Y-100863595D01*
X177453571Y-100863595D02*
X177758333Y-100863595D01*
X177758333Y-100863595D02*
X177834523Y-100901690D01*
X177834523Y-100901690D02*
X177872618Y-100939785D01*
X177872618Y-100939785D02*
X177910714Y-101015976D01*
X177910714Y-101015976D02*
X177910714Y-101130261D01*
X177910714Y-101130261D02*
X177872618Y-101206452D01*
X177872618Y-101206452D02*
X177834523Y-101244547D01*
X177834523Y-101244547D02*
X177758333Y-101282642D01*
X177758333Y-101282642D02*
X177453571Y-101282642D01*
X178596428Y-101130261D02*
X178596428Y-101663595D01*
X178405952Y-100825500D02*
X178215475Y-101396928D01*
X178215475Y-101396928D02*
X178710714Y-101396928D01*
X179053571Y-101663595D02*
X179205952Y-101663595D01*
X179205952Y-101663595D02*
X179282142Y-101625500D01*
X179282142Y-101625500D02*
X179320238Y-101587404D01*
X179320238Y-101587404D02*
X179396428Y-101473119D01*
X179396428Y-101473119D02*
X179434523Y-101320738D01*
X179434523Y-101320738D02*
X179434523Y-101015976D01*
X179434523Y-101015976D02*
X179396428Y-100939785D01*
X179396428Y-100939785D02*
X179358333Y-100901690D01*
X179358333Y-100901690D02*
X179282142Y-100863595D01*
X179282142Y-100863595D02*
X179129761Y-100863595D01*
X179129761Y-100863595D02*
X179053571Y-100901690D01*
X179053571Y-100901690D02*
X179015476Y-100939785D01*
X179015476Y-100939785D02*
X178977380Y-101015976D01*
X178977380Y-101015976D02*
X178977380Y-101206452D01*
X178977380Y-101206452D02*
X179015476Y-101282642D01*
X179015476Y-101282642D02*
X179053571Y-101320738D01*
X179053571Y-101320738D02*
X179129761Y-101358833D01*
X179129761Y-101358833D02*
X179282142Y-101358833D01*
X179282142Y-101358833D02*
X179358333Y-101320738D01*
X179358333Y-101320738D02*
X179396428Y-101282642D01*
X179396428Y-101282642D02*
X179434523Y-101206452D01*
X167060714Y-91188595D02*
X166794047Y-90807642D01*
X166603571Y-91188595D02*
X166603571Y-90388595D01*
X166603571Y-90388595D02*
X166908333Y-90388595D01*
X166908333Y-90388595D02*
X166984523Y-90426690D01*
X166984523Y-90426690D02*
X167022618Y-90464785D01*
X167022618Y-90464785D02*
X167060714Y-90540976D01*
X167060714Y-90540976D02*
X167060714Y-90655261D01*
X167060714Y-90655261D02*
X167022618Y-90731452D01*
X167022618Y-90731452D02*
X166984523Y-90769547D01*
X166984523Y-90769547D02*
X166908333Y-90807642D01*
X166908333Y-90807642D02*
X166603571Y-90807642D01*
X167327380Y-90388595D02*
X167822618Y-90388595D01*
X167822618Y-90388595D02*
X167555952Y-90693357D01*
X167555952Y-90693357D02*
X167670237Y-90693357D01*
X167670237Y-90693357D02*
X167746428Y-90731452D01*
X167746428Y-90731452D02*
X167784523Y-90769547D01*
X167784523Y-90769547D02*
X167822618Y-90845738D01*
X167822618Y-90845738D02*
X167822618Y-91036214D01*
X167822618Y-91036214D02*
X167784523Y-91112404D01*
X167784523Y-91112404D02*
X167746428Y-91150500D01*
X167746428Y-91150500D02*
X167670237Y-91188595D01*
X167670237Y-91188595D02*
X167441666Y-91188595D01*
X167441666Y-91188595D02*
X167365475Y-91150500D01*
X167365475Y-91150500D02*
X167327380Y-91112404D01*
X168127380Y-90464785D02*
X168165476Y-90426690D01*
X168165476Y-90426690D02*
X168241666Y-90388595D01*
X168241666Y-90388595D02*
X168432142Y-90388595D01*
X168432142Y-90388595D02*
X168508333Y-90426690D01*
X168508333Y-90426690D02*
X168546428Y-90464785D01*
X168546428Y-90464785D02*
X168584523Y-90540976D01*
X168584523Y-90540976D02*
X168584523Y-90617166D01*
X168584523Y-90617166D02*
X168546428Y-90731452D01*
X168546428Y-90731452D02*
X168089285Y-91188595D01*
X168089285Y-91188595D02*
X168584523Y-91188595D01*
D16*
X115367237Y-99199316D02*
X115367237Y-97929316D01*
X116697714Y-99078363D02*
X116637238Y-99138840D01*
X116637238Y-99138840D02*
X116455809Y-99199316D01*
X116455809Y-99199316D02*
X116334857Y-99199316D01*
X116334857Y-99199316D02*
X116153428Y-99138840D01*
X116153428Y-99138840D02*
X116032476Y-99017887D01*
X116032476Y-99017887D02*
X115971999Y-98896935D01*
X115971999Y-98896935D02*
X115911523Y-98655030D01*
X115911523Y-98655030D02*
X115911523Y-98473601D01*
X115911523Y-98473601D02*
X115971999Y-98231697D01*
X115971999Y-98231697D02*
X116032476Y-98110744D01*
X116032476Y-98110744D02*
X116153428Y-97989792D01*
X116153428Y-97989792D02*
X116334857Y-97929316D01*
X116334857Y-97929316D02*
X116455809Y-97929316D01*
X116455809Y-97929316D02*
X116637238Y-97989792D01*
X116637238Y-97989792D02*
X116697714Y-98050268D01*
X117846761Y-97929316D02*
X117241999Y-97929316D01*
X117241999Y-97929316D02*
X117181523Y-98534078D01*
X117181523Y-98534078D02*
X117241999Y-98473601D01*
X117241999Y-98473601D02*
X117362952Y-98413125D01*
X117362952Y-98413125D02*
X117665333Y-98413125D01*
X117665333Y-98413125D02*
X117786285Y-98473601D01*
X117786285Y-98473601D02*
X117846761Y-98534078D01*
X117846761Y-98534078D02*
X117907238Y-98655030D01*
X117907238Y-98655030D02*
X117907238Y-98957411D01*
X117907238Y-98957411D02*
X117846761Y-99078363D01*
X117846761Y-99078363D02*
X117786285Y-99138840D01*
X117786285Y-99138840D02*
X117665333Y-99199316D01*
X117665333Y-99199316D02*
X117362952Y-99199316D01*
X117362952Y-99199316D02*
X117241999Y-99138840D01*
X117241999Y-99138840D02*
X117181523Y-99078363D01*
D12*
X160110714Y-89388595D02*
X159844047Y-89007642D01*
X159653571Y-89388595D02*
X159653571Y-88588595D01*
X159653571Y-88588595D02*
X159958333Y-88588595D01*
X159958333Y-88588595D02*
X160034523Y-88626690D01*
X160034523Y-88626690D02*
X160072618Y-88664785D01*
X160072618Y-88664785D02*
X160110714Y-88740976D01*
X160110714Y-88740976D02*
X160110714Y-88855261D01*
X160110714Y-88855261D02*
X160072618Y-88931452D01*
X160072618Y-88931452D02*
X160034523Y-88969547D01*
X160034523Y-88969547D02*
X159958333Y-89007642D01*
X159958333Y-89007642D02*
X159653571Y-89007642D01*
X160377380Y-88588595D02*
X160872618Y-88588595D01*
X160872618Y-88588595D02*
X160605952Y-88893357D01*
X160605952Y-88893357D02*
X160720237Y-88893357D01*
X160720237Y-88893357D02*
X160796428Y-88931452D01*
X160796428Y-88931452D02*
X160834523Y-88969547D01*
X160834523Y-88969547D02*
X160872618Y-89045738D01*
X160872618Y-89045738D02*
X160872618Y-89236214D01*
X160872618Y-89236214D02*
X160834523Y-89312404D01*
X160834523Y-89312404D02*
X160796428Y-89350500D01*
X160796428Y-89350500D02*
X160720237Y-89388595D01*
X160720237Y-89388595D02*
X160491666Y-89388595D01*
X160491666Y-89388595D02*
X160415475Y-89350500D01*
X160415475Y-89350500D02*
X160377380Y-89312404D01*
X161634523Y-89388595D02*
X161177380Y-89388595D01*
X161405952Y-89388595D02*
X161405952Y-88588595D01*
X161405952Y-88588595D02*
X161329761Y-88702880D01*
X161329761Y-88702880D02*
X161253571Y-88779071D01*
X161253571Y-88779071D02*
X161177380Y-88817166D01*
D13*
X160282142Y-115659580D02*
X160234523Y-115707200D01*
X160234523Y-115707200D02*
X160091666Y-115754819D01*
X160091666Y-115754819D02*
X159996428Y-115754819D01*
X159996428Y-115754819D02*
X159853571Y-115707200D01*
X159853571Y-115707200D02*
X159758333Y-115611961D01*
X159758333Y-115611961D02*
X159710714Y-115516723D01*
X159710714Y-115516723D02*
X159663095Y-115326247D01*
X159663095Y-115326247D02*
X159663095Y-115183390D01*
X159663095Y-115183390D02*
X159710714Y-114992914D01*
X159710714Y-114992914D02*
X159758333Y-114897676D01*
X159758333Y-114897676D02*
X159853571Y-114802438D01*
X159853571Y-114802438D02*
X159996428Y-114754819D01*
X159996428Y-114754819D02*
X160091666Y-114754819D01*
X160091666Y-114754819D02*
X160234523Y-114802438D01*
X160234523Y-114802438D02*
X160282142Y-114850057D01*
X160615476Y-114754819D02*
X161234523Y-114754819D01*
X161234523Y-114754819D02*
X160901190Y-115135771D01*
X160901190Y-115135771D02*
X161044047Y-115135771D01*
X161044047Y-115135771D02*
X161139285Y-115183390D01*
X161139285Y-115183390D02*
X161186904Y-115231009D01*
X161186904Y-115231009D02*
X161234523Y-115326247D01*
X161234523Y-115326247D02*
X161234523Y-115564342D01*
X161234523Y-115564342D02*
X161186904Y-115659580D01*
X161186904Y-115659580D02*
X161139285Y-115707200D01*
X161139285Y-115707200D02*
X161044047Y-115754819D01*
X161044047Y-115754819D02*
X160758333Y-115754819D01*
X160758333Y-115754819D02*
X160663095Y-115707200D01*
X160663095Y-115707200D02*
X160615476Y-115659580D01*
X161710714Y-115754819D02*
X161901190Y-115754819D01*
X161901190Y-115754819D02*
X161996428Y-115707200D01*
X161996428Y-115707200D02*
X162044047Y-115659580D01*
X162044047Y-115659580D02*
X162139285Y-115516723D01*
X162139285Y-115516723D02*
X162186904Y-115326247D01*
X162186904Y-115326247D02*
X162186904Y-114945295D01*
X162186904Y-114945295D02*
X162139285Y-114850057D01*
X162139285Y-114850057D02*
X162091666Y-114802438D01*
X162091666Y-114802438D02*
X161996428Y-114754819D01*
X161996428Y-114754819D02*
X161805952Y-114754819D01*
X161805952Y-114754819D02*
X161710714Y-114802438D01*
X161710714Y-114802438D02*
X161663095Y-114850057D01*
X161663095Y-114850057D02*
X161615476Y-114945295D01*
X161615476Y-114945295D02*
X161615476Y-115183390D01*
X161615476Y-115183390D02*
X161663095Y-115278628D01*
X161663095Y-115278628D02*
X161710714Y-115326247D01*
X161710714Y-115326247D02*
X161805952Y-115373866D01*
X161805952Y-115373866D02*
X161996428Y-115373866D01*
X161996428Y-115373866D02*
X162091666Y-115326247D01*
X162091666Y-115326247D02*
X162139285Y-115278628D01*
X162139285Y-115278628D02*
X162186904Y-115183390D01*
X163410714Y-116912295D02*
X163144047Y-116531342D01*
X162953571Y-116912295D02*
X162953571Y-116112295D01*
X162953571Y-116112295D02*
X163258333Y-116112295D01*
X163258333Y-116112295D02*
X163334523Y-116150390D01*
X163334523Y-116150390D02*
X163372618Y-116188485D01*
X163372618Y-116188485D02*
X163410714Y-116264676D01*
X163410714Y-116264676D02*
X163410714Y-116378961D01*
X163410714Y-116378961D02*
X163372618Y-116455152D01*
X163372618Y-116455152D02*
X163334523Y-116493247D01*
X163334523Y-116493247D02*
X163258333Y-116531342D01*
X163258333Y-116531342D02*
X162953571Y-116531342D01*
X164134523Y-116112295D02*
X163753571Y-116112295D01*
X163753571Y-116112295D02*
X163715475Y-116493247D01*
X163715475Y-116493247D02*
X163753571Y-116455152D01*
X163753571Y-116455152D02*
X163829761Y-116417057D01*
X163829761Y-116417057D02*
X164020237Y-116417057D01*
X164020237Y-116417057D02*
X164096428Y-116455152D01*
X164096428Y-116455152D02*
X164134523Y-116493247D01*
X164134523Y-116493247D02*
X164172618Y-116569438D01*
X164172618Y-116569438D02*
X164172618Y-116759914D01*
X164172618Y-116759914D02*
X164134523Y-116836104D01*
X164134523Y-116836104D02*
X164096428Y-116874200D01*
X164096428Y-116874200D02*
X164020237Y-116912295D01*
X164020237Y-116912295D02*
X163829761Y-116912295D01*
X163829761Y-116912295D02*
X163753571Y-116874200D01*
X163753571Y-116874200D02*
X163715475Y-116836104D01*
X164858333Y-116112295D02*
X164705952Y-116112295D01*
X164705952Y-116112295D02*
X164629761Y-116150390D01*
X164629761Y-116150390D02*
X164591666Y-116188485D01*
X164591666Y-116188485D02*
X164515476Y-116302771D01*
X164515476Y-116302771D02*
X164477380Y-116455152D01*
X164477380Y-116455152D02*
X164477380Y-116759914D01*
X164477380Y-116759914D02*
X164515476Y-116836104D01*
X164515476Y-116836104D02*
X164553571Y-116874200D01*
X164553571Y-116874200D02*
X164629761Y-116912295D01*
X164629761Y-116912295D02*
X164782142Y-116912295D01*
X164782142Y-116912295D02*
X164858333Y-116874200D01*
X164858333Y-116874200D02*
X164896428Y-116836104D01*
X164896428Y-116836104D02*
X164934523Y-116759914D01*
X164934523Y-116759914D02*
X164934523Y-116569438D01*
X164934523Y-116569438D02*
X164896428Y-116493247D01*
X164896428Y-116493247D02*
X164858333Y-116455152D01*
X164858333Y-116455152D02*
X164782142Y-116417057D01*
X164782142Y-116417057D02*
X164629761Y-116417057D01*
X164629761Y-116417057D02*
X164553571Y-116455152D01*
X164553571Y-116455152D02*
X164515476Y-116493247D01*
X164515476Y-116493247D02*
X164477380Y-116569438D01*
X129284580Y-101442857D02*
X129332200Y-101490476D01*
X129332200Y-101490476D02*
X129379819Y-101633333D01*
X129379819Y-101633333D02*
X129379819Y-101728571D01*
X129379819Y-101728571D02*
X129332200Y-101871428D01*
X129332200Y-101871428D02*
X129236961Y-101966666D01*
X129236961Y-101966666D02*
X129141723Y-102014285D01*
X129141723Y-102014285D02*
X128951247Y-102061904D01*
X128951247Y-102061904D02*
X128808390Y-102061904D01*
X128808390Y-102061904D02*
X128617914Y-102014285D01*
X128617914Y-102014285D02*
X128522676Y-101966666D01*
X128522676Y-101966666D02*
X128427438Y-101871428D01*
X128427438Y-101871428D02*
X128379819Y-101728571D01*
X128379819Y-101728571D02*
X128379819Y-101633333D01*
X128379819Y-101633333D02*
X128427438Y-101490476D01*
X128427438Y-101490476D02*
X128475057Y-101442857D01*
X128379819Y-101109523D02*
X128379819Y-100490476D01*
X128379819Y-100490476D02*
X128760771Y-100823809D01*
X128760771Y-100823809D02*
X128760771Y-100680952D01*
X128760771Y-100680952D02*
X128808390Y-100585714D01*
X128808390Y-100585714D02*
X128856009Y-100538095D01*
X128856009Y-100538095D02*
X128951247Y-100490476D01*
X128951247Y-100490476D02*
X129189342Y-100490476D01*
X129189342Y-100490476D02*
X129284580Y-100538095D01*
X129284580Y-100538095D02*
X129332200Y-100585714D01*
X129332200Y-100585714D02*
X129379819Y-100680952D01*
X129379819Y-100680952D02*
X129379819Y-100966666D01*
X129379819Y-100966666D02*
X129332200Y-101061904D01*
X129332200Y-101061904D02*
X129284580Y-101109523D01*
X128808390Y-99919047D02*
X128760771Y-100014285D01*
X128760771Y-100014285D02*
X128713152Y-100061904D01*
X128713152Y-100061904D02*
X128617914Y-100109523D01*
X128617914Y-100109523D02*
X128570295Y-100109523D01*
X128570295Y-100109523D02*
X128475057Y-100061904D01*
X128475057Y-100061904D02*
X128427438Y-100014285D01*
X128427438Y-100014285D02*
X128379819Y-99919047D01*
X128379819Y-99919047D02*
X128379819Y-99728571D01*
X128379819Y-99728571D02*
X128427438Y-99633333D01*
X128427438Y-99633333D02*
X128475057Y-99585714D01*
X128475057Y-99585714D02*
X128570295Y-99538095D01*
X128570295Y-99538095D02*
X128617914Y-99538095D01*
X128617914Y-99538095D02*
X128713152Y-99585714D01*
X128713152Y-99585714D02*
X128760771Y-99633333D01*
X128760771Y-99633333D02*
X128808390Y-99728571D01*
X128808390Y-99728571D02*
X128808390Y-99919047D01*
X128808390Y-99919047D02*
X128856009Y-100014285D01*
X128856009Y-100014285D02*
X128903628Y-100061904D01*
X128903628Y-100061904D02*
X128998866Y-100109523D01*
X128998866Y-100109523D02*
X129189342Y-100109523D01*
X129189342Y-100109523D02*
X129284580Y-100061904D01*
X129284580Y-100061904D02*
X129332200Y-100014285D01*
X129332200Y-100014285D02*
X129379819Y-99919047D01*
X129379819Y-99919047D02*
X129379819Y-99728571D01*
X129379819Y-99728571D02*
X129332200Y-99633333D01*
X129332200Y-99633333D02*
X129284580Y-99585714D01*
X129284580Y-99585714D02*
X129189342Y-99538095D01*
X129189342Y-99538095D02*
X128998866Y-99538095D01*
X128998866Y-99538095D02*
X128903628Y-99585714D01*
X128903628Y-99585714D02*
X128856009Y-99633333D01*
X128856009Y-99633333D02*
X128808390Y-99728571D01*
D16*
X122018237Y-81154318D02*
X122018237Y-79884318D01*
X123348714Y-81033365D02*
X123288238Y-81093842D01*
X123288238Y-81093842D02*
X123106809Y-81154318D01*
X123106809Y-81154318D02*
X122985857Y-81154318D01*
X122985857Y-81154318D02*
X122804428Y-81093842D01*
X122804428Y-81093842D02*
X122683476Y-80972889D01*
X122683476Y-80972889D02*
X122622999Y-80851937D01*
X122622999Y-80851937D02*
X122562523Y-80610032D01*
X122562523Y-80610032D02*
X122562523Y-80428603D01*
X122562523Y-80428603D02*
X122622999Y-80186699D01*
X122622999Y-80186699D02*
X122683476Y-80065746D01*
X122683476Y-80065746D02*
X122804428Y-79944794D01*
X122804428Y-79944794D02*
X122985857Y-79884318D01*
X122985857Y-79884318D02*
X123106809Y-79884318D01*
X123106809Y-79884318D02*
X123288238Y-79944794D01*
X123288238Y-79944794D02*
X123348714Y-80005270D01*
X124074428Y-80428603D02*
X123953476Y-80368127D01*
X123953476Y-80368127D02*
X123892999Y-80307651D01*
X123892999Y-80307651D02*
X123832523Y-80186699D01*
X123832523Y-80186699D02*
X123832523Y-80126222D01*
X123832523Y-80126222D02*
X123892999Y-80005270D01*
X123892999Y-80005270D02*
X123953476Y-79944794D01*
X123953476Y-79944794D02*
X124074428Y-79884318D01*
X124074428Y-79884318D02*
X124316333Y-79884318D01*
X124316333Y-79884318D02*
X124437285Y-79944794D01*
X124437285Y-79944794D02*
X124497761Y-80005270D01*
X124497761Y-80005270D02*
X124558238Y-80126222D01*
X124558238Y-80126222D02*
X124558238Y-80186699D01*
X124558238Y-80186699D02*
X124497761Y-80307651D01*
X124497761Y-80307651D02*
X124437285Y-80368127D01*
X124437285Y-80368127D02*
X124316333Y-80428603D01*
X124316333Y-80428603D02*
X124074428Y-80428603D01*
X124074428Y-80428603D02*
X123953476Y-80489080D01*
X123953476Y-80489080D02*
X123892999Y-80549556D01*
X123892999Y-80549556D02*
X123832523Y-80670508D01*
X123832523Y-80670508D02*
X123832523Y-80912413D01*
X123832523Y-80912413D02*
X123892999Y-81033365D01*
X123892999Y-81033365D02*
X123953476Y-81093842D01*
X123953476Y-81093842D02*
X124074428Y-81154318D01*
X124074428Y-81154318D02*
X124316333Y-81154318D01*
X124316333Y-81154318D02*
X124437285Y-81093842D01*
X124437285Y-81093842D02*
X124497761Y-81033365D01*
X124497761Y-81033365D02*
X124558238Y-80912413D01*
X124558238Y-80912413D02*
X124558238Y-80670508D01*
X124558238Y-80670508D02*
X124497761Y-80549556D01*
X124497761Y-80549556D02*
X124437285Y-80489080D01*
X124437285Y-80489080D02*
X124316333Y-80428603D01*
D12*
X177814384Y-103751731D02*
X177547717Y-103370778D01*
X177357241Y-103751731D02*
X177357241Y-102951731D01*
X177357241Y-102951731D02*
X177662003Y-102951731D01*
X177662003Y-102951731D02*
X177738193Y-102989826D01*
X177738193Y-102989826D02*
X177776288Y-103027921D01*
X177776288Y-103027921D02*
X177814384Y-103104112D01*
X177814384Y-103104112D02*
X177814384Y-103218397D01*
X177814384Y-103218397D02*
X177776288Y-103294588D01*
X177776288Y-103294588D02*
X177738193Y-103332683D01*
X177738193Y-103332683D02*
X177662003Y-103370778D01*
X177662003Y-103370778D02*
X177357241Y-103370778D01*
X178500098Y-103218397D02*
X178500098Y-103751731D01*
X178309622Y-102913636D02*
X178119145Y-103485064D01*
X178119145Y-103485064D02*
X178614384Y-103485064D01*
X179033431Y-103294588D02*
X178957241Y-103256493D01*
X178957241Y-103256493D02*
X178919146Y-103218397D01*
X178919146Y-103218397D02*
X178881050Y-103142207D01*
X178881050Y-103142207D02*
X178881050Y-103104112D01*
X178881050Y-103104112D02*
X178919146Y-103027921D01*
X178919146Y-103027921D02*
X178957241Y-102989826D01*
X178957241Y-102989826D02*
X179033431Y-102951731D01*
X179033431Y-102951731D02*
X179185812Y-102951731D01*
X179185812Y-102951731D02*
X179262003Y-102989826D01*
X179262003Y-102989826D02*
X179300098Y-103027921D01*
X179300098Y-103027921D02*
X179338193Y-103104112D01*
X179338193Y-103104112D02*
X179338193Y-103142207D01*
X179338193Y-103142207D02*
X179300098Y-103218397D01*
X179300098Y-103218397D02*
X179262003Y-103256493D01*
X179262003Y-103256493D02*
X179185812Y-103294588D01*
X179185812Y-103294588D02*
X179033431Y-103294588D01*
X179033431Y-103294588D02*
X178957241Y-103332683D01*
X178957241Y-103332683D02*
X178919146Y-103370778D01*
X178919146Y-103370778D02*
X178881050Y-103446969D01*
X178881050Y-103446969D02*
X178881050Y-103599350D01*
X178881050Y-103599350D02*
X178919146Y-103675540D01*
X178919146Y-103675540D02*
X178957241Y-103713636D01*
X178957241Y-103713636D02*
X179033431Y-103751731D01*
X179033431Y-103751731D02*
X179185812Y-103751731D01*
X179185812Y-103751731D02*
X179262003Y-103713636D01*
X179262003Y-103713636D02*
X179300098Y-103675540D01*
X179300098Y-103675540D02*
X179338193Y-103599350D01*
X179338193Y-103599350D02*
X179338193Y-103446969D01*
X179338193Y-103446969D02*
X179300098Y-103370778D01*
X179300098Y-103370778D02*
X179262003Y-103332683D01*
X179262003Y-103332683D02*
X179185812Y-103294588D01*
D16*
X166860237Y-111549318D02*
X166860237Y-110279318D01*
X168190714Y-111428365D02*
X168130238Y-111488842D01*
X168130238Y-111488842D02*
X167948809Y-111549318D01*
X167948809Y-111549318D02*
X167827857Y-111549318D01*
X167827857Y-111549318D02*
X167646428Y-111488842D01*
X167646428Y-111488842D02*
X167525476Y-111367889D01*
X167525476Y-111367889D02*
X167464999Y-111246937D01*
X167464999Y-111246937D02*
X167404523Y-111005032D01*
X167404523Y-111005032D02*
X167404523Y-110823603D01*
X167404523Y-110823603D02*
X167464999Y-110581699D01*
X167464999Y-110581699D02*
X167525476Y-110460746D01*
X167525476Y-110460746D02*
X167646428Y-110339794D01*
X167646428Y-110339794D02*
X167827857Y-110279318D01*
X167827857Y-110279318D02*
X167948809Y-110279318D01*
X167948809Y-110279318D02*
X168130238Y-110339794D01*
X168130238Y-110339794D02*
X168190714Y-110400270D01*
X169279285Y-110279318D02*
X169037380Y-110279318D01*
X169037380Y-110279318D02*
X168916428Y-110339794D01*
X168916428Y-110339794D02*
X168855952Y-110400270D01*
X168855952Y-110400270D02*
X168734999Y-110581699D01*
X168734999Y-110581699D02*
X168674523Y-110823603D01*
X168674523Y-110823603D02*
X168674523Y-111307413D01*
X168674523Y-111307413D02*
X168734999Y-111428365D01*
X168734999Y-111428365D02*
X168795476Y-111488842D01*
X168795476Y-111488842D02*
X168916428Y-111549318D01*
X168916428Y-111549318D02*
X169158333Y-111549318D01*
X169158333Y-111549318D02*
X169279285Y-111488842D01*
X169279285Y-111488842D02*
X169339761Y-111428365D01*
X169339761Y-111428365D02*
X169400238Y-111307413D01*
X169400238Y-111307413D02*
X169400238Y-111005032D01*
X169400238Y-111005032D02*
X169339761Y-110884080D01*
X169339761Y-110884080D02*
X169279285Y-110823603D01*
X169279285Y-110823603D02*
X169158333Y-110763127D01*
X169158333Y-110763127D02*
X168916428Y-110763127D01*
X168916428Y-110763127D02*
X168795476Y-110823603D01*
X168795476Y-110823603D02*
X168734999Y-110884080D01*
X168734999Y-110884080D02*
X168674523Y-111005032D01*
D14*
X137106190Y-112959638D02*
X137106190Y-110959638D01*
X137106190Y-111912019D02*
X138249047Y-111912019D01*
X138249047Y-112959638D02*
X138249047Y-110959638D01*
X140153809Y-110959638D02*
X139201428Y-110959638D01*
X139201428Y-110959638D02*
X139106190Y-111912019D01*
X139106190Y-111912019D02*
X139201428Y-111816780D01*
X139201428Y-111816780D02*
X139391904Y-111721542D01*
X139391904Y-111721542D02*
X139868095Y-111721542D01*
X139868095Y-111721542D02*
X140058571Y-111816780D01*
X140058571Y-111816780D02*
X140153809Y-111912019D01*
X140153809Y-111912019D02*
X140249047Y-112102495D01*
X140249047Y-112102495D02*
X140249047Y-112578685D01*
X140249047Y-112578685D02*
X140153809Y-112769161D01*
X140153809Y-112769161D02*
X140058571Y-112864400D01*
X140058571Y-112864400D02*
X139868095Y-112959638D01*
X139868095Y-112959638D02*
X139391904Y-112959638D01*
X139391904Y-112959638D02*
X139201428Y-112864400D01*
X139201428Y-112864400D02*
X139106190Y-112769161D01*
D12*
X174888595Y-114564285D02*
X174507642Y-114830952D01*
X174888595Y-115021428D02*
X174088595Y-115021428D01*
X174088595Y-115021428D02*
X174088595Y-114716666D01*
X174088595Y-114716666D02*
X174126690Y-114640476D01*
X174126690Y-114640476D02*
X174164785Y-114602381D01*
X174164785Y-114602381D02*
X174240976Y-114564285D01*
X174240976Y-114564285D02*
X174355261Y-114564285D01*
X174355261Y-114564285D02*
X174431452Y-114602381D01*
X174431452Y-114602381D02*
X174469547Y-114640476D01*
X174469547Y-114640476D02*
X174507642Y-114716666D01*
X174507642Y-114716666D02*
X174507642Y-115021428D01*
X174088595Y-113840476D02*
X174088595Y-114221428D01*
X174088595Y-114221428D02*
X174469547Y-114259524D01*
X174469547Y-114259524D02*
X174431452Y-114221428D01*
X174431452Y-114221428D02*
X174393357Y-114145238D01*
X174393357Y-114145238D02*
X174393357Y-113954762D01*
X174393357Y-113954762D02*
X174431452Y-113878571D01*
X174431452Y-113878571D02*
X174469547Y-113840476D01*
X174469547Y-113840476D02*
X174545738Y-113802381D01*
X174545738Y-113802381D02*
X174736214Y-113802381D01*
X174736214Y-113802381D02*
X174812404Y-113840476D01*
X174812404Y-113840476D02*
X174850500Y-113878571D01*
X174850500Y-113878571D02*
X174888595Y-113954762D01*
X174888595Y-113954762D02*
X174888595Y-114145238D01*
X174888595Y-114145238D02*
X174850500Y-114221428D01*
X174850500Y-114221428D02*
X174812404Y-114259524D01*
X174164785Y-113497619D02*
X174126690Y-113459523D01*
X174126690Y-113459523D02*
X174088595Y-113383333D01*
X174088595Y-113383333D02*
X174088595Y-113192857D01*
X174088595Y-113192857D02*
X174126690Y-113116666D01*
X174126690Y-113116666D02*
X174164785Y-113078571D01*
X174164785Y-113078571D02*
X174240976Y-113040476D01*
X174240976Y-113040476D02*
X174317166Y-113040476D01*
X174317166Y-113040476D02*
X174431452Y-113078571D01*
X174431452Y-113078571D02*
X174888595Y-113535714D01*
X174888595Y-113535714D02*
X174888595Y-113040476D01*
X160235714Y-100513595D02*
X159969047Y-100132642D01*
X159778571Y-100513595D02*
X159778571Y-99713595D01*
X159778571Y-99713595D02*
X160083333Y-99713595D01*
X160083333Y-99713595D02*
X160159523Y-99751690D01*
X160159523Y-99751690D02*
X160197618Y-99789785D01*
X160197618Y-99789785D02*
X160235714Y-99865976D01*
X160235714Y-99865976D02*
X160235714Y-99980261D01*
X160235714Y-99980261D02*
X160197618Y-100056452D01*
X160197618Y-100056452D02*
X160159523Y-100094547D01*
X160159523Y-100094547D02*
X160083333Y-100132642D01*
X160083333Y-100132642D02*
X159778571Y-100132642D01*
X160921428Y-99980261D02*
X160921428Y-100513595D01*
X160730952Y-99675500D02*
X160540475Y-100246928D01*
X160540475Y-100246928D02*
X161035714Y-100246928D01*
X161759523Y-100513595D02*
X161302380Y-100513595D01*
X161530952Y-100513595D02*
X161530952Y-99713595D01*
X161530952Y-99713595D02*
X161454761Y-99827880D01*
X161454761Y-99827880D02*
X161378571Y-99904071D01*
X161378571Y-99904071D02*
X161302380Y-99942166D01*
X109713595Y-103889285D02*
X109332642Y-104155952D01*
X109713595Y-104346428D02*
X108913595Y-104346428D01*
X108913595Y-104346428D02*
X108913595Y-104041666D01*
X108913595Y-104041666D02*
X108951690Y-103965476D01*
X108951690Y-103965476D02*
X108989785Y-103927381D01*
X108989785Y-103927381D02*
X109065976Y-103889285D01*
X109065976Y-103889285D02*
X109180261Y-103889285D01*
X109180261Y-103889285D02*
X109256452Y-103927381D01*
X109256452Y-103927381D02*
X109294547Y-103965476D01*
X109294547Y-103965476D02*
X109332642Y-104041666D01*
X109332642Y-104041666D02*
X109332642Y-104346428D01*
X108913595Y-103203571D02*
X108913595Y-103355952D01*
X108913595Y-103355952D02*
X108951690Y-103432143D01*
X108951690Y-103432143D02*
X108989785Y-103470238D01*
X108989785Y-103470238D02*
X109104071Y-103546428D01*
X109104071Y-103546428D02*
X109256452Y-103584524D01*
X109256452Y-103584524D02*
X109561214Y-103584524D01*
X109561214Y-103584524D02*
X109637404Y-103546428D01*
X109637404Y-103546428D02*
X109675500Y-103508333D01*
X109675500Y-103508333D02*
X109713595Y-103432143D01*
X109713595Y-103432143D02*
X109713595Y-103279762D01*
X109713595Y-103279762D02*
X109675500Y-103203571D01*
X109675500Y-103203571D02*
X109637404Y-103165476D01*
X109637404Y-103165476D02*
X109561214Y-103127381D01*
X109561214Y-103127381D02*
X109370738Y-103127381D01*
X109370738Y-103127381D02*
X109294547Y-103165476D01*
X109294547Y-103165476D02*
X109256452Y-103203571D01*
X109256452Y-103203571D02*
X109218357Y-103279762D01*
X109218357Y-103279762D02*
X109218357Y-103432143D01*
X109218357Y-103432143D02*
X109256452Y-103508333D01*
X109256452Y-103508333D02*
X109294547Y-103546428D01*
X109294547Y-103546428D02*
X109370738Y-103584524D01*
X108913595Y-102632142D02*
X108913595Y-102555952D01*
X108913595Y-102555952D02*
X108951690Y-102479761D01*
X108951690Y-102479761D02*
X108989785Y-102441666D01*
X108989785Y-102441666D02*
X109065976Y-102403571D01*
X109065976Y-102403571D02*
X109218357Y-102365476D01*
X109218357Y-102365476D02*
X109408833Y-102365476D01*
X109408833Y-102365476D02*
X109561214Y-102403571D01*
X109561214Y-102403571D02*
X109637404Y-102441666D01*
X109637404Y-102441666D02*
X109675500Y-102479761D01*
X109675500Y-102479761D02*
X109713595Y-102555952D01*
X109713595Y-102555952D02*
X109713595Y-102632142D01*
X109713595Y-102632142D02*
X109675500Y-102708333D01*
X109675500Y-102708333D02*
X109637404Y-102746428D01*
X109637404Y-102746428D02*
X109561214Y-102784523D01*
X109561214Y-102784523D02*
X109408833Y-102822619D01*
X109408833Y-102822619D02*
X109218357Y-102822619D01*
X109218357Y-102822619D02*
X109065976Y-102784523D01*
X109065976Y-102784523D02*
X108989785Y-102746428D01*
X108989785Y-102746428D02*
X108951690Y-102708333D01*
X108951690Y-102708333D02*
X108913595Y-102632142D01*
X158560714Y-79988595D02*
X158294047Y-79607642D01*
X158103571Y-79988595D02*
X158103571Y-79188595D01*
X158103571Y-79188595D02*
X158408333Y-79188595D01*
X158408333Y-79188595D02*
X158484523Y-79226690D01*
X158484523Y-79226690D02*
X158522618Y-79264785D01*
X158522618Y-79264785D02*
X158560714Y-79340976D01*
X158560714Y-79340976D02*
X158560714Y-79455261D01*
X158560714Y-79455261D02*
X158522618Y-79531452D01*
X158522618Y-79531452D02*
X158484523Y-79569547D01*
X158484523Y-79569547D02*
X158408333Y-79607642D01*
X158408333Y-79607642D02*
X158103571Y-79607642D01*
X158827380Y-79188595D02*
X159322618Y-79188595D01*
X159322618Y-79188595D02*
X159055952Y-79493357D01*
X159055952Y-79493357D02*
X159170237Y-79493357D01*
X159170237Y-79493357D02*
X159246428Y-79531452D01*
X159246428Y-79531452D02*
X159284523Y-79569547D01*
X159284523Y-79569547D02*
X159322618Y-79645738D01*
X159322618Y-79645738D02*
X159322618Y-79836214D01*
X159322618Y-79836214D02*
X159284523Y-79912404D01*
X159284523Y-79912404D02*
X159246428Y-79950500D01*
X159246428Y-79950500D02*
X159170237Y-79988595D01*
X159170237Y-79988595D02*
X158941666Y-79988595D01*
X158941666Y-79988595D02*
X158865475Y-79950500D01*
X158865475Y-79950500D02*
X158827380Y-79912404D01*
X159589285Y-79188595D02*
X160122619Y-79188595D01*
X160122619Y-79188595D02*
X159779761Y-79988595D01*
D15*
X187856223Y-95881428D02*
X187975271Y-95524285D01*
X187975271Y-95524285D02*
X188094319Y-95405238D01*
X188094319Y-95405238D02*
X188332414Y-95286190D01*
X188332414Y-95286190D02*
X188689557Y-95286190D01*
X188689557Y-95286190D02*
X188927652Y-95405238D01*
X188927652Y-95405238D02*
X189046700Y-95524285D01*
X189046700Y-95524285D02*
X189165747Y-95762380D01*
X189165747Y-95762380D02*
X189165747Y-96714761D01*
X189165747Y-96714761D02*
X186665747Y-96714761D01*
X186665747Y-96714761D02*
X186665747Y-95881428D01*
X186665747Y-95881428D02*
X186784795Y-95643333D01*
X186784795Y-95643333D02*
X186903842Y-95524285D01*
X186903842Y-95524285D02*
X187141938Y-95405238D01*
X187141938Y-95405238D02*
X187380033Y-95405238D01*
X187380033Y-95405238D02*
X187618128Y-95524285D01*
X187618128Y-95524285D02*
X187737176Y-95643333D01*
X187737176Y-95643333D02*
X187856223Y-95881428D01*
X187856223Y-95881428D02*
X187856223Y-96714761D01*
D12*
X176063595Y-113539285D02*
X175682642Y-113805952D01*
X176063595Y-113996428D02*
X175263595Y-113996428D01*
X175263595Y-113996428D02*
X175263595Y-113691666D01*
X175263595Y-113691666D02*
X175301690Y-113615476D01*
X175301690Y-113615476D02*
X175339785Y-113577381D01*
X175339785Y-113577381D02*
X175415976Y-113539285D01*
X175415976Y-113539285D02*
X175530261Y-113539285D01*
X175530261Y-113539285D02*
X175606452Y-113577381D01*
X175606452Y-113577381D02*
X175644547Y-113615476D01*
X175644547Y-113615476D02*
X175682642Y-113691666D01*
X175682642Y-113691666D02*
X175682642Y-113996428D01*
X175263595Y-112815476D02*
X175263595Y-113196428D01*
X175263595Y-113196428D02*
X175644547Y-113234524D01*
X175644547Y-113234524D02*
X175606452Y-113196428D01*
X175606452Y-113196428D02*
X175568357Y-113120238D01*
X175568357Y-113120238D02*
X175568357Y-112929762D01*
X175568357Y-112929762D02*
X175606452Y-112853571D01*
X175606452Y-112853571D02*
X175644547Y-112815476D01*
X175644547Y-112815476D02*
X175720738Y-112777381D01*
X175720738Y-112777381D02*
X175911214Y-112777381D01*
X175911214Y-112777381D02*
X175987404Y-112815476D01*
X175987404Y-112815476D02*
X176025500Y-112853571D01*
X176025500Y-112853571D02*
X176063595Y-112929762D01*
X176063595Y-112929762D02*
X176063595Y-113120238D01*
X176063595Y-113120238D02*
X176025500Y-113196428D01*
X176025500Y-113196428D02*
X175987404Y-113234524D01*
X175263595Y-112510714D02*
X175263595Y-112015476D01*
X175263595Y-112015476D02*
X175568357Y-112282142D01*
X175568357Y-112282142D02*
X175568357Y-112167857D01*
X175568357Y-112167857D02*
X175606452Y-112091666D01*
X175606452Y-112091666D02*
X175644547Y-112053571D01*
X175644547Y-112053571D02*
X175720738Y-112015476D01*
X175720738Y-112015476D02*
X175911214Y-112015476D01*
X175911214Y-112015476D02*
X175987404Y-112053571D01*
X175987404Y-112053571D02*
X176025500Y-112091666D01*
X176025500Y-112091666D02*
X176063595Y-112167857D01*
X176063595Y-112167857D02*
X176063595Y-112396428D01*
X176063595Y-112396428D02*
X176025500Y-112472619D01*
X176025500Y-112472619D02*
X175987404Y-112510714D01*
D13*
X110507142Y-95384580D02*
X110459523Y-95432200D01*
X110459523Y-95432200D02*
X110316666Y-95479819D01*
X110316666Y-95479819D02*
X110221428Y-95479819D01*
X110221428Y-95479819D02*
X110078571Y-95432200D01*
X110078571Y-95432200D02*
X109983333Y-95336961D01*
X109983333Y-95336961D02*
X109935714Y-95241723D01*
X109935714Y-95241723D02*
X109888095Y-95051247D01*
X109888095Y-95051247D02*
X109888095Y-94908390D01*
X109888095Y-94908390D02*
X109935714Y-94717914D01*
X109935714Y-94717914D02*
X109983333Y-94622676D01*
X109983333Y-94622676D02*
X110078571Y-94527438D01*
X110078571Y-94527438D02*
X110221428Y-94479819D01*
X110221428Y-94479819D02*
X110316666Y-94479819D01*
X110316666Y-94479819D02*
X110459523Y-94527438D01*
X110459523Y-94527438D02*
X110507142Y-94575057D01*
X110840476Y-94479819D02*
X111459523Y-94479819D01*
X111459523Y-94479819D02*
X111126190Y-94860771D01*
X111126190Y-94860771D02*
X111269047Y-94860771D01*
X111269047Y-94860771D02*
X111364285Y-94908390D01*
X111364285Y-94908390D02*
X111411904Y-94956009D01*
X111411904Y-94956009D02*
X111459523Y-95051247D01*
X111459523Y-95051247D02*
X111459523Y-95289342D01*
X111459523Y-95289342D02*
X111411904Y-95384580D01*
X111411904Y-95384580D02*
X111364285Y-95432200D01*
X111364285Y-95432200D02*
X111269047Y-95479819D01*
X111269047Y-95479819D02*
X110983333Y-95479819D01*
X110983333Y-95479819D02*
X110888095Y-95432200D01*
X110888095Y-95432200D02*
X110840476Y-95384580D01*
X112316666Y-94813152D02*
X112316666Y-95479819D01*
X112078571Y-94432200D02*
X111840476Y-95146485D01*
X111840476Y-95146485D02*
X112459523Y-95146485D01*
D12*
X150285714Y-101788595D02*
X150019047Y-101407642D01*
X149828571Y-101788595D02*
X149828571Y-100988595D01*
X149828571Y-100988595D02*
X150133333Y-100988595D01*
X150133333Y-100988595D02*
X150209523Y-101026690D01*
X150209523Y-101026690D02*
X150247618Y-101064785D01*
X150247618Y-101064785D02*
X150285714Y-101140976D01*
X150285714Y-101140976D02*
X150285714Y-101255261D01*
X150285714Y-101255261D02*
X150247618Y-101331452D01*
X150247618Y-101331452D02*
X150209523Y-101369547D01*
X150209523Y-101369547D02*
X150133333Y-101407642D01*
X150133333Y-101407642D02*
X149828571Y-101407642D01*
X150552380Y-100988595D02*
X151047618Y-100988595D01*
X151047618Y-100988595D02*
X150780952Y-101293357D01*
X150780952Y-101293357D02*
X150895237Y-101293357D01*
X150895237Y-101293357D02*
X150971428Y-101331452D01*
X150971428Y-101331452D02*
X151009523Y-101369547D01*
X151009523Y-101369547D02*
X151047618Y-101445738D01*
X151047618Y-101445738D02*
X151047618Y-101636214D01*
X151047618Y-101636214D02*
X151009523Y-101712404D01*
X151009523Y-101712404D02*
X150971428Y-101750500D01*
X150971428Y-101750500D02*
X150895237Y-101788595D01*
X150895237Y-101788595D02*
X150666666Y-101788595D01*
X150666666Y-101788595D02*
X150590475Y-101750500D01*
X150590475Y-101750500D02*
X150552380Y-101712404D01*
X151504761Y-101331452D02*
X151428571Y-101293357D01*
X151428571Y-101293357D02*
X151390476Y-101255261D01*
X151390476Y-101255261D02*
X151352380Y-101179071D01*
X151352380Y-101179071D02*
X151352380Y-101140976D01*
X151352380Y-101140976D02*
X151390476Y-101064785D01*
X151390476Y-101064785D02*
X151428571Y-101026690D01*
X151428571Y-101026690D02*
X151504761Y-100988595D01*
X151504761Y-100988595D02*
X151657142Y-100988595D01*
X151657142Y-100988595D02*
X151733333Y-101026690D01*
X151733333Y-101026690D02*
X151771428Y-101064785D01*
X151771428Y-101064785D02*
X151809523Y-101140976D01*
X151809523Y-101140976D02*
X151809523Y-101179071D01*
X151809523Y-101179071D02*
X151771428Y-101255261D01*
X151771428Y-101255261D02*
X151733333Y-101293357D01*
X151733333Y-101293357D02*
X151657142Y-101331452D01*
X151657142Y-101331452D02*
X151504761Y-101331452D01*
X151504761Y-101331452D02*
X151428571Y-101369547D01*
X151428571Y-101369547D02*
X151390476Y-101407642D01*
X151390476Y-101407642D02*
X151352380Y-101483833D01*
X151352380Y-101483833D02*
X151352380Y-101636214D01*
X151352380Y-101636214D02*
X151390476Y-101712404D01*
X151390476Y-101712404D02*
X151428571Y-101750500D01*
X151428571Y-101750500D02*
X151504761Y-101788595D01*
X151504761Y-101788595D02*
X151657142Y-101788595D01*
X151657142Y-101788595D02*
X151733333Y-101750500D01*
X151733333Y-101750500D02*
X151771428Y-101712404D01*
X151771428Y-101712404D02*
X151809523Y-101636214D01*
X151809523Y-101636214D02*
X151809523Y-101483833D01*
X151809523Y-101483833D02*
X151771428Y-101407642D01*
X151771428Y-101407642D02*
X151733333Y-101369547D01*
X151733333Y-101369547D02*
X151657142Y-101331452D01*
D13*
X129484580Y-95742857D02*
X129532200Y-95790476D01*
X129532200Y-95790476D02*
X129579819Y-95933333D01*
X129579819Y-95933333D02*
X129579819Y-96028571D01*
X129579819Y-96028571D02*
X129532200Y-96171428D01*
X129532200Y-96171428D02*
X129436961Y-96266666D01*
X129436961Y-96266666D02*
X129341723Y-96314285D01*
X129341723Y-96314285D02*
X129151247Y-96361904D01*
X129151247Y-96361904D02*
X129008390Y-96361904D01*
X129008390Y-96361904D02*
X128817914Y-96314285D01*
X128817914Y-96314285D02*
X128722676Y-96266666D01*
X128722676Y-96266666D02*
X128627438Y-96171428D01*
X128627438Y-96171428D02*
X128579819Y-96028571D01*
X128579819Y-96028571D02*
X128579819Y-95933333D01*
X128579819Y-95933333D02*
X128627438Y-95790476D01*
X128627438Y-95790476D02*
X128675057Y-95742857D01*
X128579819Y-95409523D02*
X128579819Y-94790476D01*
X128579819Y-94790476D02*
X128960771Y-95123809D01*
X128960771Y-95123809D02*
X128960771Y-94980952D01*
X128960771Y-94980952D02*
X129008390Y-94885714D01*
X129008390Y-94885714D02*
X129056009Y-94838095D01*
X129056009Y-94838095D02*
X129151247Y-94790476D01*
X129151247Y-94790476D02*
X129389342Y-94790476D01*
X129389342Y-94790476D02*
X129484580Y-94838095D01*
X129484580Y-94838095D02*
X129532200Y-94885714D01*
X129532200Y-94885714D02*
X129579819Y-94980952D01*
X129579819Y-94980952D02*
X129579819Y-95266666D01*
X129579819Y-95266666D02*
X129532200Y-95361904D01*
X129532200Y-95361904D02*
X129484580Y-95409523D01*
X128579819Y-94457142D02*
X128579819Y-93790476D01*
X128579819Y-93790476D02*
X129579819Y-94219047D01*
D12*
X177960714Y-92313595D02*
X177694047Y-91932642D01*
X177503571Y-92313595D02*
X177503571Y-91513595D01*
X177503571Y-91513595D02*
X177808333Y-91513595D01*
X177808333Y-91513595D02*
X177884523Y-91551690D01*
X177884523Y-91551690D02*
X177922618Y-91589785D01*
X177922618Y-91589785D02*
X177960714Y-91665976D01*
X177960714Y-91665976D02*
X177960714Y-91780261D01*
X177960714Y-91780261D02*
X177922618Y-91856452D01*
X177922618Y-91856452D02*
X177884523Y-91894547D01*
X177884523Y-91894547D02*
X177808333Y-91932642D01*
X177808333Y-91932642D02*
X177503571Y-91932642D01*
X178646428Y-91780261D02*
X178646428Y-92313595D01*
X178455952Y-91475500D02*
X178265475Y-92046928D01*
X178265475Y-92046928D02*
X178760714Y-92046928D01*
X179408333Y-91513595D02*
X179255952Y-91513595D01*
X179255952Y-91513595D02*
X179179761Y-91551690D01*
X179179761Y-91551690D02*
X179141666Y-91589785D01*
X179141666Y-91589785D02*
X179065476Y-91704071D01*
X179065476Y-91704071D02*
X179027380Y-91856452D01*
X179027380Y-91856452D02*
X179027380Y-92161214D01*
X179027380Y-92161214D02*
X179065476Y-92237404D01*
X179065476Y-92237404D02*
X179103571Y-92275500D01*
X179103571Y-92275500D02*
X179179761Y-92313595D01*
X179179761Y-92313595D02*
X179332142Y-92313595D01*
X179332142Y-92313595D02*
X179408333Y-92275500D01*
X179408333Y-92275500D02*
X179446428Y-92237404D01*
X179446428Y-92237404D02*
X179484523Y-92161214D01*
X179484523Y-92161214D02*
X179484523Y-91970738D01*
X179484523Y-91970738D02*
X179446428Y-91894547D01*
X179446428Y-91894547D02*
X179408333Y-91856452D01*
X179408333Y-91856452D02*
X179332142Y-91818357D01*
X179332142Y-91818357D02*
X179179761Y-91818357D01*
X179179761Y-91818357D02*
X179103571Y-91856452D01*
X179103571Y-91856452D02*
X179065476Y-91894547D01*
X179065476Y-91894547D02*
X179027380Y-91970738D01*
D15*
X188411461Y-85475237D02*
X188411461Y-84284761D01*
X189125747Y-85713332D02*
X186625747Y-84879999D01*
X186625747Y-84879999D02*
X189125747Y-84046666D01*
D13*
X115657142Y-90584580D02*
X115609523Y-90632200D01*
X115609523Y-90632200D02*
X115466666Y-90679819D01*
X115466666Y-90679819D02*
X115371428Y-90679819D01*
X115371428Y-90679819D02*
X115228571Y-90632200D01*
X115228571Y-90632200D02*
X115133333Y-90536961D01*
X115133333Y-90536961D02*
X115085714Y-90441723D01*
X115085714Y-90441723D02*
X115038095Y-90251247D01*
X115038095Y-90251247D02*
X115038095Y-90108390D01*
X115038095Y-90108390D02*
X115085714Y-89917914D01*
X115085714Y-89917914D02*
X115133333Y-89822676D01*
X115133333Y-89822676D02*
X115228571Y-89727438D01*
X115228571Y-89727438D02*
X115371428Y-89679819D01*
X115371428Y-89679819D02*
X115466666Y-89679819D01*
X115466666Y-89679819D02*
X115609523Y-89727438D01*
X115609523Y-89727438D02*
X115657142Y-89775057D01*
X116561904Y-89679819D02*
X116085714Y-89679819D01*
X116085714Y-89679819D02*
X116038095Y-90156009D01*
X116038095Y-90156009D02*
X116085714Y-90108390D01*
X116085714Y-90108390D02*
X116180952Y-90060771D01*
X116180952Y-90060771D02*
X116419047Y-90060771D01*
X116419047Y-90060771D02*
X116514285Y-90108390D01*
X116514285Y-90108390D02*
X116561904Y-90156009D01*
X116561904Y-90156009D02*
X116609523Y-90251247D01*
X116609523Y-90251247D02*
X116609523Y-90489342D01*
X116609523Y-90489342D02*
X116561904Y-90584580D01*
X116561904Y-90584580D02*
X116514285Y-90632200D01*
X116514285Y-90632200D02*
X116419047Y-90679819D01*
X116419047Y-90679819D02*
X116180952Y-90679819D01*
X116180952Y-90679819D02*
X116085714Y-90632200D01*
X116085714Y-90632200D02*
X116038095Y-90584580D01*
X117180952Y-90108390D02*
X117085714Y-90060771D01*
X117085714Y-90060771D02*
X117038095Y-90013152D01*
X117038095Y-90013152D02*
X116990476Y-89917914D01*
X116990476Y-89917914D02*
X116990476Y-89870295D01*
X116990476Y-89870295D02*
X117038095Y-89775057D01*
X117038095Y-89775057D02*
X117085714Y-89727438D01*
X117085714Y-89727438D02*
X117180952Y-89679819D01*
X117180952Y-89679819D02*
X117371428Y-89679819D01*
X117371428Y-89679819D02*
X117466666Y-89727438D01*
X117466666Y-89727438D02*
X117514285Y-89775057D01*
X117514285Y-89775057D02*
X117561904Y-89870295D01*
X117561904Y-89870295D02*
X117561904Y-89917914D01*
X117561904Y-89917914D02*
X117514285Y-90013152D01*
X117514285Y-90013152D02*
X117466666Y-90060771D01*
X117466666Y-90060771D02*
X117371428Y-90108390D01*
X117371428Y-90108390D02*
X117180952Y-90108390D01*
X117180952Y-90108390D02*
X117085714Y-90156009D01*
X117085714Y-90156009D02*
X117038095Y-90203628D01*
X117038095Y-90203628D02*
X116990476Y-90298866D01*
X116990476Y-90298866D02*
X116990476Y-90489342D01*
X116990476Y-90489342D02*
X117038095Y-90584580D01*
X117038095Y-90584580D02*
X117085714Y-90632200D01*
X117085714Y-90632200D02*
X117180952Y-90679819D01*
X117180952Y-90679819D02*
X117371428Y-90679819D01*
X117371428Y-90679819D02*
X117466666Y-90632200D01*
X117466666Y-90632200D02*
X117514285Y-90584580D01*
X117514285Y-90584580D02*
X117561904Y-90489342D01*
X117561904Y-90489342D02*
X117561904Y-90298866D01*
X117561904Y-90298866D02*
X117514285Y-90203628D01*
X117514285Y-90203628D02*
X117466666Y-90156009D01*
X117466666Y-90156009D02*
X117371428Y-90108390D01*
X137384819Y-92192857D02*
X136908628Y-92526190D01*
X137384819Y-92764285D02*
X136384819Y-92764285D01*
X136384819Y-92764285D02*
X136384819Y-92383333D01*
X136384819Y-92383333D02*
X136432438Y-92288095D01*
X136432438Y-92288095D02*
X136480057Y-92240476D01*
X136480057Y-92240476D02*
X136575295Y-92192857D01*
X136575295Y-92192857D02*
X136718152Y-92192857D01*
X136718152Y-92192857D02*
X136813390Y-92240476D01*
X136813390Y-92240476D02*
X136861009Y-92288095D01*
X136861009Y-92288095D02*
X136908628Y-92383333D01*
X136908628Y-92383333D02*
X136908628Y-92764285D01*
X136384819Y-91288095D02*
X136384819Y-91764285D01*
X136384819Y-91764285D02*
X136861009Y-91811904D01*
X136861009Y-91811904D02*
X136813390Y-91764285D01*
X136813390Y-91764285D02*
X136765771Y-91669047D01*
X136765771Y-91669047D02*
X136765771Y-91430952D01*
X136765771Y-91430952D02*
X136813390Y-91335714D01*
X136813390Y-91335714D02*
X136861009Y-91288095D01*
X136861009Y-91288095D02*
X136956247Y-91240476D01*
X136956247Y-91240476D02*
X137194342Y-91240476D01*
X137194342Y-91240476D02*
X137289580Y-91288095D01*
X137289580Y-91288095D02*
X137337200Y-91335714D01*
X137337200Y-91335714D02*
X137384819Y-91430952D01*
X137384819Y-91430952D02*
X137384819Y-91669047D01*
X137384819Y-91669047D02*
X137337200Y-91764285D01*
X137337200Y-91764285D02*
X137289580Y-91811904D01*
X136718152Y-90383333D02*
X137384819Y-90383333D01*
X136337200Y-90621428D02*
X137051485Y-90859523D01*
X137051485Y-90859523D02*
X137051485Y-90240476D01*
%TO.C,R35*%
D17*
X158740000Y-92538641D02*
X158740000Y-92231359D01*
X159500000Y-92538641D02*
X159500000Y-92231359D01*
%TO.C,LED1*%
D10*
X163225000Y-112325000D02*
X163225000Y-114700000D01*
X163225000Y-114700000D02*
X164875000Y-114700000D01*
X164875000Y-114700000D02*
X164875000Y-112325000D01*
%TO.C,R40*%
D17*
X166965000Y-80961359D02*
X166965000Y-81268641D01*
X167725000Y-80961359D02*
X167725000Y-81268641D01*
%TO.C,J1*%
X108220000Y-106845000D02*
X109600000Y-106845000D01*
X108220000Y-108225000D02*
X108220000Y-106845000D01*
X108220000Y-109495000D02*
X108220000Y-114685000D01*
X108220000Y-109495000D02*
X110980000Y-109495000D01*
X108220000Y-114685000D02*
X110980000Y-114685000D01*
X110980000Y-109495000D02*
X110980000Y-114685000D01*
%TO.C,U4*%
X134447500Y-101565000D02*
X136267500Y-101565000D01*
X134447500Y-101615000D02*
X134447500Y-101565000D01*
X134447500Y-104685000D02*
X134447500Y-104635000D01*
X136267500Y-101565000D02*
X136267500Y-101615000D01*
X136267500Y-102735000D02*
X136267500Y-103515000D01*
X136267500Y-104635000D02*
X136267500Y-104685000D01*
X136267500Y-104685000D02*
X134447500Y-104685000D01*
X133907500Y-101615000D02*
X133667500Y-101285000D01*
X134147500Y-101285000D01*
X133907500Y-101615000D01*
G36*
X133907500Y-101615000D02*
G01*
X133667500Y-101285000D01*
X134147500Y-101285000D01*
X133907500Y-101615000D01*
G37*
%TO.C,C43*%
X112710580Y-83440000D02*
X112429420Y-83440000D01*
X112710580Y-84460000D02*
X112429420Y-84460000D01*
%TO.C,R50*%
X175470000Y-99938641D02*
X175470000Y-99631359D01*
X176230000Y-99938641D02*
X176230000Y-99631359D01*
%TO.C,C40*%
X171840000Y-112587836D02*
X171840000Y-112372164D01*
X172560000Y-112587836D02*
X172560000Y-112372164D01*
%TO.C,C36*%
X123008748Y-91240000D02*
X124431252Y-91240000D01*
X123008748Y-93060000D02*
X124431252Y-93060000D01*
%TO.C,R33*%
X150375000Y-111088641D02*
X150375000Y-110781359D01*
X151135000Y-111088641D02*
X151135000Y-110781359D01*
%TO.C,R34*%
X150395000Y-88656359D02*
X150395000Y-88963641D01*
X151155000Y-88656359D02*
X151155000Y-88963641D01*
%TO.C,Q17*%
D18*
X160720000Y-93575000D02*
X160720000Y-93075000D01*
D19*
X165220000Y-90875000D02*
X165219999Y-90875000D01*
X165219999Y-90875000D01*
X165219999Y-90875000D01*
X165219999Y-90875000D01*
X165219999Y-90875000D01*
X165219999Y-90875000D01*
X165219999Y-90875000D01*
X165219999Y-90874999D01*
X165219999Y-90874999D01*
X165219999Y-90874999D01*
X165219999Y-90874999D01*
X165219999Y-90874999D01*
X165220000Y-90874999D01*
X165220000Y-90874999D01*
X165220000Y-90874999D01*
X165220000Y-90874999D01*
X165220000Y-90874999D01*
X165220000Y-90874999D01*
X165220000Y-90874999D01*
X165220000Y-90874999D01*
X165220000Y-90874999D01*
X165220000Y-90874999D01*
X165220000Y-90874999D01*
X165220000Y-90874999D01*
X165220001Y-90874999D01*
X165220001Y-90874999D01*
X165220001Y-90874999D01*
X165220001Y-90874999D01*
X165220001Y-90874999D01*
X165220001Y-90874999D01*
X165220001Y-90875000D01*
X165220001Y-90875000D01*
X165220001Y-90875000D01*
X165220001Y-90875000D01*
X165220001Y-90875000D01*
X165220001Y-90875000D01*
X165220001Y-90875000D01*
X165220000Y-90875000D01*
X165220000Y-90875000D02*
X165220001Y-90875000D01*
X165220001Y-90875000D01*
X165220001Y-90875000D01*
X165220001Y-90875000D01*
X165220001Y-90875000D01*
X165220001Y-90875000D01*
X165220001Y-90875001D01*
X165220001Y-90875001D01*
X165220001Y-90875001D01*
X165220001Y-90875001D01*
X165220001Y-90875001D01*
X165220001Y-90875001D01*
X165220001Y-90875001D01*
X165220000Y-90875001D01*
X165220000Y-90875001D01*
X165220000Y-90875001D01*
X165220000Y-90875001D01*
X165220000Y-90875001D01*
X165220000Y-90875001D01*
X165220000Y-90875001D01*
X165220000Y-90875001D01*
X165220000Y-90875001D01*
X165220000Y-90875001D01*
X165220000Y-90875001D01*
X165220000Y-90875001D01*
X165219999Y-90875001D01*
X165219999Y-90875001D01*
X165219999Y-90875001D01*
X165219999Y-90875001D01*
X165219999Y-90875001D01*
X165219999Y-90875001D01*
X165219999Y-90875000D01*
X165219999Y-90875000D01*
X165219999Y-90875000D01*
X165219999Y-90875000D01*
X165219999Y-90875000D01*
X165219999Y-90875000D01*
X165220000Y-90875000D01*
D18*
D19*
X165320000Y-90875000D02*
X165319999Y-90875000D01*
X165319999Y-90875000D01*
X165319999Y-90875000D01*
X165319999Y-90875000D01*
X165319999Y-90875000D01*
X165319999Y-90875000D01*
X165319999Y-90875000D01*
X165319999Y-90874999D01*
X165319999Y-90874999D01*
X165319999Y-90874999D01*
X165319999Y-90874999D01*
X165319999Y-90874999D01*
X165320000Y-90874999D01*
X165320000Y-90874999D01*
X165320000Y-90874999D01*
X165320000Y-90874999D01*
X165320000Y-90874999D01*
X165320000Y-90874999D01*
X165320000Y-90874999D01*
X165320000Y-90874999D01*
X165320000Y-90874999D01*
X165320000Y-90874999D01*
X165320000Y-90874999D01*
X165320000Y-90874999D01*
X165320001Y-90874999D01*
X165320001Y-90874999D01*
X165320001Y-90874999D01*
X165320001Y-90874999D01*
X165320001Y-90874999D01*
X165320001Y-90874999D01*
X165320001Y-90875000D01*
X165320001Y-90875000D01*
X165320001Y-90875000D01*
X165320001Y-90875000D01*
X165320001Y-90875000D01*
X165320001Y-90875000D01*
X165320001Y-90875000D01*
X165320000Y-90875000D01*
X165320000Y-90875000D02*
X165320001Y-90875000D01*
X165320001Y-90875000D01*
X165320001Y-90875000D01*
X165320001Y-90875000D01*
X165320001Y-90875000D01*
X165320001Y-90875000D01*
X165320001Y-90875001D01*
X165320001Y-90875001D01*
X165320001Y-90875001D01*
X165320001Y-90875001D01*
X165320001Y-90875001D01*
X165320001Y-90875001D01*
X165320001Y-90875001D01*
X165320000Y-90875001D01*
X165320000Y-90875001D01*
X165320000Y-90875001D01*
X165320000Y-90875001D01*
X165320000Y-90875001D01*
X165320000Y-90875001D01*
X165320000Y-90875001D01*
X165320000Y-90875001D01*
X165320000Y-90875001D01*
X165320000Y-90875001D01*
X165320000Y-90875001D01*
X165320000Y-90875001D01*
X165319999Y-90875001D01*
X165319999Y-90875001D01*
X165319999Y-90875001D01*
X165319999Y-90875001D01*
X165319999Y-90875001D01*
X165319999Y-90875001D01*
X165319999Y-90875000D01*
X165319999Y-90875000D01*
X165319999Y-90875000D01*
X165319999Y-90875000D01*
X165319999Y-90875000D01*
X165319999Y-90875000D01*
X165320000Y-90875000D01*
D18*
X165720000Y-93575000D02*
X165720000Y-92975000D01*
X165220000Y-90875000D02*
G75*
G02*
X165320000Y-90875000I50000J0D01*
G01*
X165320000Y-90875000D02*
G75*
G02*
X165220000Y-90875000I-50000J0D01*
G01*
%TO.C,R51*%
D17*
X176365000Y-112143641D02*
X176365000Y-111836359D01*
X177125000Y-112143641D02*
X177125000Y-111836359D01*
%TO.C,Q13*%
D18*
X152405000Y-87325000D02*
X152405000Y-87925000D01*
D19*
X152805000Y-90025000D02*
X152804999Y-90025000D01*
X152804999Y-90025000D01*
X152804999Y-90025000D01*
X152804999Y-90025000D01*
X152804999Y-90025000D01*
X152804999Y-90025000D01*
X152804999Y-90025000D01*
X152804999Y-90024999D01*
X152804999Y-90024999D01*
X152804999Y-90024999D01*
X152804999Y-90024999D01*
X152804999Y-90024999D01*
X152805000Y-90024999D01*
X152805000Y-90024999D01*
X152805000Y-90024999D01*
X152805000Y-90024999D01*
X152805000Y-90024999D01*
X152805000Y-90024999D01*
X152805000Y-90024999D01*
X152805000Y-90024999D01*
X152805000Y-90024999D01*
X152805000Y-90024999D01*
X152805000Y-90024999D01*
X152805000Y-90024999D01*
X152805001Y-90024999D01*
X152805001Y-90024999D01*
X152805001Y-90024999D01*
X152805001Y-90024999D01*
X152805001Y-90024999D01*
X152805001Y-90024999D01*
X152805001Y-90025000D01*
X152805001Y-90025000D01*
X152805001Y-90025000D01*
X152805001Y-90025000D01*
X152805001Y-90025000D01*
X152805001Y-90025000D01*
X152805001Y-90025000D01*
X152805000Y-90025000D01*
X152805000Y-90025000D02*
X152805001Y-90025000D01*
X152805001Y-90025000D01*
X152805001Y-90025000D01*
X152805001Y-90025000D01*
X152805001Y-90025000D01*
X152805001Y-90025000D01*
X152805001Y-90025001D01*
X152805001Y-90025001D01*
X152805001Y-90025001D01*
X152805001Y-90025001D01*
X152805001Y-90025001D01*
X152805001Y-90025001D01*
X152805001Y-90025001D01*
X152805000Y-90025001D01*
X152805000Y-90025001D01*
X152805000Y-90025001D01*
X152805000Y-90025001D01*
X152805000Y-90025001D01*
X152805000Y-90025001D01*
X152805000Y-90025001D01*
X152805000Y-90025001D01*
X152805000Y-90025001D01*
X152805000Y-90025001D01*
X152805000Y-90025001D01*
X152805000Y-90025001D01*
X152804999Y-90025001D01*
X152804999Y-90025001D01*
X152804999Y-90025001D01*
X152804999Y-90025001D01*
X152804999Y-90025001D01*
X152804999Y-90025001D01*
X152804999Y-90025000D01*
X152804999Y-90025000D01*
X152804999Y-90025000D01*
X152804999Y-90025000D01*
X152804999Y-90025000D01*
X152804999Y-90025000D01*
X152805000Y-90025000D01*
D18*
D19*
X152905000Y-90025000D02*
X152904999Y-90025000D01*
X152904999Y-90025000D01*
X152904999Y-90025000D01*
X152904999Y-90025000D01*
X152904999Y-90025000D01*
X152904999Y-90025000D01*
X152904999Y-90025000D01*
X152904999Y-90024999D01*
X152904999Y-90024999D01*
X152904999Y-90024999D01*
X152904999Y-90024999D01*
X152904999Y-90024999D01*
X152905000Y-90024999D01*
X152905000Y-90024999D01*
X152905000Y-90024999D01*
X152905000Y-90024999D01*
X152905000Y-90024999D01*
X152905000Y-90024999D01*
X152905000Y-90024999D01*
X152905000Y-90024999D01*
X152905000Y-90024999D01*
X152905000Y-90024999D01*
X152905000Y-90024999D01*
X152905000Y-90024999D01*
X152905001Y-90024999D01*
X152905001Y-90024999D01*
X152905001Y-90024999D01*
X152905001Y-90024999D01*
X152905001Y-90024999D01*
X152905001Y-90024999D01*
X152905001Y-90025000D01*
X152905001Y-90025000D01*
X152905001Y-90025000D01*
X152905001Y-90025000D01*
X152905001Y-90025000D01*
X152905001Y-90025000D01*
X152905001Y-90025000D01*
X152905000Y-90025000D01*
X152905000Y-90025000D02*
X152905001Y-90025000D01*
X152905001Y-90025000D01*
X152905001Y-90025000D01*
X152905001Y-90025000D01*
X152905001Y-90025000D01*
X152905001Y-90025000D01*
X152905001Y-90025001D01*
X152905001Y-90025001D01*
X152905001Y-90025001D01*
X152905001Y-90025001D01*
X152905001Y-90025001D01*
X152905001Y-90025001D01*
X152905001Y-90025001D01*
X152905000Y-90025001D01*
X152905000Y-90025001D01*
X152905000Y-90025001D01*
X152905000Y-90025001D01*
X152905000Y-90025001D01*
X152905000Y-90025001D01*
X152905000Y-90025001D01*
X152905000Y-90025001D01*
X152905000Y-90025001D01*
X152905000Y-90025001D01*
X152905000Y-90025001D01*
X152905000Y-90025001D01*
X152904999Y-90025001D01*
X152904999Y-90025001D01*
X152904999Y-90025001D01*
X152904999Y-90025001D01*
X152904999Y-90025001D01*
X152904999Y-90025001D01*
X152904999Y-90025000D01*
X152904999Y-90025000D01*
X152904999Y-90025000D01*
X152904999Y-90025000D01*
X152904999Y-90025000D01*
X152904999Y-90025000D01*
X152905000Y-90025000D01*
D18*
X157405000Y-87325000D02*
X157405000Y-87825000D01*
X152805000Y-90025000D02*
G75*
G02*
X152905000Y-90025000I50000J0D01*
G01*
X152905000Y-90025000D02*
G75*
G02*
X152805000Y-90025000I-50000J0D01*
G01*
%TO.C,IC7*%
D17*
X121355000Y-104215000D02*
X122720000Y-104215000D01*
X121355000Y-114615000D02*
X122720000Y-114615000D01*
X122720000Y-104215000D02*
X122720000Y-106025000D01*
X122720000Y-114615000D02*
X122720000Y-112805000D01*
X125885000Y-113235000D02*
X125205000Y-113235000D01*
X125545000Y-112765000D01*
X125885000Y-113235000D01*
G36*
X125885000Y-113235000D02*
G01*
X125205000Y-113235000D01*
X125545000Y-112765000D01*
X125885000Y-113235000D01*
G37*
%TO.C,Q16*%
D18*
X144155000Y-87325000D02*
X144155000Y-87925000D01*
D19*
X144555000Y-90025000D02*
X144554999Y-90025000D01*
X144554999Y-90025000D01*
X144554999Y-90025000D01*
X144554999Y-90025000D01*
X144554999Y-90025000D01*
X144554999Y-90025000D01*
X144554999Y-90025000D01*
X144554999Y-90024999D01*
X144554999Y-90024999D01*
X144554999Y-90024999D01*
X144554999Y-90024999D01*
X144554999Y-90024999D01*
X144555000Y-90024999D01*
X144555000Y-90024999D01*
X144555000Y-90024999D01*
X144555000Y-90024999D01*
X144555000Y-90024999D01*
X144555000Y-90024999D01*
X144555000Y-90024999D01*
X144555000Y-90024999D01*
X144555000Y-90024999D01*
X144555000Y-90024999D01*
X144555000Y-90024999D01*
X144555000Y-90024999D01*
X144555001Y-90024999D01*
X144555001Y-90024999D01*
X144555001Y-90024999D01*
X144555001Y-90024999D01*
X144555001Y-90024999D01*
X144555001Y-90024999D01*
X144555001Y-90025000D01*
X144555001Y-90025000D01*
X144555001Y-90025000D01*
X144555001Y-90025000D01*
X144555001Y-90025000D01*
X144555001Y-90025000D01*
X144555001Y-90025000D01*
X144555000Y-90025000D01*
X144555000Y-90025000D02*
X144555001Y-90025000D01*
X144555001Y-90025000D01*
X144555001Y-90025000D01*
X144555001Y-90025000D01*
X144555001Y-90025000D01*
X144555001Y-90025000D01*
X144555001Y-90025001D01*
X144555001Y-90025001D01*
X144555001Y-90025001D01*
X144555001Y-90025001D01*
X144555001Y-90025001D01*
X144555001Y-90025001D01*
X144555001Y-90025001D01*
X144555000Y-90025001D01*
X144555000Y-90025001D01*
X144555000Y-90025001D01*
X144555000Y-90025001D01*
X144555000Y-90025001D01*
X144555000Y-90025001D01*
X144555000Y-90025001D01*
X144555000Y-90025001D01*
X144555000Y-90025001D01*
X144555000Y-90025001D01*
X144555000Y-90025001D01*
X144555000Y-90025001D01*
X144554999Y-90025001D01*
X144554999Y-90025001D01*
X144554999Y-90025001D01*
X144554999Y-90025001D01*
X144554999Y-90025001D01*
X144554999Y-90025001D01*
X144554999Y-90025000D01*
X144554999Y-90025000D01*
X144554999Y-90025000D01*
X144554999Y-90025000D01*
X144554999Y-90025000D01*
X144554999Y-90025000D01*
X144555000Y-90025000D01*
D18*
D19*
X144655000Y-90025000D02*
X144654999Y-90025000D01*
X144654999Y-90025000D01*
X144654999Y-90025000D01*
X144654999Y-90025000D01*
X144654999Y-90025000D01*
X144654999Y-90025000D01*
X144654999Y-90025000D01*
X144654999Y-90024999D01*
X144654999Y-90024999D01*
X144654999Y-90024999D01*
X144654999Y-90024999D01*
X144654999Y-90024999D01*
X144655000Y-90024999D01*
X144655000Y-90024999D01*
X144655000Y-90024999D01*
X144655000Y-90024999D01*
X144655000Y-90024999D01*
X144655000Y-90024999D01*
X144655000Y-90024999D01*
X144655000Y-90024999D01*
X144655000Y-90024999D01*
X144655000Y-90024999D01*
X144655000Y-90024999D01*
X144655000Y-90024999D01*
X144655001Y-90024999D01*
X144655001Y-90024999D01*
X144655001Y-90024999D01*
X144655001Y-90024999D01*
X144655001Y-90024999D01*
X144655001Y-90024999D01*
X144655001Y-90025000D01*
X144655001Y-90025000D01*
X144655001Y-90025000D01*
X144655001Y-90025000D01*
X144655001Y-90025000D01*
X144655001Y-90025000D01*
X144655001Y-90025000D01*
X144655000Y-90025000D01*
X144655000Y-90025000D02*
X144655001Y-90025000D01*
X144655001Y-90025000D01*
X144655001Y-90025000D01*
X144655001Y-90025000D01*
X144655001Y-90025000D01*
X144655001Y-90025000D01*
X144655001Y-90025001D01*
X144655001Y-90025001D01*
X144655001Y-90025001D01*
X144655001Y-90025001D01*
X144655001Y-90025001D01*
X144655001Y-90025001D01*
X144655001Y-90025001D01*
X144655000Y-90025001D01*
X144655000Y-90025001D01*
X144655000Y-90025001D01*
X144655000Y-90025001D01*
X144655000Y-90025001D01*
X144655000Y-90025001D01*
X144655000Y-90025001D01*
X144655000Y-90025001D01*
X144655000Y-90025001D01*
X144655000Y-90025001D01*
X144655000Y-90025001D01*
X144655000Y-90025001D01*
X144654999Y-90025001D01*
X144654999Y-90025001D01*
X144654999Y-90025001D01*
X144654999Y-90025001D01*
X144654999Y-90025001D01*
X144654999Y-90025001D01*
X144654999Y-90025000D01*
X144654999Y-90025000D01*
X144654999Y-90025000D01*
X144654999Y-90025000D01*
X144654999Y-90025000D01*
X144654999Y-90025000D01*
X144655000Y-90025000D01*
D18*
X149155000Y-87325000D02*
X149155000Y-87825000D01*
X144555000Y-90025000D02*
G75*
G02*
X144655000Y-90025000I50000J0D01*
G01*
X144655000Y-90025000D02*
G75*
G02*
X144555000Y-90025000I-50000J0D01*
G01*
%TO.C,C60*%
D17*
X119310580Y-88190000D02*
X119029420Y-88190000D01*
X119310580Y-89210000D02*
X119029420Y-89210000D01*
%TO.C,R42*%
X166975000Y-103111359D02*
X166975000Y-103418641D01*
X167735000Y-103111359D02*
X167735000Y-103418641D01*
%TO.C,Q22*%
D18*
X168955000Y-82375000D02*
X168955000Y-81875000D01*
D19*
X173455000Y-79675000D02*
X173454999Y-79675000D01*
X173454999Y-79675000D01*
X173454999Y-79675000D01*
X173454999Y-79675000D01*
X173454999Y-79675000D01*
X173454999Y-79675000D01*
X173454999Y-79675000D01*
X173454999Y-79674999D01*
X173454999Y-79674999D01*
X173454999Y-79674999D01*
X173454999Y-79674999D01*
X173454999Y-79674999D01*
X173455000Y-79674999D01*
X173455000Y-79674999D01*
X173455000Y-79674999D01*
X173455000Y-79674999D01*
X173455000Y-79674999D01*
X173455000Y-79674999D01*
X173455000Y-79674999D01*
X173455000Y-79674999D01*
X173455000Y-79674999D01*
X173455000Y-79674999D01*
X173455000Y-79674999D01*
X173455000Y-79674999D01*
X173455001Y-79674999D01*
X173455001Y-79674999D01*
X173455001Y-79674999D01*
X173455001Y-79674999D01*
X173455001Y-79674999D01*
X173455001Y-79674999D01*
X173455001Y-79675000D01*
X173455001Y-79675000D01*
X173455001Y-79675000D01*
X173455001Y-79675000D01*
X173455001Y-79675000D01*
X173455001Y-79675000D01*
X173455001Y-79675000D01*
X173455000Y-79675000D01*
X173455000Y-79675000D02*
X173455001Y-79675000D01*
X173455001Y-79675000D01*
X173455001Y-79675000D01*
X173455001Y-79675000D01*
X173455001Y-79675000D01*
X173455001Y-79675000D01*
X173455001Y-79675001D01*
X173455001Y-79675001D01*
X173455001Y-79675001D01*
X173455001Y-79675001D01*
X173455001Y-79675001D01*
X173455001Y-79675001D01*
X173455001Y-79675001D01*
X173455000Y-79675001D01*
X173455000Y-79675001D01*
X173455000Y-79675001D01*
X173455000Y-79675001D01*
X173455000Y-79675001D01*
X173455000Y-79675001D01*
X173455000Y-79675001D01*
X173455000Y-79675001D01*
X173455000Y-79675001D01*
X173455000Y-79675001D01*
X173455000Y-79675001D01*
X173455000Y-79675001D01*
X173454999Y-79675001D01*
X173454999Y-79675001D01*
X173454999Y-79675001D01*
X173454999Y-79675001D01*
X173454999Y-79675001D01*
X173454999Y-79675001D01*
X173454999Y-79675000D01*
X173454999Y-79675000D01*
X173454999Y-79675000D01*
X173454999Y-79675000D01*
X173454999Y-79675000D01*
X173454999Y-79675000D01*
X173455000Y-79675000D01*
D18*
D19*
X173555000Y-79675000D02*
X173554999Y-79675000D01*
X173554999Y-79675000D01*
X173554999Y-79675000D01*
X173554999Y-79675000D01*
X173554999Y-79675000D01*
X173554999Y-79675000D01*
X173554999Y-79675000D01*
X173554999Y-79674999D01*
X173554999Y-79674999D01*
X173554999Y-79674999D01*
X173554999Y-79674999D01*
X173554999Y-79674999D01*
X173555000Y-79674999D01*
X173555000Y-79674999D01*
X173555000Y-79674999D01*
X173555000Y-79674999D01*
X173555000Y-79674999D01*
X173555000Y-79674999D01*
X173555000Y-79674999D01*
X173555000Y-79674999D01*
X173555000Y-79674999D01*
X173555000Y-79674999D01*
X173555000Y-79674999D01*
X173555000Y-79674999D01*
X173555001Y-79674999D01*
X173555001Y-79674999D01*
X173555001Y-79674999D01*
X173555001Y-79674999D01*
X173555001Y-79674999D01*
X173555001Y-79674999D01*
X173555001Y-79675000D01*
X173555001Y-79675000D01*
X173555001Y-79675000D01*
X173555001Y-79675000D01*
X173555001Y-79675000D01*
X173555001Y-79675000D01*
X173555001Y-79675000D01*
X173555000Y-79675000D01*
X173555000Y-79675000D02*
X173555001Y-79675000D01*
X173555001Y-79675000D01*
X173555001Y-79675000D01*
X173555001Y-79675000D01*
X173555001Y-79675000D01*
X173555001Y-79675000D01*
X173555001Y-79675001D01*
X173555001Y-79675001D01*
X173555001Y-79675001D01*
X173555001Y-79675001D01*
X173555001Y-79675001D01*
X173555001Y-79675001D01*
X173555001Y-79675001D01*
X173555000Y-79675001D01*
X173555000Y-79675001D01*
X173555000Y-79675001D01*
X173555000Y-79675001D01*
X173555000Y-79675001D01*
X173555000Y-79675001D01*
X173555000Y-79675001D01*
X173555000Y-79675001D01*
X173555000Y-79675001D01*
X173555000Y-79675001D01*
X173555000Y-79675001D01*
X173555000Y-79675001D01*
X173554999Y-79675001D01*
X173554999Y-79675001D01*
X173554999Y-79675001D01*
X173554999Y-79675001D01*
X173554999Y-79675001D01*
X173554999Y-79675001D01*
X173554999Y-79675000D01*
X173554999Y-79675000D01*
X173554999Y-79675000D01*
X173554999Y-79675000D01*
X173554999Y-79675000D01*
X173554999Y-79675000D01*
X173555000Y-79675000D01*
D18*
X173955000Y-82375000D02*
X173955000Y-81775000D01*
X173455000Y-79675000D02*
G75*
G02*
X173555000Y-79675000I50000J0D01*
G01*
X173555000Y-79675000D02*
G75*
G02*
X173455000Y-79675000I-50000J0D01*
G01*
%TO.C,C57*%
D17*
X119310580Y-91235000D02*
X119029420Y-91235000D01*
X119310580Y-92255000D02*
X119029420Y-92255000D01*
%TO.C,C44*%
X117510580Y-85765000D02*
X117229420Y-85765000D01*
X117510580Y-86785000D02*
X117229420Y-86785000D01*
%TO.C,J4*%
X107020000Y-83270000D02*
X108400000Y-83270000D01*
X107020000Y-84650000D02*
X107020000Y-83270000D01*
X107020000Y-85920000D02*
X107020000Y-93650000D01*
X107020000Y-85920000D02*
X109780000Y-85920000D01*
X107020000Y-93650000D02*
X109780000Y-93650000D01*
X109780000Y-85920000D02*
X109780000Y-93650000D01*
%TO.C,Q20*%
D18*
X144170000Y-98525000D02*
X144170000Y-99125000D01*
D19*
X144570000Y-101225000D02*
X144569999Y-101225000D01*
X144569999Y-101225000D01*
X144569999Y-101225000D01*
X144569999Y-101225000D01*
X144569999Y-101225000D01*
X144569999Y-101225000D01*
X144569999Y-101225000D01*
X144569999Y-101224999D01*
X144569999Y-101224999D01*
X144569999Y-101224999D01*
X144569999Y-101224999D01*
X144569999Y-101224999D01*
X144570000Y-101224999D01*
X144570000Y-101224999D01*
X144570000Y-101224999D01*
X144570000Y-101224999D01*
X144570000Y-101224999D01*
X144570000Y-101224999D01*
X144570000Y-101224999D01*
X144570000Y-101224999D01*
X144570000Y-101224999D01*
X144570000Y-101224999D01*
X144570000Y-101224999D01*
X144570000Y-101224999D01*
X144570001Y-101224999D01*
X144570001Y-101224999D01*
X144570001Y-101224999D01*
X144570001Y-101224999D01*
X144570001Y-101224999D01*
X144570001Y-101224999D01*
X144570001Y-101225000D01*
X144570001Y-101225000D01*
X144570001Y-101225000D01*
X144570001Y-101225000D01*
X144570001Y-101225000D01*
X144570001Y-101225000D01*
X144570001Y-101225000D01*
X144570000Y-101225000D01*
X144570000Y-101225000D02*
X144570001Y-101225000D01*
X144570001Y-101225000D01*
X144570001Y-101225000D01*
X144570001Y-101225000D01*
X144570001Y-101225000D01*
X144570001Y-101225000D01*
X144570001Y-101225001D01*
X144570001Y-101225001D01*
X144570001Y-101225001D01*
X144570001Y-101225001D01*
X144570001Y-101225001D01*
X144570001Y-101225001D01*
X144570001Y-101225001D01*
X144570000Y-101225001D01*
X144570000Y-101225001D01*
X144570000Y-101225001D01*
X144570000Y-101225001D01*
X144570000Y-101225001D01*
X144570000Y-101225001D01*
X144570000Y-101225001D01*
X144570000Y-101225001D01*
X144570000Y-101225001D01*
X144570000Y-101225001D01*
X144570000Y-101225001D01*
X144570000Y-101225001D01*
X144569999Y-101225001D01*
X144569999Y-101225001D01*
X144569999Y-101225001D01*
X144569999Y-101225001D01*
X144569999Y-101225001D01*
X144569999Y-101225001D01*
X144569999Y-101225000D01*
X144569999Y-101225000D01*
X144569999Y-101225000D01*
X144569999Y-101225000D01*
X144569999Y-101225000D01*
X144569999Y-101225000D01*
X144570000Y-101225000D01*
D18*
D19*
X144670000Y-101225000D02*
X144669999Y-101225000D01*
X144669999Y-101225000D01*
X144669999Y-101225000D01*
X144669999Y-101225000D01*
X144669999Y-101225000D01*
X144669999Y-101225000D01*
X144669999Y-101225000D01*
X144669999Y-101224999D01*
X144669999Y-101224999D01*
X144669999Y-101224999D01*
X144669999Y-101224999D01*
X144669999Y-101224999D01*
X144670000Y-101224999D01*
X144670000Y-101224999D01*
X144670000Y-101224999D01*
X144670000Y-101224999D01*
X144670000Y-101224999D01*
X144670000Y-101224999D01*
X144670000Y-101224999D01*
X144670000Y-101224999D01*
X144670000Y-101224999D01*
X144670000Y-101224999D01*
X144670000Y-101224999D01*
X144670000Y-101224999D01*
X144670001Y-101224999D01*
X144670001Y-101224999D01*
X144670001Y-101224999D01*
X144670001Y-101224999D01*
X144670001Y-101224999D01*
X144670001Y-101224999D01*
X144670001Y-101225000D01*
X144670001Y-101225000D01*
X144670001Y-101225000D01*
X144670001Y-101225000D01*
X144670001Y-101225000D01*
X144670001Y-101225000D01*
X144670001Y-101225000D01*
X144670000Y-101225000D01*
X144670000Y-101225000D02*
X144670001Y-101225000D01*
X144670001Y-101225000D01*
X144670001Y-101225000D01*
X144670001Y-101225000D01*
X144670001Y-101225000D01*
X144670001Y-101225000D01*
X144670001Y-101225001D01*
X144670001Y-101225001D01*
X144670001Y-101225001D01*
X144670001Y-101225001D01*
X144670001Y-101225001D01*
X144670001Y-101225001D01*
X144670001Y-101225001D01*
X144670000Y-101225001D01*
X144670000Y-101225001D01*
X144670000Y-101225001D01*
X144670000Y-101225001D01*
X144670000Y-101225001D01*
X144670000Y-101225001D01*
X144670000Y-101225001D01*
X144670000Y-101225001D01*
X144670000Y-101225001D01*
X144670000Y-101225001D01*
X144670000Y-101225001D01*
X144670000Y-101225001D01*
X144669999Y-101225001D01*
X144669999Y-101225001D01*
X144669999Y-101225001D01*
X144669999Y-101225001D01*
X144669999Y-101225001D01*
X144669999Y-101225001D01*
X144669999Y-101225000D01*
X144669999Y-101225000D01*
X144669999Y-101225000D01*
X144669999Y-101225000D01*
X144669999Y-101225000D01*
X144669999Y-101225000D01*
X144670000Y-101225000D01*
D18*
X149170000Y-98525000D02*
X149170000Y-99025000D01*
X144570000Y-101225000D02*
G75*
G02*
X144670000Y-101225000I50000J0D01*
G01*
X144670000Y-101225000D02*
G75*
G02*
X144570000Y-101225000I-50000J0D01*
G01*
%TO.C,D2*%
D17*
X115645000Y-85260000D02*
X115645000Y-79750000D01*
X115645000Y-85260000D02*
X118945000Y-85260000D01*
X118945000Y-85260000D02*
X118945000Y-79750000D01*
%TO.C,R47*%
X175600000Y-88713641D02*
X175600000Y-88406359D01*
X176360000Y-88713641D02*
X176360000Y-88406359D01*
%TO.C,R36*%
X158665000Y-110931359D02*
X158665000Y-111238641D01*
X159425000Y-110931359D02*
X159425000Y-111238641D01*
%TO.C,J2*%
X107770000Y-79880000D02*
X107770000Y-78500000D01*
X109150000Y-79880000D02*
X107770000Y-79880000D01*
X110420000Y-77120000D02*
X113070000Y-77120000D01*
X110420000Y-79880000D02*
X110420000Y-77120000D01*
X110420000Y-79880000D02*
X113070000Y-79880000D01*
X113070000Y-79880000D02*
X113070000Y-77120000D01*
%TO.C,R39*%
X158775000Y-103493641D02*
X158775000Y-103186359D01*
X159535000Y-103493641D02*
X159535000Y-103186359D01*
%TO.C,R45*%
X176573641Y-89770000D02*
X176266359Y-89770000D01*
X176573641Y-90530000D02*
X176266359Y-90530000D01*
%TO.C,C35*%
X108139420Y-96027500D02*
X108420580Y-96027500D01*
X108139420Y-97047500D02*
X108420580Y-97047500D01*
%TO.C,C1*%
X121235580Y-85440000D02*
X120954420Y-85440000D01*
X121235580Y-86460000D02*
X120954420Y-86460000D01*
%TO.C,R49*%
X176231359Y-100895000D02*
X176538641Y-100895000D01*
X176231359Y-101655000D02*
X176538641Y-101655000D01*
%TO.C,R32*%
X167040000Y-92131359D02*
X167040000Y-92438641D01*
X167800000Y-92131359D02*
X167800000Y-92438641D01*
%TO.C,IC5*%
D10*
X112932000Y-95124998D02*
X114407000Y-95124998D01*
X114757000Y-95374998D02*
X118457000Y-95374998D01*
X114757000Y-101874998D02*
X114757000Y-95374998D01*
X118457000Y-95374998D02*
X118457000Y-101874998D01*
X118457000Y-101874998D02*
X114757000Y-101874998D01*
%TO.C,Q15*%
D18*
X144175000Y-109725000D02*
X144175000Y-110325000D01*
D19*
X144575000Y-112425000D02*
X144574999Y-112425000D01*
X144574999Y-112425000D01*
X144574999Y-112425000D01*
X144574999Y-112425000D01*
X144574999Y-112425000D01*
X144574999Y-112425000D01*
X144574999Y-112425000D01*
X144574999Y-112424999D01*
X144574999Y-112424999D01*
X144574999Y-112424999D01*
X144574999Y-112424999D01*
X144574999Y-112424999D01*
X144575000Y-112424999D01*
X144575000Y-112424999D01*
X144575000Y-112424999D01*
X144575000Y-112424999D01*
X144575000Y-112424999D01*
X144575000Y-112424999D01*
X144575000Y-112424999D01*
X144575000Y-112424999D01*
X144575000Y-112424999D01*
X144575000Y-112424999D01*
X144575000Y-112424999D01*
X144575000Y-112424999D01*
X144575001Y-112424999D01*
X144575001Y-112424999D01*
X144575001Y-112424999D01*
X144575001Y-112424999D01*
X144575001Y-112424999D01*
X144575001Y-112424999D01*
X144575001Y-112425000D01*
X144575001Y-112425000D01*
X144575001Y-112425000D01*
X144575001Y-112425000D01*
X144575001Y-112425000D01*
X144575001Y-112425000D01*
X144575001Y-112425000D01*
X144575000Y-112425000D01*
X144575000Y-112425000D02*
X144575001Y-112425000D01*
X144575001Y-112425000D01*
X144575001Y-112425000D01*
X144575001Y-112425000D01*
X144575001Y-112425000D01*
X144575001Y-112425000D01*
X144575001Y-112425001D01*
X144575001Y-112425001D01*
X144575001Y-112425001D01*
X144575001Y-112425001D01*
X144575001Y-112425001D01*
X144575001Y-112425001D01*
X144575001Y-112425001D01*
X144575000Y-112425001D01*
X144575000Y-112425001D01*
X144575000Y-112425001D01*
X144575000Y-112425001D01*
X144575000Y-112425001D01*
X144575000Y-112425001D01*
X144575000Y-112425001D01*
X144575000Y-112425001D01*
X144575000Y-112425001D01*
X144575000Y-112425001D01*
X144575000Y-112425001D01*
X144575000Y-112425001D01*
X144574999Y-112425001D01*
X144574999Y-112425001D01*
X144574999Y-112425001D01*
X144574999Y-112425001D01*
X144574999Y-112425001D01*
X144574999Y-112425001D01*
X144574999Y-112425000D01*
X144574999Y-112425000D01*
X144574999Y-112425000D01*
X144574999Y-112425000D01*
X144574999Y-112425000D01*
X144574999Y-112425000D01*
X144575000Y-112425000D01*
D18*
D19*
X144675000Y-112425000D02*
X144674999Y-112425000D01*
X144674999Y-112425000D01*
X144674999Y-112425000D01*
X144674999Y-112425000D01*
X144674999Y-112425000D01*
X144674999Y-112425000D01*
X144674999Y-112425000D01*
X144674999Y-112424999D01*
X144674999Y-112424999D01*
X144674999Y-112424999D01*
X144674999Y-112424999D01*
X144674999Y-112424999D01*
X144675000Y-112424999D01*
X144675000Y-112424999D01*
X144675000Y-112424999D01*
X144675000Y-112424999D01*
X144675000Y-112424999D01*
X144675000Y-112424999D01*
X144675000Y-112424999D01*
X144675000Y-112424999D01*
X144675000Y-112424999D01*
X144675000Y-112424999D01*
X144675000Y-112424999D01*
X144675000Y-112424999D01*
X144675001Y-112424999D01*
X144675001Y-112424999D01*
X144675001Y-112424999D01*
X144675001Y-112424999D01*
X144675001Y-112424999D01*
X144675001Y-112424999D01*
X144675001Y-112425000D01*
X144675001Y-112425000D01*
X144675001Y-112425000D01*
X144675001Y-112425000D01*
X144675001Y-112425000D01*
X144675001Y-112425000D01*
X144675001Y-112425000D01*
X144675000Y-112425000D01*
X144675000Y-112425000D02*
X144675001Y-112425000D01*
X144675001Y-112425000D01*
X144675001Y-112425000D01*
X144675001Y-112425000D01*
X144675001Y-112425000D01*
X144675001Y-112425000D01*
X144675001Y-112425001D01*
X144675001Y-112425001D01*
X144675001Y-112425001D01*
X144675001Y-112425001D01*
X144675001Y-112425001D01*
X144675001Y-112425001D01*
X144675001Y-112425001D01*
X144675000Y-112425001D01*
X144675000Y-112425001D01*
X144675000Y-112425001D01*
X144675000Y-112425001D01*
X144675000Y-112425001D01*
X144675000Y-112425001D01*
X144675000Y-112425001D01*
X144675000Y-112425001D01*
X144675000Y-112425001D01*
X144675000Y-112425001D01*
X144675000Y-112425001D01*
X144675000Y-112425001D01*
X144674999Y-112425001D01*
X144674999Y-112425001D01*
X144674999Y-112425001D01*
X144674999Y-112425001D01*
X144674999Y-112425001D01*
X144674999Y-112425001D01*
X144674999Y-112425000D01*
X144674999Y-112425000D01*
X144674999Y-112425000D01*
X144674999Y-112425000D01*
X144674999Y-112425000D01*
X144674999Y-112425000D01*
X144675000Y-112425000D01*
D18*
X149175000Y-109725000D02*
X149175000Y-110225000D01*
X144575000Y-112425000D02*
G75*
G02*
X144675000Y-112425000I50000J0D01*
G01*
X144675000Y-112425000D02*
G75*
G02*
X144575000Y-112425000I-50000J0D01*
G01*
%TO.C,Q24*%
X168995000Y-104775000D02*
X168995000Y-104275000D01*
D19*
X173495000Y-102075000D02*
X173494999Y-102075000D01*
X173494999Y-102075000D01*
X173494999Y-102075000D01*
X173494999Y-102075000D01*
X173494999Y-102075000D01*
X173494999Y-102075000D01*
X173494999Y-102075000D01*
X173494999Y-102074999D01*
X173494999Y-102074999D01*
X173494999Y-102074999D01*
X173494999Y-102074999D01*
X173494999Y-102074999D01*
X173495000Y-102074999D01*
X173495000Y-102074999D01*
X173495000Y-102074999D01*
X173495000Y-102074999D01*
X173495000Y-102074999D01*
X173495000Y-102074999D01*
X173495000Y-102074999D01*
X173495000Y-102074999D01*
X173495000Y-102074999D01*
X173495000Y-102074999D01*
X173495000Y-102074999D01*
X173495000Y-102074999D01*
X173495001Y-102074999D01*
X173495001Y-102074999D01*
X173495001Y-102074999D01*
X173495001Y-102074999D01*
X173495001Y-102074999D01*
X173495001Y-102074999D01*
X173495001Y-102075000D01*
X173495001Y-102075000D01*
X173495001Y-102075000D01*
X173495001Y-102075000D01*
X173495001Y-102075000D01*
X173495001Y-102075000D01*
X173495001Y-102075000D01*
X173495000Y-102075000D01*
X173495000Y-102075000D02*
X173495001Y-102075000D01*
X173495001Y-102075000D01*
X173495001Y-102075000D01*
X173495001Y-102075000D01*
X173495001Y-102075000D01*
X173495001Y-102075000D01*
X173495001Y-102075001D01*
X173495001Y-102075001D01*
X173495001Y-102075001D01*
X173495001Y-102075001D01*
X173495001Y-102075001D01*
X173495001Y-102075001D01*
X173495001Y-102075001D01*
X173495000Y-102075001D01*
X173495000Y-102075001D01*
X173495000Y-102075001D01*
X173495000Y-102075001D01*
X173495000Y-102075001D01*
X173495000Y-102075001D01*
X173495000Y-102075001D01*
X173495000Y-102075001D01*
X173495000Y-102075001D01*
X173495000Y-102075001D01*
X173495000Y-102075001D01*
X173495000Y-102075001D01*
X173494999Y-102075001D01*
X173494999Y-102075001D01*
X173494999Y-102075001D01*
X173494999Y-102075001D01*
X173494999Y-102075001D01*
X173494999Y-102075001D01*
X173494999Y-102075000D01*
X173494999Y-102075000D01*
X173494999Y-102075000D01*
X173494999Y-102075000D01*
X173494999Y-102075000D01*
X173494999Y-102075000D01*
X173495000Y-102075000D01*
D18*
D19*
X173595000Y-102075000D02*
X173594999Y-102075000D01*
X173594999Y-102075000D01*
X173594999Y-102075000D01*
X173594999Y-102075000D01*
X173594999Y-102075000D01*
X173594999Y-102075000D01*
X173594999Y-102075000D01*
X173594999Y-102074999D01*
X173594999Y-102074999D01*
X173594999Y-102074999D01*
X173594999Y-102074999D01*
X173594999Y-102074999D01*
X173595000Y-102074999D01*
X173595000Y-102074999D01*
X173595000Y-102074999D01*
X173595000Y-102074999D01*
X173595000Y-102074999D01*
X173595000Y-102074999D01*
X173595000Y-102074999D01*
X173595000Y-102074999D01*
X173595000Y-102074999D01*
X173595000Y-102074999D01*
X173595000Y-102074999D01*
X173595000Y-102074999D01*
X173595001Y-102074999D01*
X173595001Y-102074999D01*
X173595001Y-102074999D01*
X173595001Y-102074999D01*
X173595001Y-102074999D01*
X173595001Y-102074999D01*
X173595001Y-102075000D01*
X173595001Y-102075000D01*
X173595001Y-102075000D01*
X173595001Y-102075000D01*
X173595001Y-102075000D01*
X173595001Y-102075000D01*
X173595001Y-102075000D01*
X173595000Y-102075000D01*
X173595000Y-102075000D02*
X173595001Y-102075000D01*
X173595001Y-102075000D01*
X173595001Y-102075000D01*
X173595001Y-102075000D01*
X173595001Y-102075000D01*
X173595001Y-102075000D01*
X173595001Y-102075001D01*
X173595001Y-102075001D01*
X173595001Y-102075001D01*
X173595001Y-102075001D01*
X173595001Y-102075001D01*
X173595001Y-102075001D01*
X173595001Y-102075001D01*
X173595000Y-102075001D01*
X173595000Y-102075001D01*
X173595000Y-102075001D01*
X173595000Y-102075001D01*
X173595000Y-102075001D01*
X173595000Y-102075001D01*
X173595000Y-102075001D01*
X173595000Y-102075001D01*
X173595000Y-102075001D01*
X173595000Y-102075001D01*
X173595000Y-102075001D01*
X173595000Y-102075001D01*
X173594999Y-102075001D01*
X173594999Y-102075001D01*
X173594999Y-102075001D01*
X173594999Y-102075001D01*
X173594999Y-102075001D01*
X173594999Y-102075001D01*
X173594999Y-102075000D01*
X173594999Y-102075000D01*
X173594999Y-102075000D01*
X173594999Y-102075000D01*
X173594999Y-102075000D01*
X173594999Y-102075000D01*
X173595000Y-102075000D01*
D18*
X173995000Y-104775000D02*
X173995000Y-104175000D01*
X173495000Y-102075000D02*
G75*
G02*
X173595000Y-102075000I50000J0D01*
G01*
X173595000Y-102075000D02*
G75*
G02*
X173495000Y-102075000I-50000J0D01*
G01*
%TO.C,R31*%
D17*
X158640000Y-88481359D02*
X158640000Y-88788641D01*
X159400000Y-88481359D02*
X159400000Y-88788641D01*
%TO.C,C39*%
X160190000Y-112638748D02*
X160190000Y-113161252D01*
X161660000Y-112638748D02*
X161660000Y-113161252D01*
%TO.C,R56*%
X164063641Y-115045000D02*
X163756359Y-115045000D01*
X164063641Y-115805000D02*
X163756359Y-115805000D01*
%TO.C,C38*%
X126160000Y-100113748D02*
X126160000Y-101536252D01*
X127980000Y-100113748D02*
X127980000Y-101536252D01*
%TO.C,IC8*%
D10*
X119783000Y-78000000D02*
X121308000Y-78000000D01*
X121658000Y-78135000D02*
X124858000Y-78135000D01*
X121658000Y-83025000D02*
X121658000Y-78135000D01*
X124858000Y-78135000D02*
X124858000Y-83025000D01*
X124858000Y-83025000D02*
X121658000Y-83025000D01*
%TO.C,R48*%
D17*
X176423641Y-103020000D02*
X176116359Y-103020000D01*
X176423641Y-103780000D02*
X176116359Y-103780000D01*
%TO.C,IC6*%
D10*
X166120000Y-115300000D02*
X166120000Y-112850000D01*
X166970000Y-115300000D02*
X166120000Y-115300000D01*
X169770000Y-115300000D02*
X170620000Y-115300000D01*
D18*
D19*
X169870000Y-111350000D02*
X169869999Y-111350000D01*
X169869999Y-111350000D01*
X169869999Y-111350000D01*
X169869999Y-111350000D01*
X169869999Y-111350000D01*
X169869999Y-111350000D01*
X169869999Y-111350000D01*
X169869999Y-111349999D01*
X169869999Y-111349999D01*
X169869999Y-111349999D01*
X169869999Y-111349999D01*
X169869999Y-111349999D01*
X169870000Y-111349999D01*
X169870000Y-111349999D01*
X169870000Y-111349999D01*
X169870000Y-111349999D01*
X169870000Y-111349999D01*
X169870000Y-111349999D01*
X169870000Y-111349999D01*
X169870000Y-111349999D01*
X169870000Y-111349999D01*
X169870000Y-111349999D01*
X169870000Y-111349999D01*
X169870000Y-111349999D01*
X169870001Y-111349999D01*
X169870001Y-111349999D01*
X169870001Y-111349999D01*
X169870001Y-111349999D01*
X169870001Y-111349999D01*
X169870001Y-111349999D01*
X169870001Y-111350000D01*
X169870001Y-111350000D01*
X169870001Y-111350000D01*
X169870001Y-111350000D01*
X169870001Y-111350000D01*
X169870001Y-111350000D01*
X169870001Y-111350000D01*
X169870000Y-111350000D01*
X169870000Y-111350000D02*
X169870001Y-111350000D01*
X169870001Y-111350000D01*
X169870001Y-111350000D01*
X169870001Y-111350000D01*
X169870001Y-111350000D01*
X169870001Y-111350000D01*
X169870001Y-111350001D01*
X169870001Y-111350001D01*
X169870001Y-111350001D01*
X169870001Y-111350001D01*
X169870001Y-111350001D01*
X169870001Y-111350001D01*
X169870001Y-111350001D01*
X169870000Y-111350001D01*
X169870000Y-111350001D01*
X169870000Y-111350001D01*
X169870000Y-111350001D01*
X169870000Y-111350001D01*
X169870000Y-111350001D01*
X169870000Y-111350001D01*
X169870000Y-111350001D01*
X169870000Y-111350001D01*
X169870000Y-111350001D01*
X169870000Y-111350001D01*
X169870000Y-111350001D01*
X169869999Y-111350001D01*
X169869999Y-111350001D01*
X169869999Y-111350001D01*
X169869999Y-111350001D01*
X169869999Y-111350001D01*
X169869999Y-111350001D01*
X169869999Y-111350000D01*
X169869999Y-111350000D01*
X169869999Y-111350000D01*
X169869999Y-111350000D01*
X169869999Y-111350000D01*
X169869999Y-111350000D01*
X169870000Y-111350000D01*
D18*
D19*
X169870000Y-111450000D02*
X169869999Y-111450000D01*
X169869999Y-111450000D01*
X169869999Y-111450000D01*
X169869999Y-111450000D01*
X169869999Y-111450000D01*
X169869999Y-111450000D01*
X169869999Y-111450000D01*
X169869999Y-111449999D01*
X169869999Y-111449999D01*
X169869999Y-111449999D01*
X169869999Y-111449999D01*
X169869999Y-111449999D01*
X169870000Y-111449999D01*
X169870000Y-111449999D01*
X169870000Y-111449999D01*
X169870000Y-111449999D01*
X169870000Y-111449999D01*
X169870000Y-111449999D01*
X169870000Y-111449999D01*
X169870000Y-111449999D01*
X169870000Y-111449999D01*
X169870000Y-111449999D01*
X169870000Y-111449999D01*
X169870000Y-111449999D01*
X169870001Y-111449999D01*
X169870001Y-111449999D01*
X169870001Y-111449999D01*
X169870001Y-111449999D01*
X169870001Y-111449999D01*
X169870001Y-111449999D01*
X169870001Y-111450000D01*
X169870001Y-111450000D01*
X169870001Y-111450000D01*
X169870001Y-111450000D01*
X169870001Y-111450000D01*
X169870001Y-111450000D01*
X169870001Y-111450000D01*
X169870000Y-111450000D01*
X169870000Y-111450000D02*
X169870001Y-111450000D01*
X169870001Y-111450000D01*
X169870001Y-111450000D01*
X169870001Y-111450000D01*
X169870001Y-111450000D01*
X169870001Y-111450000D01*
X169870001Y-111450001D01*
X169870001Y-111450001D01*
X169870001Y-111450001D01*
X169870001Y-111450001D01*
X169870001Y-111450001D01*
X169870001Y-111450001D01*
X169870001Y-111450001D01*
X169870000Y-111450001D01*
X169870000Y-111450001D01*
X169870000Y-111450001D01*
X169870000Y-111450001D01*
X169870000Y-111450001D01*
X169870000Y-111450001D01*
X169870000Y-111450001D01*
X169870000Y-111450001D01*
X169870000Y-111450001D01*
X169870000Y-111450001D01*
X169870000Y-111450001D01*
X169870000Y-111450001D01*
X169869999Y-111450001D01*
X169869999Y-111450001D01*
X169869999Y-111450001D01*
X169869999Y-111450001D01*
X169869999Y-111450001D01*
X169869999Y-111450001D01*
X169869999Y-111450000D01*
X169869999Y-111450000D01*
X169869999Y-111450000D01*
X169869999Y-111450000D01*
X169869999Y-111450000D01*
X169869999Y-111450000D01*
X169870000Y-111450000D01*
D10*
X170620000Y-115300000D02*
X170620000Y-112850000D01*
D18*
X169870000Y-111350000D02*
G75*
G02*
X169870000Y-111450000I0J-50000D01*
G01*
X169870000Y-111450000D02*
G75*
G02*
X169870000Y-111350000I0J50000D01*
G01*
%TO.C,R52*%
D17*
X174140000Y-111836359D02*
X174140000Y-112143641D01*
X174900000Y-111836359D02*
X174900000Y-112143641D01*
%TO.C,R41*%
X158690000Y-99938641D02*
X158690000Y-99631359D01*
X159450000Y-99938641D02*
X159450000Y-99631359D01*
%TO.C,R60*%
X108970000Y-105568641D02*
X108970000Y-105261359D01*
X109730000Y-105568641D02*
X109730000Y-105261359D01*
%TO.C,R37*%
X158715000Y-80936359D02*
X158715000Y-81243641D01*
X159475000Y-80936359D02*
X159475000Y-81243641D01*
%TO.C,Q19*%
D18*
X160705000Y-82375000D02*
X160705000Y-81875000D01*
D19*
X165205000Y-79675000D02*
X165204999Y-79675000D01*
X165204999Y-79675000D01*
X165204999Y-79675000D01*
X165204999Y-79675000D01*
X165204999Y-79675000D01*
X165204999Y-79675000D01*
X165204999Y-79675000D01*
X165204999Y-79674999D01*
X165204999Y-79674999D01*
X165204999Y-79674999D01*
X165204999Y-79674999D01*
X165204999Y-79674999D01*
X165205000Y-79674999D01*
X165205000Y-79674999D01*
X165205000Y-79674999D01*
X165205000Y-79674999D01*
X165205000Y-79674999D01*
X165205000Y-79674999D01*
X165205000Y-79674999D01*
X165205000Y-79674999D01*
X165205000Y-79674999D01*
X165205000Y-79674999D01*
X165205000Y-79674999D01*
X165205000Y-79674999D01*
X165205001Y-79674999D01*
X165205001Y-79674999D01*
X165205001Y-79674999D01*
X165205001Y-79674999D01*
X165205001Y-79674999D01*
X165205001Y-79674999D01*
X165205001Y-79675000D01*
X165205001Y-79675000D01*
X165205001Y-79675000D01*
X165205001Y-79675000D01*
X165205001Y-79675000D01*
X165205001Y-79675000D01*
X165205001Y-79675000D01*
X165205000Y-79675000D01*
X165205000Y-79675000D02*
X165205001Y-79675000D01*
X165205001Y-79675000D01*
X165205001Y-79675000D01*
X165205001Y-79675000D01*
X165205001Y-79675000D01*
X165205001Y-79675000D01*
X165205001Y-79675001D01*
X165205001Y-79675001D01*
X165205001Y-79675001D01*
X165205001Y-79675001D01*
X165205001Y-79675001D01*
X165205001Y-79675001D01*
X165205001Y-79675001D01*
X165205000Y-79675001D01*
X165205000Y-79675001D01*
X165205000Y-79675001D01*
X165205000Y-79675001D01*
X165205000Y-79675001D01*
X165205000Y-79675001D01*
X165205000Y-79675001D01*
X165205000Y-79675001D01*
X165205000Y-79675001D01*
X165205000Y-79675001D01*
X165205000Y-79675001D01*
X165205000Y-79675001D01*
X165204999Y-79675001D01*
X165204999Y-79675001D01*
X165204999Y-79675001D01*
X165204999Y-79675001D01*
X165204999Y-79675001D01*
X165204999Y-79675001D01*
X165204999Y-79675000D01*
X165204999Y-79675000D01*
X165204999Y-79675000D01*
X165204999Y-79675000D01*
X165204999Y-79675000D01*
X165204999Y-79675000D01*
X165205000Y-79675000D01*
D18*
D19*
X165305000Y-79675000D02*
X165304999Y-79675000D01*
X165304999Y-79675000D01*
X165304999Y-79675000D01*
X165304999Y-79675000D01*
X165304999Y-79675000D01*
X165304999Y-79675000D01*
X165304999Y-79675000D01*
X165304999Y-79674999D01*
X165304999Y-79674999D01*
X165304999Y-79674999D01*
X165304999Y-79674999D01*
X165304999Y-79674999D01*
X165305000Y-79674999D01*
X165305000Y-79674999D01*
X165305000Y-79674999D01*
X165305000Y-79674999D01*
X165305000Y-79674999D01*
X165305000Y-79674999D01*
X165305000Y-79674999D01*
X165305000Y-79674999D01*
X165305000Y-79674999D01*
X165305000Y-79674999D01*
X165305000Y-79674999D01*
X165305000Y-79674999D01*
X165305001Y-79674999D01*
X165305001Y-79674999D01*
X165305001Y-79674999D01*
X165305001Y-79674999D01*
X165305001Y-79674999D01*
X165305001Y-79674999D01*
X165305001Y-79675000D01*
X165305001Y-79675000D01*
X165305001Y-79675000D01*
X165305001Y-79675000D01*
X165305001Y-79675000D01*
X165305001Y-79675000D01*
X165305001Y-79675000D01*
X165305000Y-79675000D01*
X165305000Y-79675000D02*
X165305001Y-79675000D01*
X165305001Y-79675000D01*
X165305001Y-79675000D01*
X165305001Y-79675000D01*
X165305001Y-79675000D01*
X165305001Y-79675000D01*
X165305001Y-79675001D01*
X165305001Y-79675001D01*
X165305001Y-79675001D01*
X165305001Y-79675001D01*
X165305001Y-79675001D01*
X165305001Y-79675001D01*
X165305001Y-79675001D01*
X165305000Y-79675001D01*
X165305000Y-79675001D01*
X165305000Y-79675001D01*
X165305000Y-79675001D01*
X165305000Y-79675001D01*
X165305000Y-79675001D01*
X165305000Y-79675001D01*
X165305000Y-79675001D01*
X165305000Y-79675001D01*
X165305000Y-79675001D01*
X165305000Y-79675001D01*
X165305000Y-79675001D01*
X165304999Y-79675001D01*
X165304999Y-79675001D01*
X165304999Y-79675001D01*
X165304999Y-79675001D01*
X165304999Y-79675001D01*
X165304999Y-79675001D01*
X165304999Y-79675000D01*
X165304999Y-79675000D01*
X165304999Y-79675000D01*
X165304999Y-79675000D01*
X165304999Y-79675000D01*
X165304999Y-79675000D01*
X165305000Y-79675000D01*
D18*
X165705000Y-82375000D02*
X165705000Y-81775000D01*
X165205000Y-79675000D02*
G75*
G02*
X165305000Y-79675000I50000J0D01*
G01*
X165305000Y-79675000D02*
G75*
G02*
X165205000Y-79675000I-50000J0D01*
G01*
%TO.C,Q14*%
X168980000Y-93575000D02*
X168980000Y-93075000D01*
D19*
X173480000Y-90875000D02*
X173479999Y-90875000D01*
X173479999Y-90875000D01*
X173479999Y-90875000D01*
X173479999Y-90875000D01*
X173479999Y-90875000D01*
X173479999Y-90875000D01*
X173479999Y-90875000D01*
X173479999Y-90874999D01*
X173479999Y-90874999D01*
X173479999Y-90874999D01*
X173479999Y-90874999D01*
X173479999Y-90874999D01*
X173480000Y-90874999D01*
X173480000Y-90874999D01*
X173480000Y-90874999D01*
X173480000Y-90874999D01*
X173480000Y-90874999D01*
X173480000Y-90874999D01*
X173480000Y-90874999D01*
X173480000Y-90874999D01*
X173480000Y-90874999D01*
X173480000Y-90874999D01*
X173480000Y-90874999D01*
X173480000Y-90874999D01*
X173480001Y-90874999D01*
X173480001Y-90874999D01*
X173480001Y-90874999D01*
X173480001Y-90874999D01*
X173480001Y-90874999D01*
X173480001Y-90874999D01*
X173480001Y-90875000D01*
X173480001Y-90875000D01*
X173480001Y-90875000D01*
X173480001Y-90875000D01*
X173480001Y-90875000D01*
X173480001Y-90875000D01*
X173480001Y-90875000D01*
X173480000Y-90875000D01*
X173480000Y-90875000D02*
X173480001Y-90875000D01*
X173480001Y-90875000D01*
X173480001Y-90875000D01*
X173480001Y-90875000D01*
X173480001Y-90875000D01*
X173480001Y-90875000D01*
X173480001Y-90875001D01*
X173480001Y-90875001D01*
X173480001Y-90875001D01*
X173480001Y-90875001D01*
X173480001Y-90875001D01*
X173480001Y-90875001D01*
X173480001Y-90875001D01*
X173480000Y-90875001D01*
X173480000Y-90875001D01*
X173480000Y-90875001D01*
X173480000Y-90875001D01*
X173480000Y-90875001D01*
X173480000Y-90875001D01*
X173480000Y-90875001D01*
X173480000Y-90875001D01*
X173480000Y-90875001D01*
X173480000Y-90875001D01*
X173480000Y-90875001D01*
X173480000Y-90875001D01*
X173479999Y-90875001D01*
X173479999Y-90875001D01*
X173479999Y-90875001D01*
X173479999Y-90875001D01*
X173479999Y-90875001D01*
X173479999Y-90875001D01*
X173479999Y-90875000D01*
X173479999Y-90875000D01*
X173479999Y-90875000D01*
X173479999Y-90875000D01*
X173479999Y-90875000D01*
X173479999Y-90875000D01*
X173480000Y-90875000D01*
D18*
D19*
X173580000Y-90875000D02*
X173579999Y-90875000D01*
X173579999Y-90875000D01*
X173579999Y-90875000D01*
X173579999Y-90875000D01*
X173579999Y-90875000D01*
X173579999Y-90875000D01*
X173579999Y-90875000D01*
X173579999Y-90874999D01*
X173579999Y-90874999D01*
X173579999Y-90874999D01*
X173579999Y-90874999D01*
X173579999Y-90874999D01*
X173580000Y-90874999D01*
X173580000Y-90874999D01*
X173580000Y-90874999D01*
X173580000Y-90874999D01*
X173580000Y-90874999D01*
X173580000Y-90874999D01*
X173580000Y-90874999D01*
X173580000Y-90874999D01*
X173580000Y-90874999D01*
X173580000Y-90874999D01*
X173580000Y-90874999D01*
X173580000Y-90874999D01*
X173580001Y-90874999D01*
X173580001Y-90874999D01*
X173580001Y-90874999D01*
X173580001Y-90874999D01*
X173580001Y-90874999D01*
X173580001Y-90874999D01*
X173580001Y-90875000D01*
X173580001Y-90875000D01*
X173580001Y-90875000D01*
X173580001Y-90875000D01*
X173580001Y-90875000D01*
X173580001Y-90875000D01*
X173580001Y-90875000D01*
X173580000Y-90875000D01*
X173580000Y-90875000D02*
X173580001Y-90875000D01*
X173580001Y-90875000D01*
X173580001Y-90875000D01*
X173580001Y-90875000D01*
X173580001Y-90875000D01*
X173580001Y-90875000D01*
X173580001Y-90875001D01*
X173580001Y-90875001D01*
X173580001Y-90875001D01*
X173580001Y-90875001D01*
X173580001Y-90875001D01*
X173580001Y-90875001D01*
X173580001Y-90875001D01*
X173580000Y-90875001D01*
X173580000Y-90875001D01*
X173580000Y-90875001D01*
X173580000Y-90875001D01*
X173580000Y-90875001D01*
X173580000Y-90875001D01*
X173580000Y-90875001D01*
X173580000Y-90875001D01*
X173580000Y-90875001D01*
X173580000Y-90875001D01*
X173580000Y-90875001D01*
X173580000Y-90875001D01*
X173579999Y-90875001D01*
X173579999Y-90875001D01*
X173579999Y-90875001D01*
X173579999Y-90875001D01*
X173579999Y-90875001D01*
X173579999Y-90875001D01*
X173579999Y-90875000D01*
X173579999Y-90875000D01*
X173579999Y-90875000D01*
X173579999Y-90875000D01*
X173579999Y-90875000D01*
X173579999Y-90875000D01*
X173580000Y-90875000D01*
D18*
X173980000Y-93575000D02*
X173980000Y-92975000D01*
X173480000Y-90875000D02*
G75*
G02*
X173580000Y-90875000I50000J0D01*
G01*
X173580000Y-90875000D02*
G75*
G02*
X173480000Y-90875000I-50000J0D01*
G01*
%TO.C,Q21*%
X160745000Y-104775000D02*
X160745000Y-104275000D01*
D19*
X165245000Y-102075000D02*
X165244999Y-102075000D01*
X165244999Y-102075000D01*
X165244999Y-102075000D01*
X165244999Y-102075000D01*
X165244999Y-102075000D01*
X165244999Y-102075000D01*
X165244999Y-102075000D01*
X165244999Y-102074999D01*
X165244999Y-102074999D01*
X165244999Y-102074999D01*
X165244999Y-102074999D01*
X165244999Y-102074999D01*
X165245000Y-102074999D01*
X165245000Y-102074999D01*
X165245000Y-102074999D01*
X165245000Y-102074999D01*
X165245000Y-102074999D01*
X165245000Y-102074999D01*
X165245000Y-102074999D01*
X165245000Y-102074999D01*
X165245000Y-102074999D01*
X165245000Y-102074999D01*
X165245000Y-102074999D01*
X165245000Y-102074999D01*
X165245001Y-102074999D01*
X165245001Y-102074999D01*
X165245001Y-102074999D01*
X165245001Y-102074999D01*
X165245001Y-102074999D01*
X165245001Y-102074999D01*
X165245001Y-102075000D01*
X165245001Y-102075000D01*
X165245001Y-102075000D01*
X165245001Y-102075000D01*
X165245001Y-102075000D01*
X165245001Y-102075000D01*
X165245001Y-102075000D01*
X165245000Y-102075000D01*
X165245000Y-102075000D02*
X165245001Y-102075000D01*
X165245001Y-102075000D01*
X165245001Y-102075000D01*
X165245001Y-102075000D01*
X165245001Y-102075000D01*
X165245001Y-102075000D01*
X165245001Y-102075001D01*
X165245001Y-102075001D01*
X165245001Y-102075001D01*
X165245001Y-102075001D01*
X165245001Y-102075001D01*
X165245001Y-102075001D01*
X165245001Y-102075001D01*
X165245000Y-102075001D01*
X165245000Y-102075001D01*
X165245000Y-102075001D01*
X165245000Y-102075001D01*
X165245000Y-102075001D01*
X165245000Y-102075001D01*
X165245000Y-102075001D01*
X165245000Y-102075001D01*
X165245000Y-102075001D01*
X165245000Y-102075001D01*
X165245000Y-102075001D01*
X165245000Y-102075001D01*
X165244999Y-102075001D01*
X165244999Y-102075001D01*
X165244999Y-102075001D01*
X165244999Y-102075001D01*
X165244999Y-102075001D01*
X165244999Y-102075001D01*
X165244999Y-102075000D01*
X165244999Y-102075000D01*
X165244999Y-102075000D01*
X165244999Y-102075000D01*
X165244999Y-102075000D01*
X165244999Y-102075000D01*
X165245000Y-102075000D01*
D18*
D19*
X165345000Y-102075000D02*
X165344999Y-102075000D01*
X165344999Y-102075000D01*
X165344999Y-102075000D01*
X165344999Y-102075000D01*
X165344999Y-102075000D01*
X165344999Y-102075000D01*
X165344999Y-102075000D01*
X165344999Y-102074999D01*
X165344999Y-102074999D01*
X165344999Y-102074999D01*
X165344999Y-102074999D01*
X165344999Y-102074999D01*
X165345000Y-102074999D01*
X165345000Y-102074999D01*
X165345000Y-102074999D01*
X165345000Y-102074999D01*
X165345000Y-102074999D01*
X165345000Y-102074999D01*
X165345000Y-102074999D01*
X165345000Y-102074999D01*
X165345000Y-102074999D01*
X165345000Y-102074999D01*
X165345000Y-102074999D01*
X165345000Y-102074999D01*
X165345001Y-102074999D01*
X165345001Y-102074999D01*
X165345001Y-102074999D01*
X165345001Y-102074999D01*
X165345001Y-102074999D01*
X165345001Y-102074999D01*
X165345001Y-102075000D01*
X165345001Y-102075000D01*
X165345001Y-102075000D01*
X165345001Y-102075000D01*
X165345001Y-102075000D01*
X165345001Y-102075000D01*
X165345001Y-102075000D01*
X165345000Y-102075000D01*
X165345000Y-102075000D02*
X165345001Y-102075000D01*
X165345001Y-102075000D01*
X165345001Y-102075000D01*
X165345001Y-102075000D01*
X165345001Y-102075000D01*
X165345001Y-102075000D01*
X165345001Y-102075001D01*
X165345001Y-102075001D01*
X165345001Y-102075001D01*
X165345001Y-102075001D01*
X165345001Y-102075001D01*
X165345001Y-102075001D01*
X165345001Y-102075001D01*
X165345000Y-102075001D01*
X165345000Y-102075001D01*
X165345000Y-102075001D01*
X165345000Y-102075001D01*
X165345000Y-102075001D01*
X165345000Y-102075001D01*
X165345000Y-102075001D01*
X165345000Y-102075001D01*
X165345000Y-102075001D01*
X165345000Y-102075001D01*
X165345000Y-102075001D01*
X165345000Y-102075001D01*
X165344999Y-102075001D01*
X165344999Y-102075001D01*
X165344999Y-102075001D01*
X165344999Y-102075001D01*
X165344999Y-102075001D01*
X165344999Y-102075001D01*
X165344999Y-102075000D01*
X165344999Y-102075000D01*
X165344999Y-102075000D01*
X165344999Y-102075000D01*
X165344999Y-102075000D01*
X165344999Y-102075000D01*
X165345000Y-102075000D01*
D18*
X165745000Y-104775000D02*
X165745000Y-104175000D01*
X165245000Y-102075000D02*
G75*
G02*
X165345000Y-102075000I50000J0D01*
G01*
X165345000Y-102075000D02*
G75*
G02*
X165245000Y-102075000I-50000J0D01*
G01*
%TO.C,Q18*%
X152435000Y-109725000D02*
X152435000Y-110325000D01*
D19*
X152835000Y-112425000D02*
X152834999Y-112425000D01*
X152834999Y-112425000D01*
X152834999Y-112425000D01*
X152834999Y-112425000D01*
X152834999Y-112425000D01*
X152834999Y-112425000D01*
X152834999Y-112425000D01*
X152834999Y-112424999D01*
X152834999Y-112424999D01*
X152834999Y-112424999D01*
X152834999Y-112424999D01*
X152834999Y-112424999D01*
X152835000Y-112424999D01*
X152835000Y-112424999D01*
X152835000Y-112424999D01*
X152835000Y-112424999D01*
X152835000Y-112424999D01*
X152835000Y-112424999D01*
X152835000Y-112424999D01*
X152835000Y-112424999D01*
X152835000Y-112424999D01*
X152835000Y-112424999D01*
X152835000Y-112424999D01*
X152835000Y-112424999D01*
X152835001Y-112424999D01*
X152835001Y-112424999D01*
X152835001Y-112424999D01*
X152835001Y-112424999D01*
X152835001Y-112424999D01*
X152835001Y-112424999D01*
X152835001Y-112425000D01*
X152835001Y-112425000D01*
X152835001Y-112425000D01*
X152835001Y-112425000D01*
X152835001Y-112425000D01*
X152835001Y-112425000D01*
X152835001Y-112425000D01*
X152835000Y-112425000D01*
X152835000Y-112425000D02*
X152835001Y-112425000D01*
X152835001Y-112425000D01*
X152835001Y-112425000D01*
X152835001Y-112425000D01*
X152835001Y-112425000D01*
X152835001Y-112425000D01*
X152835001Y-112425001D01*
X152835001Y-112425001D01*
X152835001Y-112425001D01*
X152835001Y-112425001D01*
X152835001Y-112425001D01*
X152835001Y-112425001D01*
X152835001Y-112425001D01*
X152835000Y-112425001D01*
X152835000Y-112425001D01*
X152835000Y-112425001D01*
X152835000Y-112425001D01*
X152835000Y-112425001D01*
X152835000Y-112425001D01*
X152835000Y-112425001D01*
X152835000Y-112425001D01*
X152835000Y-112425001D01*
X152835000Y-112425001D01*
X152835000Y-112425001D01*
X152835000Y-112425001D01*
X152834999Y-112425001D01*
X152834999Y-112425001D01*
X152834999Y-112425001D01*
X152834999Y-112425001D01*
X152834999Y-112425001D01*
X152834999Y-112425001D01*
X152834999Y-112425000D01*
X152834999Y-112425000D01*
X152834999Y-112425000D01*
X152834999Y-112425000D01*
X152834999Y-112425000D01*
X152834999Y-112425000D01*
X152835000Y-112425000D01*
D18*
D19*
X152935000Y-112425000D02*
X152934999Y-112425000D01*
X152934999Y-112425000D01*
X152934999Y-112425000D01*
X152934999Y-112425000D01*
X152934999Y-112425000D01*
X152934999Y-112425000D01*
X152934999Y-112425000D01*
X152934999Y-112424999D01*
X152934999Y-112424999D01*
X152934999Y-112424999D01*
X152934999Y-112424999D01*
X152934999Y-112424999D01*
X152935000Y-112424999D01*
X152935000Y-112424999D01*
X152935000Y-112424999D01*
X152935000Y-112424999D01*
X152935000Y-112424999D01*
X152935000Y-112424999D01*
X152935000Y-112424999D01*
X152935000Y-112424999D01*
X152935000Y-112424999D01*
X152935000Y-112424999D01*
X152935000Y-112424999D01*
X152935000Y-112424999D01*
X152935001Y-112424999D01*
X152935001Y-112424999D01*
X152935001Y-112424999D01*
X152935001Y-112424999D01*
X152935001Y-112424999D01*
X152935001Y-112424999D01*
X152935001Y-112425000D01*
X152935001Y-112425000D01*
X152935001Y-112425000D01*
X152935001Y-112425000D01*
X152935001Y-112425000D01*
X152935001Y-112425000D01*
X152935001Y-112425000D01*
X152935000Y-112425000D01*
X152935000Y-112425000D02*
X152935001Y-112425000D01*
X152935001Y-112425000D01*
X152935001Y-112425000D01*
X152935001Y-112425000D01*
X152935001Y-112425000D01*
X152935001Y-112425000D01*
X152935001Y-112425001D01*
X152935001Y-112425001D01*
X152935001Y-112425001D01*
X152935001Y-112425001D01*
X152935001Y-112425001D01*
X152935001Y-112425001D01*
X152935001Y-112425001D01*
X152935000Y-112425001D01*
X152935000Y-112425001D01*
X152935000Y-112425001D01*
X152935000Y-112425001D01*
X152935000Y-112425001D01*
X152935000Y-112425001D01*
X152935000Y-112425001D01*
X152935000Y-112425001D01*
X152935000Y-112425001D01*
X152935000Y-112425001D01*
X152935000Y-112425001D01*
X152935000Y-112425001D01*
X152934999Y-112425001D01*
X152934999Y-112425001D01*
X152934999Y-112425001D01*
X152934999Y-112425001D01*
X152934999Y-112425001D01*
X152934999Y-112425001D01*
X152934999Y-112425000D01*
X152934999Y-112425000D01*
X152934999Y-112425000D01*
X152934999Y-112425000D01*
X152934999Y-112425000D01*
X152934999Y-112425000D01*
X152935000Y-112425000D01*
D18*
X157435000Y-109725000D02*
X157435000Y-110225000D01*
X152835000Y-112425000D02*
G75*
G02*
X152935000Y-112425000I50000J0D01*
G01*
X152935000Y-112425000D02*
G75*
G02*
X152835000Y-112425000I-50000J0D01*
G01*
%TO.C,R53*%
D17*
X175240000Y-111088641D02*
X175240000Y-110781359D01*
X176000000Y-111088641D02*
X176000000Y-110781359D01*
%TO.C,C34*%
X108129420Y-94512500D02*
X108410580Y-94512500D01*
X108129420Y-95532500D02*
X108410580Y-95532500D01*
%TO.C,R38*%
X150395000Y-100018641D02*
X150395000Y-99711359D01*
X151155000Y-100018641D02*
X151155000Y-99711359D01*
%TO.C,C37*%
X126360000Y-94388748D02*
X126360000Y-95811252D01*
X128180000Y-94388748D02*
X128180000Y-95811252D01*
%TO.C,R46*%
X176266359Y-91545000D02*
X176573641Y-91545000D01*
X176266359Y-92305000D02*
X176573641Y-92305000D01*
%TO.C,Q23*%
D18*
X152420000Y-98525000D02*
X152420000Y-99125000D01*
D19*
X152820000Y-101225000D02*
X152819999Y-101225000D01*
X152819999Y-101225000D01*
X152819999Y-101225000D01*
X152819999Y-101225000D01*
X152819999Y-101225000D01*
X152819999Y-101225000D01*
X152819999Y-101225000D01*
X152819999Y-101224999D01*
X152819999Y-101224999D01*
X152819999Y-101224999D01*
X152819999Y-101224999D01*
X152819999Y-101224999D01*
X152820000Y-101224999D01*
X152820000Y-101224999D01*
X152820000Y-101224999D01*
X152820000Y-101224999D01*
X152820000Y-101224999D01*
X152820000Y-101224999D01*
X152820000Y-101224999D01*
X152820000Y-101224999D01*
X152820000Y-101224999D01*
X152820000Y-101224999D01*
X152820000Y-101224999D01*
X152820000Y-101224999D01*
X152820001Y-101224999D01*
X152820001Y-101224999D01*
X152820001Y-101224999D01*
X152820001Y-101224999D01*
X152820001Y-101224999D01*
X152820001Y-101224999D01*
X152820001Y-101225000D01*
X152820001Y-101225000D01*
X152820001Y-101225000D01*
X152820001Y-101225000D01*
X152820001Y-101225000D01*
X152820001Y-101225000D01*
X152820001Y-101225000D01*
X152820000Y-101225000D01*
X152820000Y-101225000D02*
X152820001Y-101225000D01*
X152820001Y-101225000D01*
X152820001Y-101225000D01*
X152820001Y-101225000D01*
X152820001Y-101225000D01*
X152820001Y-101225000D01*
X152820001Y-101225001D01*
X152820001Y-101225001D01*
X152820001Y-101225001D01*
X152820001Y-101225001D01*
X152820001Y-101225001D01*
X152820001Y-101225001D01*
X152820001Y-101225001D01*
X152820000Y-101225001D01*
X152820000Y-101225001D01*
X152820000Y-101225001D01*
X152820000Y-101225001D01*
X152820000Y-101225001D01*
X152820000Y-101225001D01*
X152820000Y-101225001D01*
X152820000Y-101225001D01*
X152820000Y-101225001D01*
X152820000Y-101225001D01*
X152820000Y-101225001D01*
X152820000Y-101225001D01*
X152819999Y-101225001D01*
X152819999Y-101225001D01*
X152819999Y-101225001D01*
X152819999Y-101225001D01*
X152819999Y-101225001D01*
X152819999Y-101225001D01*
X152819999Y-101225000D01*
X152819999Y-101225000D01*
X152819999Y-101225000D01*
X152819999Y-101225000D01*
X152819999Y-101225000D01*
X152819999Y-101225000D01*
X152820000Y-101225000D01*
D18*
D19*
X152920000Y-101225000D02*
X152919999Y-101225000D01*
X152919999Y-101225000D01*
X152919999Y-101225000D01*
X152919999Y-101225000D01*
X152919999Y-101225000D01*
X152919999Y-101225000D01*
X152919999Y-101225000D01*
X152919999Y-101224999D01*
X152919999Y-101224999D01*
X152919999Y-101224999D01*
X152919999Y-101224999D01*
X152919999Y-101224999D01*
X152920000Y-101224999D01*
X152920000Y-101224999D01*
X152920000Y-101224999D01*
X152920000Y-101224999D01*
X152920000Y-101224999D01*
X152920000Y-101224999D01*
X152920000Y-101224999D01*
X152920000Y-101224999D01*
X152920000Y-101224999D01*
X152920000Y-101224999D01*
X152920000Y-101224999D01*
X152920000Y-101224999D01*
X152920001Y-101224999D01*
X152920001Y-101224999D01*
X152920001Y-101224999D01*
X152920001Y-101224999D01*
X152920001Y-101224999D01*
X152920001Y-101224999D01*
X152920001Y-101225000D01*
X152920001Y-101225000D01*
X152920001Y-101225000D01*
X152920001Y-101225000D01*
X152920001Y-101225000D01*
X152920001Y-101225000D01*
X152920001Y-101225000D01*
X152920000Y-101225000D01*
X152920000Y-101225000D02*
X152920001Y-101225000D01*
X152920001Y-101225000D01*
X152920001Y-101225000D01*
X152920001Y-101225000D01*
X152920001Y-101225000D01*
X152920001Y-101225000D01*
X152920001Y-101225001D01*
X152920001Y-101225001D01*
X152920001Y-101225001D01*
X152920001Y-101225001D01*
X152920001Y-101225001D01*
X152920001Y-101225001D01*
X152920001Y-101225001D01*
X152920000Y-101225001D01*
X152920000Y-101225001D01*
X152920000Y-101225001D01*
X152920000Y-101225001D01*
X152920000Y-101225001D01*
X152920000Y-101225001D01*
X152920000Y-101225001D01*
X152920000Y-101225001D01*
X152920000Y-101225001D01*
X152920000Y-101225001D01*
X152920000Y-101225001D01*
X152920000Y-101225001D01*
X152919999Y-101225001D01*
X152919999Y-101225001D01*
X152919999Y-101225001D01*
X152919999Y-101225001D01*
X152919999Y-101225001D01*
X152919999Y-101225001D01*
X152919999Y-101225000D01*
X152919999Y-101225000D01*
X152919999Y-101225000D01*
X152919999Y-101225000D01*
X152919999Y-101225000D01*
X152919999Y-101225000D01*
X152920000Y-101225000D01*
D18*
X157420000Y-98525000D02*
X157420000Y-99025000D01*
X152820000Y-101225000D02*
G75*
G02*
X152920000Y-101225000I50000J0D01*
G01*
X152920000Y-101225000D02*
G75*
G02*
X152820000Y-101225000I-50000J0D01*
G01*
%TO.C,C58*%
D17*
X119310580Y-89715000D02*
X119029420Y-89715000D01*
X119310580Y-90735000D02*
X119029420Y-90735000D01*
%TO.C,R54*%
X136372500Y-94162742D02*
X136372500Y-94637258D01*
X137417500Y-94162742D02*
X137417500Y-94637258D01*
%TD*%
M02*
