%TF.GenerationSoftware,KiCad,Pcbnew,10.0.1*%
%TF.CreationDate,2026-05-13T16:39:13+05:30*%
%TF.ProjectId,am32_100a_esc,616d3332-5f31-4303-9061-5f6573632e6b,rev?*%
%TF.SameCoordinates,Original*%
%TF.FileFunction,Other,User*%
%FSLAX46Y46*%
G04 Gerber Fmt 4.6, Leading zero omitted, Abs format (unit mm)*
G04 Created by KiCad (PCBNEW 10.0.1) date 2026-05-13 16:39:13*
%MOMM*%
%LPD*%
G01*
G04 APERTURE LIST*
%ADD10C,0.050000*%
G04 APERTURE END LIST*
%TO.C,BATT+1*%
D10*
X137594214Y-78480000D02*
G75*
G02*
X134765786Y-78480000I-1414214J0D01*
G01*
X134765786Y-78480000D02*
G75*
G02*
X137594214Y-78480000I1414214J0D01*
G01*
%TO.C,BATT+2*%
X138354214Y-115470000D02*
G75*
G02*
X135525786Y-115470000I-1414214J0D01*
G01*
X135525786Y-115470000D02*
G75*
G02*
X138354214Y-115470000I1414214J0D01*
G01*
%TO.C,GND2*%
X130844214Y-115500000D02*
G75*
G02*
X128015786Y-115500000I-1414214J0D01*
G01*
X128015786Y-115500000D02*
G75*
G02*
X130844214Y-115500000I1414214J0D01*
G01*
%TO.C,GND1*%
X132254214Y-92170000D02*
G75*
G02*
X129425786Y-92170000I-1414214J0D01*
G01*
X129425786Y-92170000D02*
G75*
G02*
X132254214Y-92170000I1414214J0D01*
G01*
%TO.C,C56*%
X114775000Y-110200000D02*
X117975000Y-110200000D01*
X117975000Y-114800000D01*
X114775000Y-114800000D01*
X114775000Y-110200000D01*
%TO.C,C63*%
X114775000Y-105525000D02*
X117975000Y-105525000D01*
X117975000Y-110125000D01*
X114775000Y-110125000D01*
X114775000Y-105525000D01*
%TO.C,C59*%
X121890000Y-95545000D02*
X123350000Y-95545000D01*
X123350000Y-98505000D01*
X121890000Y-98505000D01*
X121890000Y-95545000D01*
%TO.C,U6*%
X113140000Y-94882500D02*
X113140000Y-101142500D01*
X113140000Y-101142500D02*
X113520000Y-101142500D01*
X113520000Y-94262500D02*
X113520000Y-94882500D01*
X113520000Y-94882500D02*
X113140000Y-94882500D01*
X113520000Y-101142500D02*
X113520000Y-101762500D01*
X113520000Y-101762500D02*
X114140000Y-101762500D01*
X114140000Y-93882500D02*
X114140000Y-94262500D01*
X114140000Y-94262500D02*
X113520000Y-94262500D01*
X114140000Y-101762500D02*
X114140000Y-102142500D01*
X114140000Y-102142500D02*
X120400000Y-102142500D01*
X120400000Y-93882500D02*
X114140000Y-93882500D01*
X120400000Y-94262500D02*
X120400000Y-93882500D01*
X120400000Y-101762500D02*
X121020000Y-101762500D01*
X120400000Y-102142500D02*
X120400000Y-101762500D01*
X121020000Y-94262500D02*
X120400000Y-94262500D01*
X121020000Y-94882500D02*
X121020000Y-94262500D01*
X121020000Y-101142500D02*
X121400000Y-101142500D01*
X121020000Y-101762500D02*
X121020000Y-101142500D01*
X121400000Y-94882500D02*
X121020000Y-94882500D01*
X121400000Y-101142500D02*
X121400000Y-94882500D01*
%TO.C,R59*%
X117330000Y-92155000D02*
X119190000Y-92155000D01*
X119190000Y-93095000D01*
X117330000Y-93095000D01*
X117330000Y-92155000D01*
%TO.C,C42*%
X122155000Y-106465000D02*
X123975000Y-106465000D01*
X123975000Y-107385000D01*
X122155000Y-107385000D01*
X122155000Y-106465000D01*
%TO.C,C64*%
X118050000Y-105525000D02*
X121250000Y-105525000D01*
X121250000Y-110125000D01*
X118050000Y-110125000D01*
X118050000Y-105525000D01*
%TO.C,C61*%
X128965000Y-95630000D02*
X131925000Y-95630000D01*
X131925000Y-97090000D01*
X128965000Y-97090000D01*
X128965000Y-95630000D01*
%TO.C,C33*%
X139240000Y-105370000D02*
X140700000Y-105370000D01*
X140700000Y-108330000D01*
X139240000Y-108330000D01*
X139240000Y-105370000D01*
%TO.C,C62*%
X128965000Y-94105000D02*
X131925000Y-94105000D01*
X131925000Y-95565000D01*
X128965000Y-95565000D01*
X128965000Y-94105000D01*
%TO.C,C65*%
X118050000Y-110200000D02*
X121250000Y-110200000D01*
X121250000Y-114800000D01*
X118050000Y-114800000D01*
X118050000Y-110200000D01*
%TO.C,C55*%
X111500000Y-110200000D02*
X114700000Y-110200000D01*
X114700000Y-114800000D01*
X111500000Y-114800000D01*
X111500000Y-110200000D01*
%TO.C,U2*%
X110245000Y-80310000D02*
X126895000Y-80310000D01*
X126895000Y-91610000D01*
X110245000Y-91610000D01*
X110245000Y-80310000D01*
%TO.C,C32*%
X137665000Y-105370000D02*
X139125000Y-105370000D01*
X139125000Y-108330000D01*
X137665000Y-108330000D01*
X137665000Y-105370000D01*
%TO.C,C2*%
X126315000Y-109645000D02*
X127775000Y-109645000D01*
X127775000Y-112605000D01*
X126315000Y-112605000D01*
X126315000Y-109645000D01*
%TO.C,R55*%
X136165000Y-94545000D02*
X137625000Y-94545000D01*
X137625000Y-97505000D01*
X136165000Y-97505000D01*
X136165000Y-94545000D01*
%TO.C,R44*%
X136605000Y-104680000D02*
X137545000Y-104680000D01*
X137545000Y-106540000D01*
X136605000Y-106540000D01*
X136605000Y-104680000D01*
%TO.C,C41*%
X122915000Y-108675000D02*
X124875000Y-108675000D01*
X124875000Y-112075000D01*
X122915000Y-112075000D01*
X122915000Y-108675000D01*
%TO.C,C54*%
X111500000Y-105525000D02*
X114700000Y-105525000D01*
X114700000Y-110125000D01*
X111500000Y-110125000D01*
X111500000Y-105525000D01*
%TO.C,R43*%
X129595000Y-98000000D02*
X129595000Y-104000000D01*
X129595000Y-104000000D02*
X141095000Y-104000000D01*
X141095000Y-98000000D02*
X129595000Y-98000000D01*
X141095000Y-104000000D02*
X141095000Y-98000000D01*
%TD*%
M02*
